<svg width="20" height="20" viewBox="0 0 20 20" fill="none" xmlns="http://www.w3.org/2000/svg">
<path d="M8.87793 3.08691C11.138 2.73761 13.3498 3.45107 14.9492 5.0498C16.5486 6.64937 17.2635 8.86308 16.9121 11.1221C16.4669 13.9759 14.1685 16.3417 11.3213 16.876C9.95215 17.1329 8.5556 16.9852 7.28516 16.4482C7.17394 16.4021 7.00776 16.354 6.83594 16.3867L3.83789 16.9863C3.79169 16.9954 3.74569 17 3.7002 17C3.51617 16.9999 3.33733 16.9279 3.20508 16.7949C3.03941 16.6298 2.96762 16.3925 3.01367 16.1631L3.61426 13.1611C3.64085 13.026 3.61964 12.8756 3.55176 12.7139C3.01488 11.4447 2.86643 10.0484 3.12402 8.67773C3.65819 5.83088 6.0243 3.53217 8.87793 3.08691ZM13.96 6.04004C12.6804 4.76039 10.9067 4.18859 9.09375 4.4707C6.8155 4.82574 4.92724 6.66224 4.50098 8.93652C4.29455 10.0354 4.41216 11.1531 4.8418 12.168C5.01889 12.5873 5.06892 13.026 4.98633 13.4355L4.59277 15.4072L6.56055 15.0137C6.69004 14.9878 6.82208 14.9756 6.95508 14.9756C7.24694 14.9756 7.54437 15.0374 7.83203 15.1592C8.84686 15.5889 9.96536 15.7071 11.0635 15.5C13.3377 15.0737 15.1744 13.1841 15.5293 10.9062C15.812 9.09407 15.2399 7.32035 13.96 6.04004ZM7.2002 9.2998C7.58647 9.29993 7.90039 9.61366 7.90039 10C7.90028 10.3862 7.5864 10.7001 7.2002 10.7002C6.81388 10.7002 6.50012 10.3863 6.5 10C6.5 9.61358 6.81381 9.2998 7.2002 9.2998ZM10 9.2998C10.3864 9.2998 10.7002 9.61358 10.7002 10C10.7001 10.3863 10.3863 10.7002 10 10.7002C9.61381 10.7001 9.29992 10.3862 9.2998 10C9.2998 9.61367 9.61374 9.29994 10 9.2998ZM12.7998 9.2998C13.1861 9.29994 13.5 9.61367 13.5 10C13.4999 10.3862 13.186 10.7001 12.7998 10.7002C12.4135 10.7002 12.0997 10.3863 12.0996 10C12.0996 9.61358 12.4134 9.2998 12.7998 9.2998Z" fill="#5C5C5C"/>
</svg>
