<svg width="20" height="20" viewBox="0 0 20 20" fill="none" xmlns="http://www.w3.org/2000/svg">
<path d="M14.9004 3C16.058 3.00022 17 3.99234 17 5.21094V12.5791C16.9999 13.7976 16.058 14.7888 14.9004 14.7891H7.58789C7.46131 14.7891 7.33666 14.8254 7.22754 14.8945L4.06055 16.8945C3.94931 16.9652 3.82473 17 3.7002 17C3.5812 17 3.46159 16.9684 3.35449 16.9043C3.13555 16.7738 3 16.5279 3 16.2627V5.21094C3 3.99234 3.94199 3.00022 5.09961 3H14.9004ZM5.09961 4.47363C4.71403 4.47378 4.39941 4.80503 4.39941 5.21094V14.9619L6.50684 13.6309C6.83371 13.4246 7.20784 13.3154 7.58789 13.3154H14.8994C15.2851 13.3154 15.5995 12.985 15.5996 12.5791V5.21094C15.5996 4.80494 15.2851 4.47363 14.8994 4.47363H5.09961ZM7.2002 8.1582C7.58635 8.1585 7.90039 8.48896 7.90039 8.89551C7.89999 9.3017 7.58611 9.63154 7.2002 9.63184C6.81404 9.63184 6.5004 9.30189 6.5 8.89551C6.5 8.48877 6.8138 8.1582 7.2002 8.1582ZM10 8.1582C10.3862 8.15839 10.7002 8.48889 10.7002 8.89551C10.6998 9.30177 10.386 9.63165 10 9.63184C9.614 9.63165 9.30118 9.30177 9.30078 8.89551C9.30078 8.48889 9.61375 8.15839 10 8.1582ZM12.7998 8.1582C13.1861 8.15839 13.5 8.48889 13.5 8.89551C13.4996 9.30177 13.1858 9.63165 12.7998 9.63184C12.4138 9.63169 12.1 9.3018 12.0996 8.89551C12.0996 8.48886 12.4135 8.15835 12.7998 8.1582Z" fill="#5C5C5C"/>
</svg>
