<svg width="20" height="20" viewBox="0 0 20 20" fill="none" xmlns="http://www.w3.org/2000/svg">
<path fill-rule="evenodd" clip-rule="evenodd" d="M12.1001 9.29997H10.7001V7.89994C10.7001 7.51493 10.3851 7.19992 10.0001 7.19992C9.61507 7.19992 9.30007 7.51493 9.30007 7.89994V9.29997H7.90003C7.51502 9.29997 7.20002 9.61498 7.20002 9.99999C7.20002 10.385 7.51502 10.7 7.90003 10.7H9.30007V12.1C9.30007 12.485 9.61507 12.8001 10.0001 12.8001C10.3851 12.8001 10.7001 12.485 10.7001 12.1V10.7H12.1001C12.4851 10.7 12.8001 10.385 12.8001 9.99999C12.8001 9.61498 12.4851 9.29997 12.1001 9.29997ZM9.99994 15.6001C6.91217 15.6001 4.39981 13.0878 4.39981 9.99998C4.39981 6.91221 6.91217 4.39985 9.99994 4.39985C13.0877 4.39985 15.6001 6.91221 15.6001 9.99998C15.6001 13.0878 13.0877 15.6001 9.99994 15.6001ZM9.99992 2.99982C6.14003 2.99982 2.99976 6.14009 2.99976 9.99998C2.99976 13.8599 6.14003 17.0001 9.99992 17.0001C13.8598 17.0001 17.0001 13.8599 17.0001 9.99998C17.0001 6.14009 13.8598 2.99982 9.99992 2.99982Z" fill="#5C5C5C"/>
</svg>
