<svg width="20" height="20" viewBox="0 0 20 20" fill="none" xmlns="http://www.w3.org/2000/svg">
<path fill-rule="evenodd" clip-rule="evenodd" d="M16.1253 9.12501H10.8753V3.875C10.8753 3.39113 10.4833 3 10.0003 3C9.51725 3 9.12525 3.39113 9.12525 3.875V9.12501H3.87525C3.39224 9.12501 3.00024 9.51613 3.00024 10C3.00024 10.4839 3.39224 10.875 3.87525 10.875H9.12525V16.125C9.12525 16.6089 9.51725 17 10.0003 17C10.4833 17 10.8753 16.6089 10.8753 16.125V10.875H16.1253C16.6083 10.875 17.0003 10.4839 17.0003 10C17.0003 9.51613 16.6083 9.12501 16.1253 9.12501Z" fill="#5C5C5C"/>
</svg>
