<svg width="20" height="20" viewBox="0 0 20 20" fill="none" xmlns="http://www.w3.org/2000/svg">
<path fill-rule="evenodd" clip-rule="evenodd" d="M12.3334 9.22222H10.7778V7.66667C10.7778 7.23889 10.4278 6.88889 10 6.88889C9.57225 6.88889 9.22225 7.23889 9.22225 7.66667V9.22222H7.66669C7.23892 9.22222 6.88892 9.57222 6.88892 10C6.88892 10.4278 7.23892 10.7778 7.66669 10.7778H9.22225V12.3333C9.22225 12.7611 9.57225 13.1111 10 13.1111C10.4278 13.1111 10.7778 12.7611 10.7778 12.3333V10.7778H12.3334C12.7611 10.7778 13.1111 10.4278 13.1111 10C13.1111 9.57222 12.7611 9.22222 12.3334 9.22222ZM15.4443 14.6667C15.4443 15.0952 15.0959 15.4444 14.6665 15.4444H5.3332C4.90386 15.4444 4.55542 15.0952 4.55542 14.6667V5.33333C4.55542 4.90477 4.90386 4.55555 5.3332 4.55555H14.6665C15.0959 4.55555 15.4443 4.90477 15.4443 5.33333V14.6667ZM14.6669 3H5.33358C4.04713 3 3.00024 4.04689 3.00024 5.33333V14.6667C3.00024 15.9531 4.04713 17 5.33358 17H14.6669C15.9534 17 17.0002 15.9531 17.0002 14.6667V5.33333C17.0002 4.04689 15.9534 3 14.6669 3Z" fill="#5C5C5C"/>
</svg>
