<svg width="20" height="20" viewBox="0 0 20 20" fill="none" xmlns="http://www.w3.org/2000/svg">
<path d="M8.50586 4.37793C8.72505 4.01868 9.21428 3.8939 9.59668 4.09863C9.98068 4.30414 10.1137 4.76281 9.89453 5.12207L7.37793 9.25H10.7998C11.0846 9.25 11.349 9.39207 11.4922 9.62305C11.6354 9.85406 11.6357 10.1403 11.4941 10.3721L8.29395 15.6221C8.14679 15.864 7.87696 15.9999 7.59961 16C7.46525 16 7.32789 15.9688 7.20312 15.9014C6.81917 15.6959 6.68617 15.2372 6.90527 14.8779L9.42188 10.75H6C5.7152 10.75 5.45082 10.607 5.30762 10.376C5.16467 10.1451 5.16419 9.85955 5.30566 9.62793L8.50586 4.37793ZM5.98535 6.99902L3.7334 7C3.70038 7.01242 3.59961 7.1282 3.59961 7.32129V12.6787C3.59973 12.872 3.70124 12.9875 3.74121 13.001H7.12793L6.21484 14.5H3.7334C2.7776 14.4999 2.00018 13.6828 2 12.6787V7.32129C2 6.31707 2.77749 5.50011 3.7334 5.5H6.90039L5.98535 6.99902ZM13.0674 5.5C14.0232 5.50018 14.8007 6.31642 14.8008 7.32129V12.6777C14.8008 13.6827 14.0232 14.4998 13.0674 14.5H9.90039L10.8145 13H13.0625C13.1042 12.9825 13.2002 12.8673 13.2002 12.6777V7.32129C13.2002 7.12711 13.0996 7.01252 13.0596 6.99902H9.67188L10.5859 5.5H13.0674ZM17.2002 7.75C17.6417 7.75015 18 8.08608 18 8.5V11.5C17.9999 11.9138 17.6416 12.2499 17.2002 12.25C16.7587 12.25 16.4005 11.9139 16.4004 11.5V8.5C16.4004 8.08598 16.7586 7.75 17.2002 7.75Z" fill="#5C5C5C"/>
</svg>
