<svg width="20" height="20" viewBox="0 0 20 20" fill="none" xmlns="http://www.w3.org/2000/svg">
<path fill-rule="evenodd" clip-rule="evenodd" d="M16.9919 4.22387C16.9919 3.58339 16.4739 3.06191 15.8322 3.05841L6.50741 3.00008H6.50041C5.85877 3.00008 5.33845 3.51806 5.33379 4.1597C5.32912 4.80368 5.84827 5.32983 6.49341 5.33333L12.9775 5.37416L3.34236 15.0081C2.88621 15.4643 2.88621 16.2028 3.34236 16.6578C3.56985 16.8864 3.8685 16.9996 4.16716 16.9996C4.46582 16.9996 4.76447 16.8864 4.99196 16.6578L14.661 6.98877L14.6668 13.5009C14.6668 14.1448 15.1894 14.6663 15.8334 14.6663H15.8346C16.4786 14.6663 17 14.1425 17 13.4985L16.9919 4.22387Z" fill="#5C5C5C"/>
</svg>
