<svg width="20" height="20" viewBox="0 0 20 20" fill="none" xmlns="http://www.w3.org/2000/svg">
<path fill-rule="evenodd" clip-rule="evenodd" d="M14.3329 14.6485L7.90356 10.0026L14.3329 5.4407V14.6485ZM15.5998 3.23612C14.6211 2.8337 13.4651 2.95268 12.6544 3.53939L5.85442 8.4524C5.78376 8.50372 5.72909 8.56438 5.66642 8.62153V4.1681C5.66642 3.52306 5.06909 3.00167 4.33309 3.00167C3.59709 3.00167 2.99976 3.52306 2.99976 4.1681V15.8324C2.99976 16.4763 3.59709 16.9988 4.33309 16.9988C5.06909 16.9988 5.66642 16.4763 5.66642 15.8324V11.3778C5.72909 11.435 5.78376 11.4956 5.85576 11.5469L12.6544 16.4623C13.1451 16.8157 13.7638 17 14.3918 17C14.8011 17 15.2144 16.9218 15.5998 16.7632C16.4638 16.4075 16.9998 15.6983 16.9998 14.9144V5.08608C16.9998 4.30107 16.4638 3.59188 15.5998 3.23612Z" fill="#5C5C5C"/>
</svg>
