<svg width="20" height="20" viewBox="0 0 20 20" fill="none" xmlns="http://www.w3.org/2000/svg">
<path fill-rule="evenodd" clip-rule="evenodd" d="M5.66675 14.5587V5.3509L12.0961 9.99794L5.66675 14.5587ZM15.6669 3.00174C14.9309 3.00174 14.3336 3.52313 14.3336 4.16817V8.62157C14.2709 8.56442 14.2162 8.50493 14.1442 8.45361L7.34558 3.5383C6.53358 2.95275 5.37624 2.83378 4.40024 3.23619C3.53624 3.59312 3.00024 4.30114 3.00024 5.08614V14.9144C3.00024 15.6994 3.53624 16.4075 4.40024 16.7644C4.78558 16.9219 5.19891 17 5.60824 17C6.23624 17 6.85491 16.8169 7.34558 16.4611L14.1456 11.547C14.2162 11.4956 14.2709 11.435 14.3336 11.3778V15.8324C14.3336 16.4774 14.9309 16.9988 15.6669 16.9988C16.4029 16.9988 17.0002 16.4774 17.0002 15.8324V4.16817C17.0002 3.52313 16.4029 3.00174 15.6669 3.00174Z" fill="#5C5C5C"/>
</svg>
