<svg width="20" height="20" viewBox="0 0 20 20" fill="none" xmlns="http://www.w3.org/2000/svg">
<path d="M3.05469 3.22845C3.36656 2.92435 3.87172 2.92435 4.18359 3.22845L5.6377 4.64642L6.875 5.85248L8.83887 7.76752L10.3477 9.2392L16.9453 15.6728C17.256 15.9761 17.2563 16.4684 16.9453 16.7724C16.789 16.9241 16.5841 16.9999 16.3799 16.9999C16.1767 16.9998 15.9726 16.9239 15.8164 16.7724L12.7451 13.7763L10.5166 11.6035L8.33203 9.47357L7.09961 8.27142L5.31738 6.53314L4.15234 5.39838L3.05469 4.32806C2.74365 4.02399 2.74373 3.53179 3.05469 3.22845ZM10 14.666C10.4411 14.666 10.7979 15.0149 10.7979 15.4443C10.7977 15.8735 10.441 16.2216 10 16.2216C9.55904 16.2216 9.20226 15.8735 9.20215 15.4443C9.20215 15.015 9.55897 14.666 10 14.666ZM11.4043 13.5703C10.4934 12.9364 9.15545 12.9964 8.33789 13.7656C8.02203 14.0649 7.51622 14.0556 7.20996 13.746C6.90461 13.4373 6.91289 12.945 7.22949 12.6464C7.82921 12.0811 8.58464 11.7319 9.39648 11.6113L11.4043 13.5703ZM7.53223 9.79291C6.96033 10.0682 6.43166 10.432 5.9834 10.8847C5.67708 11.1939 5.17121 11.2018 4.85547 10.9033C4.5392 10.6053 4.53058 10.1123 4.83594 9.80365C5.28655 9.34796 5.80298 8.96371 6.35645 8.64642L7.53223 9.79291ZM10 7.66595C11.9366 7.66595 13.8193 8.44567 15.1641 9.80365C15.4694 10.1131 15.4617 10.6054 15.1445 10.9033C14.9907 11.0494 14.7901 11.1219 14.5908 11.122C14.382 11.122 14.1729 11.0424 14.0166 10.8847C13.385 10.2462 12.5991 9.77548 11.7441 9.50092L9.87012 7.67279C9.91312 7.67201 9.95621 7.66597 10 7.66595ZM4.62109 6.95404C4.17459 7.25104 3.74706 7.5797 3.35156 7.95209C3.0365 8.25075 2.52992 8.24211 2.22363 7.93256C1.91824 7.62378 1.92654 7.13158 2.24316 6.83295C2.63153 6.46825 3.04869 6.14403 3.47852 5.84076L4.62109 6.95404ZM10 3.77728C12.9097 3.77731 15.6639 4.86309 17.7568 6.83392C18.0733 7.13183 18.0818 7.62483 17.7764 7.93353C17.6201 8.09125 17.4112 8.17084 17.2031 8.17084C17.0037 8.17082 16.8032 8.09829 16.6484 7.95209C14.8538 6.26368 12.4932 5.33297 10 5.33295C9.23189 5.33295 8.47769 5.43235 7.74707 5.60345L6.45898 4.34662C7.58841 3.97951 8.77885 3.77728 10 3.77728Z" fill="#5C5C5C"/>
</svg>
