<svg width="20" height="20" viewBox="0 0 20 20" fill="none" xmlns="http://www.w3.org/2000/svg">
<path d="M10 15.25C10.4411 15.25 10.7979 15.642 10.7979 16.125C10.7978 16.608 10.4411 17 10 17C9.55902 16.9999 9.20215 16.6079 9.20215 16.125C9.20215 15.6421 9.55902 15.2501 10 15.25ZM10 11.75C11.0393 11.75 12.0231 12.1865 12.7705 12.9775C13.087 13.3136 13.0955 13.8675 12.79 14.2148C12.6337 14.3933 12.4248 14.4824 12.2158 14.4824C12.0164 14.4824 11.816 14.4 11.6621 14.2363C10.7648 13.2864 9.23517 13.2864 8.33789 14.2363C8.02284 14.5723 7.51705 14.5631 7.20996 14.2148C6.90453 13.8675 6.91299 13.3136 7.22949 12.9775C7.97686 12.1865 8.96071 11.75 10 11.75ZM10 7.375C11.9366 7.375 13.8195 8.25065 15.165 9.7793C15.4696 10.1276 15.461 10.6815 15.1436 11.0166C14.9897 11.1809 14.79 11.2626 14.5908 11.2627C14.3818 11.2627 14.172 11.1737 14.0156 10.9961C12.97 9.80696 11.5067 9.125 10 9.125C8.49335 9.12503 7.03002 9.80698 5.98438 10.9961C5.67889 11.3434 5.17227 11.3525 4.85645 11.0166C4.53899 10.6815 4.53125 10.1276 4.83594 9.7793C6.18147 8.25084 8.06354 7.37503 10 7.375ZM10 3C12.9096 3.00006 15.664 4.22034 17.7568 6.4375C18.0735 6.77259 18.0817 7.32742 17.7764 7.6748C17.6201 7.85241 17.4113 7.94236 17.2031 7.94238C17.0037 7.94238 16.8032 7.86079 16.6484 7.69629C14.8539 5.79674 12.4932 4.75006 10 4.75C7.50666 4.75 5.14522 5.79664 3.35059 7.69629C3.03551 8.03296 2.52968 8.02299 2.22266 7.6748C1.91834 7.3274 1.92682 6.7725 2.24414 6.4375C4.33704 4.22047 7.09127 3 10 3Z" fill="#5C5C5C"/>
</svg>
