<svg width="20" height="20" viewBox="0 0 20 20" fill="none" xmlns="http://www.w3.org/2000/svg">
<path fill-rule="evenodd" clip-rule="evenodd" d="M11.8322 15.2864C12.5665 14.2378 13.3302 12.6957 13.4828 10.7H15.5513C15.2832 12.8364 13.809 14.599 11.8322 15.2864ZM4.44836 10.7H6.54276C6.68696 12.7034 7.44086 14.2392 8.18496 15.2927C6.19906 14.6088 4.71786 12.8427 4.44836 10.7ZM8.20666 4.7003C7.47026 5.7489 6.69956 7.2959 6.54556 9.3H4.44836C4.71856 7.1496 6.21026 5.3779 8.20666 4.7003ZM7.9552 9.3C8.1694 7.0096 9.3412 5.415 10.0181 4.6779C10.7181 5.4276 11.8717 7.0075 12.0712 9.3H7.9552ZM7.95618 10.7H12.0736C11.8594 12.9939 10.6848 14.5885 10.0086 15.3256C9.27568 14.5486 8.15148 12.9904 7.95618 10.7ZM15.5511 9.30001H13.4847C13.3412 7.30571 12.5957 5.77481 11.8551 4.72271C13.8207 5.41571 15.2844 7.17201 15.5511 9.30001ZM17.0001 10C17.0001 6.1472 13.8704 3.0126 10.0197 3.0014C10.0169 3.0014 10.0141 3.0007 10.0106 3.0007C10.0078 3.0007 10.0036 3 10.0001 3C6.14032 3 3.00012 6.1409 3.00012 10C3.00012 13.8598 6.14032 17 10.0001 17C10.0043 17 10.0078 16.9993 10.0106 16.9993C10.012 16.9993 10.0127 17 10.0141 17C10.0162 17 10.0183 16.9986 10.0197 16.9986C13.8704 16.9881 17.0001 13.8528 17.0001 10Z" fill="#5C5C5C"/>
</svg>
