<svg width="20" height="20" viewBox="0 0 20 20" fill="none" xmlns="http://www.w3.org/2000/svg">
<path fill-rule="evenodd" clip-rule="evenodd" d="M13.4221 14.4227C13.3017 14.1196 13.1309 13.855 12.9811 13.6289C12.9055 13.5155 12.8278 13.4 12.7599 13.281C12.4876 12.8079 12.5814 12.6161 13.0231 11.8762L13.0945 11.7551C13.4522 11.1524 13.4718 10.5743 13.49 10.0647C13.4984 9.81411 13.5068 9.57822 13.5551 9.35633C13.6677 8.84395 14.7506 8.70746 15.4219 8.62696C15.5346 9.06724 15.5997 9.52572 15.5997 10.0003C15.5997 11.7985 14.7443 13.3972 13.4221 14.4227ZM5.07365 12.6595C5.51883 12.7729 6.00111 12.8513 6.49178 12.8513C7.24775 12.8513 8.01981 12.6665 8.68758 12.1436C9.88873 11.2043 9.88873 10.0031 9.88873 9.03717C9.88873 8.4128 9.88873 7.87452 10.1491 7.39644C10.2891 7.14026 10.5873 6.96246 10.9324 6.75597C11.1438 6.62928 11.3629 6.49909 11.5728 6.33389C12.0229 5.98181 12.3575 5.52893 12.5647 5.02775C13.5447 5.53523 14.3566 6.32129 14.8928 7.28375C13.8932 7.42234 12.4744 7.74993 12.1881 9.05677C12.1125 9.40255 12.1006 9.72804 12.0915 10.0157C12.0768 10.4238 12.0656 10.7465 11.8906 11.0419L11.8206 11.1595C11.3678 11.9175 10.8554 12.7771 11.5462 13.9789C11.6295 14.1245 11.7226 14.2645 11.8143 14.4038C12.0551 14.765 12.1734 14.9645 12.1741 15.1605C11.5057 15.4433 10.7707 15.6001 10 15.6001C7.87422 15.6001 6.02211 14.4087 5.07365 12.6595ZM9.99995 4.4006C10.4311 4.4006 10.8476 4.4538 11.2508 4.5462C11.1325 4.80658 10.9498 5.04387 10.709 5.23216C10.5564 5.35256 10.3849 5.45265 10.2148 5.55415C9.75916 5.82574 9.24328 6.13372 8.9199 6.72589C8.48871 7.51686 8.48872 8.32462 8.48872 9.03719C8.48872 9.98564 8.45792 10.5463 7.82515 11.0412C6.86689 11.7923 5.40046 11.373 4.4933 10.9915C4.4359 10.6688 4.4002 10.3384 4.4002 10.0003C4.4002 6.91279 6.91239 4.4006 9.99995 4.4006ZM9.99992 3.00067C6.1403 3.00067 3.00024 6.14073 3.00024 10.0003C3.00024 13.8593 6.1403 17 9.99992 17C13.8595 17 16.9996 13.8593 16.9996 10.0003C16.9996 6.14073 13.8595 3.00067 9.99992 3.00067Z" fill="#5C5C5C"/>
</svg>
