<svg width="20" height="20" viewBox="0 0 20 20" fill="none" xmlns="http://www.w3.org/2000/svg">
<path d="M12.2841 5.31995C12.5712 4.9575 13.1002 4.89252 13.4657 5.17737C13.8327 5.46062 13.8971 5.98466 13.6102 6.34631L7.0155 14.6803C6.85729 14.8808 6.61494 14.9978 6.35925 14.9996H6.35242C6.09746 14.9995 5.85691 14.8856 5.69617 14.6891L2.18542 10.3737C1.89516 10.0162 1.95159 9.49188 2.31433 9.20276C2.67631 8.91369 3.20482 8.97154 3.49792 9.32874L6.34363 12.8268L12.2841 5.31995ZM16.495 5.31995C16.7822 4.95749 17.3103 4.89238 17.6766 5.17737C18.0436 5.46071 18.1072 5.98472 17.8202 6.34631L11.2255 14.6803C11.0672 14.8808 10.825 14.9979 10.5692 14.9996H10.5634C10.3082 14.9996 10.067 14.8858 9.90613 14.6891L8.98035 13.5494L10.0458 12.2028L10.5536 12.8268L16.495 5.31995ZM6.52429 9.20178C6.88719 8.91358 7.41653 8.97152 7.70789 9.32971L7.87781 9.53674L6.81042 10.8834L6.39636 10.3746C6.105 10.0163 6.16136 9.49095 6.52429 9.20178Z" fill="#5C5C5C"/>
</svg>
