<svg width="20" height="20" viewBox="0 0 20 20" fill="none" xmlns="http://www.w3.org/2000/svg">
<path fill-rule="evenodd" clip-rule="evenodd" d="M9.42757 12.1662C8.23475 12.1662 7.26384 11.1951 7.26384 10.002C7.26384 8.80894 8.23475 7.83783 9.42757 7.83783C10.6204 7.83783 11.5913 8.80894 11.5913 10.002C11.5913 11.1951 10.6204 12.1662 9.42757 12.1662ZM10.6685 3.03128C8.5678 2.83383 6.51327 3.5781 5.03415 5.06802C3.55433 6.55724 2.82562 8.61779 3.03562 10.7203C3.28623 13.2213 4.86195 15.3988 7.14888 16.4021C8.0638 16.8033 9.03401 17 9.99722 17C11.5148 17 13.0164 16.5106 14.2561 15.5612C14.5634 15.3259 14.6215 14.8862 14.3863 14.5789C14.1511 14.2729 13.7122 14.2148 13.4049 14.4493C11.7822 15.6921 9.60102 15.947 7.71099 15.1194C5.91337 14.331 4.62605 12.5498 4.42864 10.5803C4.26064 8.89645 4.84305 7.24689 6.02747 6.05453C7.21048 4.86287 8.85691 4.26634 10.539 4.42598C13.3776 4.68994 15.6001 7.20838 15.6001 10.1595V10.6321C15.6001 10.9598 15.4699 11.2651 15.2326 11.4919C14.996 11.7188 14.6824 11.835 14.3555 11.821C13.7297 11.7937 13.2201 11.2048 13.2201 10.5089V7.48144C13.2201 7.09426 12.9072 6.78129 12.5201 6.78129C12.1638 6.78129 11.8823 7.04945 11.8375 7.39392C11.2019 6.80579 10.3591 6.43751 9.42741 6.43751C7.46249 6.43751 5.86366 8.03736 5.86366 10.002C5.86366 11.9673 7.46249 13.5665 9.42741 13.5665C10.6174 13.5665 11.6667 12.9741 12.3143 12.0751C12.7658 12.7333 13.4819 13.1842 14.2939 13.2199C15.003 13.2577 15.6848 12.9972 16.2007 12.5036C16.7166 12.01 17.0001 11.3456 17.0001 10.6321V10.1595C17.0001 6.49283 14.2197 3.36245 10.6685 3.03128Z" fill="#5C5C5C"/>
</svg>
