<svg width="20" height="20" viewBox="0 0 20 20" fill="none" xmlns="http://www.w3.org/2000/svg">
<path fill-rule="evenodd" clip-rule="evenodd" d="M9.43431 12.3686C9.59032 12.5392 9.79512 12.625 9.99992 12.625C10.2047 12.625 10.4095 12.5392 10.5655 12.3686L11.6 11.2372L12.6344 12.3686C12.7904 12.5392 12.9952 12.625 13.2 12.625C13.4048 12.625 13.6096 12.5392 13.7656 12.3686C14.0784 12.0265 14.0784 11.4735 13.7656 11.1314L12.7312 9.99998L13.7656 8.86861C14.0784 8.52648 14.0784 7.97348 13.7656 7.63136C13.4528 7.28923 12.9472 7.28923 12.6344 7.63136L11.6 8.76273L10.5655 7.63136C10.2527 7.28923 9.74712 7.28923 9.43431 7.63136C9.12151 7.97348 9.12151 8.52648 9.43431 8.86861L10.4687 9.99998L9.43431 11.1314C9.12151 11.4735 9.12151 12.0265 9.43431 12.3686ZM16.3996 15.25H8.69543C8.49623 15.25 8.30503 15.1686 8.15702 15.0216L3.89453 10.7823L8.19622 4.94165C8.33783 4.8174 8.51383 4.75002 8.69543 4.75002H16.3996V15.25ZM16.5128 3H8.6958C8.09739 3 7.52378 3.24238 7.08137 3.68338C7.05017 3.71312 7.02217 3.74725 6.99657 3.78225L2.17727 10.3264C1.91166 10.6869 1.94846 11.211 2.26127 11.5225L7.08137 16.3166C7.52378 16.7576 8.09739 17 8.6958 17H16.5128C17.3328 17 18 16.2869 18 15.4093V4.59075C18 3.71312 17.3328 3 16.5128 3Z" fill="#5C5C5C"/>
</svg>
