<svg width="20" height="20" viewBox="0 0 20 20" fill="none" xmlns="http://www.w3.org/2000/svg">
<path fill-rule="evenodd" clip-rule="evenodd" d="M10.8752 8.39213H12.9752V8.04213H10.8752V8.39213ZM12.6518 10.2058H11.2091V10.1988C11.2091 9.76618 11.4975 9.43158 11.9357 9.43158C12.3697 9.43158 12.6518 9.76268 12.6518 10.1988V10.2058ZM11.9286 8.80792C10.9808 8.80792 10.3326 9.39382 10.3326 10.3843V10.693C10.3326 11.7283 10.9773 12.3079 11.9657 12.3079C12.9303 12.3079 13.3986 11.7689 13.484 11.2278H12.6552C12.5803 11.5022 12.329 11.6674 11.9727 11.6674C11.5177 11.6674 11.209 11.3426 11.209 10.8302V10.7378H13.5176V10.406C13.5176 9.43442 12.91 8.80792 11.9286 8.80792ZM8.05365 11.5659H7.38235V10.2128H8.24125C8.77115 10.2128 9.06025 10.476 9.06025 10.9058C9.06025 11.3391 8.76835 11.5659 8.05365 11.5659ZM7.38235 8.36902H8.18385C8.60735 8.36902 8.85515 8.59582 8.85515 8.96542C8.85515 9.36232 8.58705 9.58562 7.97945 9.58562H7.38235V8.36902ZM8.96298 9.84878V9.80958C9.41588 9.69898 9.74838 9.36578 9.74838 8.81278C9.74838 8.11628 9.21148 7.69208 8.39248 7.69208H6.48288V12.2421H8.38898C9.31858 12.2421 9.98288 11.7724 9.98288 10.959C9.98288 10.2765 9.51318 9.90198 8.96298 9.84878ZM10.0001 15.6C6.91241 15.6 4.40011 13.0877 4.40011 10C4.40011 6.91232 6.91241 4.40002 10.0001 4.40002C13.0878 4.40002 15.6001 6.91232 15.6001 10C15.6001 13.0877 13.0878 15.6 10.0001 15.6ZM10.0002 3C6.14044 3 3.00024 6.1402 3.00024 10C3.00024 13.8598 6.14044 17 10.0002 17C13.86 17 17.0002 13.8598 17.0002 10C17.0002 6.1402 13.86 3 10.0002 3Z" fill="#5C5C5C"/>
</svg>
