<svg width="20" height="20" viewBox="0 0 20 20" fill="none" xmlns="http://www.w3.org/2000/svg">
<path d="M8.07399 3.65305C8.07399 3.2925 8.36628 3.00021 8.72683 3.00021H11.2638C11.6243 3.00021 11.9166 3.2925 11.9166 3.65305C11.9166 4.01361 11.6243 4.30589 11.2638 4.30589H8.72683C8.36628 4.30589 8.07399 4.01361 8.07399 3.65305Z" fill="#5C5C5C"/>
<path d="M6.84243 3.64268C6.85336 4.00306 6.57006 4.30407 6.20967 4.31499C5.58817 4.33382 5.32927 4.38306 5.14484 4.47791L5.13824 4.48131C4.85834 4.62126 4.62548 4.85487 4.4675 5.15614C4.37326 5.34045 4.32427 5.59969 4.3055 6.21917C4.29458 6.57955 3.99358 6.86285 3.63319 6.85193C3.2728 6.84101 2.98951 6.54001 3.00043 6.17962C3.01918 5.56084 3.0639 5.03047 3.30731 4.55718L3.30929 4.55331C3.58297 4.02975 4.00631 3.58834 4.55107 3.31505C5.02351 3.07317 5.55282 3.02862 6.17012 3.00991C6.53051 2.99899 6.83151 3.28229 6.84243 3.64268Z" fill="#5C5C5C"/>
<path d="M13.1482 3.64268C13.1591 3.28229 13.4601 2.99899 13.8205 3.00991C14.4378 3.02862 14.9671 3.07317 15.4395 3.31505C15.9843 3.58834 16.4076 4.02976 16.6813 4.55332L16.6833 4.55717C16.9267 5.03047 16.9714 5.56084 16.9902 6.17962C17.0011 6.54001 16.7178 6.84101 16.3574 6.85193C15.997 6.86285 15.696 6.57955 15.6851 6.21917C15.6663 5.59969 15.6173 5.34046 15.5231 5.15614C15.3651 4.85487 15.1323 4.62122 14.8524 4.48127L14.8457 4.47795C14.6613 4.3831 14.4024 4.33382 13.7809 4.31499C13.4205 4.30407 13.1372 4.00306 13.1482 3.64268Z" fill="#5C5C5C"/>
<path d="M3.65297 8.0741C4.01352 8.0741 4.3058 8.36638 4.3058 8.72694V11.2639C4.3058 11.6244 4.01352 11.9167 3.65297 11.9167C3.29241 11.9167 3.00013 11.6244 3.00013 11.2639V8.72694C3.00013 8.36638 3.29241 8.0741 3.65297 8.0741Z" fill="#5C5C5C"/>
<path d="M16.3376 8.0741C16.6982 8.0741 16.9905 8.36638 16.9905 8.72694V11.2639C16.9905 11.6244 16.6982 11.9167 16.3376 11.9167C15.9771 11.9167 15.6848 11.6244 15.6848 11.2639V8.72694C15.6848 8.36638 15.9771 8.0741 16.3376 8.0741Z" fill="#5C5C5C"/>
<path d="M16.3668 13.1483C16.7272 13.1592 17.0105 13.4602 16.9996 13.8206C16.9808 14.4394 16.9361 14.9697 16.6927 15.443L16.6907 15.4469C16.417 15.9705 15.9936 16.4119 15.4488 16.6852C14.9764 16.9271 14.4471 16.9716 13.8299 16.9903C13.4695 17.0012 13.1685 16.7179 13.1576 16.3575C13.1466 15.9971 13.4299 15.6961 13.7903 15.6852C14.4118 15.6664 14.6707 15.6171 14.8551 15.5223L14.8617 15.5189C15.1417 15.379 15.3745 15.1453 15.5325 14.8441C15.6267 14.6598 15.6757 14.4005 15.6945 13.781C15.7054 13.4207 16.0064 13.1374 16.3668 13.1483Z" fill="#5C5C5C"/>
<path d="M3.63319 13.1577C3.99358 13.1468 4.29458 13.4301 4.3055 13.7904C4.32434 14.4119 4.37358 14.6709 4.46843 14.8553L4.47182 14.8619C4.61177 15.1418 4.84538 15.3746 5.14665 15.5326C5.33097 15.6269 5.5902 15.6758 6.20967 15.6946C6.57006 15.7055 6.85336 16.0065 6.84243 16.3669C6.83151 16.7273 6.53051 17.0106 6.17012 16.9997C5.55135 16.9809 5.02098 16.9362 4.54769 16.6928L4.54383 16.6908C4.02027 16.4171 3.57885 15.9938 3.30557 15.449C3.06368 14.9766 3.01913 14.4473 3.00043 13.83C2.98951 13.4696 3.2728 13.1686 3.63319 13.1577Z" fill="#5C5C5C"/>
<path d="M8.07399 16.3378C8.07399 15.9772 8.36628 15.6849 8.72683 15.6849H11.2638C11.6243 15.6849 11.9166 15.9772 11.9166 16.3378C11.9166 16.6983 11.6243 16.9906 11.2638 16.9906H8.72683C8.36628 16.9906 8.07399 16.6983 8.07399 16.3378Z" fill="#5C5C5C"/>
</svg>
