<svg width="20" height="20" viewBox="0 0 20 20" fill="none" xmlns="http://www.w3.org/2000/svg">
<path fill-rule="evenodd" clip-rule="evenodd" d="M13.2 6.11111H15.6C16.9232 6.11111 18 7.158 18 8.44444V14.6667C18 15.9531 16.9232 17 15.6 17H4.4C3.0768 17 2 15.9531 2 14.6667V8.44444C2 7.158 3.0768 6.11111 4.4 6.11111H6.8V4.94444C6.8 3.87267 7.6976 3 8.8 3H11.2C12.3024 3 13.2 3.87267 13.2 4.94444V6.11111ZM4.3999 15.4442H6.00049V7.66689H4.3999C3.95926 7.66699 3.60021 8.01583 3.6001 8.44423V14.6669C3.60022 15.0953 3.95927 15.4441 4.3999 15.4442ZM7.59912 15.4442H12.3999V7.66689H7.59912V15.4442ZM16.3999 8.44423C16.3998 8.0158 16.0408 7.66694 15.6001 7.66689H14.0005V15.4442H15.6001C16.0408 15.4442 16.3998 15.0953 16.3999 14.6669V8.44423ZM11.6001 4.94423C11.6 4.72966 11.4204 4.55556 11.1997 4.55556H8.79932C8.57881 4.55581 8.40002 4.72982 8.3999 4.94423V6.11122H11.6001V4.94423Z" fill="#5C5C5C"/>
</svg>
