<svg width="20" height="20" viewBox="0 0 20 20" fill="none" xmlns="http://www.w3.org/2000/svg">
<path d="M14.667 3C15.9532 3.00018 16.9998 4.04682 17 5.33301V14.667C16.9998 15.9532 15.9532 16.9998 14.667 17H5.33301C4.04682 16.9998 3.00018 15.9532 3 14.667V5.33301C3.00018 4.04682 4.04682 3.00018 5.33301 3H14.667ZM4.55566 9.22266V14.667C4.55583 15.0962 4.90455 15.4443 5.33301 15.4443H14.666C15.0945 15.4443 15.4442 15.0962 15.4443 14.667V9.22266H4.55566ZM5.33301 4.55566C4.90457 4.55566 4.55585 4.90383 4.55566 5.33301V7.66699H15.4443V5.33301C15.4441 4.90383 15.0945 4.55566 14.666 4.55566H5.33301ZM6.88867 5.33301C7.31775 5.33301 7.66658 5.68059 7.66699 6.11035C7.66699 6.54046 7.31801 6.88867 6.88867 6.88867C6.45954 6.88844 6.11133 6.54032 6.11133 6.11035C6.11174 5.68074 6.45979 5.33324 6.88867 5.33301ZM10 5.33301C10.4291 5.33301 10.7779 5.68059 10.7783 6.11035C10.7783 6.54046 10.4293 6.88867 10 6.88867C9.57081 6.88851 9.22266 6.54036 9.22266 6.11035C9.22307 5.68069 9.57106 5.33317 10 5.33301Z" fill="#5C5C5C"/>
</svg>
