<svg width="20" height="20" viewBox="0 0 20 20" fill="none" xmlns="http://www.w3.org/2000/svg">
<path fill-rule="evenodd" clip-rule="evenodd" d="M15.045 5.95016L9.91154 11.0907C9.77942 10.8927 9.62805 10.7051 9.45568 10.5333C9.28331 10.3606 9.09606 10.2099 8.89832 10.0802L14.0336 4.93782C14.3013 4.66874 14.7755 4.66786 15.0459 4.9387C15.1798 5.0728 15.2524 5.24809 15.2498 5.45495C15.2524 5.63988 15.1789 5.81518 15.045 5.95016ZM6.71495 15.1953L4.7655 15.2313L4.79963 13.2758C4.818 12.1662 5.73585 11.2459 6.8462 11.2266C6.85845 11.2266 6.86895 11.2257 6.8812 11.2257C7.39218 11.2257 7.86555 11.4185 8.21816 11.7726C8.57953 12.1338 8.7729 12.6211 8.76415 13.1452C8.74577 14.2566 7.82617 15.176 6.71495 15.1953ZM16.9997 5.45493C17.0084 4.7923 16.7529 4.16825 16.2831 3.69845C15.3538 2.7685 13.7237 2.76587 12.7963 3.69845L7.01005 9.49202C6.94442 9.48852 6.88142 9.47449 6.8158 9.47362C4.7736 9.51043 3.08402 11.2029 3.0499 13.246L3.00002 16.1086C2.99565 16.3461 3.08927 16.5758 3.25639 16.7432C3.42089 16.908 3.64401 17 3.875 17H3.89163L6.7493 16.9483C8.78975 16.9124 10.4785 15.2199 10.5143 13.175C10.5152 13.1093 10.5012 13.047 10.4995 12.9804L16.2822 7.18949C16.7529 6.71794 17.0084 6.09389 16.9997 5.45493Z" fill="#5C5C5C"/>
</svg>
