<svg width="20" height="20" viewBox="0 0 20 20" fill="none" xmlns="http://www.w3.org/2000/svg">
<path d="M13.1113 2C13.5389 2.00012 13.8886 2.35997 13.8887 2.7998V3.59961H14.667C15.9533 3.59979 17 4.67691 17 6V15.5996C17 16.9227 15.9533 17.9998 14.667 18H5.33301C4.04671 17.9998 3 16.9227 3 15.5996V6C3 4.67691 4.04671 3.59979 5.33301 3.59961H6.11133V2.7998C6.11143 2.35997 6.46106 2.00012 6.88867 2C7.31639 2 7.66689 2.35989 7.66699 2.7998V3.59961H12.333V2.7998C12.3331 2.35989 12.6836 2 13.1113 2ZM4.55566 10.7998V15.5996C4.55566 16.0404 4.90448 16.4004 5.33301 16.4004H14.666C15.0946 16.4004 15.4443 16.0404 15.4443 15.5996V10.7998H4.55566ZM6.88867 12.4004C7.31628 12.4005 7.66689 12.7604 7.66699 13.2002C7.6668 13.6399 7.31622 13.9999 6.88867 14C6.46121 13.9998 6.11152 13.6399 6.11133 13.2002C6.11143 12.7604 6.46115 12.4006 6.88867 12.4004ZM13.1123 12.4004C13.5397 12.4007 13.8895 12.7605 13.8896 13.2002C13.8895 13.6398 13.5397 13.9997 13.1123 14H10.001C9.57332 14 9.22285 13.64 9.22266 13.2002C9.22276 12.7603 9.57326 12.4004 10.001 12.4004H13.1123ZM5.33301 5.2002C4.90448 5.20023 4.55567 5.55923 4.55566 6V9.2002H15.4443V6C15.4443 5.55921 15.0946 5.2002 14.666 5.2002H13.8887V6C13.8887 6.43983 13.5389 6.79953 13.1113 6.7998C12.6836 6.7998 12.333 6.44 12.333 6V5.2002H7.66602V6C7.66602 6.43998 7.31643 6.79978 6.88867 6.7998C6.46089 6.7998 6.11133 6.44 6.11133 6V5.2002H5.33301Z" fill="#5C5C5C"/>
</svg>
