<svg width="20" height="20" viewBox="0 0 20 20" fill="none" xmlns="http://www.w3.org/2000/svg">
<path d="M3.67114 11.5889C4.77557 11.438 5.85395 11.7999 6.63794 12.5831C7.67769 13.6245 7.9595 15.2186 7.33813 16.5508C7.20591 16.8332 6.92628 17.0001 6.63306 17.0001C6.52265 17.0001 6.41068 16.9766 6.30493 16.9268C5.91612 16.7456 5.74789 16.2832 5.92896 15.8936C6.27502 15.1525 6.11836 14.2631 5.53833 13.6837C5.1013 13.2474 4.49914 13.0474 3.88403 13.129C3.45404 13.1904 3.06558 12.8911 3.00708 12.4659C2.94798 12.0405 3.24583 11.6474 3.67114 11.5889ZM3.67017 8.50397C5.6317 8.23097 7.55239 8.8774 8.94849 10.2735C10.5599 11.8866 11.1663 14.2494 10.5286 16.4395C10.4297 16.7801 10.119 17.0001 9.78149 17.0001C9.71077 17.0001 9.63775 16.9898 9.5647 16.9688C9.15248 16.849 8.91465 16.4172 9.03442 16.0049C9.51345 14.3585 9.05892 12.5841 7.84888 11.3731C6.79967 10.3247 5.35479 9.84334 3.88403 10.044C3.45725 10.1036 3.06624 9.80634 3.00708 9.3819C2.94799 8.95659 3.24494 8.56326 3.67017 8.50397ZM14.9778 3.00006C16.0931 3.00006 17.0002 3.96945 17.0002 5.16022V14.8399C17.0002 16.0307 16.0931 17.0001 14.9778 17.0001H13.8889C13.459 16.9998 13.1116 16.6517 13.1116 16.2217C13.1118 15.792 13.4591 15.4446 13.8889 15.4444H14.9778C15.2306 15.4444 15.4446 15.1673 15.4446 14.8399V5.16022C15.4446 4.83278 15.2306 4.55573 14.9778 4.55573H5.02173C4.76909 4.55595 4.55591 4.83291 4.55591 5.16022V6.11139C4.55577 6.54131 4.20772 6.88863 3.77856 6.88873C3.34855 6.88873 3.00038 6.54137 3.00024 6.11139V5.16022C3.00024 3.96956 3.90732 3.00024 5.02173 3.00006H14.9778ZM3.77759 14.6671C4.20769 14.6671 4.55591 15.0143 4.55591 15.4444C4.55589 15.8745 4.20768 16.2217 3.77759 16.2217C3.34765 16.2216 3.00027 15.8744 3.00024 15.4444C3.00024 15.0144 3.34764 14.6672 3.77759 14.6671Z" fill="#5C5C5C"/>
</svg>
