<svg width="20" height="20" viewBox="0 0 20 20" fill="none" xmlns="http://www.w3.org/2000/svg">
<path fill-rule="evenodd" clip-rule="evenodd" d="M15.4443 15.6C15.4443 16.0416 15.0951 16.4 14.6665 16.4H5.33318C4.90463 16.4 4.5554 16.0416 4.5554 15.6V6.8C4.5554 6.3584 4.90463 6 5.33318 6V6.8C5.33318 7.6824 6.03085 8.4 6.88874 8.4H13.111C13.9688 8.4 14.6665 7.6824 14.6665 6.8V6C15.0951 6 15.4443 6.3584 15.4443 6.8V15.6ZM6.88874 3.60004L13.111 3.60244V4.40004V6.80004H6.88874V4.40004V3.60004ZM14.6667 4.4V3.6C14.6667 2.7176 13.969 2 13.1111 2H6.88889C6.031 2 5.33333 2.7176 5.33333 3.6V4.4C4.04689 4.4 3 5.4768 3 6.8V15.6C3 16.9232 4.04689 18 5.33333 18H14.6667C15.9531 18 17 16.9232 17 15.6V6.8C17 5.4768 15.9531 4.4 14.6667 4.4Z" fill="#5C5C5C"/>
</svg>
