<svg width="20" height="20" viewBox="0 0 20 20" fill="none" xmlns="http://www.w3.org/2000/svg">
<path fill-rule="evenodd" clip-rule="evenodd" d="M12.8001 9.29996H10.7001V7.19992C10.7001 6.81281 10.3865 6.4999 10.0001 6.4999C9.61367 6.4999 9.30007 6.81281 9.30007 7.19992V9.99998C9.30007 10.3871 9.61367 10.7 10.0001 10.7H12.8001C13.1873 10.7 13.5002 10.3871 13.5002 9.99998C13.5002 9.61287 13.1873 9.29996 12.8001 9.29996ZM9.99994 15.6001C6.91217 15.6001 4.39981 13.0878 4.39981 9.99998C4.39981 6.91221 6.91217 4.39985 9.99994 4.39985C13.0877 4.39985 15.6001 6.91221 15.6001 9.99998C15.6001 13.0878 13.0877 15.6001 9.99994 15.6001ZM9.99992 2.99982C6.14003 2.99982 2.99976 6.14009 2.99976 9.99998C2.99976 13.8599 6.14003 17.0001 9.99992 17.0001C13.8598 17.0001 17.0001 13.8599 17.0001 9.99998C17.0001 6.14009 13.8598 2.99982 9.99992 2.99982Z" fill="#5C5C5C"/>
</svg>
