<svg width="20" height="20" viewBox="0 0 20 20" fill="none" xmlns="http://www.w3.org/2000/svg">
<path d="M6.18433 4.30853C6.46832 3.94514 6.97245 3.89661 7.31323 4.19916C7.65144 4.50175 7.69713 5.04297 7.41479 5.40717L3.83374 10.0097L7.28589 14.6054C7.56251 14.9748 7.50855 15.5141 7.16382 15.8115C7.01666 15.9382 6.83876 15.9999 6.66284 15.9999C6.42861 15.9998 6.19713 15.8904 6.03882 15.6806L2.17651 10.537C1.93769 10.2191 1.94223 9.76465 2.1853 9.45111L6.18433 4.30853ZM12.8367 4.19037C13.1798 3.89216 13.6823 3.95184 13.9607 4.32025L17.823 9.46283C18.0622 9.78081 18.0582 10.2352 17.8142 10.5497L13.8142 15.6923C13.6558 15.8953 13.4285 15.9999 13.199 15.9999C13.0183 15.9998 12.8375 15.9344 12.6873 15.8017C12.3484 15.4983 12.3027 14.9579 12.5847 14.5937L16.1667 9.99115L12.7136 5.39545C12.4376 5.02604 12.4919 4.48693 12.8367 4.19037ZM9.99976 5.71478C10.4421 5.71478 10.7996 6.09823 10.7996 6.5722V10.5527L11.8445 9.4726C12.1612 9.1435 12.6689 9.15476 12.9753 9.49408C13.2817 9.83435 13.2734 10.3769 12.9558 10.706L10.5554 13.1884C10.4002 13.3478 10.1998 13.4286 9.99976 13.4286C9.79499 13.4286 9.59111 13.3448 9.43433 13.1777L7.03394 10.6064C6.72217 10.2713 6.72216 9.72869 7.03394 9.39447C7.34673 9.05934 7.85378 9.05934 8.16577 9.39447L9.19995 10.5019V6.5722C9.19995 6.09824 9.55819 5.71481 9.99976 5.71478Z" fill="#5C5C5C"/>
</svg>
