<svg width="20" height="20" viewBox="0 0 20 20" fill="none" xmlns="http://www.w3.org/2000/svg">
<path d="M6.1853 4.30853C6.46771 3.94522 6.9707 3.89663 7.31226 4.19916C7.65135 4.5025 7.69698 5.04194 7.41479 5.40619L3.83374 10.0087L7.28589 14.6054C7.56183 14.9739 7.50844 15.513 7.16382 15.8105C7.01663 15.9373 6.83883 15.9999 6.66284 15.9999C6.4293 15.9999 6.19721 15.8905 6.03882 15.6806L2.17651 10.538C1.93734 10.2192 1.94135 9.7648 2.1853 9.45111L6.1853 4.30853ZM12.8357 4.19037C13.1797 3.89211 13.6831 3.95171 13.9607 4.32025L17.823 9.46283C18.0621 9.7808 18.0582 10.2352 17.8142 10.5497L13.8142 15.6923C13.6558 15.8953 13.4285 15.9999 13.199 15.9999C13.0183 15.9999 12.8376 15.9344 12.6873 15.8017C12.3481 15.4983 12.3023 14.957 12.5847 14.5927L16.1658 9.99017L12.7136 5.39545C12.4377 5.02617 12.4912 4.48698 12.8357 4.19037Z" fill="#5C5C5C"/>
</svg>
