<svg width="20" height="20" viewBox="0 0 20 20" fill="none" xmlns="http://www.w3.org/2000/svg">
<path d="M3.87939 10.875L8.25146 10.8975C8.73263 10.9002 9.12158 11.2903 9.12158 11.7715L9.12549 16.124C9.12549 16.607 8.73345 17 8.25049 17C7.76663 17 7.37549 16.6081 7.37549 16.126L7.37354 13.8643L4.49463 16.7441C4.32313 16.9148 4.09861 17 3.87549 17C3.65168 17 3.42788 16.9145 3.25732 16.7441C2.91521 16.402 2.91521 15.8481 3.25732 15.5068L6.12646 12.6367L3.87158 12.625C3.38778 12.6224 2.99795 12.2281 3.00049 11.7461C3.00224 11.264 3.39429 10.875 3.87549 10.875H3.87939ZM11.7505 3C12.2316 3.0002 12.6229 3.38911 12.6255 3.87109L12.6353 6.12695L15.5054 3.25684C15.8475 2.91472 16.4015 2.91472 16.7437 3.25684C17.0847 3.59896 17.0848 4.15208 16.7437 4.49414L13.8628 7.37402L16.1245 7.375C16.6075 7.375 16.9995 7.76712 16.9995 8.25098C16.9987 8.7037 16.6546 9.07531 16.2144 9.12012L16.1245 9.125L11.771 9.12207C11.2899 9.12201 10.8987 8.73308 10.896 8.25195L10.8755 3.87988C10.8729 3.39694 11.2618 3.0027 11.7456 3H11.7505Z" fill="#5C5C5C"/>
</svg>
