<svg width="20" height="20" viewBox="0 0 20 20" fill="none" xmlns="http://www.w3.org/2000/svg">
<path fill-rule="evenodd" clip-rule="evenodd" d="M13.5498 8.81048L11.1907 6.45112L12.8638 4.77875L15.2212 7.13635L13.5498 8.81048ZM7.44476 14.9216L4.84058 15.1587L5.07159 12.5718L9.95356 7.6886L12.3127 10.048L7.44476 14.9216ZM16.4787 5.9182L14.0811 3.52121C13.4099 2.84911 12.3432 2.8246 11.7061 3.4617L9.95339 5.21372L8.86919 4.12943C8.52791 3.78812 7.974 3.78812 7.63185 4.12943C7.29058 4.4716 7.29058 5.02556 7.63185 5.36686L8.71605 6.45115L3.83321 11.3344C3.54882 11.6188 3.37205 11.9969 3.3353 12.3968L3.00365 16.0461C2.9809 16.3043 3.07278 16.5598 3.25655 16.7436C3.42193 16.909 3.64507 17 3.87521 17C3.90234 17 3.92859 16.9991 3.95484 16.9965L7.60385 16.6657C8.00375 16.6289 8.38178 16.4513 8.66617 16.1669L13.549 11.2845L14.6323 12.3679C14.8039 12.5394 15.027 12.6243 15.251 12.6243C15.475 12.6243 15.699 12.5394 15.8697 12.3679C16.2118 12.0266 16.2118 11.4727 15.8697 11.1305L14.7863 10.0471L16.5382 8.29418C17.177 7.65621 17.1499 6.5903 16.4787 5.9182Z" fill="#5C5C5C"/>
</svg>
