<svg width="20" height="20" viewBox="0 0 20 20" fill="none" xmlns="http://www.w3.org/2000/svg">
<path d="M9.93237 3C11.969 2.9951 13.9318 3.7704 15.2781 5.15918C16.45 6.36807 17.0593 7.92029 16.9949 9.53027C16.9102 11.6819 14.9511 13.5007 12.7166 13.501H11.5613C11.3681 13.501 11.2108 13.6581 11.2107 13.8506C11.2107 13.9311 11.2431 14.0144 11.3005 14.0781C11.6919 14.5205 11.8363 15.1043 11.697 15.6797C11.5087 16.4489 10.7685 16.9999 9.92847 17H9.9021C7.90406 16.9727 6.00676 16.0889 4.69897 14.5742C3.39195 13.0609 2.79491 11.0439 3.06226 9.04199C3.51662 5.62674 6.47112 3.02946 9.93237 3ZM9.94507 4.40039C7.22097 4.42349 4.8077 6.54347 4.44995 9.22656C4.23293 10.8561 4.6979 12.4307 5.75854 13.6592C6.80589 14.8707 8.32341 15.5779 9.92163 15.5996C10.1376 15.5855 10.3022 15.4928 10.3367 15.3496C10.3675 15.2216 10.3394 15.1058 10.2527 15.0078C9.96774 14.6858 9.8103 14.2748 9.8103 13.8506C9.81036 12.8853 10.5959 12.1006 11.5613 12.1006H12.7156C14.1942 12.1006 15.5411 10.8732 15.5964 9.47461C15.6453 8.25123 15.1747 7.06494 14.2732 6.13477C13.2028 5.03024 11.6478 4.40047 9.9978 4.40039H9.94507ZM5.91187 9.47949C6.39272 9.15517 7.0458 9.28185 7.36987 9.76172C7.6946 10.2424 7.56652 10.8955 7.08667 11.2197C6.60571 11.5445 5.9528 11.4174 5.62866 10.9365C5.30417 10.4564 5.43109 9.80352 5.91187 9.47949ZM6.28979 7.02441C6.57984 6.52307 7.22263 6.35096 7.72437 6.64062C8.2267 6.93039 8.39853 7.57344 8.10913 8.0752C7.81932 8.57754 7.17712 8.74844 6.67456 8.45898C6.17259 8.16918 5.99995 7.52701 6.28979 7.02441ZM12.2751 6.64062C12.7777 6.35141 13.42 6.52289 13.7097 7.02441C13.9995 7.52683 13.8265 8.16904 13.325 8.45898C12.8224 8.74873 12.1803 8.57758 11.8904 8.0752C11.6006 7.57331 11.7732 6.93041 12.2751 6.64062ZM9.99976 5.09961C10.579 5.09987 11.0492 5.57024 11.0496 6.14941C11.0496 6.72885 10.5792 7.19895 9.99976 7.19922C9.42008 7.19921 8.94995 6.72901 8.94995 6.14941C8.95027 5.57009 9.42027 5.09962 9.99976 5.09961Z" fill="#5C5C5C"/>
</svg>
