<svg width="20" height="20" viewBox="0 0 20 20" fill="none" xmlns="http://www.w3.org/2000/svg">
<path fill-rule="evenodd" clip-rule="evenodd" d="M8.18884 11.8262L9.26383 9.20346L11.8113 8.17364L10.7363 10.7964L8.18884 11.8262ZM12.7624 7.23742C12.5568 7.01988 12.2343 6.93587 11.938 7.05289L8.77762 8.32963C8.59008 8.40539 8.4408 8.55317 8.36429 8.7407L7.05529 11.9348C6.94427 12.2056 7.00954 12.4982 7.18882 12.7059C7.19482 12.7134 7.19932 12.7232 7.20607 12.7315C7.21808 12.7442 7.23233 12.7547 7.24583 12.7675C7.38686 12.9122 7.57814 13 7.78068 13C7.87445 13 7.96972 12.9827 8.06123 12.946L11.2216 11.67C11.4091 11.5935 11.5584 11.4457 11.6349 11.2582L12.9439 8.06408C13.0654 7.76852 12.9814 7.44446 12.7624 7.23742ZM10.0001 15.6C6.91245 15.6 4.40015 13.0877 4.40015 10C4.40015 6.91232 6.91245 4.40002 10.0001 4.40002C13.0878 4.40002 15.6001 6.91232 15.6001 10C15.6001 13.0877 13.0878 15.6 10.0001 15.6ZM10.0002 3C6.14044 3 3.00024 6.1402 3.00024 10C3.00024 13.8598 6.14044 17 10.0002 17C13.86 17 17.0002 13.8598 17.0002 10C17.0002 6.1402 13.86 3 10.0002 3Z" fill="#5C5C5C"/>
</svg>
