<svg width="20" height="20" viewBox="0 0 20 20" fill="none" xmlns="http://www.w3.org/2000/svg">
<path d="M10.2588 3C11.4029 3 12.3329 3.93016 12.333 5.07422V7.66699H14.667C15.9534 7.66708 17 8.71362 17 10V14.667C16.9998 15.9532 15.9533 16.9999 14.667 17H10C8.71373 16.9999 7.66716 15.9532 7.66699 14.667V12.333H5.07422C3.93016 12.3329 3 11.4029 3 10.2588V5.07422C3.00006 3.9302 3.9302 3.00006 5.07422 3H10.2588ZM10 9.22266C9.57144 9.22266 9.22168 9.57144 9.22168 10V14.667C9.22187 15.0954 9.57156 15.4443 10 15.4443H14.666C15.0952 15.4443 15.4441 15.0954 15.4443 14.667V10C15.4443 9.57144 15.0953 9.22266 14.666 9.22266H10ZM5.07422 4.55566C4.78809 4.55573 4.55573 4.78809 4.55566 5.07422V10.2588C4.55566 10.545 4.78805 10.7773 5.07422 10.7773H7.66699V10C7.667 8.71361 8.71363 7.66708 10 7.66699H10.7773V5.07422C10.7773 4.78805 10.545 4.55566 10.2588 4.55566H5.07422Z" fill="#5C5C5C"/>
</svg>
