<svg width="20" height="20" viewBox="0 0 20 20" fill="none" xmlns="http://www.w3.org/2000/svg">
<path d="M15.5996 4C16.9228 4 17.9999 5.15364 18 6.57129V13.4287C17.9999 14.8464 16.9228 16 15.5996 16H4.40039C3.07723 16 2.00007 14.8464 2 13.4287V6.57129C2.00007 5.15364 3.07723 4 4.40039 4H15.5996ZM3.60059 9.14258V13.4287C3.60066 13.9009 3.95883 14.2861 4.40039 14.2861H15.6006C16.0419 14.2858 16.4003 13.9008 16.4004 13.4287V9.14258H3.60059ZM9.2002 10.8574C9.6402 10.8574 10 11.2434 10 11.7148C9.99971 12.186 9.64002 12.5713 9.2002 12.5713H6C5.56027 12.5712 5.20048 12.1859 5.2002 11.7148C5.2002 11.2435 5.56009 10.8575 6 10.8574H9.2002ZM14 10.8574C14.44 10.8575 14.7998 11.2434 14.7998 11.7148C14.7995 12.186 14.4398 12.5712 14 12.5713H12.4004C11.9606 12.5713 11.5999 12.186 11.5996 11.7148C11.5996 11.2434 11.9604 10.8574 12.4004 10.8574H14ZM4.40039 5.71387C3.95883 5.71387 3.60065 6.09906 3.60059 6.57129V7.42871H16.4004V6.57129C16.4003 6.09924 16.0419 5.71415 15.6006 5.71387H4.40039Z" fill="#5C5C5C"/>
</svg>
