<svg width="20" height="20" viewBox="0 0 20 20" fill="none" xmlns="http://www.w3.org/2000/svg">
<path fill-rule="evenodd" clip-rule="evenodd" d="M7.5894 12.8C7.3752 12.8 7.2002 12.6257 7.2002 12.4108V7.2H12.4117C12.6259 7.2 12.8002 7.3743 12.8002 7.5892V12.8H7.5894ZM16.3 12.8H14.2V7.5892C14.2 6.6022 13.3978 5.8 12.4115 5.8H7.2V3.7C7.2 3.3129 6.8871 3 6.5 3C6.1136 3 5.8 3.3129 5.8 3.7V5.8H3.7C3.3136 5.8 3 6.1129 3 6.5C3 6.8871 3.3136 7.2 3.7 7.2H5.8V12.4108C5.8 13.3978 6.6029 14.2 7.5892 14.2H12.8V16.3C12.8 16.6871 13.1136 17 13.5 17C13.8871 17 14.2 16.6871 14.2 16.3V14.2H16.3C16.6871 14.2 17 13.8871 17 13.5C17 13.1129 16.6871 12.8 16.3 12.8Z" fill="#5C5C5C"/>
</svg>
