<svg width="20" height="20" viewBox="0 0 20 20" fill="none" xmlns="http://www.w3.org/2000/svg">
<path fill-rule="evenodd" clip-rule="evenodd" d="M15.2031 13.0815L10.7776 15.1376V9.91502L15.4442 7.74778V12.7518C15.4442 12.8871 15.3525 13.0131 15.2031 13.0815ZM4.79062 13.0823C4.64362 13.0139 4.5534 12.8879 4.55495 12.7464V7.74778L9.2216 9.91502V15.1391L4.79062 13.0823ZM9.77196 4.60618C9.84273 4.57274 9.92129 4.55641 9.99984 4.55641C10.0776 4.55641 10.1562 4.57274 10.227 4.60618L14.3717 6.53003L9.99984 8.56119L5.6272 6.53003L9.77196 4.60618ZM16.7322 6.31308C16.7299 6.30686 16.7306 6.29986 16.7275 6.29364C16.7252 6.28742 16.719 6.28353 16.7151 6.27731C16.6793 6.21821 16.6358 6.16611 16.5945 6.11167C16.5704 6.08523 16.551 6.05568 16.5245 6.03313C16.3418 5.81851 16.1263 5.62954 15.8588 5.5059L10.881 3.19402C10.8802 3.19402 10.8795 3.19402 10.8795 3.19324C10.3202 2.93507 9.67857 2.93585 9.11779 3.19402L4.14237 5.50512C3.87482 5.62877 3.6586 5.81695 3.47582 6.03158C3.44704 6.05568 3.42604 6.08834 3.40037 6.11712C3.35993 6.16922 3.31871 6.21976 3.28449 6.27575C3.2806 6.28275 3.27437 6.28742 3.27126 6.29364C3.26815 6.30064 3.26893 6.30764 3.26582 6.31463C3.10171 6.59613 2.99982 6.91263 2.99982 7.24545V12.7409C2.9936 13.4797 3.43848 14.1671 4.13382 14.4922L9.11079 16.8033C9.39235 16.9347 9.69412 17 9.99668 17C10.2985 17 10.6002 16.9347 10.881 16.804L15.8564 14.4929C16.5502 14.1726 16.999 13.4898 16.9998 12.7526V7.24468C16.999 6.91185 16.8971 6.59536 16.7322 6.31308Z" fill="#5C5C5C"/>
</svg>
