<svg width="20" height="20" viewBox="0 0 20 20" fill="none" xmlns="http://www.w3.org/2000/svg">
<path d="M16.125 14.2354C16.6062 14.2354 17 14.6591 17 15.1768V17.0586C17 17.1233 16.9941 17.1869 16.9824 17.248C16.9707 17.309 16.9528 17.3677 16.9307 17.4238C16.8196 17.7052 16.585 17.9175 16.3008 17.9805C16.2439 17.9931 16.1852 18 16.125 18H3.875C3.39375 18 3 17.5762 3 17.0586V15.1768C3 14.6591 3.39375 14.2354 3.875 14.2354C4.35625 14.2354 4.75 14.6591 4.75 15.1768V16.1172H15.25V15.1768C15.25 14.6591 15.6438 14.2354 16.125 14.2354ZM10 2C10.4839 2 10.875 2.42188 10.875 2.94141V10.4697L12.9756 8.77637C13.3623 8.46325 13.9106 8.54895 14.2002 8.96484C14.4906 9.38077 14.4119 9.97067 14.0254 10.2822L10.5254 13.1055C10.3705 13.2306 10.1846 13.2939 10 13.2939C9.82423 13.2939 9.64837 13.2368 9.49707 13.123L5.99707 10.4746C5.60157 10.1753 5.50593 9.58756 5.78418 9.16309C6.06238 8.73781 6.60747 8.63553 7.00293 8.93457L9.12793 10.542C9.12629 10.5185 9.125 10.4947 9.125 10.4707V2.94141C9.125 2.42197 9.51625 2.00015 10 2Z" fill="#5C5C5C"/>
</svg>
