<svg width="20" height="20" viewBox="0 0 20 20" fill="none" xmlns="http://www.w3.org/2000/svg">
<path d="M3.875 10.8752C4.35614 10.8752 4.74718 11.2633 4.75 11.7453L4.76172 14.0012L7.63184 11.131C7.974 10.7893 8.52712 10.789 8.86914 11.131C9.21116 11.4731 9.21093 12.0262 8.86914 12.3683L5.98828 15.2492L8.25 15.2502C8.73389 15.2502 9.125 15.6423 9.125 16.1262C9.12405 16.6091 8.73296 17.0002 8.25 17.0002H8.24902L3.89648 16.9973C3.4153 16.9973 3.02424 16.6083 3.02148 16.1271L3 11.7541C2.99755 11.2712 3.38819 10.8778 3.87109 10.8752H3.875ZM11.7539 3.00018L16.127 3.02167C16.608 3.0245 16.9971 3.41553 16.9971 3.89667L17 8.24921C17.0009 8.73212 16.6089 9.12503 16.126 9.12518H16.125C15.642 9.12518 15.2509 8.7333 15.25 8.25116L15.248 5.98944L12.3682 8.86932C12.1976 9.03969 11.9738 9.12511 11.75 9.12518C11.5269 9.12518 11.3024 9.0399 11.1309 8.86932C10.7897 8.52728 10.7899 7.9733 11.1309 7.63202L14.001 4.7619L11.7461 4.75018C11.2624 4.74749 10.8726 4.35317 10.875 3.87128C10.8776 3.38914 11.2696 3.00018 11.75 3.00018H11.7539Z" fill="#5C5C5C"/>
</svg>
