<svg width="20" height="20" viewBox="0 0 20 20" fill="none" xmlns="http://www.w3.org/2000/svg">
<path d="M10 3C10.4299 3.00002 10.7771 3.34822 10.7773 3.77734C10.7773 4.20666 10.4301 4.55564 10 4.55566H5.33301C4.90393 4.55583 4.55584 4.90471 4.55566 5.33301V14.667C4.55584 15.0953 4.90393 15.4442 5.33301 15.4443H14.667C15.096 15.4441 15.4442 15.0953 15.4443 14.667V10C15.4443 9.57082 15.7918 9.22291 16.2217 9.22266C16.6518 9.22266 17 9.57067 17 10V14.667C16.9998 15.9532 15.9531 16.9998 14.667 17H5.33301C4.04682 16.9998 3.00018 15.9532 3 14.667V5.33301C3.00018 4.04682 4.04682 3.00017 5.33301 3H10ZM13.1152 3L16.2236 3.01562C16.6514 3.01796 16.998 3.36519 16.998 3.79297L17 6.8877C17 7.29086 16.6946 7.62314 16.3027 7.66309L16.2227 7.66699C15.7933 7.66699 15.4443 7.31898 15.4443 6.88965L15.4434 5.65625L10.5498 10.5498C10.3981 10.7015 10.1991 10.7773 10 10.7773C9.80091 10.7773 9.60185 10.7015 9.4502 10.5498C9.14612 10.2457 9.14612 9.7543 9.4502 9.4502L14.3389 4.56152L13.1074 4.55566C12.6773 4.55333 12.3307 4.20277 12.333 3.77344C12.3356 3.34509 12.6837 3 13.1113 3H13.1152Z" fill="#5C5C5C"/>
</svg>
