<svg width="20" height="20" viewBox="0 0 20 20" fill="none" xmlns="http://www.w3.org/2000/svg">
<path fill-rule="evenodd" clip-rule="evenodd" d="M15.4442 14.8658C15.4442 15.1847 15.1844 15.4445 14.8656 15.4445H13.8887V13.8889H15.4442V14.8658ZM4.55518 14.8658V13.8889H6.11073V15.4445H5.13384C4.81495 15.4445 4.55518 15.1847 4.55518 14.8658ZM5.13384 4.55557H6.11073V6.11113H4.55518V5.13424C4.55518 4.81535 4.81495 4.55557 5.13384 4.55557ZM15.4442 5.13424V6.11113H13.8887V4.55557H14.8656C15.1844 4.55557 15.4442 4.81535 15.4442 5.13424ZM13.8887 12.3333H15.4442V10.7778H13.8887V12.3333ZM13.8887 9.22222H15.4442V7.66667H13.8887V9.22222ZM7.6665 15.4445H12.3332V4.55557H7.6665V15.4445ZM4.55518 12.3333H6.11073V10.7778H4.55518V12.3333ZM4.55518 9.22222H6.11073V7.66667H4.55518V9.22222ZM14.8658 3H5.13422C3.95744 3 3 3.95822 3 5.13422V14.8658C3 16.0426 3.95744 17 5.13422 17H14.8658C16.0426 17 17 16.0426 17 14.8658V5.13422C17 3.95822 16.0426 3 14.8658 3Z" fill="#5C5C5C"/>
</svg>
