<svg width="20" height="20" viewBox="0 0 20 20" fill="none" xmlns="http://www.w3.org/2000/svg">
<path fill-rule="evenodd" clip-rule="evenodd" d="M6.25769 7.78766C4.35993 9.74299 4.40009 12.8427 6.37817 14.7625C7.34386 15.7023 8.6271 16.2207 9.99439 16.2216H9.99906C11.3691 16.2216 12.657 15.7032 13.6274 14.7625C15.641 12.808 15.6373 9.62917 13.619 7.6774L10.8303 4.96448C10.5482 7.17145 9.67871 9.1081 8.13024 9.1081C7.6558 9.1081 6.8825 8.90715 6.25769 7.78766ZM9.99882 18H9.99228C8.1188 17.9982 6.36113 17.2913 5.04334 16.0064C2.32183 13.3655 2.3181 9.06809 5.03493 6.43164L5.95299 5.54778C6.19021 5.32193 6.53484 5.23479 6.86078 5.3157C7.18486 5.39929 7.43702 5.64204 7.52108 5.95147C7.73589 6.74196 7.99178 7.13054 8.13281 7.27815C8.46436 6.94559 9.06395 5.60202 9.06395 3.32836C9.06395 3.19765 9.06395 3.07405 9.05648 2.95046C9.03873 2.68815 9.14427 2.43117 9.34413 2.24978C9.7149 1.91455 10.3089 1.91455 10.6647 2.26311L14.9515 6.43253C17.6786 9.06809 17.6833 13.3655 14.9608 16.0073C13.6356 17.2931 11.8742 18 9.99882 18Z" fill="#5C5C5C"/>
</svg>
