<svg width="20" height="20" viewBox="0 0 20 20" fill="none" xmlns="http://www.w3.org/2000/svg">
<path fill-rule="evenodd" clip-rule="evenodd" d="M15.2497 12.2987C14.9032 12.456 14.2216 12.6667 13.0622 12.6667C12.0787 12.6667 11.2238 12.3262 10.3191 11.9662C9.30233 11.5618 8.25058 11.1431 6.93721 11.1431C6.01233 11.1431 5.29571 11.256 4.74971 11.408V9.99999V4.14755C5.09621 3.99022 5.77958 3.77777 6.93721 3.77777C7.92071 3.77777 8.77558 4.11822 9.68033 4.47822C10.6971 4.88266 11.7488 5.30133 13.0622 5.30133C13.883 5.30133 14.6162 5.21155 15.2497 5.03466V12.2987ZM16.3594 3.49333C15.9551 3.19644 15.4319 3.112 14.9603 3.26844C14.4563 3.43467 13.8 3.52356 13.0624 3.52356C12.0789 3.52356 11.224 3.18311 10.3193 2.82311C9.3025 2.41867 8.25075 2 6.93738 2C4.41125 2 3.433 2.84622 3.26238 3.01689C3.09438 3.18311 2.99988 3.41244 2.99988 3.65067V10V12.7938V17.1111C2.99988 17.6027 3.391 18 3.87488 18C4.35875 18 4.74988 17.6027 4.74988 17.1111V13.2907C5.0955 13.1342 5.77625 12.9209 6.93738 12.9209C7.92088 12.9209 8.77575 13.2613 9.6805 13.6213C10.6973 14.0258 11.749 14.4444 13.0624 14.4444C14.6453 14.4444 15.62 14.1084 16.1608 13.8267C16.6788 13.5538 16.9999 13.024 16.9999 12.4436V4.76089C16.9999 4.26311 16.761 3.78933 16.3594 3.49333Z" fill="#5C5C5C"/>
</svg>
