<svg width="20" height="20" viewBox="0 0 20 20" fill="none" xmlns="http://www.w3.org/2000/svg">
<path fill-rule="evenodd" clip-rule="evenodd" d="M12.9681 17C12.5817 17 12.2681 16.6871 12.2681 16.3V14.4808C12.301 14.0168 12.1617 13.6129 11.888 13.3196C11.7067 13.1264 11.6507 12.8478 11.7417 12.6C11.8327 12.3516 12.0553 12.1759 12.3185 12.1458C14.0223 11.9484 15.6 11.3632 15.6 8.44227C15.6 7.8823 15.4376 7.34263 15.1303 6.88345C14.8496 6.46487 14.7474 5.9546 14.8412 5.44643C14.9028 5.11535 14.8993 4.77867 14.8328 4.45318C14.55 4.53718 14.0657 4.73667 13.3678 5.22244C13.1963 5.34144 12.9786 5.37713 12.7784 5.32114C11.5156 4.96626 10.1807 4.96626 8.91726 5.32114C8.71637 5.37713 8.50007 5.34144 8.32858 5.22244C7.63769 4.74157 7.1561 4.54138 6.86211 4.45878C6.79631 4.78147 6.79351 5.11535 6.85441 5.44433C6.9475 5.9497 6.84181 6.46557 6.55621 6.89815C6.25242 7.35943 6.09352 7.8984 6.09632 8.45837C6.09632 11.184 7.41159 11.9113 9.38625 12.1654C9.64665 12.199 9.86645 12.3754 9.95604 12.6224C10.0449 12.8695 9.98824 13.1453 9.80905 13.3371C9.53815 13.6276 9.39885 14.0273 9.42615 14.4339L9.42685 14.9855C9.42825 15.0135 9.42825 15.0415 9.42685 15.0695L9.42755 16.3C9.42755 16.6871 9.11466 17 8.72757 17C8.34118 17 8.02758 16.6871 8.02758 16.3V15.9004C6.14812 16.1453 5.07714 15.1381 4.33446 14.4381C4.02646 14.1491 3.73667 13.8754 3.52457 13.8201C3.15008 13.7228 2.92539 13.3406 3.02268 12.9668C3.11998 12.593 3.50217 12.3649 3.87597 12.4649C4.43526 12.6105 4.85245 13.0032 5.29414 13.419C6.00952 14.0931 6.68851 14.7314 8.02758 14.4829V14.4808C8.00168 14.1106 8.05698 13.7312 8.18508 13.3721C6.74731 13.0137 4.69635 11.9687 4.69635 8.46187C4.69215 7.62751 4.93155 6.81976 5.38724 6.12749C5.47263 5.998 5.50483 5.84611 5.47753 5.69842C5.33754 4.94036 5.41804 4.162 5.71203 3.45084C5.79183 3.25765 5.95352 3.10996 6.15302 3.04836C6.38472 2.97696 7.2387 2.84047 8.85637 3.89042C10.166 3.57613 11.5303 3.57613 12.8393 3.89042C14.4577 2.84047 15.3109 2.97626 15.5426 3.04836C15.7421 3.10996 15.9038 3.25765 15.9836 3.45084C16.2783 4.1634 16.3588 4.94106 16.2181 5.70122C16.1908 5.84751 16.2181 5.991 16.2937 6.10509C16.7557 6.79596 17 7.60371 17 8.44227C17 11.9869 14.9539 13.0193 13.5141 13.3651C13.6429 13.7354 13.6968 14.1337 13.666 14.5347L13.6681 16.3C13.6681 16.6871 13.3545 17 12.9681 17Z" fill="#5C5C5C"/>
</svg>
