<svg width="20" height="20" viewBox="0 0 20 20" fill="none" xmlns="http://www.w3.org/2000/svg">
<path d="M12.1494 3C13.0392 3 13.8389 3.49515 14.2363 4.29004L16.8359 9.48828C16.9432 9.70293 17 9.94406 17 10.1836V14.667C16.9998 15.9532 15.9532 16.9998 14.667 17H5.33301C4.04682 16.9998 3.00018 15.9532 3 14.667V10.1836C3 9.94406 3.05675 9.70293 3.16406 9.48828L5.76367 4.29004C6.16112 3.49515 6.96081 3 7.85059 3H12.1494ZM4.55566 10.7773V14.667C4.55583 15.0962 4.90458 15.4443 5.33301 15.4443H14.666C15.0945 15.4443 15.4442 15.0962 15.4443 14.667V10.7773H4.55566ZM6.88867 12.333C7.31617 12.3332 7.66674 12.683 7.66699 13.1104C7.66699 13.5379 7.31633 13.8875 6.88867 13.8877C6.46109 13.8875 6.11133 13.5378 6.11133 13.1104C6.11158 12.6831 6.46125 12.3332 6.88867 12.333ZM13.1123 12.333C13.5397 12.3333 13.8894 12.6831 13.8896 13.1104C13.8896 13.5378 13.5398 13.8874 13.1123 13.8877H10.001C9.5732 13.8877 9.22266 13.538 9.22266 13.1104C9.22291 12.6829 9.57335 12.333 10.001 12.333H13.1123ZM7.85059 4.55566C7.55441 4.55566 7.28757 4.72038 7.15527 4.98535L5.03613 9.22266H14.9639L12.8447 4.98535C12.7124 4.72036 12.4456 4.55566 12.1494 4.55566H7.85059Z" fill="#5C5C5C"/>
</svg>
