<svg width="20" height="20" viewBox="0 0 20 20" fill="none" xmlns="http://www.w3.org/2000/svg">
<path d="M8.40063 15.25C8.84043 15.2502 9.20043 15.6439 9.20044 16.125C9.20044 16.6061 8.84044 16.9998 8.40063 17H6.80005C6.36014 16.9999 6.00024 16.6062 6.00024 16.125C6.00026 15.6438 6.36015 15.2501 6.80005 15.25H8.40063ZM14.2444 3.24512C14.5595 2.91624 15.0575 2.91762 15.3655 3.25586L17.7659 5.88086C18.0778 6.22293 18.0777 6.7769 17.7659 7.11816C17.6099 7.28962 17.4052 7.37495 17.2004 7.375C16.9956 7.375 16.791 7.28966 16.635 7.11816L15.5999 5.9873V14.0635L16.6438 12.9609C16.9622 12.6258 17.4692 12.6351 17.7756 12.9824C18.0828 13.3307 18.0737 13.8846 17.7561 14.2197L15.3567 16.7549C15.2007 16.9176 15 17 14.8 17C14.5953 16.9999 14.3906 16.9146 14.2346 16.7432L11.8352 14.1182C11.5224 13.7769 11.5224 13.223 11.8352 12.8809C12.1472 12.5401 12.6534 12.5399 12.9661 12.8809L14.0002 14.0127V5.9375L12.9563 7.03906C12.6387 7.37492 12.1326 7.36393 11.8254 7.0166C11.5183 6.66922 11.5264 6.11528 11.844 5.7793L14.2444 3.24512ZM8.39966 9.125C8.83965 9.125 9.20044 9.51875 9.20044 10C9.20043 10.4812 8.83965 10.875 8.39966 10.875H5.20044C4.76045 10.875 4.40065 10.4812 4.40063 10C4.40063 9.51875 4.76044 9.125 5.20044 9.125H8.39966ZM8.40063 3C8.84042 3.00028 9.20044 3.39392 9.20044 3.875C9.20044 4.35608 8.84042 4.74972 8.40063 4.75H2.80005C2.36014 4.74989 2.00024 4.35618 2.00024 3.875C2.00024 3.39382 2.36014 3.00011 2.80005 3H8.40063Z" fill="#5C5C5C"/>
</svg>
