<svg width="20" height="20" viewBox="0 0 20 20" fill="none" xmlns="http://www.w3.org/2000/svg">
<path fill-rule="evenodd" clip-rule="evenodd" d="M10.5561 2.23114L16.552 8.54221C16.8367 8.84319 17 9.26265 17 9.69411V16.399C17 17.282 16.3404 18 15.5308 18H12.3333H7.66667H4.46844C3.65878 18 3 17.282 3 16.399V9.69411C3 9.26265 3.16333 8.84319 3.44722 8.54301L9.44389 2.23114C9.73711 1.92295 10.2629 1.92295 10.5561 2.23114ZM15.4362 16.3989L15.444 9.69382L9.99865 3.93698L4.56018 9.66159L4.55529 16.3989H6.8883V10.7954C6.88841 10.3528 7.23658 9.99557 7.66662 9.99557H12.3326C12.7619 9.99557 13.1109 10.3528 13.111 10.7954V16.3989H15.4362ZM11.5553 16.3989V11.5962H8.44397V16.3989H11.5553Z" fill="#5C5C5C"/>
</svg>
