<svg width="20" height="20" viewBox="0 0 20 20" fill="none" xmlns="http://www.w3.org/2000/svg">
<path d="M10.0002 3C13.8656 3 17.0002 6.1339 17.0002 10C17.0002 13.8661 13.8656 17 10.0002 17C6.13414 17 3.00024 13.8661 3.00024 10C3.00024 6.1339 6.13414 3 10.0002 3ZM10.0002 4.40039C6.91255 4.40039 4.39966 6.9123 4.39966 10C4.39966 13.0877 6.91254 15.5996 10.0002 15.5996C13.0879 15.5995 15.5999 13.0877 15.5999 10C15.5999 6.91235 13.0879 4.40046 10.0002 4.40039ZM10.0002 8.59961C10.3866 8.59961 10.7003 8.91349 10.7004 9.2998V12.7998C10.7004 13.1862 10.3866 13.5 10.0002 13.5C9.61393 13.4999 9.30005 13.1861 9.30005 12.7998V9.2998C9.30015 8.91356 9.614 8.59972 10.0002 8.59961ZM10.0002 6.5C10.3866 6.50011 10.7004 6.81386 10.7004 7.2002C10.7003 7.58644 10.3865 7.90029 10.0002 7.90039C9.614 7.90028 9.30015 7.58644 9.30005 7.2002C9.30005 6.81386 9.61394 6.50011 10.0002 6.5Z" fill="#5C5C5C"/>
</svg>
