<svg width="20" height="20" viewBox="0 0 20 20" fill="none" xmlns="http://www.w3.org/2000/svg">
<path fill-rule="evenodd" clip-rule="evenodd" d="M14.9002 15.6001C14.5131 15.6001 14.2002 15.2872 14.2002 14.9001C14.2002 14.513 14.5131 14.2001 14.9002 14.2001C15.2873 14.2001 15.6002 14.513 15.6002 14.9001C15.6002 15.2872 15.2873 15.6001 14.9002 15.6001ZM14.8999 12.8001C13.7421 12.8001 12.7999 13.7423 12.7999 14.9002C12.7999 16.058 13.7421 17.0002 14.8999 17.0002C16.0578 17.0002 17 16.058 17 14.9002C17 13.7423 16.0578 12.8001 14.8999 12.8001ZM9.99996 15.6001C9.61285 15.6001 9.29994 15.2872 9.29994 14.9001C9.29994 14.513 9.61285 14.2001 9.99996 14.2001C10.3871 14.2001 10.7 14.513 10.7 14.9001C10.7 15.2872 10.3871 15.6001 9.99996 15.6001ZM10.0001 12.8001C8.84227 12.8001 7.90005 13.7423 7.90005 14.9002C7.90005 16.058 8.84227 17.0002 10.0001 17.0002C11.1579 17.0002 12.1001 16.058 12.1001 14.9002C12.1001 13.7423 11.1579 12.8001 10.0001 12.8001ZM5.09971 15.6001C4.7126 15.6001 4.39969 15.2872 4.39969 14.9001C4.39969 14.513 4.7126 14.2001 5.09971 14.2001C5.48682 14.2001 5.79972 14.513 5.79972 14.9001C5.79972 15.2872 5.48682 15.6001 5.09971 15.6001ZM5.09984 12.8001C3.94202 12.8001 2.9998 13.7423 2.9998 14.9002C2.9998 16.058 3.94202 17.0002 5.09984 17.0002C6.25767 17.0002 7.19989 16.058 7.19989 14.9002C7.19989 13.7423 6.25767 12.8001 5.09984 12.8001ZM14.9002 10.7C14.5131 10.7 14.2002 10.3871 14.2002 10C14.2002 9.61291 14.5131 9.3 14.9002 9.3C15.2873 9.3 15.6002 9.61291 15.6002 10C15.6002 10.3871 15.2873 10.7 14.9002 10.7ZM14.8999 7.89995C13.7421 7.89995 12.7999 8.84218 12.7999 10C12.7999 11.1578 13.7421 12.1001 14.8999 12.1001C16.0578 12.1001 17 11.1578 17 10C17 8.84218 16.0578 7.89995 14.8999 7.89995ZM9.99996 10.7C9.61285 10.7 9.29994 10.3871 9.29994 10C9.29994 9.61291 9.61285 9.3 9.99996 9.3C10.3871 9.3 10.7 9.61291 10.7 10C10.7 10.3871 10.3871 10.7 9.99996 10.7ZM10.0001 7.89995C8.84227 7.89995 7.90005 8.84218 7.90005 10C7.90005 11.1578 8.84227 12.1001 10.0001 12.1001C11.1579 12.1001 12.1001 11.1578 12.1001 10C12.1001 8.84218 11.1579 7.89995 10.0001 7.89995ZM5.09971 10.7C4.7126 10.7 4.39969 10.3871 4.39969 10C4.39969 9.61291 4.7126 9.3 5.09971 9.3C5.48682 9.3 5.79972 9.61291 5.79972 10C5.79972 10.3871 5.48682 10.7 5.09971 10.7ZM5.09984 7.89995C3.94202 7.89995 2.9998 8.84218 2.9998 10C2.9998 11.1578 3.94202 12.1001 5.09984 12.1001C6.25767 12.1001 7.19989 11.1578 7.19989 10C7.19989 8.84218 6.25767 7.89995 5.09984 7.89995ZM14.9002 4.39991C15.2873 4.39991 15.6002 4.71281 15.6002 5.09992C15.6002 5.48703 15.2873 5.79994 14.9002 5.79994C14.5131 5.79994 14.2002 5.48703 14.2002 5.09992C14.2002 4.71281 14.5131 4.39991 14.9002 4.39991ZM14.8999 7.19995C16.0578 7.19995 17 6.25773 17 5.09991C17 3.94208 16.0578 2.99986 14.8999 2.99986C13.7421 2.99986 12.7999 3.94208 12.7999 5.09991C12.7999 6.25773 13.7421 7.19995 14.8999 7.19995ZM9.99996 5.79994C9.61285 5.79994 9.29994 5.48633 9.29994 5.09992C9.29994 4.71281 9.61285 4.39991 9.99996 4.39991C10.3871 4.39991 10.7 4.71281 10.7 5.09992C10.7 5.48633 10.3871 5.79994 9.99996 5.79994ZM10.0001 2.99986C8.84227 2.99986 7.90005 3.94208 7.90005 5.09991C7.90005 6.25773 8.84227 7.19995 10.0001 7.19995C11.1579 7.19995 12.1001 6.25773 12.1001 5.09991C12.1001 3.94208 11.1579 2.99986 10.0001 2.99986ZM5.09971 5.79994C4.7126 5.79994 4.39969 5.48703 4.39969 5.09992C4.39969 4.71281 4.7126 4.39991 5.09971 4.39991C5.48682 4.39991 5.79972 4.71281 5.79972 5.09992C5.79972 5.48703 5.48682 5.79994 5.09971 5.79994ZM5.09968 2.99988C3.94186 2.99988 2.99963 3.9421 2.99963 5.09993C2.99963 6.25775 3.94186 7.19998 5.09968 7.19998C6.25751 7.19998 7.19973 6.25775 7.19973 5.09993C7.19973 3.9421 6.25751 2.99988 5.09968 2.99988Z" fill="#5C5C5C"/>
</svg>
