<svg width="20" height="20" viewBox="0 0 20 20" fill="none" xmlns="http://www.w3.org/2000/svg">
<path fill-rule="evenodd" clip-rule="evenodd" d="M14.4802 12.7533L10.0003 15.3254L5.5204 12.7533L6.83793 12.1925L9.613 13.7854C9.73277 13.8546 9.86655 13.8888 10.0003 13.8888C10.1341 13.8888 10.2671 13.8546 10.3877 13.7854L13.1627 12.1918L14.4802 12.7533ZM9.613 10.6743C9.73277 10.7436 9.86655 10.7778 10.0003 10.7778C10.1341 10.7778 10.2671 10.7436 10.3877 10.6743L13.1627 9.08069L14.4802 9.64224L10.0003 12.2143L5.5204 9.64224L6.83793 9.08069L9.613 10.6743ZM10.0003 4.62334L14.4802 6.53119L10.0003 9.10326L5.5204 6.53119L10.0003 4.62334ZM16.9987 9.49291C16.9808 9.19814 16.798 8.93914 16.5266 8.82326L14.8528 8.11083L16.6098 7.10206C16.8657 6.95584 17.0158 6.67663 16.9987 6.38185C16.9808 6.08786 16.798 5.82809 16.5266 5.7122L10.3045 3.06235C10.11 2.97913 9.88993 2.97913 9.69548 3.06235L3.47337 5.7122C3.20193 5.82809 3.01915 6.08786 3.00204 6.38185C2.98415 6.67663 3.13504 6.95584 3.39092 7.10206L5.14712 8.11083L3.47337 8.82326C3.20193 8.93914 3.01915 9.19814 3.00204 9.49291C2.98415 9.78769 3.13504 10.0669 3.39092 10.2131L5.14712 11.2219L3.47337 11.9343C3.20193 12.0502 3.01915 12.3092 3.00204 12.604C2.98415 12.8987 3.13504 13.178 3.39092 13.3242L9.61304 16.8965C9.73282 16.9657 9.86659 16.9999 10.0004 16.9999C10.1341 16.9999 10.2671 16.9657 10.3877 16.8965L16.6098 13.3242C16.8657 13.178 17.0158 12.8987 16.9987 12.604C16.9808 12.31 16.798 12.0502 16.5274 11.9343L14.8536 11.2211L16.6098 10.2131C16.8657 10.0669 17.0158 9.78769 16.9987 9.49291Z" fill="#5C5C5C"/>
</svg>
