<svg width="20" height="20" viewBox="0 0 20 20" fill="none" xmlns="http://www.w3.org/2000/svg">
<path d="M10 3C13.866 3 17 6.13401 17 10C17 13.866 13.866 17 10 17C6.13401 17 3 13.866 3 10C3 6.13401 6.13401 3 10 3ZM10 4.40039C6.90721 4.40039 4.40039 6.90721 4.40039 10C4.40039 13.0928 6.90721 15.5996 10 15.5996C13.0928 15.5996 15.5996 13.0928 15.5996 10C15.5996 6.90721 13.0928 4.40039 10 4.40039ZM10.252 5.10645C12.841 5.23759 14.9003 7.37842 14.9004 10C14.9003 12.3658 13.2231 14.3398 10.9932 14.7988C10.4523 14.9101 10 14.4517 10 13.8994V5.35156C10.0002 5.21364 10.114 5.10271 10.252 5.10645Z" fill="#5C5C5C"/>
</svg>
