<svg width="20" height="20" viewBox="0 0 20 20" fill="none" xmlns="http://www.w3.org/2000/svg">
<path d="M2.88867 14C3.37932 14 3.77734 14.448 3.77734 15C3.77734 15.552 3.37932 16 2.88867 16C2.39811 15.9999 2 15.5519 2 15C2 14.4481 2.39811 14.0001 2.88867 14ZM17.168 14C17.6256 14 17.9998 14.4208 18 14.9355V15.0645C17.9998 15.5792 17.6256 16 17.168 16H6.3877C5.93007 16 5.55686 15.5792 5.55664 15.0645V14.9355C5.55686 14.4208 5.93006 14 6.3877 14H17.168ZM2.88867 9C3.37932 9 3.77734 9.448 3.77734 10C3.77734 10.552 3.37932 11 2.88867 11C2.39811 10.9999 2 10.5519 2 10C2 9.44807 2.39811 9.00012 2.88867 9ZM17.168 9C17.6256 9 17.9998 9.42076 18 9.93555V10.0645C17.9998 10.5793 17.6256 11 17.168 11H6.3877C5.93006 11 5.55686 10.5793 5.55664 10.0645V9.93555C5.55686 9.42076 5.93007 9 6.3877 9H17.168ZM2.88867 4C3.37932 4 3.77734 4.448 3.77734 5C3.77734 5.552 3.37932 6 2.88867 6C2.39811 5.99988 2 5.55193 2 5C2 4.44807 2.39811 4.00012 2.88867 4ZM17.1689 4C17.6264 4.00029 17.9998 4.42093 18 4.93555V5.06445C17.9998 5.57907 17.6264 5.99971 17.1689 6H6.3877C5.93006 6 5.55686 5.57925 5.55664 5.06445V4.93555C5.55686 4.42075 5.93006 4 6.3877 4H17.1689Z" fill="#5C5C5C"/>
</svg>
