<svg width="20" height="20" viewBox="0 0 20 20" fill="none" xmlns="http://www.w3.org/2000/svg">
<path d="M9.99976 14.2C10.3862 14.2 10.7 14.5131 10.7 14.9002V16.3006C10.6997 16.6875 10.386 16.9998 9.99976 16.9998C9.61365 16.9996 9.30078 16.6874 9.30054 16.3006V14.9002C9.30054 14.5132 9.6135 14.2002 9.99976 14.2ZM5.98901 12.9002C6.26762 12.6321 6.71114 12.6406 6.97925 12.9178C7.24763 13.1957 7.23943 13.6391 6.96167 13.907L5.95483 14.8807C5.81844 15.0121 5.64333 15.0759 5.46851 15.076C5.28513 15.076 5.1018 15.0052 4.9646 14.8631C4.69587 14.5853 4.70351 14.141 4.9812 13.8729L5.98901 12.9002ZM13.0212 12.9178C13.29 12.6406 13.7336 12.6321 14.0115 12.9002L15.0183 13.8729C15.2962 14.141 15.3037 14.5852 15.0349 14.8631C14.8978 15.0049 14.7152 15.076 14.532 15.076C14.3571 15.076 14.1821 15.0121 14.0457 14.8807L13.0378 13.907C12.7603 13.639 12.7528 13.1956 13.0212 12.9178ZM5.10034 9.29962C5.48652 9.29982 5.79947 9.61291 5.79956 9.99982C5.79956 10.3868 5.48658 10.6998 5.10034 10.7H3.69995C3.31354 10.7 2.99976 10.3869 2.99976 9.99982C2.99985 9.61279 3.3136 9.29962 3.69995 9.29962H5.10034ZM16.3005 9.29962C16.6868 9.29971 17.0006 9.61284 17.0007 9.99982C17.0007 10.3869 16.6869 10.6999 16.3005 10.7H14.9001C14.5138 10.6999 14.2 10.3869 14.2 9.99982C14.2 9.61285 14.5139 9.29972 14.9001 9.29962H16.3005ZM14.0457 5.11993C14.3249 4.85129 14.7668 4.8605 15.0349 5.13751C15.3037 5.41472 15.2962 5.85894 15.0183 6.12775L14.0115 7.1004C13.875 7.23131 13.6992 7.29669 13.5242 7.29669C13.3409 7.29657 13.1583 7.22383 13.0212 7.08185C12.7527 6.80473 12.7603 6.36137 13.0378 6.09259L14.0457 5.11993ZM4.9646 5.13751C5.23408 4.86034 5.67595 4.85122 5.95386 5.11993L6.96167 6.09259C7.23958 6.3607 7.24708 6.80492 6.97827 7.08282C6.84116 7.22472 6.65857 7.29565 6.47534 7.29572C6.30051 7.29572 6.12546 7.23174 5.98901 7.1004L4.9812 6.12677C4.70347 5.85868 4.69594 5.41538 4.9646 5.13751ZM9.99976 2.99982C10.3862 2.99982 10.7 3.3129 10.7 3.70001V5.09943C10.7 5.48654 10.3862 5.79962 9.99976 5.79962C9.6135 5.79945 9.30054 5.48643 9.30054 5.09943V3.70001C9.30054 3.31301 9.6135 2.99999 9.99976 2.99982Z" fill="#5C5C5C"/>
</svg>
