<svg width="20" height="20" viewBox="0 0 20 20" fill="none" xmlns="http://www.w3.org/2000/svg">
<path fill-rule="evenodd" clip-rule="evenodd" d="M9.99976 13.2C9.51676 13.2 9.12476 12.8416 9.12476 12.4C9.12476 11.9584 9.51676 11.6 9.99976 11.6C10.4828 11.6 10.8748 11.9584 10.8748 12.4C10.8748 12.8416 10.4828 13.2 9.99976 13.2ZM9.99976 10C8.55251 10 7.37476 11.0768 7.37476 12.4C7.37476 13.7232 8.55251 14.8 9.99976 14.8C11.447 14.8 12.6248 13.7232 12.6248 12.4C12.6248 11.0768 11.447 10 9.99976 10ZM15.2498 15.6C15.2498 16.0416 14.8578 16.4 14.3748 16.4H5.62476C5.14176 16.4 4.74976 16.0416 4.74976 15.6V9.19999C4.74976 8.75839 5.14176 8.39999 5.62476 8.39999H6.49976H8.24976H11.7498H13.4998H14.3748C14.8578 8.39999 15.2498 8.75839 15.2498 9.19999V15.6ZM8.24976 5.28878C8.24976 4.35758 9.03463 3.59998 9.99976 3.59998C10.9649 3.59998 11.7498 4.35758 11.7498 5.28878V6.79998H8.24976V5.28878ZM14.3748 6.8H13.4998V5.2888C13.4998 3.476 11.93 2 9.99976 2C8.06951 2 6.49976 3.476 6.49976 5.2888V6.8H5.62476C4.17751 6.8 2.99976 7.8768 2.99976 9.2V15.6C2.99976 16.9232 4.17751 18 5.62476 18H14.3748C15.822 18 16.9998 16.9232 16.9998 15.6V9.2C16.9998 7.8768 15.822 6.8 14.3748 6.8Z" fill="#5C5C5C"/>
</svg>
