<svg width="20" height="20" viewBox="0 0 20 20" fill="none" xmlns="http://www.w3.org/2000/svg">
<path fill-rule="evenodd" clip-rule="evenodd" d="M10.7779 8.44447H7.66683C7.23907 8.44447 6.88908 8.79446 6.88908 9.22223C6.88908 9.64999 7.23907 9.99998 7.66683 9.99998H10.7779C11.2056 9.99998 11.5556 9.64999 11.5556 9.22223C11.5556 8.79446 11.2056 8.44447 10.7779 8.44447ZM4.55581 9.22226C4.55581 6.64867 6.64875 4.55573 9.22234 4.55573C11.7959 4.55573 13.8889 6.64867 13.8889 9.22226C13.8889 11.7959 11.7959 13.8888 9.22234 13.8888C6.64875 13.8888 4.55581 11.7959 4.55581 9.22226ZM16.772 15.6722L14.1315 13.0309C14.9505 11.9778 15.4443 10.658 15.4443 9.22223C15.4443 5.79155 12.653 3.00018 9.22229 3.00018C5.79161 3.00018 3.00024 5.79155 3.00024 9.22223C3.00024 12.6529 5.79161 15.4443 9.22229 15.4443C10.658 15.4443 11.9779 14.9504 13.031 14.1314L15.6722 16.7719C15.8239 16.9236 16.023 16.9998 16.2221 16.9998C16.4212 16.9998 16.6203 16.9236 16.772 16.7719C17.0761 16.4678 17.0761 15.9763 16.772 15.6722Z" fill="#5C5C5C"/>
</svg>
