<svg width="20" height="20" viewBox="0 0 20 20" fill="none" xmlns="http://www.w3.org/2000/svg">
<path fill-rule="evenodd" clip-rule="evenodd" d="M16.6666 11.6667C16.6666 12.1258 16.2933 12.5 15.8333 12.5H10.0725H9.92746H4.16663C3.70663 12.5 3.33329 12.1258 3.33329 11.6667V5C3.33329 4.54083 3.70663 4.16667 4.16663 4.16667H15.8333C16.2933 4.16667 16.6666 4.54083 16.6666 5V11.6667ZM15.6001 3H4.40012C3.07692 3 2.00012 4.04689 2.00012 5.33333V11.5556C2.00012 12.842 3.07692 13.8889 4.40012 13.8889H9.20012V15.4444H6.00012C5.56012 15.4444 5.20012 15.7944 5.20012 16.2222C5.20012 16.65 5.56012 17 6.00012 17H14.0001C14.4401 17 14.8001 16.65 14.8001 16.2222C14.8001 15.7944 14.4401 15.4444 14.0001 15.4444H10.8001V13.8889H15.6001C16.9233 13.8889 18.0001 12.842 18.0001 11.5556V5.33333C18.0001 4.04689 16.9233 3 15.6001 3Z" fill="#5C5C5C"/>
</svg>
