<svg width="20" height="20" viewBox="0 0 20 20" fill="none" xmlns="http://www.w3.org/2000/svg">
<path fill-rule="evenodd" clip-rule="evenodd" d="M6.81298 5.04252C6.46261 5.29031 6.14096 5.5773 5.84945 5.90208C3.85301 8.12166 3.91818 11.6733 5.99451 13.8187C7.09188 14.9533 8.56626 15.5861 10.1457 15.5994C10.1633 15.6001 10.1815 15.6001 10.1997 15.6001C11.7589 15.6001 13.2227 14.996 14.3271 13.895C14.557 13.6661 14.7658 13.4204 14.9529 13.1586C12.7483 13.433 10.4884 12.6952 8.883 11.0951C7.27828 9.49499 6.53549 7.24251 6.81298 5.04252ZM10.1996 17C10.1772 17 10.1554 17 10.133 16.9993C8.17511 16.9825 6.34686 16.1985 4.9867 14.7923C2.41004 12.129 2.32946 7.72128 4.80591 4.96693C5.57743 4.10807 6.51924 3.46201 7.6047 3.04693C7.86048 2.94753 8.15129 3.00913 8.3468 3.20232C8.54231 3.39481 8.60748 3.68389 8.51288 3.94148C7.72944 6.07987 8.26341 8.49894 9.87303 10.104C11.4834 11.709 13.9115 12.2416 16.0592 11.4605C16.3171 11.3653 16.6072 11.4325 16.7992 11.6271C16.9912 11.8238 17.0522 12.1136 16.9534 12.369C16.5862 13.3231 16.0354 14.17 15.3165 14.8861C13.9479 16.251 12.1329 17 10.1996 17Z" fill="#5C5C5C"/>
</svg>
