<svg width="20" height="20" viewBox="0 0 20 20" fill="none" xmlns="http://www.w3.org/2000/svg">
<path d="M9.99963 2.99988C13.8595 2.99988 16.9995 6.14006 16.9996 9.99988C16.9996 13.8598 13.8595 16.9999 9.99963 16.9999C6.13982 16.9998 2.99963 13.8597 2.99963 9.99988C2.99972 6.14012 6.13987 2.99997 9.99963 2.99988ZM9.99963 4.40027C6.912 4.40037 4.40011 6.91224 4.40002 9.99988C4.40002 13.0876 6.91195 15.6004 9.99963 15.6005C13.0874 15.6005 15.6002 13.0876 15.6002 9.99988C15.6001 6.91218 13.0874 4.40027 9.99963 4.40027ZM7.90002 7.20007C8.28495 7.20017 8.60022 7.51532 8.60022 7.90027V12.1005C8.6 12.4852 8.28482 12.8006 7.90002 12.8007C7.51518 12.8006 7.20004 12.4853 7.19983 12.1005V7.90027C7.19983 7.51528 7.51504 7.20011 7.90002 7.20007ZM12.0992 7.20007C12.4843 7.20007 12.7994 7.51526 12.7994 7.90027V12.1005C12.7992 12.4853 12.4841 12.8007 12.0992 12.8007C11.7146 12.8004 11.4002 12.4852 11.4 12.1005V7.90027C11.4 7.5154 11.7144 7.2003 12.0992 7.20007Z" fill="#5C5C5C"/>
</svg>
