<svg width="20" height="20" viewBox="0 0 20 20" fill="none" xmlns="http://www.w3.org/2000/svg">
<path fill-rule="evenodd" clip-rule="evenodd" d="M16.7723 3.21494C16.4687 2.92835 15.976 2.92835 15.6724 3.21494L3.22837 14.927C3.07612 15.0703 3 15.2572 3 15.445C3 15.6319 3.07612 15.8197 3.22837 15.9621C3.53199 16.2479 4.02373 16.2479 4.32823 15.9621L16.7723 4.2501C17.0759 3.96351 17.0759 3.5007 16.7723 3.21494ZM13.5005 15.353C12.7769 15.353 12.188 14.7987 12.188 14.1177C12.188 13.4366 12.7769 12.8824 13.5005 12.8824C14.2241 12.8824 14.8129 13.4366 14.8129 14.1177C14.8129 14.7987 14.2241 15.353 13.5005 15.353ZM13.5 11.2354C11.8112 11.2354 10.4375 12.5283 10.4375 14.1177C10.4375 15.7071 11.8112 17 13.5 17C15.1887 17 16.5624 15.7071 16.5624 14.1177C16.5624 12.5283 15.1887 11.2354 13.5 11.2354ZM6.49998 4.64729C7.22359 4.64729 7.81246 5.20152 7.81246 5.88256C7.81246 6.56361 7.22359 7.11784 6.49998 7.11784C5.77637 7.11784 5.1875 6.56361 5.1875 5.88256C5.1875 5.20152 5.77637 4.64729 6.49998 4.64729ZM6.50029 8.76491C8.18901 8.76491 9.56274 7.47199 9.56274 5.88261C9.56274 4.29322 8.18901 3.00031 6.50029 3.00031C4.81156 3.00031 3.43783 4.29322 3.43783 5.88261C3.43783 7.47199 4.81156 8.76491 6.50029 8.76491Z" fill="#5C5C5C"/>
</svg>
