<svg width="20" height="20" viewBox="0 0 20 20" fill="none" xmlns="http://www.w3.org/2000/svg">
<path fill-rule="evenodd" clip-rule="evenodd" d="M16.1748 11.5094C15.8087 11.3729 15.4097 11.5732 15.2816 11.9561C14.492 14.296 12.3688 15.8679 9.99998 15.8679C6.91224 15.8679 4.3999 13.2361 4.3999 9.99981C4.3999 7.5176 5.90002 5.29285 8.13305 4.46544C8.49776 4.33121 8.68886 3.91237 8.56006 3.53021C8.43126 3.14878 8.03155 2.9478 7.66685 3.0835C4.87521 4.11702 2.99988 6.89631 2.99988 9.99981C2.99988 14.0444 6.14013 17.335 9.99998 17.335C12.9617 17.335 15.6141 15.3706 16.6011 12.4446C16.7299 12.0632 16.5395 11.6443 16.1748 11.5094ZM11.3998 8.53309V4.18408C13.5425 4.50683 15.2421 6.28707 15.5501 8.53309H11.3998ZM10.6997 2.66498C10.3133 2.66498 9.99971 2.99286 9.99971 3.39849V9.26661C9.99971 9.67224 10.3133 10.0001 10.6997 10.0001H16.2998C16.6862 10.0001 16.9998 9.67224 16.9998 9.26661C16.9998 5.62618 14.1732 2.66498 10.6997 2.66498Z" fill="#5C5C5C"/>
</svg>
