<svg width="20" height="20" viewBox="0 0 20 20" fill="none" xmlns="http://www.w3.org/2000/svg">
<path fill-rule="evenodd" clip-rule="evenodd" d="M9.83337 9.19959C9.16144 9.19959 8.61462 8.66119 8.61462 7.99959C8.61462 7.33799 9.16144 6.79959 9.83337 6.79959C10.5053 6.79959 11.0521 7.33799 11.0521 7.99959C11.0521 8.66119 10.5053 9.19959 9.83337 9.19959ZM9.83337 5.19958C8.26525 5.19958 6.98962 6.45559 6.98962 7.99959C6.98962 9.54359 8.26525 10.7996 9.83337 10.7996C11.4015 10.7996 12.6771 9.54359 12.6771 7.99959C12.6771 6.45559 11.4015 5.19958 9.83337 5.19958ZM9.83337 16.1168C8.47244 14.8496 4.95837 11.292 4.95837 8.33758C4.95837 5.72558 7.14481 3.59998 9.83337 3.59998C12.5219 3.59998 14.7084 5.72558 14.7084 8.33758C14.7084 11.292 11.1943 14.8496 9.83337 16.1168ZM9.83337 2C6.24944 2 3.33337 4.8424 3.33337 8.3376C3.33337 12.7176 9.06069 17.6008 9.30444 17.8064C9.45719 17.9352 9.64487 18 9.83337 18C10.0219 18 10.2096 17.9352 10.3623 17.8064C10.6061 17.6008 16.3334 12.7176 16.3334 8.3376C16.3334 4.8424 13.4173 2 9.83337 2Z" fill="#5C5C5C"/>
</svg>
