<svg width="20" height="20" viewBox="0 0 20 20" fill="none" xmlns="http://www.w3.org/2000/svg">
<path fill-rule="evenodd" clip-rule="evenodd" d="M9.64994 11.8198V8.18041L11.6163 9.99975L9.64994 11.8198ZM10.2374 6.81674C9.88878 6.49334 9.37987 6.40933 8.94166 6.60184C8.51465 6.78804 8.25004 7.18635 8.25004 7.64066V12.3595C8.25004 12.8138 8.51465 13.2121 8.94166 13.3983C9.09776 13.4669 9.26366 13.4998 9.42677 13.4998C9.72288 13.4998 10.0134 13.3913 10.2367 13.1841L12.7861 10.825C13.0179 10.6108 13.1502 10.3105 13.1502 9.99972C13.1502 9.68961 13.0179 9.3886 12.7861 9.1751L10.2374 6.81674ZM9.99994 15.6002C6.91217 15.6002 4.39981 13.0878 4.39981 10C4.39981 6.91227 6.91217 4.39991 9.99994 4.39991C13.0877 4.39991 15.6001 6.91227 15.6001 10C15.6001 13.0878 13.0877 15.6002 9.99994 15.6002ZM9.99992 2.99988C6.14003 2.99988 2.99976 6.14015 2.99976 10C2.99976 13.8599 6.14003 17.0002 9.99992 17.0002C13.8598 17.0002 17.0001 13.8599 17.0001 10C17.0001 6.14015 13.8598 2.99988 9.99992 2.99988Z" fill="#5C5C5C"/>
</svg>
