<svg width="20" height="20" viewBox="0 0 20 20" fill="none" xmlns="http://www.w3.org/2000/svg">
<path d="M12.2673 4.69434C12.4444 4.3671 12.8668 4.23944 13.2097 4.40723C15.5469 5.55848 16.9996 7.82853 16.9998 10.333C16.9998 14.0083 13.8596 17 9.99976 17C6.13996 17 2.99976 14.0083 2.99976 10.333C2.9999 7.82863 4.45207 5.55853 6.78979 4.40723C7.13209 4.23856 7.55535 4.36634 7.73315 4.69434C7.91083 5.02097 7.77532 5.42249 7.43237 5.5918C5.56154 6.51243 4.4003 8.32928 4.40015 10.333C4.40015 13.2736 6.91206 15.667 9.99976 15.667C13.0875 15.667 15.5994 13.2736 15.5994 10.333C15.5992 8.32919 14.4374 6.51239 12.5671 5.5918C12.2237 5.42238 12.0896 5.02089 12.2673 4.69434ZM9.99976 3C10.386 3.00013 10.7 3.29841 10.7 3.66699V10.333C10.7 10.7016 10.386 10.9999 9.99976 11C9.61336 11 9.29956 10.7017 9.29956 10.333V3.66699C9.29956 3.29833 9.61336 3 9.99976 3Z" fill="#5C5C5C"/>
</svg>
