<svg width="20" height="20" viewBox="0 0 20 20" fill="none" xmlns="http://www.w3.org/2000/svg">
<path fill-rule="evenodd" clip-rule="evenodd" d="M15.6001 13.3701C15.6001 13.6563 15.4006 13.8889 15.1542 13.8889H14.5501V12.3333C14.5501 11.4754 13.9222 10.7778 13.1501 10.7778H6.85015C6.07805 10.7778 5.45015 11.4754 5.45015 12.3333V13.8889H4.84605C4.59965 13.8889 4.40015 13.6563 4.40015 13.3701V8.18544C4.40015 7.89922 4.59965 7.66667 4.84605 7.66667H5.80015H7.20015H12.8001H14.2001H15.1542C15.4006 7.66667 15.6001 7.89922 15.6001 8.18544V13.3701ZM6.85034 15.4444V12.3333H13.1503L13.1517 15.4444H6.85034ZM7.21022 4.55557H12.8004V6.11113H7.20532L7.21022 4.55557ZM15.1543 6.11111H14.2002V4.55556C14.2002 3.69767 13.6248 3 12.9171 3H7.08334C6.37564 3 5.80024 3.69767 5.80024 4.55556V6.11111H4.84614C3.82834 6.11111 3.00024 7.04133 3.00024 8.18544V13.3701C3.00024 14.5142 3.82834 15.4444 4.84614 15.4444H5.45024C5.45024 16.3023 6.07814 17 6.85024 17H13.1502C13.9223 17 14.5502 16.3023 14.5502 15.4444H15.1543C16.1721 15.4444 17.0002 14.5142 17.0002 13.3701V8.18544C17.0002 7.04133 16.1721 6.11111 15.1543 6.11111Z" fill="#5C5C5C"/>
</svg>
