<svg width="20" height="20" viewBox="0 0 20 20" fill="none" xmlns="http://www.w3.org/2000/svg">
<path fill-rule="evenodd" clip-rule="evenodd" d="M14.7998 12C13.9174 12 13.1998 11.103 13.1998 10C13.1998 8.897 13.9174 8 14.7998 8C15.6822 8 16.3998 8.897 16.3998 10C16.3998 11.103 15.6822 12 14.7998 12ZM3.59973 10C3.59973 8.897 4.31733 8 5.19973 8C6.08213 8 6.79973 8.897 6.79973 10C6.79973 11.103 6.08213 12 5.19973 12C4.31733 12 3.59973 11.103 3.59973 10ZM14.8001 6C13.0353 6 11.6001 7.794 11.6001 10C11.6001 10.731 11.7697 11.409 12.0457 12H7.95452C8.23052 11.409 8.40012 10.731 8.40012 10C8.40012 7.794 6.96492 6 5.20012 6C3.43532 6 2.00012 7.794 2.00012 10C2.00012 12.206 3.43532 14 5.20012 14H14.8001C16.5649 14 18.0001 12.206 18.0001 10C18.0001 7.794 16.5649 6 14.8001 6Z" fill="#5C5C5C"/>
</svg>
