<svg width="20" height="20" viewBox="0 0 20 20" fill="none" xmlns="http://www.w3.org/2000/svg">
<path fill-rule="evenodd" clip-rule="evenodd" d="M16.458 11.1091C16.0489 10.9792 15.6118 11.2056 15.4812 11.6147C14.7524 13.906 12.6073 15.4444 10.1433 15.4444C7.06177 15.4444 4.55579 13.0022 4.55579 10C4.55579 6.99856 7.06177 4.55556 10.1433 4.55556C11.4873 4.55556 12.7551 5.02378 13.7561 5.85444L12.0714 5.57678C11.6436 5.499 11.247 5.79378 11.177 6.21689C11.107 6.64078 11.394 7.04133 11.8179 7.11056L15.1203 7.65656C15.1631 7.66356 15.2066 7.66667 15.2478 7.66667C15.3404 7.66667 15.4306 7.65033 15.5146 7.61922C15.5434 7.60833 15.5667 7.58811 15.5947 7.57333C15.646 7.54689 15.6997 7.52356 15.744 7.48622C15.772 7.46367 15.7899 7.431 15.814 7.40456C15.8506 7.36644 15.8895 7.32989 15.9167 7.28322C15.9362 7.24978 15.9439 7.21011 15.9587 7.17278C15.9774 7.12689 16.0023 7.08411 16.0116 7.03356L16.598 3.92244C16.6774 3.50011 16.3997 3.09256 15.9774 3.014C15.5566 2.93778 15.1483 3.21233 15.0689 3.63389L14.8574 4.75467C13.5632 3.63389 11.9042 3 10.1433 3C6.20467 3 3.00024 6.13989 3.00024 10C3.00024 13.8601 6.20467 17 10.1433 17C13.2871 17 16.0279 15.0252 16.9636 12.086C17.0935 11.6769 16.8672 11.2398 16.458 11.1091Z" fill="#5C5C5C"/>
</svg>
