<svg width="20" height="20" viewBox="0 0 20 20" fill="none" xmlns="http://www.w3.org/2000/svg">
<path d="M3.73706 10C4.14357 10.0002 4.47339 10.3133 4.47339 10.7002V12.4297C4.47339 13.0198 4.99906 13.5 5.64526 13.5H14.4841L13.531 12.5947C13.2433 12.3211 13.2433 11.8791 13.531 11.6055C13.8191 11.3318 14.2849 11.3318 14.573 11.6055L16.7839 13.7051C17.0719 13.9788 17.072 14.4217 16.7839 14.6953L14.573 16.7949C14.4294 16.9313 14.241 16.9999 14.0525 17C13.8639 17 13.6747 16.9314 13.531 16.7949C13.243 16.5212 13.243 16.0783 13.531 15.8047L14.4841 14.9004H5.64526C4.18634 14.9004 2.99976 13.7919 2.99976 12.4297V10.7002C2.99976 10.3131 3.33033 10 3.73706 10ZM5.42651 3.20508C5.71389 2.93157 6.18047 2.93144 6.46851 3.20508C6.7558 3.47877 6.75582 3.92163 6.46851 4.19531L5.51538 5.10059H14.3542C15.8124 5.10059 16.9997 6.20818 16.9998 7.57031V9.2998C16.9998 9.6869 16.6699 10 16.2625 10C15.8552 9.99978 15.5261 9.68676 15.5261 9.2998V7.57031C15.5261 6.98097 15.0004 6.5 14.3542 6.5H5.51538L6.46851 7.40527C6.75555 7.67886 6.75541 8.12086 6.46851 8.39453C6.32482 8.53103 6.13565 8.60059 5.94702 8.60059C5.75847 8.60053 5.57013 8.53097 5.42651 8.39453L3.21558 6.29492C2.92778 6.02132 2.92788 5.57933 3.21558 5.30566L5.42651 3.20508Z" fill="#5C5C5C"/>
</svg>
