<svg width="20" height="20" viewBox="0 0 20 20" fill="none" xmlns="http://www.w3.org/2000/svg">
<path fill-rule="evenodd" clip-rule="evenodd" d="M4.55541 9.22224C4.55541 6.64857 6.64841 4.55557 9.22208 4.55557C11.7957 4.55557 13.8887 6.64857 13.8887 9.22224C13.8887 11.7959 11.7957 13.8889 9.22208 13.8889C6.64841 13.8889 4.55541 11.7959 4.55541 9.22224ZM16.7721 15.6723L14.1316 13.031C14.9506 11.9779 15.4444 10.658 15.4444 9.22222C15.4444 5.79144 12.653 3 9.22222 3C5.79144 3 3 5.79144 3 9.22222C3 12.653 5.79144 15.4444 9.22222 15.4444C10.658 15.4444 11.9779 14.9506 13.031 14.1316L15.6723 16.7721C15.824 16.9238 16.0231 17 16.2222 17C16.4213 17 16.6204 16.9238 16.7721 16.7721C17.0762 16.468 17.0762 15.9764 16.7721 15.6723Z" fill="#5C5C5C"/>
</svg>
