<svg width="20" height="20" viewBox="0 0 20 20" fill="none" xmlns="http://www.w3.org/2000/svg">
<path fill-rule="evenodd" clip-rule="evenodd" d="M10.762 6.78884C10.5175 6.72768 10.2645 6.68421 10.0002 6.68421C9.73579 6.68421 9.48285 6.72768 9.23829 6.78884V3.73684C9.23829 3.32937 9.57961 3 10.0002 3C10.4207 3 10.762 3.32937 10.762 3.73684V6.78884ZM5.04772 14.7895C4.87401 14.7895 4.70031 14.7327 4.55708 14.6163C2.90839 13.2738 2.00024 11.5039 2.00024 9.63158C2.00024 7.75927 2.90839 5.98937 4.55708 4.64685C4.87858 4.38379 5.35932 4.42432 5.63131 4.73601C5.90177 5.04695 5.86063 5.5119 5.53912 5.77422C4.23938 6.83158 3.52398 8.20211 3.52398 9.63158C3.52398 11.0611 4.23938 12.4316 5.53912 13.489C5.86063 13.7513 5.90177 14.2162 5.63131 14.5272C5.48046 14.7003 5.26485 14.7895 5.04772 14.7895ZM10.0004 10.3684C9.5806 10.3684 9.23853 10.0383 9.23853 9.6316C9.23853 9.22486 9.5806 8.89475 10.0004 8.89475C10.4202 8.89475 10.7623 9.22486 10.7623 9.6316C10.7623 10.0383 10.4202 10.3684 10.0004 10.3684ZM10.0004 12.579C9.73603 12.579 9.48309 12.5355 9.23853 12.4743V16.2632C9.23853 16.6707 9.57984 17 10.0004 17C10.4209 17 10.7623 16.6707 10.7623 16.2632V12.4743C10.5177 12.5355 10.2648 12.579 10.0004 12.579ZM12.4646 13.0542C12.6162 13.2266 12.8311 13.3158 13.0482 13.3158C13.2219 13.3158 13.3956 13.259 13.5388 13.1426C14.6961 12.1994 15.3338 10.9527 15.3338 9.63155C15.3338 8.3104 14.6961 7.06366 13.5388 6.1205C13.2173 5.85818 12.7358 5.89871 12.4646 6.20892C12.1941 6.52061 12.2353 6.98555 12.5568 7.24787C13.3651 7.90513 13.8101 8.7525 13.8101 9.63155C13.8101 10.5106 13.3651 11.358 12.5568 12.0152C12.2353 12.2776 12.1941 12.7425 12.4646 13.0542ZM6.95235 13.3158C6.77865 13.3158 6.60494 13.2591 6.46171 13.1426C5.30443 12.1995 4.66675 10.9527 4.66675 9.63158C4.66675 8.31042 5.30443 7.06368 6.46171 6.12053C6.78322 5.85821 7.26396 5.898 7.53594 6.20895C7.80641 6.52063 7.76527 6.98558 7.44376 7.2479C6.63542 7.90516 6.19049 8.75253 6.19049 9.63158C6.19049 10.5106 6.63542 11.358 7.44376 12.0153C7.76527 12.2776 7.80641 12.7425 7.53594 13.0542C7.38509 13.2266 7.16949 13.3158 6.95235 13.3158ZM14.3689 14.5272C14.5197 14.7003 14.7354 14.7895 14.9525 14.7895C15.1262 14.7895 15.2999 14.7328 15.4431 14.6163C17.0918 13.2738 18 11.5039 18 9.6316C18 7.75929 17.0918 5.98939 15.4431 4.64687C15.1209 4.38455 14.6401 4.42434 14.3689 4.73603C14.0984 5.04697 14.1396 5.51192 14.4611 5.77424C15.7608 6.8316 16.4762 8.20213 16.4762 9.6316C16.4762 11.0611 15.7608 12.4316 14.4611 13.489C14.1396 13.7513 14.0984 14.2162 14.3689 14.5272Z" fill="#5C5C5C"/>
</svg>
