<svg width="20" height="20" viewBox="0 0 20 20" fill="none" xmlns="http://www.w3.org/2000/svg">
<path fill-rule="evenodd" clip-rule="evenodd" d="M4.39999 9.99999C4.39999 8.70779 4.84449 7.52059 5.58159 6.57209L13.4279 14.4184C12.4794 15.1562 11.2922 15.6 9.99999 15.6C6.91229 15.6 4.39999 13.0877 4.39999 9.99999ZM15.6001 10C15.6001 11.2922 15.1556 12.4794 14.4185 13.4279L6.57217 5.5816C7.52067 4.8438 8.70787 4.4 10.0001 4.4C13.0878 4.4 15.6001 6.9123 15.6001 10ZM10.0001 3C6.14032 3 3.00012 6.1402 3.00012 10C3.00012 13.8598 6.14032 17 10.0001 17C13.8599 17 17.0001 13.8598 17.0001 10C17.0001 6.1402 13.8599 3 10.0001 3Z" fill="#5C5C5C"/>
</svg>
