<svg width="20" height="20" viewBox="0 0 20 20" fill="none" xmlns="http://www.w3.org/2000/svg">
<path d="M14.375 2C15.8223 2 17 3.07719 17 4.40039V15.5996C17 16.9228 15.8223 18 14.375 18H5.625C4.17775 18 3 16.9228 3 15.5996V4.40039C3 3.07719 4.17775 2 5.625 2H14.375ZM5.625 3.59961C5.142 3.59961 4.75 3.95879 4.75 4.40039V15.5996C4.75 16.0412 5.142 16.4004 5.625 16.4004H14.375C14.8578 16.4001 15.25 16.0411 15.25 15.5996V4.40039C15.25 3.95894 14.8578 3.59985 14.375 3.59961H5.625ZM10 12.4004C10.7243 12.4006 11.3125 12.9383 11.3125 13.6006C11.3121 14.2625 10.724 14.7996 10 14.7998C9.27574 14.7998 8.68788 14.2627 8.6875 13.6006C8.6875 12.9382 9.2755 12.4004 10 12.4004ZM12.1875 5.2002C12.6713 5.2002 13.0624 5.55769 13.0625 6C13.0624 6.44231 12.6713 6.7998 12.1875 6.7998H7.8125C7.3287 6.7998 6.93762 6.44231 6.9375 6C6.93762 5.55769 7.3287 5.2002 7.8125 5.2002H12.1875Z" fill="#5C5C5C"/>
</svg>
