<svg width="20" height="20" viewBox="0 0 20 20" fill="none" xmlns="http://www.w3.org/2000/svg">
<path fill-rule="evenodd" clip-rule="evenodd" d="M15.2499 15.6C15.2499 16.0416 14.8579 16.4 14.3749 16.4H5.62488C5.14188 16.4 4.74988 16.0416 4.74988 15.6V4.40002C4.74988 3.95842 5.14188 3.60002 5.62488 3.60002H14.3749C14.8579 3.60002 15.2499 3.95842 15.2499 4.40002V15.6ZM14.3749 2H5.62488C4.17763 2 2.99988 3.0768 2.99988 4.4V15.6C2.99988 16.9232 4.17763 18 5.62488 18H14.3749C15.8221 18 16.9999 16.9232 16.9999 15.6V4.4C16.9999 3.0768 15.8221 2 14.3749 2ZM9.99988 14C9.27625 14 8.68738 13.4616 8.68738 12.8C8.68738 12.1384 9.27625 11.6 9.99988 11.6C10.7235 11.6 11.3124 12.1384 11.3124 12.8C11.3124 13.4616 10.7235 14 9.99988 14ZM9.99988 9.99998C8.31113 9.99998 6.93738 11.256 6.93738 12.8C6.93738 14.344 8.31113 15.6 9.99988 15.6C11.6886 15.6 13.0624 14.344 13.0624 12.8C13.0624 11.256 11.6886 9.99998 9.99988 9.99998ZM9.99988 6.00002C10.4829 6.00002 10.8749 6.35842 10.8749 6.80002C10.8749 7.24162 10.4829 7.60002 9.99988 7.60002C9.51688 7.60002 9.12488 7.24162 9.12488 6.80002C9.12488 6.35842 9.51688 6.00002 9.99988 6.00002ZM9.99988 9.2C11.4471 9.2 12.6249 8.1232 12.6249 6.8C12.6249 5.4768 11.4471 4.4 9.99988 4.4C8.55263 4.4 7.37488 5.4768 7.37488 6.8C7.37488 8.1232 8.55263 9.2 9.99988 9.2Z" fill="#5C5C5C"/>
</svg>
