<svg width="20" height="20" viewBox="0 0 20 20" fill="none" xmlns="http://www.w3.org/2000/svg">
<path fill-rule="evenodd" clip-rule="evenodd" d="M8.59946 11.4H11.3995V8.60004H8.59946V11.4ZM11.9246 7.20003H8.0746C7.5923 7.20003 7.1996 7.59273 7.1996 8.07503V11.925C7.1996 12.4073 7.5923 12.8 8.0746 12.8H11.9246C12.4069 12.8 12.7996 12.4073 12.7996 11.925V8.07503C12.7996 7.59273 12.4069 7.20003 11.9246 7.20003ZM9.99946 15.6C6.91177 15.6 4.39947 13.0877 4.39947 10C4.39947 6.91235 6.91177 4.40005 9.99946 4.40005C13.0871 4.40005 15.5994 6.91235 15.5994 10C15.5994 13.0877 13.0871 15.6 9.99946 15.6ZM9.99974 3.00006C6.13995 3.00006 2.99976 6.14025 2.99976 10C2.99976 13.8598 6.13995 17 9.99974 17C13.8595 17 16.9997 13.8598 16.9997 10C16.9997 6.14025 13.8595 3.00006 9.99974 3.00006Z" fill="#5C5C5C"/>
</svg>
