<svg width="20" height="20" viewBox="0 0 20 20" fill="none" xmlns="http://www.w3.org/2000/svg">
<path fill-rule="evenodd" clip-rule="evenodd" d="M11.4002 10C11.4002 9.22792 10.7723 8.60002 10.0002 8.60002C9.22812 8.60002 8.60022 9.22792 8.60022 10C8.60022 10.7721 9.22812 11.4 10.0002 11.4C10.7723 11.4 11.4002 10.7721 11.4002 10ZM12.8003 10C12.8003 11.5442 11.5445 12.8 10.0003 12.8C8.45612 12.8 7.20032 11.5442 7.20032 10C7.20032 8.4558 8.45612 7.2 10.0003 7.2C11.5445 7.2 12.8003 8.4558 12.8003 10ZM5.989 12.9001L4.9817 13.8724C4.7038 14.1412 4.6961 14.585 4.9649 14.8622C5.1021 15.0043 5.2848 15.0764 5.4682 15.0764C5.6432 15.0764 5.8182 15.0113 5.9547 14.8804L6.962 13.9074C7.2399 13.6386 7.2476 13.1948 6.9788 12.9176C6.7107 12.6397 6.2676 12.632 5.989 12.9001ZM14.0113 12.9001C13.7334 12.632 13.2903 12.6397 13.0215 12.9176C12.7527 13.1948 12.7604 13.6386 13.0383 13.9074L14.0456 14.8804C14.1821 15.0113 14.3571 15.0764 14.5321 15.0764C14.7155 15.0764 14.8982 15.0043 15.0354 14.8622C15.3042 14.585 15.2965 14.1412 15.0186 13.8724L14.0113 12.9001ZM9.99993 14.2C9.61353 14.2 9.29993 14.5129 9.29993 14.9V16.3C9.29993 16.6871 9.61353 17 9.99993 17C10.3863 17 10.6999 16.6871 10.6999 16.3V14.9C10.6999 14.5129 10.3863 14.2 9.99993 14.2ZM13.5248 7.2966C13.6998 7.2966 13.8755 7.2315 14.0113 7.0999L15.0186 6.1276C15.2965 5.8588 15.3042 5.415 15.0354 5.1378C14.7673 4.8599 14.3249 4.8522 14.0456 5.1196L13.0383 6.0926C12.7604 6.3614 12.7527 6.8052 13.0215 7.0824C13.1587 7.2245 13.3414 7.2966 13.5248 7.2966ZM5.9547 5.1196C5.6768 4.8522 5.2337 4.8599 4.9649 5.1378C4.6961 5.415 4.7038 5.8588 4.9817 6.1276L5.989 7.0999C6.1248 7.2315 6.3005 7.2966 6.4755 7.2966C6.6589 7.2966 6.8416 7.2245 6.9788 7.0824C7.2476 6.8052 7.2399 6.3614 6.962 6.0926L5.9547 5.1196ZM5.80012 10C5.80012 9.6129 5.48652 9.3 5.10012 9.3H3.70012C3.31372 9.3 3.00012 9.6129 3.00012 10C3.00012 10.3871 3.31372 10.7 3.70012 10.7H5.10012C5.48652 10.7 5.80012 10.3871 5.80012 10ZM16.3003 9.3H14.9003C14.5139 9.3 14.2003 9.6129 14.2003 10C14.2003 10.3871 14.5139 10.7 14.9003 10.7H16.3003C16.6867 10.7 17.0003 10.3871 17.0003 10C17.0003 9.6129 16.6867 9.3 16.3003 9.3ZM9.30012 5.1V3.7C9.30012 3.3129 9.61372 3 10.0001 3C10.3865 3 10.7001 3.3129 10.7001 3.7V5.1C10.7001 5.4871 10.3865 5.8 10.0001 5.8C9.61372 5.8 9.30012 5.4871 9.30012 5.1Z" fill="#5C5C5C"/>
</svg>
