<svg width="20" height="20" viewBox="0 0 20 20" fill="none" xmlns="http://www.w3.org/2000/svg">
<path d="M5.91113 10.5762C6.30482 10.3038 6.86106 10.3775 7.15527 10.7412C7.44949 11.1052 7.37043 11.6219 6.97754 11.8945L5.55566 12.8828H17.1113C17.6019 12.8829 18 13.2507 18 13.7061C17.9999 14.1613 17.6019 14.5292 17.1113 14.5293H5.48242L6.86719 15.5264C7.25474 15.8055 7.32574 16.3234 7.02441 16.6816C6.84941 16.8907 6.58699 16.9999 6.32227 17C6.13129 17 5.93905 16.9439 5.77734 16.8271L2.34375 14.3564C2.12433 14.1992 1.99822 13.9559 2 13.6982C2.00188 13.4422 2.13334 13.2008 2.35547 13.0469L5.91113 10.5762ZM12.9756 3.31934C13.2768 2.95961 13.836 2.89409 14.2227 3.17285L17.6562 5.64355C17.8758 5.80084 18.0018 6.04403 18 6.30176C17.9982 6.55784 17.8667 6.79913 17.6445 6.95312L14.0889 9.42383C13.9289 9.53493 13.7414 9.58883 13.5566 9.58887C13.2864 9.58887 13.0189 9.47454 12.8447 9.25879C12.5505 8.8948 12.6296 8.37903 13.0225 8.10645L14.4443 7.11816H2.88867C2.39811 7.11805 2 6.74927 2 6.29395C2.00024 5.83881 2.39826 5.47082 2.88867 5.4707H14.5176L13.1328 4.47461C12.7454 4.19554 12.6746 3.67755 12.9756 3.31934Z" fill="#5C5C5C"/>
</svg>
