<svg width="20" height="20" viewBox="0 0 20 20" fill="none" xmlns="http://www.w3.org/2000/svg">
<path d="M3.45801 10.7881L6.69629 11.3369C7.11141 11.4062 7.39175 11.8076 7.32324 12.2314C7.26155 12.6116 6.93859 12.8817 6.57227 12.8818C6.53124 12.8818 6.48905 12.8788 6.44727 12.8711L5.19434 12.6592C6.14291 14.3594 7.95411 15.4443 9.94727 15.4443C12.2017 15.4443 14.1882 14.1084 15.0088 12.042C15.1665 11.643 15.6116 11.4513 16.001 11.6123C16.3908 11.7734 16.5784 12.2269 16.4199 12.625C15.3654 15.2826 12.8249 17 9.94727 17C7.34765 17 4.98439 15.5459 3.79199 13.2764L3.51074 14.8096C3.44295 15.1836 3.12294 15.4442 2.7627 15.4443C2.71622 15.4443 2.66833 15.44 2.62109 15.4307C2.20752 15.352 1.93597 14.9447 2.01367 14.5225L2.58398 11.4121C2.59313 11.3639 2.61996 11.3234 2.63672 11.2783C2.65567 11.2294 2.66722 11.1753 2.69531 11.1318C2.71358 11.1031 2.74061 11.0833 2.7627 11.0576C2.80612 11.0063 2.84727 10.9533 2.90137 10.916C2.90975 10.9098 2.92131 10.9078 2.92969 10.9023C3.00348 10.8535 3.08246 10.8153 3.16992 10.7959C3.17975 10.7936 3.19036 10.7964 3.2002 10.7949C3.28401 10.7809 3.36886 10.7725 3.45801 10.7881ZM10.0527 3C12.6523 3 15.0156 4.45423 16.208 6.72363L16.4893 5.18945C16.567 4.76801 16.9658 4.48865 17.3779 4.56934C17.7916 4.64789 18.065 5.05521 17.9873 5.47754L17.416 8.58789C17.4061 8.64156 17.3811 8.68713 17.3613 8.73535C17.3476 8.76955 17.3415 8.80779 17.3232 8.83887C17.2943 8.88779 17.2541 8.9268 17.2168 8.96875C17.1947 8.99208 17.1787 9.021 17.1543 9.04199C17.1087 9.07999 17.0554 9.10546 17.0029 9.13184C16.9778 9.14427 16.9554 9.16449 16.9287 9.17383C16.8464 9.20494 16.7586 9.22168 16.668 9.22168C16.6269 9.22167 16.5839 9.21871 16.542 9.21094L13.3047 8.66309C12.8895 8.59309 12.6083 8.19239 12.6768 7.76855C12.7453 7.34545 13.1377 7.05502 13.5537 7.12891L14.8057 7.34082C13.8571 5.64066 12.0459 4.55566 10.0527 4.55566C7.79856 4.55585 5.81279 5.89182 4.99219 7.95801C4.87257 8.26134 4.58611 8.44434 4.28516 8.44434C4.1901 8.44429 4.09353 8.42648 4 8.3877C3.60991 8.2267 3.42162 7.77321 3.58008 7.375C4.6345 4.71751 7.17519 3.00019 10.0527 3Z" fill="#5C5C5C"/>
</svg>
