<svg width="20" height="20" viewBox="0 0 20 20" fill="none" xmlns="http://www.w3.org/2000/svg">
<path fill-rule="evenodd" clip-rule="evenodd" d="M12.3333 10.381H10.7777V8.85716C10.7777 8.43583 10.4293 8.09526 9.99995 8.09526C9.57061 8.09526 9.22217 8.43583 9.22217 8.85716V11.1429C9.22217 11.5642 9.57061 11.9048 9.99995 11.9048H12.3333C12.7626 11.9048 13.1111 11.5642 13.1111 11.1429C13.1111 10.7215 12.7626 10.381 12.3333 10.381ZM10 16.2857C7.10511 16.2857 4.75 13.9787 4.75 11.1429C4.75 8.30705 7.10511 6 10 6C12.8949 6 15.25 8.30705 15.25 11.1429C15.25 13.9787 12.8949 16.2857 10 16.2857ZM10.7684 4.3299C10.77 4.3139 10.7778 4.30171 10.7778 4.28571V3.52381H11.5556C11.9849 3.52381 12.3333 3.18324 12.3333 2.7619C12.3333 2.34057 11.9849 2 11.5556 2H8.44444C8.01511 2 7.66667 2.34057 7.66667 2.7619C7.66667 3.18324 8.01511 3.52381 8.44444 3.52381H9.22222V4.28571C9.22222 4.30171 9.23 4.3139 9.23156 4.3299C5.73233 4.70629 3 7.61676 3 11.1429C3 14.9242 6.14067 18 10 18C13.8593 18 17 14.9242 17 11.1429C17 7.61676 14.2677 4.70629 10.7684 4.3299Z" fill="#5C5C5C"/>
</svg>
