<svg width="20" height="20" viewBox="0 0 20 20" fill="none" xmlns="http://www.w3.org/2000/svg">
<path fill-rule="evenodd" clip-rule="evenodd" d="M4.44311 9.29997C4.78825 6.54172 7.14887 4.39952 9.99953 4.39952C12.8509 4.39952 15.2115 6.54172 15.5566 9.29997H4.44311ZM9.99931 2.99939C6.13985 2.99939 2.99866 6.13988 2.99866 10C2.99866 10.3872 3.31229 10.7001 3.69942 10.7001H9.29924V14.9005C9.29924 16.0584 10.2415 17.0007 11.4001 17.0007C12.558 17.0007 13.5003 16.0584 13.5003 14.9005C13.5003 14.5134 13.1867 14.2004 12.8003 14.2004C12.4131 14.2004 12.1002 14.5134 12.1002 14.9005C12.1002 15.2869 11.7859 15.6006 11.4001 15.6006C11.0137 15.6006 10.7001 15.2869 10.7001 14.9005V10.7001H16.2999C16.687 10.7001 17 10.3872 17 10C17 6.13988 13.8595 2.99939 9.99931 2.99939Z" fill="#5C5C5C"/>
</svg>
