<svg width="20" height="20" viewBox="0 0 20 20" fill="none" xmlns="http://www.w3.org/2000/svg">
<path fill-rule="evenodd" clip-rule="evenodd" d="M8.69776 9.17666C11.6982 9.17666 14.4047 10.5223 16.1167 12.684C15.3293 9.49783 12.302 7.1179 8.69776 7.1179C8.23207 7.1179 7.85565 6.74979 7.85565 6.29439V4.71079L3.79333 8.1481L7.85565 11.6167V10.0002C7.85565 9.54477 8.23207 9.17666 8.69776 9.17666ZM16.9228 17C16.5346 17 16.1961 16.7406 16.1043 16.3717C15.3548 13.3667 12.7182 11.1959 9.54009 10.8673V11.7905C9.54009 12.3719 9.18725 12.8899 8.61967 13.141C8.00409 13.4153 7.28577 13.3165 6.7864 12.8907L2.5203 9.24751C2.18935 8.96422 1.99988 8.56318 1.99988 8.1473C1.99988 7.73143 2.18935 7.33039 2.5203 7.0471L6.7864 3.40391C7.28577 2.97815 8.00409 2.87933 8.61967 3.15356C9.18725 3.40473 9.54009 3.92272 9.54009 4.50411V5.50714C14.2761 5.91313 17.9999 9.71197 17.9999 14.3236C17.9999 14.9906 17.9123 15.6791 17.7405 16.3708C17.6496 16.7406 17.3119 17 16.9228 17Z" fill="#5C5C5C"/>
</svg>
