<svg width="20" height="20" viewBox="0 0 20 20" fill="none" xmlns="http://www.w3.org/2000/svg">
<path fill-rule="evenodd" clip-rule="evenodd" d="M10 13.2C9.517 13.2 9.125 12.8416 9.125 12.4C9.125 11.9584 9.517 11.6 10 11.6C10.483 11.6 10.875 11.9584 10.875 12.4C10.875 12.8416 10.483 13.2 10 13.2ZM10 10C8.55275 10 7.375 11.0768 7.375 12.4C7.375 13.7232 8.55275 14.8 10 14.8C11.4473 14.8 12.625 13.7232 12.625 12.4C12.625 11.0768 11.4473 10 10 10ZM15.25 15.6C15.25 16.0416 14.858 16.4 14.375 16.4H5.625C5.142 16.4 4.75 16.0416 4.75 15.6V9.19999C4.75 8.75839 5.142 8.39999 5.625 8.39999H14.375C14.858 8.39999 15.25 8.75839 15.25 9.19999V15.6ZM14.375 6.79999H8.25V5.2C8.25 4.3176 9.03487 3.6 10 3.6C10.9651 3.6 11.75 4.3176 11.75 5.2C11.75 5.6424 12.1411 5.99999 12.625 5.99999C13.1089 5.99999 13.5 5.6424 13.5 5.2C13.5 3.4352 11.9303 2 10 2C8.06975 2 6.5 3.4352 6.5 5.2V6.79999H5.625C4.17775 6.79999 3 7.87679 3 9.19999V15.6C3 16.9232 4.17775 18 5.625 18H14.375C15.8223 18 17 16.9232 17 15.6V9.19999C17 7.87679 15.8223 6.79999 14.375 6.79999Z" fill="#5C5C5C"/>
</svg>
