<svg width="20" height="20" viewBox="0 0 20 20" fill="none" xmlns="http://www.w3.org/2000/svg">
<path d="M9.47461 6.89453C9.77732 6.64985 10.1941 6.64268 10.5029 6.87695L14.0029 9.52539C14.3984 9.82468 14.4941 10.4124 14.2158 10.8369C13.9376 11.2613 13.3925 11.3645 12.9971 11.0654L10.8721 9.45703C10.8738 9.4809 10.875 9.50497 10.875 9.5293V17.0586C10.875 17.5781 10.4839 18 10 18C9.51625 17.9998 9.125 17.578 9.125 17.0586V9.5293H9.12402L7.02441 11.2236C6.86706 11.3505 6.68364 11.412 6.50098 11.4121C6.2341 11.4121 5.97218 11.2817 5.7998 11.0352C5.50942 10.6192 5.58804 10.0293 5.97461 9.71777L9.47461 6.89453ZM16.2139 2.00488C16.2728 2.01135 16.3298 2.02446 16.3848 2.04297C16.7402 2.16274 17 2.52098 17 2.94141V4.82324C17 5.34089 16.6062 5.76465 16.125 5.76465C15.6438 5.76464 15.25 5.34088 15.25 4.82324V3.88281H4.75V4.82324C4.75 5.34089 4.35625 5.76465 3.875 5.76465C3.39375 5.76465 3 5.34089 3 4.82324V2.94141C3 2.42376 3.39375 2 3.875 2H16.125C16.155 2 16.1846 2.00167 16.2139 2.00488Z" fill="#5C5C5C"/>
</svg>
