<svg width="20" height="20" viewBox="0 0 20 20" fill="none" xmlns="http://www.w3.org/2000/svg">
<path fill-rule="evenodd" clip-rule="evenodd" d="M15.4443 15.6C15.4443 16.0416 15.0951 16.4 14.6665 16.4H5.33318C4.90463 16.4 4.5554 16.0416 4.5554 15.6V6.8C4.5554 6.3584 4.90463 6 5.33318 6H6.11096C6.11096 8.2056 7.85552 10 9.99985 10C12.1442 10 13.8887 8.2056 13.8887 6H14.6665C15.0951 6 15.4443 6.3584 15.4443 6.8V15.6ZM9.22222 3.73761V5.20001C9.22222 5.64241 9.57067 6.00001 10 6.00001C10.4293 6.00001 10.7778 5.64241 10.7778 5.20001V3.73761C11.4957 3.99841 12.0619 4.61361 12.261 5.41681C12.31 5.59361 12.3333 5.78481 12.3333 6.00001C12.3333 7.32321 11.2864 8.40001 10 8.40001C8.71356 8.40001 7.66667 7.32321 7.66667 6.00001C7.66667 5.79041 7.69078 5.60401 7.73744 5.43041C7.73978 5.42081 7.74056 5.41201 7.74289 5.40241L7.746 5.39041C7.942 4.60481 8.50667 3.99681 9.22222 3.73761ZM14.6667 4.4H13.5607C12.9548 2.9608 11.5688 2 10 2C8.42656 2 7.03744 2.9672 6.43778 4.4H5.33333C4.04689 4.4 3 5.4768 3 6.8V15.6C3 16.9232 4.04689 18 5.33333 18H14.6667C15.9531 18 17 16.9232 17 15.6V6.8C17 5.4768 15.9531 4.4 14.6667 4.4Z" fill="#5C5C5C"/>
</svg>
