<svg width="20" height="20" viewBox="0 0 20 20" fill="none" xmlns="http://www.w3.org/2000/svg">
<path d="M10 3C13.8661 3 17 6.1339 17 10C17 13.8661 13.8661 17 10 17C6.1339 17 3 13.8661 3 10C3 6.1339 6.1339 3 10 3ZM10 4.40039C6.9123 4.40039 4.39942 6.9123 4.39941 10C4.39941 13.0877 6.9123 15.5996 10 15.5996C13.0877 15.5996 15.5996 13.0877 15.5996 10C15.5996 6.91234 13.0877 4.40045 10 4.40039ZM10 12.0996C10.3863 12.0997 10.7001 12.4135 10.7002 12.7998C10.7002 13.1861 10.3863 13.4999 10 13.5C9.61368 13.4999 9.2998 13.1861 9.2998 12.7998C9.29991 12.4136 9.61374 12.0997 10 12.0996ZM10 6.5C10.3863 6.50011 10.7002 6.81386 10.7002 7.2002V10.7002C10.7001 11.0864 10.3862 11.4003 10 11.4004C9.61374 11.4003 9.29991 11.0864 9.2998 10.7002V7.2002C9.29981 6.81386 9.61368 6.50009 10 6.5Z" fill="#5C5C5C"/>
</svg>
