<svg width="20" height="20" viewBox="0 0 20 20" fill="none" xmlns="http://www.w3.org/2000/svg">
<path d="M10 3C10.7698 3.00012 11.4567 3.4363 11.8379 4.16699L16.7207 13.5391C17.0827 14.2337 17.0934 15.0691 16.75 15.7734C16.3809 16.5302 15.6652 17 14.8818 17H5.11719C4.33451 16.9999 3.61844 16.5301 3.25 15.7734C2.9066 15.0691 2.91732 14.2337 3.2793 13.5391L8.16211 4.16699C8.54269 3.4362 9.23007 3 10 3ZM10.748 4.92871C10.4507 4.35873 9.54819 4.35864 9.25098 4.92871L4.36914 14.2998C4.19923 14.624 4.28967 14.9098 4.3584 15.0498C4.50347 15.3482 4.78763 15.5263 5.11719 15.5264H14.8818C15.2115 15.5264 15.4959 15.3482 15.6416 15.0498C15.7103 14.9098 15.8001 14.624 15.6309 14.2998L10.748 4.92871ZM10 12.5791C10.351 12.5793 10.6356 12.909 10.6357 13.3154C10.6357 13.722 10.3511 14.0525 10 14.0527C9.64886 14.0525 9.36328 13.722 9.36328 13.3154C9.36345 12.909 9.64897 12.5793 10 12.5791ZM10 7.4209C10.3511 7.42111 10.6357 7.75167 10.6357 8.1582V11.1055C10.6356 11.5119 10.351 11.8416 10 11.8418C9.64897 11.8416 9.36345 11.5119 9.36328 11.1055V8.1582C9.36335 7.75166 9.64891 7.4211 10 7.4209Z" fill="#5C5C5C"/>
</svg>
