<svg width="20" height="20" viewBox="0 0 20 20" fill="none" xmlns="http://www.w3.org/2000/svg">
<path fill-rule="evenodd" clip-rule="evenodd" d="M16.4002 7.97792L14.153 10.0001L16.4002 12.0215V7.97792ZM17.9998 7.37824V12.6212C17.9998 13.1259 17.6966 13.5685 17.2094 13.7754C17.0302 13.8516 16.8422 13.8889 16.655 13.8889C16.4902 13.8889 16.3278 13.8594 16.1742 13.8026L12.3998 10.1331V6.88902C12.3998 6.4597 12.0414 6.11126 11.5998 6.11126H8.26223L6.66223 4.55572H11.5998C12.923 4.55572 13.9998 5.60182 13.9998 6.88902V8.01756L15.7286 6.46203C16.1278 6.10426 16.7086 6.01248 17.2094 6.22403C17.6966 6.43092 17.9998 6.87347 17.9998 7.37824ZM11.6001 13.8889H4.40012C3.95852 13.8889 3.60012 13.5397 3.60012 13.1111V6.88901C3.60012 6.63934 3.72892 6.42779 3.91692 6.28468L2.77932 5.1787C2.30332 5.60569 2.00012 6.21157 2.00012 6.88901V13.1111C2.00012 14.3976 3.07692 15.4444 4.40012 15.4444H11.6001C12.0929 15.4444 12.5505 15.2982 12.9321 15.0501L11.7145 13.8656C11.6753 13.8718 11.6409 13.8889 11.6001 13.8889ZM16.9656 15.6724C17.2784 15.9757 17.2784 16.468 16.9656 16.7721C16.8096 16.9238 16.6048 17 16.4 17C16.1952 17 15.9904 16.9238 15.8344 16.7721L13.5088 14.5104L12.3448 13.3787L4.86881 6.11126L3.46081 4.74239L3.03441 4.32784C2.72161 4.02374 2.72161 3.53141 3.03441 3.22808C3.34721 2.92397 3.85281 2.92397 4.16561 3.22808L5.53121 4.55573L7.13121 6.11126L12.4 11.2336L14 12.7892L16.9656 15.6724Z" fill="#5C5C5C"/>
</svg>
