<svg width="20" height="20" viewBox="0 0 20 20" fill="none" xmlns="http://www.w3.org/2000/svg">
<path fill-rule="evenodd" clip-rule="evenodd" d="M16.4002 12.2286L14.153 9.99998L16.4002 7.77227V12.2286ZM12.3997 13.4286C12.3997 13.9017 12.0413 14.2857 11.5997 14.2857H4.39973C3.95813 14.2857 3.59973 13.9017 3.59973 13.4286V6.57145C3.59973 6.09916 3.95813 5.71431 4.39973 5.71431H11.5997C12.0413 5.71431 12.3997 6.09916 12.3997 6.57145V13.4286ZM17.2097 5.83943C16.7089 5.60543 16.1281 5.70743 15.7289 6.10171L14.0001 7.816V6.57143C14.0001 5.15371 12.9233 4 11.6001 4H4.40012C3.07692 4 2.00012 5.15371 2.00012 6.57143V13.4286C2.00012 14.8471 3.07692 16 4.40012 16H11.6001C12.9233 16 14.0001 14.8471 14.0001 13.4286V12.1849L15.7289 13.8983C15.9849 14.1529 16.3169 14.2857 16.6553 14.2857C16.8425 14.2857 17.0305 14.2454 17.2097 14.1614C17.6969 13.9334 18.0001 13.4457 18.0001 12.8894V7.11143C18.0001 6.55514 17.6969 6.06743 17.2097 5.83943Z" fill="#5C5C5C"/>
</svg>
