<svg width="20" height="20" viewBox="0 0 20 20" fill="none" xmlns="http://www.w3.org/2000/svg">
<path fill-rule="evenodd" clip-rule="evenodd" d="M12.1019 5.25475L7.80785 7.97524C7.66726 8.06313 7.50143 8.11134 7.33138 8.11134H3.68384V11.8888H7.33138C7.50143 11.8888 7.66726 11.937 7.80785 12.0249L12.1019 14.7454V5.25475ZM13.7855 3.77862V16.2223C13.7855 16.5108 13.6121 16.7752 13.336 16.9098C13.2131 16.9697 13.0784 17 12.9437 17C12.777 17 12.6104 16.9541 12.4681 16.8639L7.07044 13.4442H2.84205C2.37737 13.4442 2.00024 13.0966 2.00024 12.6665V7.33361C2.00024 6.90353 2.37737 6.55588 2.84205 6.55588H7.07044L12.4681 3.13621C12.7257 2.97289 13.0599 2.955 13.336 3.09033C13.6121 3.22487 13.7855 3.4893 13.7855 3.77862ZM16.9669 12.8213C16.8011 13.0118 16.557 13.1114 16.3111 13.1114C16.1251 13.1114 15.9391 13.0546 15.7833 12.9395C15.4214 12.6696 15.3641 12.1804 15.6554 11.846C16.5266 10.8451 16.5266 9.15507 15.6554 8.15491C15.3641 7.81971 15.4214 7.33051 15.7833 7.06064C16.1453 6.7931 16.6756 6.84521 16.9669 7.17964C18.3449 8.76154 18.3449 11.2386 16.9669 12.8213Z" fill="#5C5C5C"/>
</svg>
