<svg width="20" height="20" viewBox="0 0 20 20" fill="none" xmlns="http://www.w3.org/2000/svg">
<path d="M5.90112 8.11133H3.48804V11.8887H6.71265C6.86292 11.8887 7.00929 11.9376 7.13354 12.0254L10.9304 14.7461V13.3672L12.4187 14.9219V16.2217C12.4187 16.5109 12.2652 16.7756 12.0212 16.9102C11.9127 16.97 11.7935 16.9999 11.6746 17C11.5272 17 11.3794 16.9545 11.2537 16.8643L6.48218 13.4443H2.7439C2.33319 13.4443 1.99985 13.097 1.99976 12.667V7.33398C1.99976 6.90391 2.33313 6.55569 2.7439 6.55566H4.41284L5.90112 8.11133ZM3.33472 3.22852C3.6257 2.92463 4.09556 2.92451 4.38647 3.22852L16.2937 15.6729C16.5844 15.977 16.5846 16.4685 16.2937 16.7725C16.1486 16.9241 15.9578 17 15.7673 17C15.5768 17 15.3861 16.9241 15.241 16.7725L3.33472 4.32812C3.04374 4.02403 3.04374 3.53261 3.33472 3.22852ZM14.45 4.83789C14.7119 4.50738 15.1808 4.46146 15.4978 4.73438C17.1111 6.13115 17.9997 8.00206 17.9998 10C17.9998 11.662 17.3776 13.2322 16.2419 14.5186L15.1882 13.418C16.0426 12.4279 16.5115 11.2436 16.5115 10C16.5114 8.47263 15.8143 7.02937 14.5486 5.93359C14.2324 5.65916 14.1876 5.16843 14.45 4.83789ZM13.4402 7.06152C13.7609 6.79322 14.2288 6.84526 14.4871 7.17969C15.6842 8.73595 15.6972 11.1533 14.5378 12.7383L13.4685 11.6191C14.0844 10.605 14.0435 9.08435 13.3269 8.1543C13.0695 7.81909 13.1202 7.3306 13.4402 7.06152ZM11.2537 3.13574C11.4806 2.97249 11.7764 2.95455 12.0212 3.08984C12.2653 3.22436 12.4186 3.48909 12.4187 3.77832V10.5225L10.9304 8.9668V5.25488L8.823 6.76465L7.75171 5.64551L11.2537 3.13574Z" fill="#5C5C5C"/>
</svg>
