<svg width="20" height="20" viewBox="0 0 20 20" fill="none" xmlns="http://www.w3.org/2000/svg">
<path fill-rule="evenodd" clip-rule="evenodd" d="M5.714 12.1592H9.428C9.60114 12.1592 9.77 12.2143 9.91314 12.3147L14.2854 15.4241V4.57703L9.91314 7.68634C9.77 7.78678 9.60114 7.84189 9.428 7.84189H5.714V12.1592ZM15.1427 18C14.973 18 14.8033 17.9484 14.6585 17.8444L9.16245 13.9369H4.85702C4.38388 13.9369 3.99988 13.5396 3.99988 13.048V6.95298C3.99988 6.46142 4.38388 6.06409 4.85702 6.06409H9.16245L14.6585 2.15568C14.9199 1.96901 15.2602 1.94857 15.5422 2.10323C15.8233 2.25612 15.9999 2.55923 15.9999 2.88901V17.1111C15.9999 17.4409 15.8233 17.744 15.5422 17.8978C15.417 17.9662 15.2799 18 15.1427 18Z" fill="#5C5C5C"/>
</svg>
