<svg width="20" height="20" viewBox="0 0 20 20" fill="none" xmlns="http://www.w3.org/2000/svg">
<path fill-rule="evenodd" clip-rule="evenodd" d="M10.9299 5.25475L7.1338 7.97524C7.00953 8.06313 6.86292 8.11134 6.7126 8.11134H3.48804V11.8888H6.7126C6.86292 11.8888 7.00953 11.937 7.1338 12.0249L10.9299 14.7454V5.25475ZM12.4184 3.77862V16.2223C12.4184 16.5108 12.2651 16.7752 12.021 16.9098C11.9123 16.9697 11.7932 17 11.6742 17C11.5268 17 11.3795 16.9541 11.2537 16.8639L6.48199 13.4442H2.74394C2.33315 13.4442 1.99976 13.0966 1.99976 12.6665V7.33361C1.99976 6.90353 2.33315 6.55588 2.74394 6.55588H6.48199L11.2537 3.13621C11.4807 2.97289 11.7761 2.955 12.021 3.09033C12.2651 3.22487 12.4184 3.4893 12.4184 3.77862ZM15.4982 4.73445C15.1811 4.46069 14.7123 4.50657 14.4503 4.83789C14.1877 5.16842 14.2323 5.65917 14.5486 5.93293C15.8144 7.02875 16.5117 8.47299 16.5117 10.0004C16.5117 11.5271 15.8144 12.9714 14.5486 14.0672C14.2323 14.3417 14.1877 14.8317 14.4503 15.1622C14.5977 15.3489 14.8098 15.4445 15.0234 15.4445C15.1908 15.4445 15.359 15.3854 15.4982 15.2657C17.1116 13.8689 18.0001 11.9984 18.0001 10.0004C18.0001 8.00169 17.1116 6.13125 15.4982 4.73445ZM14.4861 12.8213C14.3395 13.0118 14.1237 13.1114 13.9064 13.1114C13.7419 13.1114 13.5775 13.0546 13.4398 12.9395C13.1198 12.6696 13.0692 12.1804 13.3267 11.846C14.0969 10.8451 14.0969 9.15507 13.3267 8.15491C13.0692 7.81971 13.1198 7.33051 13.4398 7.06064C13.7598 6.7931 14.2286 6.84521 14.4861 7.17964C15.7044 8.76154 15.7044 11.2386 14.4861 12.8213Z" fill="#5C5C5C"/>
</svg>
