<svg width="20" height="20" viewBox="0 0 20 20" fill="none" xmlns="http://www.w3.org/2000/svg">
<path fill-rule="evenodd" clip-rule="evenodd" d="M10.0003 11.0719C9.3387 11.0719 8.80029 10.5912 8.80029 10.0005C8.80029 9.40981 9.3387 8.92912 10.0003 8.92912C10.6619 8.92912 11.2003 9.40981 11.2003 10.0005C11.2003 10.5912 10.6619 11.0719 10.0003 11.0719ZM9.99974 7.50062C8.45572 7.50062 7.19971 8.622 7.19971 10.0005C7.19971 11.379 8.45572 12.5004 9.99974 12.5004C11.5438 12.5004 12.7998 11.379 12.7998 10.0005C12.7998 8.622 11.5438 7.50062 9.99974 7.50062ZM10.176 13.5701C6.73112 13.6415 4.48389 11.0109 3.73828 9.99735C4.55909 8.85098 6.62632 6.50393 9.82476 6.43108C13.256 6.35322 15.516 8.99026 16.2616 10.0038C15.4416 11.1502 13.3736 13.4972 10.176 13.5701ZM17.8944 9.64523C17.384 8.85098 14.5648 4.86972 9.7839 5.00328C5.36144 5.10328 2.78941 8.5817 2.1062 9.64523C1.9646 9.86522 1.9646 10.1359 2.1062 10.3559C2.60941 11.1395 5.32944 15 10.0199 15C10.0855 15 10.1511 14.9993 10.2167 14.9979C14.6384 14.8971 17.2112 11.4194 17.8944 10.3559C18.0352 10.1359 18.0352 9.86522 17.8944 9.64523Z" fill="#5C5C5C"/>
</svg>
