<svg width="20" height="20" viewBox="0 0 20 20" fill="none" xmlns="http://www.w3.org/2000/svg">
<path fill-rule="evenodd" clip-rule="evenodd" d="M17.8943 10.3318C17.5623 10.8139 16.7815 11.8259 15.5639 12.7512L14.4351 11.8106C15.2831 11.1765 15.8967 10.4792 16.2615 10.0032C15.5159 9.05714 13.2575 6.59574 9.82465 6.66841C9.34464 6.67841 8.89424 6.74108 8.46543 6.83575L7.20142 5.78239C7.97903 5.52638 8.83584 5.35571 9.78385 5.33571C14.5639 5.21104 17.3839 8.92714 17.8943 9.66849C18.0352 9.87383 18.0352 10.1265 17.8943 10.3318ZM11.5346 13.1646L12.7986 14.218C12.0218 14.474 11.1642 14.6446 10.2169 14.6646C10.1513 14.666 10.0857 14.6666 10.0201 14.6666C5.32969 14.6666 2.60965 11.0632 2.10645 10.3319C1.96484 10.1265 1.96484 9.87384 2.10645 9.6685C2.43765 9.18649 3.21846 8.17446 4.43607 7.24844L5.56489 8.1898C4.71688 8.82381 4.10407 9.52117 3.73847 9.99718C4.48408 10.9432 6.7321 13.3986 10.1761 13.3319C10.6562 13.3219 11.1066 13.2593 11.5346 13.1646ZM10.0001 10.9999C9.33846 10.9999 8.80005 10.5519 8.80005 9.99986C8.80005 9.98319 8.80885 9.96786 8.80965 9.95052L10.0601 10.9926C10.0393 10.9932 10.0209 10.9999 10.0001 10.9999ZM4.16563 4.19501C3.85362 3.935 3.34722 3.935 3.03441 4.19501C2.72241 4.45568 2.72241 4.87769 3.03441 5.1377L7.53927 8.8918C7.31767 9.23048 7.20007 9.60716 7.20007 9.99983C7.20007 11.2865 8.45688 12.3332 10.0001 12.3332C10.4721 12.3332 10.9241 12.2352 11.3305 12.0512L15.8346 15.8047C15.9914 15.9353 16.1954 16 16.4002 16C16.605 16 16.8098 15.9353 16.9658 15.8047C17.2786 15.5447 17.2786 15.1226 16.9658 14.862L4.16563 4.19501Z" fill="#5C5C5C"/>
</svg>
