<svg width="20" height="20" viewBox="0 0 20 20" fill="none" xmlns="http://www.w3.org/2000/svg">
<path d="M11.2002 2C12.3033 2.0001 13.2001 2.83521 13.2002 3.8623V5.2002H17.2002C17.6401 5.2003 18 5.56007 18 6C18 6.43994 17.6401 6.7997 17.2002 6.7998H16.4004V15.5996C16.4004 16.9228 15.3232 18 14 18H6C4.6768 18 3.59961 16.9228 3.59961 15.5996V6.7998H2.7998C2.35989 6.7997 2 6.43993 2 6C2 5.56007 2.35989 5.2003 2.7998 5.2002H6.7998V3.8623C6.79986 2.83521 7.69673 2.0001 8.7998 2H11.2002ZM5.2002 6.7998V15.5996C5.2002 16.0403 5.55849 16.4003 6 16.4004H14C14.4416 16.4004 14.7998 16.0404 14.7998 15.5996V6.7998H5.2002ZM7.59961 9.2002C8.03954 9.2002 8.39931 9.56009 8.39941 10V13.2002C8.39931 13.6401 8.03955 14 7.59961 14C7.15976 13.9999 6.79991 13.64 6.7998 13.2002V10C6.79991 9.56015 7.15976 9.2003 7.59961 9.2002ZM12.4004 9.2002C12.8401 9.20046 13.2001 9.56025 13.2002 10V13.2002C13.2001 13.6399 12.8401 13.9997 12.4004 14C11.9605 14 11.5997 13.6401 11.5996 13.2002V10C11.5997 9.56009 11.9605 9.2002 12.4004 9.2002ZM8.7998 3.59961C8.57106 3.59965 8.4004 3.73836 8.40039 3.8623V5.19922H11.5996V3.8623C11.5996 3.7384 11.4288 3.59973 11.2002 3.59961H8.7998Z" fill="#5C5C5C"/>
</svg>
