<svg width="20" height="20" viewBox="0 0 20 20" fill="none" xmlns="http://www.w3.org/2000/svg">
<path d="M10 12.5C11.3807 12.5 12.5 11.3807 12.5 10C12.5 8.61929 11.3807 7.5 10 7.5C8.61929 7.5 7.5 8.61929 7.5 10C7.5 11.3807 8.61929 12.5 10 12.5Z" stroke="#6B7280" stroke-width="1.66667"/>
<path d="M16.1673 12.4999C16.0564 12.7513 16.0233 13.0301 16.0723 13.3004C16.1213 13.5707 16.2502 13.8202 16.4423 14.0166L16.4923 14.0666C16.6473 14.2214 16.7702 14.4052 16.8541 14.6075C16.938 14.8098 16.9811 15.0267 16.9811 15.2458C16.9811 15.4648 16.938 15.6817 16.8541 15.884C16.7702 16.0863 16.6473 16.2701 16.4923 16.4249C16.3375 16.5799 16.1537 16.7028 15.9514 16.7867C15.7491 16.8706 15.5322 16.9137 15.3131 16.9137C15.0941 16.9137 14.8772 16.8706 14.6749 16.7867C14.4726 16.7028 14.2888 16.5799 14.134 16.4249L14.084 16.3749C13.8876 16.1828 13.6381 16.0539 13.3678 16.0049C13.0975 15.9559 12.8187 15.989 12.5673 16.0999C12.3208 16.2056 12.1106 16.381 11.9626 16.6045C11.8145 16.8281 11.7351 17.0901 11.734 17.3583V17.4999C11.734 17.9419 11.5584 18.3659 11.2458 18.6784C10.9333 18.991 10.5093 19.1666 10.0673 19.1666C9.62529 19.1666 9.20137 18.991 8.88881 18.6784C8.57625 18.3659 8.40065 17.9419 8.40065 17.4999V17.4249C8.3942 17.1491 8.30492 16.8816 8.14441 16.6572C7.9839 16.4328 7.7596 16.2618 7.50065 16.1666C7.2493 16.0557 6.97049 16.0226 6.70016 16.0716C6.42983 16.1206 6.18038 16.2495 5.98398 16.4416L5.93398 16.4916C5.7792 16.6465 5.59538 16.7695 5.39305 16.8533C5.19072 16.9372 4.97384 16.9804 4.75482 16.9804C4.53579 16.9804 4.31891 16.9372 4.11658 16.8533C3.91425 16.7695 3.73044 16.6465 3.57565 16.4916C3.42069 16.3368 3.29776 16.153 3.21388 15.9507C3.13001 15.7483 3.08684 15.5314 3.08684 15.3124C3.08684 15.0934 3.13001 14.8765 3.21388 14.6742C3.29776 14.4719 3.42069 14.288 3.57565 14.1332L3.62565 14.0833C3.81776 13.8869 3.94664 13.6374 3.99565 13.3671C4.04467 13.0967 4.01158 12.8179 3.90065 12.5666C3.79501 12.3201 3.61961 12.1099 3.39604 11.9618C3.17246 11.8138 2.91047 11.7343 2.64232 11.7333H2.50065C2.05862 11.7333 1.6347 11.5577 1.32214 11.2451C1.00958 10.9325 0.833984 10.5086 0.833984 10.0666C0.833984 9.62456 1.00958 9.20063 1.32214 8.88807C1.6347 8.57551 2.05862 8.39992 2.50065 8.39992H2.57565C2.85148 8.39347 3.11899 8.30418 3.3434 8.14368C3.56781 7.98317 3.73875 7.75886 3.83398 7.49992C3.94491 7.24857 3.978 6.96976 3.92899 6.69943C3.87997 6.4291 3.7511 6.17965 3.55898 5.98325L3.50898 5.93325C3.35402 5.77846 3.23109 5.59465 3.14722 5.39232C3.06334 5.18999 3.02017 4.97311 3.02017 4.75408C3.02017 4.53506 3.06334 4.31818 3.14722 4.11585C3.23109 3.91352 3.35402 3.72971 3.50898 3.57492C3.66377 3.41996 3.84759 3.29703 4.04992 3.21315C4.25225 3.12928 4.46912 3.08611 4.68815 3.08611C4.90718 3.08611 5.12405 3.12928 5.32638 3.21315C5.52871 3.29703 5.71253 3.41996 5.86732 3.57492L5.91732 3.62492C6.11372 3.81703 6.36316 3.94591 6.63349 3.99492C6.90382 4.04394 7.18264 4.01085 7.43398 3.89992H7.50065C7.74712 3.79428 7.95733 3.61888 8.10539 3.39531C8.25346 3.17173 8.33291 2.90974 8.33398 2.64159V2.49992C8.33398 2.05789 8.50958 1.63397 8.82214 1.32141C9.1347 1.00885 9.55862 0.833252 10.0007 0.833252C10.4427 0.833252 10.8666 1.00885 11.1792 1.32141C11.4917 1.63397 11.6673 2.05789 11.6673 2.49992V2.57492C11.6684 2.84307 11.7478 3.10506 11.8959 3.32864C12.044 3.55221 12.2542 3.72762 12.5006 3.83325C12.752 3.94418 13.0308 3.97727 13.3011 3.92826C13.5715 3.87924 13.8209 3.75037 14.0173 3.55825L14.0673 3.50825C14.2221 3.35329 14.4059 3.23036 14.6082 3.14649C14.8106 3.06261 15.0275 3.01944 15.2465 3.01944C15.4655 3.01944 15.6824 3.06261 15.8847 3.14649C16.087 3.23036 16.2709 3.35329 16.4256 3.50825C16.5806 3.66304 16.7035 3.84685 16.7874 4.04918C16.8713 4.25151 16.9145 4.46839 16.9145 4.68742C16.9145 4.90644 16.8713 5.12332 16.7874 5.32565C16.7035 5.52798 16.5806 5.7118 16.4256 5.86658L16.3756 5.91658C16.1835 6.11298 16.0547 6.36243 16.0056 6.63276C15.9566 6.90309 15.9897 7.1819 16.1006 7.43325V7.49992C16.2063 7.74639 16.3817 7.9566 16.6053 8.10466C16.8288 8.25272 17.0908 8.33218 17.359 8.33325H17.5006C17.9427 8.33325 18.3666 8.50885 18.6792 8.82141C18.9917 9.13397 19.1673 9.55789 19.1673 9.99992C19.1673 10.4419 18.9917 10.8659 18.6792 11.1784C18.3666 11.491 17.9427 11.6666 17.5006 11.6666H17.4256C17.1575 11.6677 16.8955 11.7471 16.6719 11.8952C16.4484 12.0432 16.273 12.2534 16.1673 12.4999Z" stroke="#6B7280" stroke-width="1.66667"/>
</svg>
