<svg width="21" height="20" viewBox="0 0 21 20" fill="none" xmlns="http://www.w3.org/2000/svg">
<path d="M15.252 6.66675C15.252 5.34067 14.7252 4.0689 13.7875 3.13121C12.8498 2.19353 11.578 1.66675 10.252 1.66675C8.92587 1.66675 7.6541 2.19353 6.71642 3.13121C5.77874 4.0689 5.25195 5.34067 5.25195 6.66675C5.25195 12.5001 2.75195 14.1667 2.75195 14.1667H17.752C17.752 14.1667 15.252 12.5001 15.252 6.66675Z" stroke="#6B7280" stroke-width="1.66667"/>
<path d="M11.6939 17.5C11.5474 17.7526 11.3371 17.9622 11.0841 18.1079C10.8311 18.2537 10.5442 18.3304 10.2522 18.3304C9.96023 18.3304 9.67337 18.2537 9.42036 18.1079C9.16734 17.9622 8.95706 17.7526 8.81055 17.5" stroke="#6B7280" stroke-width="1.66667"/>
</svg>
