<svg width="20" height="20" viewBox="0 0 20 20" fill="none" xmlns="http://www.w3.org/2000/svg">
<path d="M3.23242 10.3594C3.58546 9.93561 4.21573 9.87751 4.64062 10.2314L10.0107 14.708L15.373 10.3926C15.803 10.0477 16.4343 10.1159 16.7793 10.5449C17.125 10.9759 17.0568 11.6052 16.627 11.9521L10.627 16.7803C10.444 16.9272 10.2219 17 10 17C9.77202 17 9.54533 16.9226 9.36035 16.7676L3.36035 11.7676C2.93537 11.4146 2.87843 10.7844 3.23242 10.3594ZM3.23242 3.35938C3.58635 2.93489 4.21481 2.87896 4.63965 3.23145L10.0107 7.70703L15.373 3.39258C15.803 3.04686 16.4334 3.11514 16.7783 3.54492C17.1253 3.97494 17.0569 4.60416 16.627 4.95117L10.627 9.7793C10.444 9.92626 10.222 9.99999 10 10C9.77318 10 9.54527 9.92332 9.36035 9.76855L3.36035 4.76758C2.93639 4.41356 2.87944 3.78339 3.23242 3.35938Z" fill="#5C5C5C"/>
</svg>
