<svg width="20" height="20" viewBox="0 0 20 20" fill="none" xmlns="http://www.w3.org/2000/svg">
<path d="M8.23242 3.35913C8.58549 2.93543 9.21572 2.87829 9.64062 3.2312C10.0645 3.58515 10.1213 4.21542 9.76855 4.6394L5.29199 10.0105L9.60742 15.3728C9.95329 15.8028 9.88504 16.4331 9.45508 16.7791C9.27013 16.9279 9.04902 16.9998 8.82812 16.9998C8.53615 16.9997 8.24581 16.8727 8.04883 16.6267L3.2207 10.6267C2.92178 10.2557 2.92744 9.7251 3.23242 9.35913L8.23242 3.35913ZM15.2314 3.36011C15.5855 2.9351 16.2156 2.87917 16.6406 3.23218C17.0643 3.58514 17.1212 4.21548 16.7686 4.6394L12.292 10.0105L16.6074 15.3728C16.9534 15.8028 16.8851 16.432 16.4551 16.7791C16.2701 16.9279 16.048 16.9998 15.8281 16.9998C15.5362 16.9997 15.2468 16.8716 15.0488 16.6267L10.2207 10.6267C9.9227 10.2557 9.92647 9.72511 10.2314 9.36011L15.2314 3.36011Z" fill="#5C5C5C"/>
</svg>
