<svg width="20" height="20" viewBox="0 0 20 20" fill="none" xmlns="http://www.w3.org/2000/svg">
<path d="M3.54541 3.22159C3.9754 2.87559 4.60467 2.94296 4.95166 3.37296L9.77881 9.37296C10.0768 9.74395 10.0731 10.2745 9.76807 10.6405L4.76807 16.6396C4.57013 16.8765 4.28642 16.9998 3.99951 16.9999C3.77452 16.9999 3.54686 16.9245 3.35986 16.7685C2.935 16.4155 2.87823 15.7842 3.23193 15.3603L7.70752 9.98917L3.39209 4.62686C3.04641 4.1969 3.1156 3.56751 3.54541 3.22159ZM10.5454 3.22159C10.9754 2.87462 11.6047 2.94306 11.9517 3.37296L16.7798 9.37296C17.0787 9.74394 17.073 10.2746 16.7681 10.6405L11.7681 16.6396C11.5701 16.8766 11.2865 16.9999 10.9995 16.9999C10.7747 16.9999 10.5478 16.9242 10.3608 16.7685C9.93585 16.4155 9.87892 15.7843 10.2329 15.3603L14.7085 9.98917L10.3921 4.62686C10.0466 4.19696 10.1148 3.5675 10.5454 3.22159Z" fill="#5C5C5C"/>
</svg>
