<svg width="20" height="20" viewBox="0 0 20 20" fill="none" xmlns="http://www.w3.org/2000/svg">
<path d="M9.37305 10.2207C9.74399 9.92192 10.2737 9.92659 10.6396 10.2324L16.6396 15.2324C17.0636 15.5864 17.1205 16.2157 16.7676 16.6396C16.5696 16.8776 16.286 17 15.999 17C15.7741 17 15.5473 16.9235 15.3604 16.7676L9.98926 12.293L4.62695 16.6074C4.19706 16.954 3.56862 16.8857 3.22168 16.4551C2.87469 16.0251 2.94307 15.3958 3.37305 15.0488L9.37305 10.2207ZM9.37305 3.2207C9.74389 2.92294 10.2737 2.92581 10.6396 3.23242L16.6396 8.23242C17.0646 8.58541 17.1216 9.21564 16.7676 9.64062C16.5696 9.87753 16.2859 10.0009 16 10.001C15.774 10.001 15.5464 9.92355 15.3594 9.76855L9.98926 5.29297L4.62695 9.60742C4.19696 9.95341 3.56769 9.88604 3.2207 9.45605C2.87475 9.0251 2.94314 8.39583 3.37305 8.04883L9.37305 3.2207Z" fill="#5C5C5C"/>
</svg>
