<svg width="20" height="20" viewBox="0 0 20 20" fill="none" xmlns="http://www.w3.org/2000/svg">
<path d="M11.5054 11.502C11.6755 11.3382 11.9167 11.2741 12.147 11.3252L16.3218 12.2832C16.5568 12.3372 16.7473 12.5083 16.8257 12.7363C16.883 12.9007 16.9266 13.0722 16.9546 13.2471C16.984 13.4206 16.9995 13.599 16.9995 13.7803C16.9995 15.5553 15.5557 16.9998 13.7808 17C11.2839 17 8.9897 16.1393 7.16064 14.71L8.15967 13.7109C9.72833 14.8911 11.671 15.5996 13.7808 15.5996C14.7836 15.5994 15.5991 14.7832 15.5991 13.7803C15.5991 13.7019 15.595 13.6256 15.5845 13.5508L12.3511 12.8076C12.2867 12.9307 12.2169 13.0649 12.1519 13.1895C11.8334 13.7984 11.6037 14.2412 11.0122 14.0039C10.2752 13.7456 9.58911 13.3675 8.9585 12.9111L9.95947 11.9102C10.2723 12.1229 10.602 12.3122 10.9478 12.4697C11.4027 11.5997 11.4053 11.5978 11.5054 11.502ZM14.5376 4.58301C14.7812 4.33941 15.1746 4.33941 15.4175 4.58301C15.661 4.82591 15.661 5.21933 15.4175 5.46289L5.4624 15.418C5.21952 15.6606 4.82535 15.6607 4.58252 15.418C4.46154 15.297 4.40099 15.1373 4.40088 14.9785C4.40088 14.819 4.46157 14.6599 4.58252 14.5381L14.5376 4.58301ZM6.22021 3C6.40275 3.00003 6.5822 3.01583 6.75635 3.0459C6.92633 3.0732 7.09866 3.11577 7.26514 3.17383C7.4925 3.25223 7.66334 3.44366 7.71729 3.67871L8.67529 7.85352C8.72779 8.08308 8.66229 8.32502 8.49854 8.49512C8.40334 8.59452 8.39972 8.59677 7.53174 9.05176C7.69057 9.3974 7.88002 9.72601 8.09131 10.0381L7.09131 11.0391C6.63076 10.4035 6.24903 9.70887 5.98584 8.95996C5.76048 8.39796 6.20052 8.16705 6.81006 7.84863C6.93461 7.78286 7.06873 7.71379 7.19189 7.64941L6.44971 4.41504C6.37287 4.40456 6.29705 4.40041 6.22021 4.40039C5.2172 4.40039 4.401 5.21604 4.40088 6.21973C4.40088 8.32868 5.1085 10.2722 6.28857 11.8408L5.29053 12.8398C3.86115 11.0101 3.00049 8.71589 3.00049 6.21973C3.00061 4.44466 4.44512 3 6.22021 3Z" fill="#5C5C5C"/>
</svg>
