<svg width="20" height="20" viewBox="0 0 20 20" fill="none" xmlns="http://www.w3.org/2000/svg">
<path fill-rule="evenodd" clip-rule="evenodd" d="M7.59993 10.8571C7.15833 10.8571 6.79993 10.4731 6.79993 10C6.79993 9.52686 7.15833 9.14286 7.59993 9.14286C8.04153 9.14286 8.39993 9.52686 8.39993 10C8.39993 10.4731 8.04153 10.8571 7.59993 10.8571ZM7.60032 7.42855C6.27712 7.42855 5.20032 8.58226 5.20032 9.99998C5.20032 11.4177 6.27712 12.5714 7.60032 12.5714C8.92352 12.5714 10.0003 11.4177 10.0003 9.99998C10.0003 8.58226 8.92352 7.42855 7.60032 7.42855ZM12.3997 14.2857H7.59973C5.39413 14.2857 3.59973 12.3632 3.59973 10C3.59973 7.63688 5.39413 5.71431 7.59973 5.71431H12.3997C14.6053 5.71431 16.3997 7.63688 16.3997 10C16.3997 12.3632 14.6053 14.2857 12.3997 14.2857ZM12.4001 4H7.60012C4.51292 4 2.00012 6.69229 2.00012 10C2.00012 13.3077 4.51292 16 7.60012 16H12.4001C15.4873 16 18.0001 13.3077 18.0001 10C18.0001 6.69229 15.4873 4 12.4001 4Z" fill="#5C5C5C"/>
</svg>
