<svg width="20" height="20" viewBox="0 0 20 20" fill="none" xmlns="http://www.w3.org/2000/svg">
<path fill-rule="evenodd" clip-rule="evenodd" d="M12.4001 10.8572C11.9585 10.8572 11.6001 10.4732 11.6001 10C11.6001 9.52688 11.9585 9.14288 12.4001 9.14288C12.8417 9.14288 13.2001 9.52688 13.2001 10C13.2001 10.4732 12.8417 10.8572 12.4001 10.8572ZM12.4001 7.42853C11.0769 7.42853 10.0001 8.58224 10.0001 9.99996C10.0001 11.4177 11.0769 12.5714 12.4001 12.5714C13.7233 12.5714 14.8001 11.4177 14.8001 9.99996C14.8001 8.58224 13.7233 7.42853 12.4001 7.42853ZM12.4001 14.2857H7.60012C5.39452 14.2857 3.60012 12.3632 3.60012 10C3.60012 7.63687 5.39452 5.71429 7.60012 5.71429H12.4001C14.6057 5.71429 16.4001 7.63687 16.4001 10C16.4001 12.3632 14.6057 14.2857 12.4001 14.2857ZM12.4001 4H7.60012C4.51292 4 2.00012 6.69229 2.00012 10C2.00012 13.3077 4.51292 16 7.60012 16H12.4001C15.4873 16 18.0001 13.3077 18.0001 10C18.0001 6.69229 15.4873 4 12.4001 4Z" fill="#5C5C5C"/>
</svg>
