<svg width="20" height="20" viewBox="0 0 20 20" fill="none" xmlns="http://www.w3.org/2000/svg">
<path fill-rule="evenodd" clip-rule="evenodd" d="M15.2783 15.8333C15.2783 16.4781 14.793 17 14.195 17C13.5969 17 13.1116 16.4781 13.1116 15.8333C13.1116 15.1886 13.5969 14.6667 14.195 14.6667C14.793 14.6667 15.2783 15.1886 15.2783 15.8333ZM8.05618 15.8333C8.05618 16.4781 7.57082 17 6.97279 17C6.37476 17 5.8894 16.4781 5.8894 15.8333C5.8894 15.1886 6.37476 14.6667 6.97279 14.6667C7.57082 14.6667 8.05618 15.1886 8.05618 15.8333ZM13.3879 11.5555H7.88571L6.70337 6.88888H15.5546L13.3879 11.5555ZM16.7831 6.07067C16.518 5.60867 16.0587 5.33333 15.5545 5.33333H6.30963L5.864 3.57322C5.77805 3.23489 5.49276 3 5.16702 3H3.7225C3.32309 3 3.00024 3.34844 3.00024 3.77778C3.00024 4.20711 3.32309 4.55556 3.7225 4.55556H4.61521L6.63681 12.5379C6.72276 12.8762 7.00806 13.1111 7.33379 13.1111H13.8341C14.1079 13.1111 14.3578 12.9447 14.4805 12.681L16.8467 7.58422C17.072 7.09811 17.0482 6.53267 16.7831 6.07067Z" fill="#5C5C5C"/>
</svg>
