<svg width="20" height="20" viewBox="0 0 20 20" fill="none" xmlns="http://www.w3.org/2000/svg">
<path d="M4.90918 14C5.34688 14.0003 5.70215 14.4475 5.70215 15C5.70215 15.5525 5.34688 15.9997 4.90918 16C4.4713 16 4.11523 15.5527 4.11523 15C4.11523 14.4473 4.4713 14 4.90918 14ZM10.1963 14C10.6342 14 10.9902 14.4473 10.9902 15C10.9902 15.5527 10.6342 16 10.1963 16C9.75859 15.9997 9.40332 15.5525 9.40332 15C9.40332 14.4475 9.75859 14.0003 10.1963 14ZM3.58691 4C3.82521 4.00023 4.03375 4.20146 4.09668 4.49121L4.42285 6H11.1924C11.5614 6.00006 11.8977 6.23596 12.0918 6.63184C12.2859 7.02784 12.3037 7.51302 12.1387 7.92969L10.4062 12.2979C10.3164 12.5238 10.133 12.667 9.93262 12.667H5.17285C4.93455 12.6669 4.72614 12.4654 4.66309 12.1758L3.18262 5.33301H2.5293C2.23694 5.33301 2.00014 5.03484 2 4.66699C2 4.29899 2.23685 4 2.5293 4H3.58691ZM16 8C16.2788 8.00011 16.5048 8.22609 16.5049 8.50488V9.49609H17.4951C17.7739 9.49618 17.9999 9.72217 18 10.001C18 10.2799 17.774 10.5058 17.4951 10.5059H16.5049V11.4951C16.5048 11.7739 16.2788 11.9999 16 12C15.7211 12 15.4952 11.774 15.4951 11.4951V10.5059H14.5049C14.226 10.5058 14 10.2799 14 10.001C14.0001 9.72217 14.2261 9.49618 14.5049 9.49609H15.4951V8.50488C15.4952 8.22603 15.7211 8 16 8ZM5.57715 11.333H9.60547L11.1924 7.33301H4.71094L5.57715 11.333Z" fill="#5C5C5C"/>
</svg>
