<svg width="20" height="20" viewBox="0 0 20 20" fill="none" xmlns="http://www.w3.org/2000/svg">
<path fill-rule="evenodd" clip-rule="evenodd" d="M12.1001 9.3H7.90003C7.51502 9.3 7.20002 9.61501 7.20002 10C7.20002 10.385 7.51502 10.7 7.90003 10.7H12.1001C12.4851 10.7 12.8001 10.385 12.8001 10C12.8001 9.61501 12.4851 9.3 12.1001 9.3ZM9.99994 15.6002C6.91217 15.6002 4.39981 13.0878 4.39981 10C4.39981 6.91227 6.91217 4.39991 9.99994 4.39991C13.0877 4.39991 15.6001 6.91227 15.6001 10C15.6001 13.0878 13.0877 15.6002 9.99994 15.6002ZM9.99992 2.99988C6.14003 2.99988 2.99976 6.14015 2.99976 10C2.99976 13.8599 6.14003 17.0002 9.99992 17.0002C13.8598 17.0002 17.0001 13.8599 17.0001 10C17.0001 6.14015 13.8598 2.99988 9.99992 2.99988Z" fill="#5C5C5C"/>
</svg>
