<svg width="20" height="20" viewBox="0 0 20 20" fill="none" xmlns="http://www.w3.org/2000/svg">
<path d="M9.99988 16C10.5529 16 10.9999 16.447 10.9999 17C10.9999 17.553 10.5529 18 9.99988 18C9.44697 17.9999 8.99988 17.5529 8.99988 17C8.99988 16.4471 9.44697 16.0001 9.99988 16ZM9.99988 2C12.7569 2 14.9999 4.243 14.9999 7C14.9999 9.414 13.2789 11.4354 10.9999 11.8984V13C10.9999 13.553 10.5529 14 9.99988 14C9.44688 14 8.99988 13.553 8.99988 13V11C8.99988 10.447 9.44688 10 9.99988 10C11.6539 10 12.9999 8.654 12.9999 7C12.9999 5.346 11.6539 4 9.99988 4C8.34588 4 6.99988 5.346 6.99988 7C6.99988 7.553 6.55288 8 5.99988 8C5.44688 8 4.99988 7.553 4.99988 7C4.99988 4.243 7.24288 2 9.99988 2Z" fill="#5C5C5C"/>
</svg>
