<svg width="20" height="20" viewBox="0 0 20 20" fill="none" xmlns="http://www.w3.org/2000/svg">
<path d="M10.0001 3C13.8599 3 17.0001 6.1402 17.0001 10C17.0001 13.8598 13.8599 17 10.0001 17C6.14032 17 3.00012 13.8598 3.00012 10C3.00012 6.1402 6.14032 3 10.0001 3ZM10.0001 4.40039C6.91243 4.40039 4.40052 6.91231 4.40051 10C4.40051 13.0877 6.91242 15.5996 10.0001 15.5996C13.0878 15.5996 15.5997 13.0877 15.5997 10C15.5997 6.91234 13.0878 4.40044 10.0001 4.40039ZM10.0001 12.7998C10.3871 12.7999 10.7002 13.113 10.7003 13.5C10.7002 13.8869 10.3871 14.2001 10.0001 14.2002C9.61309 14.2002 9.30004 13.887 9.29993 13.5C9.30002 13.113 9.61308 12.7998 10.0001 12.7998ZM10.0001 5.7998C11.351 5.79991 12.4502 6.89915 12.4503 8.25C12.4502 9.35579 11.7081 10.282 10.7003 10.5859V11.3994C10.7003 11.7864 10.3871 12.0995 10.0001 12.0996C9.61302 12.0996 9.29993 11.7865 9.29993 11.3994V10C9.30002 9.61298 9.61308 9.2998 10.0001 9.2998C10.5789 9.2997 11.0498 8.82875 11.0499 8.25C11.0498 7.67125 10.5789 7.2003 10.0001 7.2002C9.42128 7.2002 8.95041 7.67118 8.95032 8.25C8.95021 8.63694 8.63707 8.95009 8.25012 8.9502C7.86309 8.9502 7.55003 8.63701 7.54993 8.25C7.55002 6.89908 8.64918 5.7998 10.0001 5.7998Z" fill="#5C5C5C"/>
</svg>
