<svg width="20" height="20" viewBox="0 0 20 20" fill="none" xmlns="http://www.w3.org/2000/svg">
<path d="M11.3604 2C11.608 2 11.8425 2.0955 12.0088 2.2627L16.7725 7.0625C16.9185 7.2096 16.9999 7.40056 17 7.59961V16C17 17.1023 15.9965 17.9999 14.7637 18H5.23535C4.0026 17.9999 3 17.1023 3 16V4C3 2.89768 4.0026 2.00013 5.23535 2H11.3604ZM5.23535 3.59961C4.9676 3.59961 4.75 3.7792 4.75 4V16C4.75 16.2208 4.9676 16.4004 5.23535 16.4004H14.7627C15.0313 16.4004 15.25 16.2208 15.25 16V8.40039H12.374C11.0644 8.4002 10.0001 7.37754 10 6.12012V3.59961H5.23535ZM12.625 13.2002C13.1087 13.2004 13.5 13.5585 13.5 14C13.5 14.4415 13.1087 14.7996 12.625 14.7998H7.375C6.892 14.7998 6.5 14.4416 6.5 14C6.50001 13.5584 6.89201 13.2002 7.375 13.2002H12.625ZM10 10C10.4828 10.0001 10.8749 10.3584 10.875 10.7998C10.875 11.2413 10.4829 11.5995 10 11.5996H7.375C6.892 11.5996 6.5 11.2414 6.5 10.7998C6.50013 10.3583 6.89208 10 7.375 10H10ZM11.75 6.12012C11.7501 6.49527 12.0303 6.7998 12.375 6.7998H14.1494L11.75 4.38281V6.12012Z" fill="#5C5C5C"/>
</svg>
