<svg width="20" height="20" viewBox="0 0 20 20" fill="none" xmlns="http://www.w3.org/2000/svg">
<path d="M17.1798 14.2861C17.6304 14.2861 18.0001 14.6521 18.0001 15.0986V15.1875C18.0001 15.634 17.6304 16 17.1798 16H3.25208C2.80149 16 2.4318 15.634 2.43176 15.1875V15.0986C2.43176 14.6521 2.80147 14.2861 3.25208 14.2861H17.1798ZM4.84778 6.82227C5.18586 6.4874 5.73316 6.48749 6.07043 6.82227C6.40858 7.15739 6.40854 7.69903 6.07043 8.03418L4.95227 9.14258H17.1798C17.6303 9.14258 17.9999 9.50868 18.0001 9.95508V10.0449C17.9999 10.4913 17.6303 10.8574 17.1798 10.8574H4.95227L6.07043 11.9658C6.40857 12.301 6.40859 12.8426 6.07043 13.1777C5.90182 13.3447 5.68039 13.4287 5.45911 13.4287C5.2378 13.4287 5.01724 13.3447 4.84778 13.1777L2.25305 10.6064C1.91575 10.2713 1.91575 9.7287 2.25305 9.39355L4.84778 6.82227ZM17.1798 4C17.6304 4 18.0001 4.36596 18.0001 4.8125V4.90137C18.0001 5.34794 17.6304 5.71387 17.1798 5.71387H3.25208C2.80147 5.71387 2.43176 5.34794 2.43176 4.90137V4.8125C2.4318 4.36596 2.80149 4 3.25208 4H17.1798Z" fill="#5C5C5C"/>
</svg>
