<svg width="20" height="20" viewBox="0 0 20 20" fill="none" xmlns="http://www.w3.org/2000/svg">
<path d="M17.1678 13.333C17.6256 13.333 17.9998 13.6841 17.9999 14.1133V14.2197C17.9999 14.6489 17.6256 15 17.1678 15H2.83191C2.37414 15 2.00085 14.6489 2.00085 14.2197V14.1133C2.00088 13.6841 2.37416 13.333 2.83191 13.333H17.1678ZM2.88855 9.16699C3.3792 9.16699 3.77722 9.53917 3.77722 10C3.77722 10.4608 3.3792 10.833 2.88855 10.833C2.39799 10.8329 1.99988 10.4608 1.99988 10C1.99988 9.53923 2.39799 9.16709 2.88855 9.16699ZM17.1678 9.16699C17.6255 9.16699 17.9996 9.5173 17.9999 9.94629V10.0537C17.9997 10.4827 17.6255 10.833 17.1678 10.833H6.38757C5.92994 10.833 5.55575 10.4827 5.55554 10.0537V9.94629C5.55577 9.5173 5.92995 9.16699 6.38757 9.16699H17.1678ZM17.1678 5C17.6256 5 17.9999 5.35111 17.9999 5.78027V5.88672C17.9998 6.31586 17.6256 6.66699 17.1678 6.66699H2.83191C2.37416 6.66699 2.00088 6.31586 2.00085 5.88672V5.78027C2.00085 5.35111 2.37414 5 2.83191 5H17.1678Z" fill="#5C5C5C"/>
</svg>
