<svg width="20" height="20" viewBox="0 0 20 20" fill="none" xmlns="http://www.w3.org/2000/svg">
<path d="M17.1562 14C17.6202 14 18 14.4272 18 14.9492V15.0508C18 15.5728 17.6202 16 17.1562 16H2.84277C2.37877 16 2 15.5728 2 15.0508V14.9492C2 14.4272 2.37877 14 2.84277 14H17.1562ZM17.1562 9C17.6202 9 18 9.42722 18 9.94922V10.0508C18 10.5728 17.6202 11 17.1562 11H2.84277C2.37877 11 2 10.5728 2 10.0508V9.94922C2 9.42722 2.37877 9 2.84277 9H17.1562ZM17.1562 4C17.6202 4 18 4.42722 18 4.94922V5.05078C18 5.57278 17.6202 6 17.1562 6H2.84277C2.37877 6 2 5.57278 2 5.05078V4.94922C2 4.42722 2.37877 4 2.84277 4H17.1562Z" fill="#5C5C5C"/>
</svg>
