<svg width="20" height="20" viewBox="0 0 20 20" fill="none" xmlns="http://www.w3.org/2000/svg">
<path d="M12.8818 2C13.5505 2 14.1718 2.25387 14.6338 2.71387C15.0925 3.14746 15.3525 3.75162 15.3525 4.40039V10.8027C16.3787 11.5507 17 12.736 17 14C17 16.2056 15.1523 18 12.8818 18C10.6116 17.9998 8.76465 16.2055 8.76465 14C8.76465 12.736 9.38599 11.5507 10.4121 10.8027V4.40039C10.4121 3.07733 11.5199 2.00023 12.8818 2ZM12.8818 3.59961C12.4274 3.5998 12.0586 3.95971 12.0586 4.40039V11.2324C12.0584 11.5186 11.9014 11.7834 11.6455 11.9258C10.8846 12.3506 10.4111 13.1456 10.4111 14C10.4111 15.3231 11.5199 16.4002 12.8818 16.4004C14.244 16.4004 15.3525 15.3232 15.3525 14C15.3525 13.1456 14.88 12.3506 14.1191 11.9258C13.8631 11.7835 13.7062 11.5187 13.7061 11.2324V4.40039C13.7061 4.18686 13.6212 3.98951 13.4697 3.84473C13.3058 3.68153 13.1017 3.59961 12.8818 3.59961ZM7.11719 4.40039C7.57013 4.40039 7.94141 4.7602 7.94141 5.2002C7.9413 5.64011 7.57007 6 7.11719 6H3.82324C3.37049 5.99985 3.0001 5.64002 3 5.2002C3 4.76029 3.37043 4.40054 3.82324 4.40039H7.11719Z" fill="#5C5C5C"/>
</svg>
