<svg width="20" height="20" viewBox="0 0 20 20" fill="none" xmlns="http://www.w3.org/2000/svg">
<path d="M12.8828 2C13.5514 2.00008 14.1719 2.25397 14.6338 2.71387C15.0925 3.14747 15.3535 3.75159 15.3535 4.40039V10.8027C16.3794 11.5508 17 12.7362 17 14C17 16.2055 15.1531 17.9998 12.8828 18C10.6123 18 8.76465 16.2056 8.76465 14C8.76465 12.736 9.38601 11.5507 10.4121 10.8027V4.40039C10.4121 3.07719 11.5207 2 12.8828 2ZM12.8828 3.59961C12.4282 3.59961 12.0586 3.95959 12.0586 4.40039V11.2324C12.0584 11.5187 11.9015 11.7835 11.6455 11.9258C10.8846 12.3506 10.4121 13.1456 10.4121 14C10.4121 15.3232 11.5207 16.4004 12.8828 16.4004C14.2448 16.4002 15.3525 15.3231 15.3525 14C15.3525 13.1456 14.8801 12.3506 14.1191 11.9258C13.8632 11.7834 13.7062 11.5186 13.7061 11.2324V4.40039C13.7061 4.1868 13.6212 3.98952 13.4697 3.84473C13.3059 3.68162 13.1025 3.5997 12.8828 3.59961ZM5.4707 2.7998C5.92341 2.79991 6.29372 3.15986 6.29395 3.59961V4.40039H7.11719C7.57003 4.40039 7.94124 4.76007 7.94141 5.2002C7.94141 5.64046 7.57013 6.00098 7.11719 6.00098H6.29395V6.7998C6.29395 7.23974 5.92355 7.5995 5.4707 7.59961C5.01776 7.59961 4.64746 7.2398 4.64746 6.7998V6.00098H3.82324C3.37043 6.00082 3 5.64037 3 5.2002C3.00017 4.76016 3.37053 4.40054 3.82324 4.40039H4.64746V3.59961C4.64769 3.15979 5.0179 2.7998 5.4707 2.7998Z" fill="#5C5C5C"/>
</svg>
