<svg width="20" height="20" viewBox="0 0 20 20" fill="none" xmlns="http://www.w3.org/2000/svg">
<path fill-rule="evenodd" clip-rule="evenodd" d="M16.9806 3.99337C16.9787 3.44383 16.5604 3 16.0468 3H16.043C15.5275 3.00199 15.111 3.45081 15.1129 4.00135L15.1325 8.98817C15.1325 9.25447 15.0372 9.50581 14.8617 9.69431C14.6852 9.88381 14.4517 9.98853 14.2024 9.98953L5.87328 10.0264L8.38162 6.64936C8.70194 6.2175 8.63377 5.59015 8.23034 5.24806C7.82691 4.90596 7.23951 4.97977 6.91827 5.40963L3.20243 10.4124C2.93068 10.7784 2.93348 11.2951 3.2071 11.6591L6.96122 16.629C7.14613 16.8733 7.41601 17 7.6887 17C7.89508 17 8.1024 16.9272 8.27516 16.7786C8.67579 16.4335 8.73929 15.8052 8.41524 15.3763L5.88075 12.0212L14.2098 11.9843C14.9579 11.9813 15.6601 11.6671 16.1878 11.0996C16.7145 10.5321 17.003 9.77908 17.0002 8.9802L16.9806 3.99337Z" fill="#5C5C5C"/>
</svg>
