<svg width="20" height="20" viewBox="0 0 20 20" fill="none" xmlns="http://www.w3.org/2000/svg">
<path fill-rule="evenodd" clip-rule="evenodd" d="M16.7954 8.37535L13.062 3.37555C12.7382 2.94457 12.152 2.87358 11.7498 3.21956C11.3475 3.56355 11.2822 4.19352 11.6042 4.6245L14.1251 8.00037H5.79976C4.25509 8.00037 2.99976 9.34531 2.99976 11.0002V16C2.99976 16.552 3.41789 17 3.93309 17C4.44829 17 4.86642 16.552 4.86642 16V11.0002C4.86642 10.4483 5.28456 10.0003 5.79976 10.0003H14.1251L11.6042 13.3751C11.2822 13.8061 11.3475 14.4361 11.7498 14.7801C11.9215 14.9281 12.1278 15.0001 12.3322 15.0001C12.6066 15.0001 12.8772 14.8711 13.062 14.6241L16.7954 9.6243C17.0679 9.25932 17.0679 8.74034 16.7954 8.37535Z" fill="#5C5C5C"/>
</svg>
