<svg width="20" height="20" viewBox="0 0 20 20" fill="none" xmlns="http://www.w3.org/2000/svg">
<path d="M4.99935 12.5H2.49935C2.03912 12.5 1.66602 12.8731 1.66602 13.3333V16.6667C1.66602 17.1269 2.03912 17.5 2.49935 17.5H4.99935C5.45958 17.5 5.83268 17.1269 5.83268 16.6667V13.3333C5.83268 12.8731 5.45958 12.5 4.99935 12.5Z" fill="#48AFBA"/>
<path d="M10.8333 7.5H8.33333C7.8731 7.5 7.5 7.8731 7.5 8.33333V16.6667C7.5 17.1269 7.8731 17.5 8.33333 17.5H10.8333C11.2936 17.5 11.6667 17.1269 11.6667 16.6667V8.33333C11.6667 7.8731 11.2936 7.5 10.8333 7.5Z" fill="#48AFBA"/>
<path d="M16.6673 2.5H14.1673C13.7071 2.5 13.334 2.8731 13.334 3.33333V16.6667C13.334 17.1269 13.7071 17.5 14.1673 17.5H16.6673C17.1276 17.5 17.5007 17.1269 17.5007 16.6667V3.33333C17.5007 2.8731 17.1276 2.5 16.6673 2.5Z" fill="#48AFBA"/>
</svg>
