<svg width="20" height="20" viewBox="0 0 20 20" fill="none" xmlns="http://www.w3.org/2000/svg">
<path d="M15.0007 1.66675H5.00065C4.08018 1.66675 3.33398 2.41294 3.33398 3.33341V16.6667C3.33398 17.5872 4.08018 18.3334 5.00065 18.3334H15.0007C15.9212 18.3334 16.6673 17.5872 16.6673 16.6667V3.33341C16.6673 2.41294 15.9212 1.66675 15.0007 1.66675Z" fill="#E7ECEF"/>
<path d="M13.7507 5.83325H6.25065C6.02053 5.83325 5.83398 6.0198 5.83398 6.24992V7.08325C5.83398 7.31337 6.02053 7.49992 6.25065 7.49992H13.7507C13.9807 7.49992 14.1673 7.31337 14.1673 7.08325V6.24992C14.1673 6.0198 13.9807 5.83325 13.7507 5.83325Z" fill="#737A83"/>
<path d="M13.7507 9.16675H6.25065C6.02053 9.16675 5.83398 9.35333 5.83398 9.58341V10.4167C5.83398 10.6468 6.02053 10.8334 6.25065 10.8334H13.7507C13.9807 10.8334 14.1673 10.6468 14.1673 10.4167V9.58341C14.1673 9.35333 13.9807 9.16675 13.7507 9.16675Z" fill="#737A83"/>
<path d="M13.7507 12.5H6.25065C6.02053 12.5 5.83398 12.6866 5.83398 12.9167V13.75C5.83398 13.9801 6.02053 14.1667 6.25065 14.1667H13.7507C13.9807 14.1667 14.1673 13.9801 14.1673 13.75V12.9167C14.1673 12.6866 13.9807 12.5 13.7507 12.5Z" fill="#737A83"/>
</svg>
