<svg width="20" height="20" viewBox="0 0 20 20" fill="none" xmlns="http://www.w3.org/2000/svg">
<path d="M11.6673 12.5H8.33398V15.8333H11.6673V12.5Z" fill="#737A83"/>
<path d="M13.334 15.8333H6.66732C6.20708 15.8333 5.83398 16.2063 5.83398 16.6666C5.83398 17.1268 6.20708 17.4999 6.66732 17.4999H13.334C13.7942 17.4999 14.1673 17.1268 14.1673 16.6666C14.1673 16.2063 13.7942 15.8333 13.334 15.8333Z" fill="#737A83"/>
<path d="M17.4993 2.5H2.49935C2.03912 2.5 1.66602 2.8731 1.66602 3.33333V12.5C1.66602 12.9602 2.03912 13.3333 2.49935 13.3333H17.4993C17.9596 13.3333 18.3327 12.9602 18.3327 12.5V3.33333C18.3327 2.8731 17.9596 2.5 17.4993 2.5Z" fill="#737A83"/>
<path d="M16.6673 4.16675H3.33398V11.6667H16.6673V4.16675Z" fill="url(#paint0_linear_1175_78)"/>
<defs>
<linearGradient id="paint0_linear_1175_78" x1="3.75065" y1="4.16675" x2="16.6673" y2="11.6667" gradientUnits="userSpaceOnUse">
<stop stop-color="#B8E7FB"/>
<stop offset="1" stop-color="#C1B8FB"/>
</linearGradient>
</defs>
</svg>
