<svg width="20" height="20" viewBox="0 0 20 20" fill="none" xmlns="http://www.w3.org/2000/svg">
<path d="M15.0007 1.66675H5.00065C4.08018 1.66675 3.33398 2.41294 3.33398 3.33341V16.6667C3.33398 17.5872 4.08018 18.3334 5.00065 18.3334H15.0007C15.9212 18.3334 16.6673 17.5872 16.6673 16.6667V3.33341C16.6673 2.41294 15.9212 1.66675 15.0007 1.66675Z" fill="#E7ECEF"/>
<path d="M9.99935 9.16667C11.1499 9.16667 12.0827 8.23392 12.0827 7.08333C12.0827 5.93274 11.1499 5 9.99935 5C8.84877 5 7.91602 5.93274 7.91602 7.08333C7.91602 8.23392 8.84877 9.16667 9.99935 9.16667Z" fill="#48AFBA"/>
<path d="M8.33268 10H11.666C12.108 10 12.5319 10.1756 12.8445 10.4882C13.1571 10.8008 13.3327 11.2247 13.3327 11.6667V14.1667C13.3327 14.3877 13.2448 14.5997 13.0886 14.7559C12.9323 14.9122 12.7203 15 12.4993 15H7.49935C7.27833 15 7.06636 14.9122 6.91008 14.7559C6.7538 14.5997 6.66602 14.3877 6.66602 14.1667V11.6667C6.66602 11.2247 6.84161 10.8008 7.15417 10.4882C7.46673 10.1756 7.89066 10 8.33268 10Z" fill="#48AFBA"/>
</svg>
