<svg width="20" height="20" viewBox="0 0 20 20" fill="none" xmlns="http://www.w3.org/2000/svg">
<path d="M4.99935 7.5C5.88341 7.5 6.73124 7.85118 7.35636 8.47633C7.98148 9.10142 8.33268 9.94925 8.33268 10.8333V15C8.33268 15.221 8.24488 15.433 8.08861 15.5892C7.93232 15.7455 7.72037 15.8333 7.49935 15.8333H2.49935C2.27833 15.8333 2.06637 15.7455 1.91009 15.5892C1.75382 15.433 1.66602 15.221 1.66602 15V10.8333C1.66602 9.94925 2.0172 9.10142 2.64232 8.47633C3.26745 7.85118 4.11529 7.5 4.99935 7.5Z" fill="#C7CED5"/>
<path d="M4.99935 6.66667C6.14994 6.66667 7.08268 5.73392 7.08268 4.58333C7.08268 3.43274 6.14994 2.5 4.99935 2.5C3.84876 2.5 2.91602 3.43274 2.91602 4.58333C2.91602 5.73392 3.84876 6.66667 4.99935 6.66667Z" fill="#C7CED5"/>
<path d="M17.4993 15.8333H12.4993C12.2783 15.8333 12.0663 15.7455 11.9101 15.5892C11.7538 15.433 11.666 15.221 11.666 15V10.8333C11.666 9.94925 12.0172 9.10142 12.6423 8.47633C13.2674 7.85118 14.1153 7.5 14.9993 7.5C15.8834 7.5 16.7313 7.85118 17.3563 8.47633C17.9815 9.10142 18.3327 9.94925 18.3327 10.8333V15C18.3327 15.221 18.2448 15.433 18.0886 15.5892C17.9323 15.7455 17.7203 15.8333 17.4993 15.8333Z" fill="#C7CED5"/>
<path d="M14.9993 6.66667C16.1499 6.66667 17.0827 5.73392 17.0827 4.58333C17.0827 3.43274 16.1499 2.5 14.9993 2.5C13.8488 2.5 12.916 3.43274 12.916 4.58333C12.916 5.73392 13.8488 6.66667 14.9993 6.66667Z" fill="#C7CED5"/>
<path d="M9.26691 10H10.7252C11.6093 10 12.4572 10.3512 13.0822 10.9763C13.7074 11.6014 14.0586 12.4492 14.0586 13.3333V17.5C14.0586 17.721 13.9708 17.933 13.8145 18.0892C13.6582 18.2455 13.4462 18.3333 13.2252 18.3333H6.76693C6.54591 18.3333 6.33395 18.2455 6.17767 18.0892C6.02139 17.933 5.93359 17.721 5.93359 17.5V13.3333C5.93359 12.4492 6.28478 11.6014 6.9099 10.9763C7.53502 10.3512 8.38291 10 9.26691 10Z" fill="#6B758F"/>
<path d="M9.99935 9.16667C11.1499 9.16667 12.0827 8.23392 12.0827 7.08333C12.0827 5.93274 11.1499 5 9.99935 5C8.84877 5 7.91602 5.93274 7.91602 7.08333C7.91602 8.23392 8.84877 9.16667 9.99935 9.16667Z" fill="#6B758F"/>
</svg>
