<svg width="20" height="20" viewBox="0 0 20 20" fill="none" xmlns="http://www.w3.org/2000/svg">
<path d="M17.4993 4.16675H2.49935C2.03912 4.16675 1.66602 4.53985 1.66602 5.00008V15.8334C1.66602 16.2937 2.03912 16.6667 2.49935 16.6667H17.4993C17.9596 16.6667 18.3327 16.2937 18.3327 15.8334V5.00008C18.3327 4.53985 17.9596 4.16675 17.4993 4.16675Z" fill="#707070"/>
<path d="M8.33333 2.5H11.6667C11.8877 2.5 12.0997 2.58781 12.2559 2.74409C12.4122 2.90037 12.5 3.11232 12.5 3.33333V4.16667H7.5V3.33333C7.5 3.11232 7.58778 2.90037 7.74407 2.74409C7.90034 2.58781 8.11232 2.5 8.33333 2.5Z" fill="#707070"/>
<path d="M17.4993 4.1748H2.49935C2.27833 4.1748 2.06637 4.2626 1.91009 4.41888C1.75382 4.57515 1.66602 4.78712 1.66602 5.00814V10.0082C1.66602 10.4502 1.84161 10.8741 2.15417 11.1867C2.46673 11.4992 2.89066 11.6748 3.33268 11.6748H16.666C17.108 11.6748 17.5319 11.4992 17.8445 11.1867C18.1571 10.8741 18.3327 10.4502 18.3327 10.0082V5.00814C18.3327 4.78712 18.2448 4.57515 18.0886 4.41888C17.9323 4.2626 17.7203 4.1748 17.4993 4.1748Z" fill="#9C9188"/>
<path d="M5.83268 7.5H4.16602V10H5.83268V7.5Z" fill="white"/>
<path d="M15.8327 7.5H14.166V10H15.8327V7.5Z" fill="white"/>
</svg>
