<svg width="20" height="20" viewBox="0 0 20 20" fill="none" xmlns="http://www.w3.org/2000/svg">
<path d="M10 9.22266C10.4416 9.22266 10.7998 9.56989 10.7998 10V14.3896L11.8438 13.4102C12.1622 13.1123 12.6692 13.1209 12.9756 13.4297C13.2824 13.7393 13.2735 14.2315 12.9561 14.5293L10.5557 16.7822C10.3997 16.9268 10.1999 17 10 17C9.79532 17 9.59053 16.9247 9.43457 16.7725L7.03418 14.4385C6.7217 14.1351 6.72155 13.6429 7.03418 13.3389C7.34618 13.0355 7.85322 13.0355 8.16602 13.3389L9.2002 14.3447V10C9.2002 9.5699 9.55843 9.22269 10 9.22266ZM10 3C12.0648 3 13.884 4.29225 14.54 6.14648C16.4912 6.40396 18 8.03381 18 10C18 10.9496 17.6446 11.8632 17 12.5732C16.8417 12.7466 16.6219 12.8368 16.4004 12.8369C16.2124 12.8369 16.0229 12.7732 15.8701 12.6426C15.5397 12.3571 15.508 11.8657 15.8008 11.543C16.1871 11.1183 16.4004 10.5693 16.4004 10C16.4004 8.71357 15.3232 7.66699 14 7.66699H13.9199C13.5392 7.66696 13.2109 7.40519 13.1357 7.04199C12.8365 5.60164 11.5183 4.55566 10 4.55566C8.48248 4.55566 7.16372 5.60165 6.86523 7.04199C6.79004 7.40519 6.46084 7.66696 6.08008 7.66699H6C4.67681 7.66699 3.59963 8.71357 3.59961 10C3.59961 10.5693 3.813 11.1183 4.2002 11.543C4.4922 11.8657 4.46108 12.3571 4.12988 12.6426C3.79788 12.9272 3.29296 12.8945 3.00098 12.5732C2.35548 11.8632 2 10.9496 2 10C2.00002 8.03381 3.50881 6.40396 5.45996 6.14648C6.11676 4.29225 7.936 3 10 3Z" fill="#5C5C5C"/>
</svg>
