<svg width="20" height="20" viewBox="0 0 20 20" fill="none" xmlns="http://www.w3.org/2000/svg">
<path d="M9.44434 9.44043C9.75954 9.14805 10.2574 9.15 10.5654 9.4502L12.9658 11.7832C13.2785 12.0872 13.2782 12.5787 12.9658 12.8828C12.8098 13.0345 12.6042 13.1113 12.3994 13.1113C12.1948 13.1112 11.9899 13.0344 11.834 12.8828L10.7998 11.8779V16.2227C10.7996 16.6525 10.4414 16.9999 10 17C9.55854 17 9.20043 16.6526 9.2002 16.2227V11.832L8.15625 12.8125C7.83865 13.1119 7.33161 13.1017 7.02441 12.793C6.71738 12.4834 6.72641 11.992 7.04395 11.6934L9.44434 9.44043ZM10 3C12.0648 3 13.884 4.29227 14.54 6.14648C16.4912 6.40396 18 8.03382 18 10C18 10.9496 17.6447 11.8632 17 12.5732C16.8417 12.7466 16.6219 12.8368 16.4004 12.8369C16.2124 12.8369 16.0229 12.7723 15.8701 12.6416C15.5401 12.3561 15.5081 11.8656 15.8008 11.543C16.1871 11.1183 16.4004 10.5693 16.4004 10C16.4004 8.71356 15.3232 7.66699 14 7.66699H13.9199C13.5392 7.66696 13.2109 7.40519 13.1357 7.04199C12.8365 5.60163 11.5183 4.55566 10 4.55566C8.48246 4.55566 7.16371 5.60165 6.86523 7.04199C6.79004 7.40519 6.46084 7.66696 6.08008 7.66699H6C4.6768 7.66699 3.59961 8.71356 3.59961 10C3.59962 10.5693 3.813 11.1183 4.2002 11.543C4.49204 11.8656 4.4607 12.3561 4.12988 12.6416C3.79868 12.9263 3.29298 12.8945 3.00098 12.5732C2.35545 11.8632 2.00001 10.9496 2 10C2 8.03382 3.5088 6.40397 5.45996 6.14648C6.11676 4.29227 7.936 3 10 3Z" fill="#5C5C5C"/>
</svg>
