<svg width="20" height="20" viewBox="0 0 20 20" fill="none" xmlns="http://www.w3.org/2000/svg">
<path fill-rule="evenodd" clip-rule="evenodd" d="M17 9.00014H5.135L8.768 4.64014C9.122 4.21614 9.064 3.58514 8.64 3.23214C8.215 2.87814 7.585 2.93614 7.232 3.36014L2.232 9.36014C2.193 9.40714 2.173 9.46214 2.144 9.51414C2.12 9.55614 2.091 9.59214 2.073 9.63814C2.028 9.75314 2.001 9.87414 2.001 9.99614C2.001 9.99714 2 9.99914 2 10.0001C2 10.0011 2.001 10.0031 2.001 10.0041C2.001 10.1261 2.028 10.2471 2.073 10.3621C2.091 10.4081 2.12 10.4441 2.144 10.4861C2.173 10.5381 2.193 10.5931 2.232 10.6401L7.232 16.6401C7.43 16.8771 7.714 17.0001 8 17.0001C8.226 17.0001 8.453 16.9241 8.64 16.7681C9.064 16.4151 9.122 15.7841 8.768 15.3601L5.135 11.0001H17C17.552 11.0001 18 10.5521 18 10.0001C18 9.44814 17.552 9.00014 17 9.00014Z" fill="#5C5C5C"/>
</svg>
