<svg width="20" height="20" viewBox="0 0 20 20" fill="none" xmlns="http://www.w3.org/2000/svg">
<path fill-rule="evenodd" clip-rule="evenodd" d="M3.00002 11H14.8653L11.2322 15.3601C10.8782 15.7841 10.9362 16.4151 11.3602 16.7681C11.7852 17.1222 12.4152 17.0641 12.7692 16.6401L17.7693 10.64C17.8083 10.593 17.8273 10.538 17.8563 10.486C17.8803 10.444 17.9093 10.408 17.9273 10.362C17.9723 10.247 17.9993 10.126 17.9993 10.004C17.9993 10.003 18.0003 10.001 18.0003 10C18.0003 9.99901 17.9993 9.997 17.9993 9.99601C17.9993 9.874 17.9723 9.753 17.9273 9.638C17.9093 9.592 17.8803 9.556 17.8563 9.514C17.8273 9.46199 17.8083 9.40699 17.7693 9.35999L12.7692 3.35987C12.5702 3.12287 12.2862 2.99986 12.0002 2.99986C11.7742 2.99986 11.5472 3.07586 11.3602 3.23187C10.9362 3.58487 10.8782 4.21589 11.2322 4.6399L14.8653 8.99998H3.00002C2.44801 8.99998 2 9.44799 2 10C2 10.552 2.44801 11 3.00002 11Z" fill="#5C5C5C"/>
</svg>
