<svg width="20" height="20" viewBox="0 0 20 20" fill="none" xmlns="http://www.w3.org/2000/svg">
<path fill-rule="evenodd" clip-rule="evenodd" d="M4.19866 8.81C4.50208 9.181 5.04208 9.23175 5.4055 8.922L9.1426 5.74312V16.125C9.1426 16.608 9.5266 17 9.99974 17C10.4729 17 10.8569 16.608 10.8569 16.125V5.74312L14.594 8.922C14.9583 9.23175 15.4983 9.181 15.8008 8.81C16.1042 8.439 16.0554 7.88687 15.6911 7.578L10.5483 3.203C10.508 3.168 10.46 3.15138 10.4154 3.12513C10.3803 3.10413 10.3494 3.07962 10.3109 3.06387C10.2106 3.02362 10.106 3 9.99974 3C9.89345 3 9.78888 3.02362 9.6886 3.06387C9.65003 3.07962 9.61917 3.10413 9.58403 3.12513C9.53946 3.15138 9.49146 3.168 9.45117 3.203L4.30837 7.578C3.94494 7.88687 3.89523 8.439 4.19866 8.81Z" fill="#5C5C5C"/>
</svg>
