<svg width="20" height="20" viewBox="0 0 20 20" fill="none" xmlns="http://www.w3.org/2000/svg">
<path fill-rule="evenodd" clip-rule="evenodd" d="M13.5177 8.83275L11.1593 6.47134L12.864 4.76358L15.2215 7.12412L13.5177 8.83275ZM7.44539 14.919L4.84025 15.1564L5.07127 12.5663L9.98664 7.64459L12.3459 10.0069L7.44539 14.919ZM16.4798 5.90529L16.4789 5.90441L14.0829 3.50532C13.4345 2.85779 12.3205 2.82712 11.7062 3.44486L3.83387 11.3273C3.54859 11.6121 3.37182 11.9906 3.33507 12.3911L3.00341 16.0449C2.98066 16.3034 3.07254 16.5593 3.25631 16.7433C3.4217 16.9089 3.64485 17 3.875 17C3.90213 17 3.92838 16.9991 3.95463 16.9965L7.60375 16.6644C8.00454 16.6276 8.3817 16.4515 8.66611 16.1667L16.5393 8.28335C17.1763 7.64371 17.1492 6.57647 16.4798 5.90529Z" fill="#5C5C5C"/>
</svg>
