<svg width="20" height="20" viewBox="0 0 20 20" fill="none" xmlns="http://www.w3.org/2000/svg">
<path fill-rule="evenodd" clip-rule="evenodd" d="M11.6002 10.8232H8.40022C7.96022 10.8232 7.60022 11.1938 7.60022 11.6467C7.60022 12.0997 7.96022 12.4702 8.40022 12.4702H11.6002C12.0402 12.4702 12.4002 12.0997 12.4002 11.6467C12.4002 11.1938 12.0402 10.8232 11.6002 10.8232ZM16.3997 14.9972C16.3997 15.1932 16.2205 15.3529 15.9997 15.3529H3.99973C3.77893 15.3529 3.59973 15.1932 3.59973 14.9972V11.4453V5.00199C3.59973 4.80599 3.77893 4.64705 3.99973 4.64705H7.30053L9.38053 7.26423C9.53253 7.45611 9.75973 7.56728 9.99973 7.56728H15.9997C16.2205 7.56728 16.3997 7.72622 16.3997 7.92305V14.9972ZM16.0001 5.92024H10.3793L8.30012 3.30224C8.14812 3.11035 7.92012 3 7.68092 3H4.00012C2.89772 3 2.00012 3.89765 2.00012 5.002V14.9972C2.00012 16.1015 2.89772 17 4.00012 17H16.0001C17.1025 17 18.0001 16.1015 18.0001 14.9972V7.92306C18.0001 6.81788 17.1025 5.92024 16.0001 5.92024Z" fill="#5C5C5C"/>
</svg>
