<svg width="20" height="20" viewBox="0 0 20 20" fill="none" xmlns="http://www.w3.org/2000/svg">
<path d="M5.21021 8.80566C5.48601 8.532 5.93219 8.53198 6.20728 8.80566C6.48232 9.08073 6.48226 9.5254 6.20728 9.7998L5.21021 10.7939C4.05031 11.951 4.11335 13.8739 5.40063 14.9463C6.54023 15.8962 8.25326 15.7149 9.30396 14.667L10.1956 13.7773C10.4713 13.5023 10.9178 13.5023 11.1936 13.7773C11.4687 14.0524 11.4687 14.4974 11.1936 14.7725L10.1956 15.7666C8.41617 17.5399 5.43458 17.4014 3.84497 15.3486C2.53037 13.6518 2.79723 11.2125 4.31763 9.69629L5.21021 8.80566ZM10.9055 8.10547C11.1792 7.83182 11.6211 7.83179 11.8948 8.10547C12.1683 8.37916 12.1684 8.82107 11.8948 9.09473L9.09497 11.8945C8.95847 12.031 8.77905 12.0996 8.59985 12.0996C8.42069 12.0996 8.24121 12.031 8.10474 11.8945C7.83148 11.6209 7.8314 11.1789 8.10474 10.9053L10.9055 8.10547ZM9.66919 4.33008C11.1966 2.79922 13.6611 2.52216 15.3635 3.85352C17.4024 5.44797 17.5361 8.41936 15.7649 10.1953L14.7688 11.1934C14.4937 11.4692 14.0478 11.4692 13.7727 11.1934C13.4977 10.9183 13.4976 10.4704 13.7727 10.1953L14.7688 9.19727C15.9269 8.03734 15.8641 6.10871 14.5784 5.03223C13.4395 4.07813 11.7292 4.26013 10.6799 5.31152L9.78931 6.2041C9.51491 6.4799 9.06859 6.47989 8.79419 6.2041C8.51909 5.929 8.51641 5.48453 8.91821 5.08203L9.66919 4.33008Z" fill="#5C5C5C"/>
</svg>
