<svg width="20" height="20" viewBox="0 0 20 20" fill="none" xmlns="http://www.w3.org/2000/svg">
<path d="M7.81787 5C8.21924 5 8.54526 5.37232 8.54541 5.83301C8.54541 6.29384 8.21934 6.66699 7.81787 6.66699H6.36377C4.67146 6.66699 3.31157 8.32983 3.46631 10.3047C3.60231 12.0538 4.98445 13.333 6.51611 13.333H7.81787C8.21934 13.333 8.54541 13.7062 8.54541 14.167C8.54526 14.6277 8.21924 15 7.81787 15H6.36377C3.76888 15 1.69568 12.391 2.03662 9.34277C2.3188 6.82287 4.29773 5.00015 6.51514 5H7.81787ZM13.4604 5C15.6909 5 17.6924 6.83088 17.9653 9.36816C18.2919 12.4065 16.2239 15 13.6362 15H12.1812C11.7799 14.9997 11.4546 14.6276 11.4546 14.167C11.4546 13.7063 11.7799 13.3343 12.1812 13.334H13.6362C15.3286 13.334 16.6876 11.6703 16.5327 9.69531C16.3967 7.94621 15.0152 6.66708 13.4829 6.66699H12.1812C11.78 6.6667 11.4548 6.29443 11.4546 5.83398C11.4546 5.37315 11.7766 5 12.3628 5H13.4604ZM12.1812 9.16699C12.5826 9.16699 12.9087 9.53917 12.9087 10C12.9087 10.4608 12.5826 10.833 12.1812 10.833H7.81787C7.41641 10.833 7.09034 10.4608 7.09033 10C7.09033 9.53917 7.41641 9.167 7.81787 9.16699H12.1812Z" fill="#5C5C5C"/>
</svg>
