<svg width="20" height="20" viewBox="0 0 20 20" fill="none" xmlns="http://www.w3.org/2000/svg">
<path d="M4.68262 6.74561L4.55566 6.81982V6.93799C4.55566 10.7873 6.55196 14.3515 9.76465 16.2397L10 16.3784L10.2344 16.2397C10.9817 15.8004 11.6608 15.2679 12.2666 14.6646L13.3662 15.813C12.6609 16.5194 11.8703 17.1424 10.9971 17.6548L10.7627 17.7925C10.5271 17.9305 10.2636 17.9995 10 17.9995C9.73634 17.9995 9.47316 17.9315 9.23828 17.7935L9.00293 17.6548C5.30008 15.4799 3 11.3738 3 6.93799V6.81982C3.00014 6.33436 3.21869 5.8868 3.56934 5.58154L4.68262 6.74561ZM3.22852 2.9292C3.53264 2.61198 4.02413 2.61177 4.32812 2.9292L16.7715 15.9233C17.0756 16.2409 17.0756 16.7542 16.7715 17.0718C16.6198 17.23 16.4207 17.3101 16.2217 17.3101C16.0226 17.31 15.8235 17.2301 15.6719 17.0718L3.22852 4.07764C2.92442 3.7601 2.92442 3.24674 3.22852 2.9292ZM9.2373 2.20752C9.70862 1.93221 10.2927 1.9314 10.7617 2.20752L16.207 5.40576C16.6967 5.69411 16.9999 6.23632 17 6.8208V6.93896C17 9.20226 16.3971 11.3783 15.3184 13.2583L14.1787 12.0669C14.9914 10.5199 15.4443 8.76209 15.4443 6.93896V6.8208L10 3.62256L7.49902 5.09229L6.35645 3.8999L9.2373 2.20752Z" fill="#5C5C5C"/>
</svg>
