<svg width="20" height="20" viewBox="0 0 20 20" fill="none" xmlns="http://www.w3.org/2000/svg">
<path fill-rule="evenodd" clip-rule="evenodd" d="M16.1172 13.3212L11.5788 10.002L16.1172 6.74286V13.3212ZM8.58792 13.3212L4.04957 10.002L8.58792 6.74286V13.3212ZM17.0115 5.16784C16.3207 4.88034 15.5047 4.96534 14.9325 5.38451L10.4703 8.64784V6.48951C10.4703 5.92867 10.092 5.42201 9.48211 5.16784C8.79129 4.88034 7.97529 4.96534 7.40305 5.38451L2.60305 8.89451C2.21999 9.17451 1.99976 9.57867 1.99976 10.0003C1.99976 10.422 2.21999 10.8253 2.60399 11.1053L7.40305 14.617C7.7494 14.8695 8.18611 15.0012 8.6294 15.0012C8.91834 15.0012 9.21011 14.9453 9.48211 14.832C10.092 14.5778 10.4703 14.0712 10.4703 13.5112V11.352L14.9325 14.617C15.2788 14.8695 15.7155 15.0012 16.1588 15.0012C16.4478 15.0012 16.7395 14.9453 17.0115 14.832C17.6214 14.5778 17.9998 14.0712 17.9998 13.5112V6.48951C17.9998 5.92867 17.6214 5.42201 17.0115 5.16784Z" fill="#5C5C5C"/>
</svg>
