<svg width="20" height="20" viewBox="0 0 20 20" fill="none" xmlns="http://www.w3.org/2000/svg">
<path fill-rule="evenodd" clip-rule="evenodd" d="M11.4119 13.2568V6.67847L15.9503 9.99847L11.4119 13.2568ZM3.88217 13.2568V6.67847L8.42052 9.99847L3.88217 13.2568ZM17.3958 8.89515L12.5967 5.38348C12.0235 4.96515 11.2066 4.88015 10.5176 5.16765C9.90776 5.42265 9.52941 5.92848 9.52941 6.48931V8.64848L5.06729 5.38348C4.49412 4.96515 3.67624 4.88015 2.98824 5.16765C2.37835 5.42265 2 5.92848 2 6.48931V13.511C2 14.0718 2.37835 14.5776 2.98824 14.8326C3.26024 14.9451 3.552 15.001 3.84094 15.001C4.28424 15.001 4.72094 14.8701 5.06729 14.616L9.52941 11.3526V13.511C9.52941 14.0718 9.90776 14.5776 10.5176 14.8326C10.7896 14.9451 11.0814 15.001 11.3704 15.001C11.8136 15.001 12.2504 14.8701 12.5967 14.616L17.3967 11.1051C17.7798 10.8251 18 10.4218 18 10.0001C18 9.57848 17.7798 9.17515 17.3958 8.89515Z" fill="#5C5C5C"/>
</svg>
