<svg width="20" height="20" viewBox="0 0 20 20" fill="none" xmlns="http://www.w3.org/2000/svg">
<path d="M14.2249 5.00815H1.66659C1.44557 5.00815 1.23361 5.09594 1.07733 5.25222C0.921052 5.40851 0.833252 5.62047 0.833252 5.84148V15.0082C0.833252 15.2292 0.921052 15.4411 1.07733 15.5974C1.23361 15.7537 1.44557 15.8415 1.66659 15.8415H18.3333C18.5543 15.8415 18.7663 15.7537 18.9225 15.5974C19.0788 15.4411 19.1666 15.2292 19.1666 15.0082V10.6082C19.1673 10.2188 19.0318 9.84134 18.7833 9.54151L15.4999 5.59982C15.3433 5.41427 15.1481 5.2652 14.9278 5.163C14.7076 5.0608 14.4677 5.00795 14.2249 5.00815Z" fill="#E7ECEF"/>
<path d="M4.58333 18.3333C5.73392 18.3333 6.66667 17.4006 6.66667 16.25C6.66667 15.0994 5.73392 14.1667 4.58333 14.1667C3.43274 14.1667 2.5 15.0994 2.5 16.25C2.5 17.4006 3.43274 18.3333 4.58333 18.3333Z" fill="#737A83"/>
<path d="M15.4166 18.3333C16.5672 18.3333 17.4999 17.4006 17.4999 16.25C17.4999 15.0994 16.5672 14.1667 15.4166 14.1667C14.266 14.1667 13.3333 15.0994 13.3333 16.25C13.3333 17.4006 14.266 18.3333 15.4166 18.3333Z" fill="#737A83"/>
<path d="M11.6667 2.5C12.1087 2.5 12.5327 2.67562 12.8452 2.98818C13.1577 3.30074 13.3333 3.72464 13.3333 4.16667V5H10V4.16667C10 3.72464 10.1756 3.30074 10.4882 2.98818C10.8008 2.67562 11.2247 2.5 11.6667 2.5Z" fill="#F57C75"/>
<path d="M9.1755 9.16666H4.17554V10.8333H9.1755V9.16666Z" fill="#48AFBA"/>
<path d="M5.84229 7.50815V12.5082H7.50895V7.50815H5.84229Z" fill="#48AFBA"/>
<path d="M16.3917 6.6748H13.3333C13.1123 6.6748 12.9003 6.7626 12.7441 6.91888C12.5878 7.07515 12.5 7.28712 12.5 7.50814V9.79983C12.5 10.0208 12.5878 10.2327 12.7441 10.3891C12.9003 10.5453 13.1123 10.6332 13.3333 10.6332H19.1667C19.1674 10.2437 19.0318 9.86633 18.7833 9.5665L16.3917 6.6748Z" fill="#737A83"/>
</svg>
