<svg width="20" height="20" viewBox="0 0 20 20" fill="none" xmlns="http://www.w3.org/2000/svg">
<path d="M8.71675 8.33334H11.2167C12.3217 8.33334 13.3816 8.77234 14.163 9.55368C14.9444 10.3351 15.3834 11.3949 15.3834 12.5V17.5C15.3834 17.942 15.2078 18.3659 14.8953 18.6785C14.5827 18.9911 14.1587 19.1667 13.7167 19.1667H6.21672C5.77469 19.1667 5.35077 18.9911 5.03821 18.6785C4.72564 18.3659 4.55005 17.942 4.55005 17.5V12.5C4.55005 11.3949 4.98903 10.3351 5.77043 9.55368C6.55184 8.77234 7.61165 8.33334 8.71675 8.33334Z" fill="#C7CED5"/>
<path d="M10.0001 7.50001C11.841 7.50001 13.3334 6.00763 13.3334 4.16668C13.3334 2.32573 11.841 0.833344 10.0001 0.833344C8.15913 0.833344 6.66675 2.32573 6.66675 4.16668C6.66675 6.00763 8.15913 7.50001 10.0001 7.50001Z" fill="#C7CED5"/>
<path d="M14.5834 18.3333C16.1942 18.3333 17.5001 17.0275 17.5001 15.4167C17.5001 13.8058 16.1942 12.5 14.5834 12.5C12.9726 12.5 11.6667 13.8058 11.6667 15.4167C11.6667 17.0275 12.9726 18.3333 14.5834 18.3333Z" fill="#6B758F"/>
<path d="M14.5833 16.6667C15.2736 16.6667 15.8333 16.107 15.8333 15.4167C15.8333 14.7264 15.2736 14.1667 14.5833 14.1667C13.8929 14.1667 13.3333 14.7264 13.3333 15.4167C13.3333 16.107 13.8929 16.6667 14.5833 16.6667Z" fill="white"/>
<path d="M15.6412 11.6748H13.5579V13.3415H15.6412V11.6748Z" fill="#6B758F"/>
<path d="M11.8791 12.6351L10.8374 14.4392L12.2807 15.2726L13.3224 13.4684L11.8791 12.6351Z" fill="#6B758F"/>
<path d="M10.8228 16.3786L11.8644 18.1827L13.3078 17.3494L12.2662 15.5452L10.8228 16.3786Z" fill="#6B758F"/>
<path d="M13.5247 19.1585H15.608V17.4918H13.5247V19.1585Z" fill="#6B758F"/>
<path d="M17.2933 18.2088L18.3349 16.4046L16.8915 15.5712L15.8499 17.3755L17.2933 18.2088Z" fill="#6B758F"/>
<path d="M18.3495 14.4621L17.3078 12.6579L15.8645 13.4912L16.9062 15.2954L18.3495 14.4621Z" fill="#6B758F"/>
</svg>
