<svg width="20" height="20" viewBox="0 0 20 20" fill="none" xmlns="http://www.w3.org/2000/svg">
<path fill-rule="evenodd" clip-rule="evenodd" d="M10.8334 4.16666V18.3333H9.16675V4.16666H10.8334Z" fill="#CBDFFF"/>
<path d="M12.5081 4.16666C12.5081 2.78595 11.3887 1.66666 10.0081 1.66666C8.62733 1.66666 7.50806 2.78595 7.50806 4.16666C7.50806 5.54736 8.62733 6.66666 10.0081 6.66666C11.3887 6.66666 12.5081 5.54736 12.5081 4.16666Z" fill="#5096FF"/>
<path fill-rule="evenodd" clip-rule="evenodd" d="M16.6667 8.33334V12.946L14.1667 14.6127V18.3333H12.5V13.7207L15 12.054V8.33334H16.6667Z" fill="#CBDFFF"/>
<path d="M18.3416 7.5C18.3416 6.11929 17.2222 5 15.8416 5C14.4608 5 13.3416 6.11929 13.3416 7.5C13.3416 8.88075 14.4608 10 15.8416 10C17.2222 10 18.3416 8.88075 18.3416 7.5Z" fill="#5096FF"/>
<path fill-rule="evenodd" clip-rule="evenodd" d="M5.00822 12.054V8.33334H3.34155V12.946L5.84149 14.6127V18.3333H7.50816V13.7207L5.00822 12.054Z" fill="#CBDFFF"/>
<path d="M1.6748 7.5C1.6748 8.88075 2.79409 10 4.1748 10C5.55551 10 6.67481 8.88075 6.67481 7.5C6.67481 6.11929 5.55551 5 4.1748 5C2.79409 5 1.6748 6.11929 1.6748 7.5Z" fill="#5096FF"/>
</svg>
