<svg width="20" height="20" viewBox="0 0 20 20" fill="none" xmlns="http://www.w3.org/2000/svg">
<path d="M1.66675 14.1667H3.33341L5.00008 11.6667V8.33334L3.33341 5.83334H1.66675L2.50008 10L1.66675 14.1667Z" fill="#5096FF"/>
<path d="M5.83325 18.3333H9.16659L13.3333 11.6667H8.33325L5.83325 18.3333Z" fill="#CBDFFF"/>
<path d="M17.4999 8.34149H3.33325V11.6748H17.4999C17.9419 11.6748 18.3658 11.4992 18.6784 11.1867C18.991 10.8741 19.1666 10.4502 19.1666 10.0082C19.1666 9.56607 18.991 9.14216 18.6784 8.82966C18.3658 8.51708 17.9419 8.34149 17.4999 8.34149Z" fill="#5096FF"/>
<path d="M9.16659 1.66666H5.83325L8.33325 8.33332H13.3333L9.16659 1.66666Z" fill="#CBDFFF"/>
</svg>
