<svg width="20" height="20" viewBox="0 0 20 20" fill="none" xmlns="http://www.w3.org/2000/svg">
<path d="M10 19.1667C11.3807 19.1667 12.5 18.0474 12.5 16.6667C12.5 15.2859 11.3807 14.1667 10 14.1667C8.61925 14.1667 7.5 15.2859 7.5 16.6667C7.5 18.0474 8.61925 19.1667 10 19.1667Z" fill="#737A83"/>
<path d="M3.75 15.8333V8.70833C3.75 5.28333 6.53333 2.5 9.95833 2.5H10.0417C13.4667 2.5 16.25 5.28333 16.25 8.70833V15.8333H3.75Z" fill="#E7ECEF"/>
<path d="M16.6667 15H3.33333C2.8731 15 2.5 15.3731 2.5 15.8333C2.5 16.2936 2.8731 16.6667 3.33333 16.6667H16.6667C17.1269 16.6667 17.5 16.2936 17.5 15.8333C17.5 15.3731 17.1269 15 16.6667 15Z" fill="#E7ECEF"/>
<path d="M11.6666 2.49999C11.6666 1.57952 10.9204 0.833328 9.99992 0.833328C9.07942 0.833328 8.33325 1.57952 8.33325 2.49999V4.16666C8.33325 5.08714 9.07942 5.83333 9.99992 5.83333C10.9204 5.83333 11.6666 5.08714 11.6666 4.16666V2.49999Z" fill="#E7ECEF"/>
</svg>
