<svg width="20" height="20" viewBox="0 0 20 20" fill="none" xmlns="http://www.w3.org/2000/svg">
<g clip-path="url(#clip0_559_42813)">
<mask id="mask0_559_42813" style="mask-type:luminance" maskUnits="userSpaceOnUse" x="0" y="0" width="20" height="20">
<path d="M20 0H0V20H20V0Z" fill="white"/>
</mask>
<g mask="url(#mask0_559_42813)">
<path d="M6.6416 18.2417C5.19993 18.2417 3.75827 17.6917 2.6666 16.6C1.57493 15.5083 1.0166 14.125 1.0166 12.625C1.0166 11.125 1.59993 9.70832 2.6666 8.64999L8.25827 3.04166L9.73329 4.51666L4.13327 10.1167C3.4666 10.7833 3.09993 11.675 3.09993 12.625C3.09993 13.575 3.4666 14.4583 4.13327 15.1333C5.5166 16.5167 7.75827 16.5167 9.14163 15.1333L16.0916 8.18333C16.8916 7.38333 16.8916 6.08333 16.0916 5.29166C15.2916 4.49166 13.9916 4.49166 13.1916 5.29166L6.53327 11.95C6.4166 12.0667 6.34993 12.225 6.34993 12.3917C6.34993 12.5583 6.4166 12.7167 6.53327 12.8333C6.77493 13.075 7.17493 13.075 7.4166 12.8333L13.9 6.35L15.375 7.825L8.89163 14.3083C7.83327 15.3667 6.1166 15.3667 5.05827 14.3083C4.54994 13.8 4.2666 13.1167 4.2666 12.3917C4.2666 11.6667 4.54994 10.9917 5.05827 10.475L11.7166 3.81666C13.325 2.20833 15.95 2.20833 17.5583 3.81666C19.1666 5.425 19.1666 8.05 17.5583 9.65832L10.6083 16.6083C9.50829 17.7083 8.07493 18.25 6.63327 18.25L6.6416 18.2417Z" fill="#C7CED5"/>
</g>
</g>
<defs>
<clipPath id="clip0_559_42813">
<rect width="20" height="20" fill="white"/>
</clipPath>
</defs>
</svg>
