<svg width="20" height="20" viewBox="0 0 20 20" fill="none" xmlns="http://www.w3.org/2000/svg">
<path fill-rule="evenodd" clip-rule="evenodd" d="M8.95825 3.33332C8.95825 2.75802 9.42459 2.29166 9.99992 2.29166H13.1868L18.4573 14.5897C18.684 15.1184 18.439 15.7308 17.9103 15.9574C17.3815 16.1841 16.7691 15.9391 16.5425 15.4103L11.8131 4.37499H9.99992C9.42459 4.37499 8.95825 3.90862 8.95825 3.33332Z" fill="#F57C75"/>
<path d="M11.6667 14.1667L14.1667 9.16666H15.8334L17.9751 14.1667H11.6667Z" fill="#F57C75"/>
<path d="M2.5 15.0082H10L8.33333 10.8415H5C4.33696 10.8415 3.70107 11.1048 3.23223 11.5737C2.76339 12.0426 2.5 12.6784 2.5 13.3415V15.0082Z" fill="#F57C75"/>
<path d="M16.6667 14.1667H5V16.6667H16.6667V14.1667Z" fill="#F57C75"/>
<path d="M4.16675 18.3333C5.54746 18.3333 6.66675 17.2141 6.66675 15.8333C6.66675 14.4526 5.54746 13.3333 4.16675 13.3333C2.78604 13.3333 1.66675 14.4526 1.66675 15.8333C1.66675 17.2141 2.78604 18.3333 4.16675 18.3333Z" fill="#737A83"/>
<path d="M16.6667 18.3333C18.0475 18.3333 19.1667 17.2141 19.1667 15.8333C19.1667 14.4526 18.0475 13.3333 16.6667 13.3333C15.286 13.3333 14.1667 14.4526 14.1667 15.8333C14.1667 17.2141 15.286 18.3333 16.6667 18.3333Z" fill="#737A83"/>
<path d="M4.99992 5.83334H1.66659C1.20635 5.83334 0.833252 6.20644 0.833252 6.66668V10C0.833252 10.4603 1.20635 10.8333 1.66659 10.8333H4.99992C5.46015 10.8333 5.83325 10.4603 5.83325 10V6.66668C5.83325 6.20644 5.46015 5.83334 4.99992 5.83334Z" fill="#C7CED5"/>
<path d="M8.43341 9.16666H4.05843C3.59819 9.16666 3.2251 9.53974 3.2251 9.99999C3.2251 10.4602 3.59819 10.8333 4.05843 10.8333H8.43341C8.89366 10.8333 9.26675 10.4602 9.26675 9.99999C9.26675 9.53974 8.89366 9.16666 8.43341 9.16666Z" fill="#C7CED5"/>
</svg>
