<svg width="20" height="20" viewBox="0 0 20 20" fill="none" xmlns="http://www.w3.org/2000/svg">
<path d="M5.00008 12.5H2.50008C2.03985 12.5 1.66675 12.8731 1.66675 13.3333V16.6667C1.66675 17.1269 2.03985 17.5 2.50008 17.5H5.00008C5.46031 17.5 5.83341 17.1269 5.83341 16.6667V13.3333C5.83341 12.8731 5.46031 12.5 5.00008 12.5Z" fill="#48AFBA"/>
<path d="M10.8333 7.5H8.33333C7.8731 7.5 7.5 7.8731 7.5 8.33333V16.6667C7.5 17.1269 7.8731 17.5 8.33333 17.5H10.8333C11.2936 17.5 11.6667 17.1269 11.6667 16.6667V8.33333C11.6667 7.8731 11.2936 7.5 10.8333 7.5Z" fill="#48AFBA"/>
<path d="M16.6666 2.5H14.1666C13.7063 2.5 13.3333 2.8731 13.3333 3.33333V16.6667C13.3333 17.1269 13.7063 17.5 14.1666 17.5H16.6666C17.1268 17.5 17.4999 17.1269 17.4999 16.6667V3.33333C17.4999 2.8731 17.1268 2.5 16.6666 2.5Z" fill="#48AFBA"/>
</svg>
