<svg width="20" height="20" viewBox="0 0 20 20" fill="none" xmlns="http://www.w3.org/2000/svg">
<g clip-path="url(#clip0_559_42829)">
<mask id="mask0_559_42829" style="mask-type:luminance" maskUnits="userSpaceOnUse" x="0" y="0" width="20" height="20">
<path d="M20 0H0V20H20V0Z" fill="white"/>
</mask>
<g mask="url(#mask0_559_42829)">
<path d="M16.6667 7.91668C16.7772 7.91668 16.8831 7.96058 16.9613 8.03872C17.0395 8.11685 17.0834 8.22284 17.0834 8.33334V14.1667C17.0834 14.2772 17.0395 14.3832 16.9613 14.4613C16.8831 14.5394 16.7772 14.5833 16.6667 14.5833H15.3834V7.91668H16.6334M16.6334 5.83334H13.3V16.6667H16.6334C17.2964 16.6667 17.9323 16.4033 18.4011 15.9344C18.87 15.4656 19.1334 14.8297 19.1334 14.1667V8.33334C19.1334 7.6703 18.87 7.03442 18.4011 6.56558C17.9323 6.09674 17.2964 5.83334 16.6334 5.83334Z" fill="#FFC738"/>
<path d="M4.16675 16.7584C4.19021 17.1843 4.37611 17.585 4.68616 17.878C4.99621 18.171 5.40682 18.334 5.83341 18.3334H13.3334C13.76 18.334 14.1706 18.171 14.4807 17.878C14.7907 17.585 14.9766 17.1843 15.0001 16.7584V4.16669H4.16675V16.7584Z" fill="#FFC738"/>
<path d="M13.3334 0.833344H5.83341C5.39139 0.833344 4.96746 1.00894 4.6549 1.3215C4.34234 1.63406 4.16675 2.05799 4.16675 2.50001V4.16668H15.0001V2.50001C15.0001 2.05799 14.8245 1.63406 14.5119 1.3215C14.1993 1.00894 13.7754 0.833344 13.3334 0.833344Z" fill="#FBF3DF"/>
</g>
</g>
<defs>
<clipPath id="clip0_559_42829">
<rect width="20" height="20" fill="white"/>
</clipPath>
</defs>
</svg>
