<svg width="20" height="20" viewBox="0 0 20 20" fill="none" xmlns="http://www.w3.org/2000/svg">
<path d="M2.5 6.66666V16.7262C2.5 16.9314 2.58781 17.1282 2.74409 17.2733C2.90037 17.4185 3.11232 17.5 3.33333 17.5H16.6667C16.8877 17.5 17.0997 17.4185 17.2559 17.2733C17.4122 17.1282 17.5 16.9314 17.5 16.7262V6.66666H2.5Z" fill="#EFE8E1"/>
<path d="M18.3414 3.33334H1.6748V6.66668H18.3414V3.33334Z" fill="#9C9188"/>
<path d="M11.6747 8.125H8.34141C7.88115 8.125 7.50806 8.49808 7.50806 8.95833V9.375C7.50806 9.83525 7.88115 10.2083 8.34141 10.2083H11.6747C12.135 10.2083 12.5081 9.83525 12.5081 9.375V8.95833C12.5081 8.49808 12.135 8.125 11.6747 8.125Z" fill="#707070"/>
</svg>
