<svg width="20" height="20" viewBox="0 0 20 20" fill="none" xmlns="http://www.w3.org/2000/svg">
<path d="M10.0005 12.4998C11.3812 12.4998 12.5005 11.3804 12.5005 9.99976C12.5005 8.61901 11.3812 7.49976 10.0005 7.49976C8.61975 7.49976 7.50049 8.61901 7.50049 9.99976C7.50049 11.3804 8.61975 12.4998 10.0005 12.4998Z" fill="#F57C75"/>
<path fill-rule="evenodd" clip-rule="evenodd" d="M7.05749 7.04608C5.43056 8.68 5.43236 11.3199 7.05623 12.9438L5.87772 14.1223C3.60159 11.8462 3.60339 8.15287 5.87647 5.87009L7.05749 7.04608Z" fill="#F57C75"/>
<path fill-rule="evenodd" clip-rule="evenodd" d="M12.9517 12.9534C14.5786 11.3195 14.5767 8.67949 12.9529 7.05565L14.1314 5.87714C16.4076 8.15327 16.4057 11.8466 14.1327 14.1294L12.9517 12.9534Z" fill="#F57C75"/>
<path fill-rule="evenodd" clip-rule="evenodd" d="M4.69737 4.69808C1.7659 7.62206 1.76481 12.3688 4.69812 15.3022L3.51961 16.4807C-0.0637385 12.8973 -0.0648249 7.09409 3.52037 3.51807L4.69737 4.69808Z" fill="#F57C75"/>
<path fill-rule="evenodd" clip-rule="evenodd" d="M15.3035 15.3014C18.235 12.3774 18.2361 7.63065 15.3027 4.69734L16.4812 3.51883C20.0646 7.10218 20.0657 12.9054 16.4805 16.4814L15.3035 15.3014Z" fill="#F57C75"/>
</svg>
