<svg width="20" height="20" viewBox="0 0 20 20" fill="none" xmlns="http://www.w3.org/2000/svg">
<path d="M1.66675 15C1.66675 15.442 1.84236 15.8659 2.15493 16.1785C2.46749 16.4911 2.89139 16.6667 3.33341 16.6667H16.6667C17.1087 16.6667 17.5327 16.4911 17.8452 16.1785C18.1578 15.8659 18.3334 15.442 18.3334 15V6.66666H1.66675V15Z" fill="#E7ECEF"/>
<path d="M16.6664 2.5H3.33306C2.83815 2.56068 2.38666 2.81267 2.07517 3.20203C1.76369 3.59138 1.61696 4.08717 1.66639 4.58333V6.66667H18.3331V4.58333C18.3803 4.0876 18.2328 3.59293 17.9217 3.20408C17.6107 2.81523 17.1604 2.56271 16.6664 2.5Z" fill="#737A83"/>
<path d="M13.3333 3.75H12.4999C12.2698 3.75 12.0833 3.93655 12.0833 4.16667V5C12.0833 5.23012 12.2698 5.41667 12.4999 5.41667H13.3333C13.5633 5.41667 13.7499 5.23012 13.7499 5V4.16667C13.7499 3.93655 13.5633 3.75 13.3333 3.75Z" fill="#FFE457"/>
<path d="M10.4167 3.75H9.58341C9.35333 3.75 9.16675 3.93655 9.16675 4.16667V5C9.16675 5.23012 9.35333 5.41667 9.58341 5.41667H10.4167C10.6468 5.41667 10.8334 5.23012 10.8334 5V4.16667C10.8334 3.93655 10.6468 3.75 10.4167 3.75Z" fill="#7AD7B5"/>
<path d="M16.25 3.75H15.4167C15.1866 3.75 15 3.93655 15 4.16667V5C15 5.23012 15.1866 5.41667 15.4167 5.41667H16.25C16.4801 5.41667 16.6667 5.23012 16.6667 5V4.16667C16.6667 3.93655 16.4801 3.75 16.25 3.75Z" fill="#FFA36F"/>
</svg>
