<svg width="20" height="20" viewBox="0 0 20 20" fill="none" xmlns="http://www.w3.org/2000/svg">
<path d="M2.50008 2.5H10.8334C11.0544 2.5 11.2664 2.5878 11.4227 2.74408C11.5789 2.90036 11.6667 3.11232 11.6667 3.33333V18.3333H1.66675V3.33333C1.66675 3.11232 1.75456 2.90036 1.91084 2.74408C2.06711 2.5878 2.27906 2.5 2.50008 2.5Z" fill="#737A83"/>
<path d="M12.5001 5.83334H17.5001C17.7211 5.83334 17.9331 5.92114 18.0893 6.07742C18.2456 6.2337 18.3334 6.44566 18.3334 6.66668V18.3333H11.6667V6.66668C11.6667 6.44566 11.7546 6.2337 11.9108 6.07742C12.0671 5.92114 12.2791 5.83334 12.5001 5.83334Z" fill="#C7CED5"/>
<path d="M5.62492 4.79166H4.37492C4.1448 4.79166 3.95825 4.97821 3.95825 5.20832V6.45832C3.95825 6.68844 4.1448 6.87499 4.37492 6.87499H5.62492C5.85504 6.87499 6.04159 6.68844 6.04159 6.45832V5.20832C6.04159 4.97821 5.85504 4.79166 5.62492 4.79166Z" fill="white"/>
<path d="M8.95841 4.79166H7.70841C7.4783 4.79166 7.29175 4.97821 7.29175 5.20832V6.45832C7.29175 6.68844 7.4783 6.87499 7.70841 6.87499H8.95841C9.1885 6.87499 9.37508 6.68844 9.37508 6.45832V5.20832C9.37508 4.97821 9.1885 4.79166 8.95841 4.79166Z" fill="white"/>
<path d="M5.62492 8.125H4.37492C4.1448 8.125 3.95825 8.31155 3.95825 8.54167V9.79167C3.95825 10.0217 4.1448 10.2083 4.37492 10.2083H5.62492C5.85504 10.2083 6.04159 10.0217 6.04159 9.79167V8.54167C6.04159 8.31155 5.85504 8.125 5.62492 8.125Z" fill="white"/>
<path d="M8.95841 8.125H7.70841C7.4783 8.125 7.29175 8.31155 7.29175 8.54167V9.79167C7.29175 10.0217 7.4783 10.2083 7.70841 10.2083H8.95841C9.1885 10.2083 9.37508 10.0217 9.37508 9.79167V8.54167C9.37508 8.31155 9.1885 8.125 8.95841 8.125Z" fill="white"/>
<path d="M5.62492 11.4583H4.37492C4.1448 11.4583 3.95825 11.6449 3.95825 11.875V13.125C3.95825 13.3551 4.1448 13.5417 4.37492 13.5417H5.62492C5.85504 13.5417 6.04159 13.3551 6.04159 13.125V11.875C6.04159 11.6449 5.85504 11.4583 5.62492 11.4583Z" fill="white"/>
<path d="M8.95841 11.4583H7.70841C7.4783 11.4583 7.29175 11.6449 7.29175 11.875V13.125C7.29175 13.3551 7.4783 13.5417 7.70841 13.5417H8.95841C9.1885 13.5417 9.37508 13.3551 9.37508 13.125V11.875C9.37508 11.6449 9.1885 11.4583 8.95841 11.4583Z" fill="white"/>
</svg>
