<svg width="20" height="20" viewBox="0 0 20 20" fill="none" xmlns="http://www.w3.org/2000/svg">
<path d="M5.83333 1.66666H14.1667C15.0507 1.66666 15.8986 2.01784 16.5237 2.64296C17.1488 3.26809 17.5 4.11593 17.5 4.99999V15.8333C17.5 16.0543 17.4122 16.2663 17.2559 16.4226C17.0997 16.5788 16.8877 16.6667 16.6667 16.6667H3.33333C3.11232 16.6667 2.90036 16.5788 2.74408 16.4226C2.5878 16.2663 2.5 16.0543 2.5 15.8333V4.99999C2.5 4.11593 2.85118 3.26809 3.47631 2.64296C4.10143 2.01784 4.94928 1.66666 5.83333 1.66666Z" fill="#84CA00"/>
<path d="M5.83341 4.16666H14.1667C14.6087 4.16666 15.0327 4.34227 15.3452 4.65484C15.6578 4.9674 15.8334 5.3913 15.8334 5.83332V9.99999C15.8334 10.221 15.7456 10.433 15.5893 10.5892C15.4331 10.7455 15.2211 10.8333 15.0001 10.8333H5.00008C4.77906 10.8333 4.56711 10.7455 4.41082 10.5892C4.25455 10.433 4.16675 10.221 4.16675 9.99999V5.83332C4.16675 5.3913 4.34234 4.9674 4.6549 4.65484C4.96746 4.34227 5.39139 4.16666 5.83341 4.16666Z" fill="white"/>
<path d="M14.5833 15C15.2736 15 15.8333 14.4403 15.8333 13.75C15.8333 13.0597 15.2736 12.5 14.5833 12.5C13.8929 12.5 13.3333 13.0597 13.3333 13.75C13.3333 14.4403 13.8929 15 14.5833 15Z" fill="white"/>
<path d="M5.41675 15C6.10711 15 6.66675 14.4403 6.66675 13.75C6.66675 13.0597 6.10711 12.5 5.41675 12.5C4.72639 12.5 4.16675 13.0597 4.16675 13.75C4.16675 14.4403 4.72639 15 5.41675 15Z" fill="white"/>
<path d="M3.33325 16.6667H6.66659V17.5C6.66659 17.721 6.57879 17.933 6.42251 18.0892C6.26623 18.2455 6.05427 18.3333 5.83325 18.3333H4.16659C3.94557 18.3333 3.73361 18.2455 3.57733 18.0892C3.42105 17.933 3.33325 17.721 3.33325 17.5V16.6667Z" fill="#737A83"/>
<path d="M13.3333 16.6667H16.6666V17.5C16.6666 17.721 16.5788 17.933 16.4225 18.0892C16.2663 18.2455 16.0543 18.3333 15.8333 18.3333H14.1666C13.9456 18.3333 13.7336 18.2455 13.5773 18.0892C13.4211 17.933 13.3333 17.721 13.3333 17.5V16.6667Z" fill="#737A83"/>
</svg>
