<svg width="20" height="20" viewBox="0 0 20 20" fill="none" xmlns="http://www.w3.org/2000/svg">
<path d="M16.2499 3.34961H3.74992C2.82944 3.34961 2.08325 4.0958 2.08325 5.01628V15.8496C2.08325 16.7701 2.82944 17.5163 3.74992 17.5163H16.2499C17.1704 17.5163 17.9166 16.7701 17.9166 15.8496V5.01628C17.9166 4.0958 17.1704 3.34961 16.2499 3.34961Z" fill="#F4868F"/>
<path d="M7.06659 2.51628H6.24992C6.0198 2.51628 5.83325 2.70283 5.83325 2.93295V4.59961C5.83325 4.82973 6.0198 5.01628 6.24992 5.01628H7.06659C7.29671 5.01628 7.48326 4.82973 7.48326 4.59961V2.93295C7.48326 2.70283 7.29671 2.51628 7.06659 2.51628Z" fill="#707070"/>
<path d="M7.28361 7.91667H6.03361C5.80349 7.91667 5.61694 8.10322 5.61694 8.33334V9.58334C5.61694 9.81342 5.80349 10 6.03361 10H7.28361C7.51373 10 7.70028 9.81342 7.70028 9.58334V8.33334C7.70028 8.10322 7.51373 7.91667 7.28361 7.91667Z" fill="white"/>
<path d="M10.6249 7.91667H9.37492C9.14484 7.91667 8.95825 8.10322 8.95825 8.33334V9.58334C8.95825 9.81342 9.14484 10 9.37492 10H10.6249C10.855 10 11.0416 9.81342 11.0416 9.58334V8.33334C11.0416 8.10322 10.855 7.91667 10.6249 7.91667Z" fill="white"/>
<path d="M13.9665 7.91667H12.7165C12.4863 7.91667 12.2998 8.10322 12.2998 8.33334V9.58334C12.2998 9.81342 12.4863 10 12.7165 10H13.9665C14.1966 10 14.3831 9.81342 14.3831 9.58334V8.33334C14.3831 8.10322 14.1966 7.91667 13.9665 7.91667Z" fill="white"/>
<path d="M13.75 2.51628H12.9167C12.6866 2.51628 12.5 2.70283 12.5 2.93295V4.59961C12.5 4.82973 12.6866 5.01628 12.9167 5.01628H13.75C13.9801 5.01628 14.1667 4.82973 14.1667 4.59961V2.93295C14.1667 2.70283 13.9801 2.51628 13.75 2.51628Z" fill="#707070"/>
<path d="M7.28361 11.6667H6.03361C5.80349 11.6667 5.61694 11.8533 5.61694 12.0833V13.3333C5.61694 13.5634 5.80349 13.75 6.03361 13.75H7.28361C7.51373 13.75 7.70028 13.5634 7.70028 13.3333V12.0833C7.70028 11.8533 7.51373 11.6667 7.28361 11.6667Z" fill="white"/>
<path d="M10.6249 11.6667H9.37492C9.14484 11.6667 8.95825 11.8533 8.95825 12.0833V13.3333C8.95825 13.5634 9.14484 13.75 9.37492 13.75H10.6249C10.855 13.75 11.0416 13.5634 11.0416 13.3333V12.0833C11.0416 11.8533 10.855 11.6667 10.6249 11.6667Z" fill="white"/>
<path d="M13.9665 11.6667H12.7165C12.4863 11.6667 12.2998 11.8533 12.2998 12.0833V13.3333C12.2998 13.5634 12.4863 13.75 12.7165 13.75H13.9665C14.1966 13.75 14.3831 13.5634 14.3831 13.3333V12.0833C14.3831 11.8533 14.1966 11.6667 13.9665 11.6667Z" fill="white"/>
</svg>
