<svg width="20" height="20" viewBox="0 0 20 20" fill="none" xmlns="http://www.w3.org/2000/svg">
<path d="M14.9999 1.66667H4.99992C4.07944 1.66667 3.33325 2.41286 3.33325 3.33334V16.6667C3.33325 17.5872 4.07944 18.3333 4.99992 18.3333H14.9999C15.9204 18.3333 16.6666 17.5872 16.6666 16.6667V3.33334C16.6666 2.41286 15.9204 1.66667 14.9999 1.66667Z" fill="#737A83"/>
<path d="M13.7499 4.16667H6.24992C6.0198 4.16667 5.83325 4.35322 5.83325 4.58334V6.25001C5.83325 6.48012 6.0198 6.66667 6.24992 6.66667H13.7499C13.98 6.66667 14.1666 6.48012 14.1666 6.25001V4.58334C14.1666 4.35322 13.98 4.16667 13.7499 4.16667Z" fill="#E7ECEF"/>
<path d="M7.70841 8.125H6.45841C6.2283 8.125 6.04175 8.31155 6.04175 8.54167V9.79167C6.04175 10.0217 6.2283 10.2083 6.45841 10.2083H7.70841C7.93853 10.2083 8.12508 10.0217 8.12508 9.79167V8.54167C8.12508 8.31155 7.93853 8.125 7.70841 8.125Z" fill="white"/>
<path d="M10.6249 8.125H9.37492C9.14484 8.125 8.95825 8.31155 8.95825 8.54167V9.79167C8.95825 10.0217 9.14484 10.2083 9.37492 10.2083H10.6249C10.855 10.2083 11.0416 10.0217 11.0416 9.79167V8.54167C11.0416 8.31155 10.855 8.125 10.6249 8.125Z" fill="white"/>
<path d="M13.5497 8.125H12.2997C12.0696 8.125 11.8831 8.31155 11.8831 8.54167V9.79167C11.8831 10.0217 12.0696 10.2083 12.2997 10.2083H13.5497C13.7798 10.2083 13.9664 10.0217 13.9664 9.79167V8.54167C13.9664 8.31155 13.7798 8.125 13.5497 8.125Z" fill="#FFBD81"/>
<path d="M7.70841 11.0417H6.45841C6.2283 11.0417 6.04175 11.2283 6.04175 11.4583V12.7083C6.04175 12.9384 6.2283 13.125 6.45841 13.125H7.70841C7.93853 13.125 8.12508 12.9384 8.12508 12.7083V11.4583C8.12508 11.2283 7.93853 11.0417 7.70841 11.0417Z" fill="white"/>
<path d="M10.6249 11.0417H9.37492C9.14484 11.0417 8.95825 11.2283 8.95825 11.4583V12.7083C8.95825 12.9384 9.14484 13.125 9.37492 13.125H10.6249C10.855 13.125 11.0416 12.9384 11.0416 12.7083V11.4583C11.0416 11.2283 10.855 11.0417 10.6249 11.0417Z" fill="white"/>
<path d="M13.5497 11.0417H12.2997C12.0696 11.0417 11.8831 11.2283 11.8831 11.4583V12.7083C11.8831 12.9384 12.0696 13.125 12.2997 13.125H13.5497C13.7798 13.125 13.9664 12.9384 13.9664 12.7083V11.4583C13.9664 11.2283 13.7798 11.0417 13.5497 11.0417Z" fill="#FFBD81"/>
<path d="M7.70841 13.9583H6.45841C6.2283 13.9583 6.04175 14.1449 6.04175 14.375V15.625C6.04175 15.8551 6.2283 16.0417 6.45841 16.0417H7.70841C7.93853 16.0417 8.12508 15.8551 8.12508 15.625V14.375C8.12508 14.1449 7.93853 13.9583 7.70841 13.9583Z" fill="white"/>
<path d="M10.6249 13.9583H9.37492C9.14484 13.9583 8.95825 14.1449 8.95825 14.375V15.625C8.95825 15.8551 9.14484 16.0417 9.37492 16.0417H10.6249C10.855 16.0417 11.0416 15.8551 11.0416 15.625V14.375C11.0416 14.1449 10.855 13.9583 10.6249 13.9583Z" fill="white"/>
<path d="M13.5497 13.9583H12.2997C12.0696 13.9583 11.8831 14.1449 11.8831 14.375V15.625C11.8831 15.8551 12.0696 16.0417 12.2997 16.0417H13.5497C13.7798 16.0417 13.9664 15.8551 13.9664 15.625V14.375C13.9664 14.1449 13.7798 13.9583 13.5497 13.9583Z" fill="#FFBD81"/>
</svg>
