<svg width="20" height="20" viewBox="0 0 20 20" fill="none" xmlns="http://www.w3.org/2000/svg">
<path d="M16.6667 5.83334H3.33341C2.41294 5.83334 1.66675 6.57954 1.66675 7.50001V15C1.66675 15.9205 2.41294 16.6667 3.33341 16.6667H16.6667C17.5872 16.6667 18.3334 15.9205 18.3334 15V7.50001C18.3334 6.57954 17.5872 5.83334 16.6667 5.83334Z" fill="#737A83"/>
<path d="M15 5.83334H5L6.66667 3.33334H13.3333L15 5.83334Z" fill="#737A83"/>
<path d="M10 14.5833C12.0711 14.5833 13.75 12.9044 13.75 10.8333C13.75 8.76226 12.0711 7.08334 10 7.08334C7.92893 7.08334 6.25 8.76226 6.25 10.8333C6.25 12.9044 7.92893 14.5833 10 14.5833Z" fill="#C7CED5"/>
<path d="M10.0001 12.9167C11.1507 12.9167 12.0834 11.9839 12.0834 10.8333C12.0834 9.68275 11.1507 8.75 10.0001 8.75C8.8495 8.75 7.91675 9.68275 7.91675 10.8333C7.91675 11.9839 8.8495 12.9167 10.0001 12.9167Z" fill="#737A83"/>
</svg>
