<svg width="20" height="20" viewBox="0 0 20 20" fill="none" xmlns="http://www.w3.org/2000/svg">
<path fill-rule="evenodd" clip-rule="evenodd" d="M9.16675 17.5V11.6667H10.8334V17.5H9.16675Z" fill="#C7CED5"/>
<path fill-rule="evenodd" clip-rule="evenodd" d="M10.0081 14.1667C9.124 14.1667 8.27615 14.5178 7.65102 15.143C7.02591 15.7681 6.67472 16.6159 6.67472 17.5H5.00806C5.00806 16.1739 5.53483 14.9022 6.47251 13.9645C7.4102 13.0268 8.682 12.5 10.0081 12.5C11.3342 12.5 12.6059 13.0268 13.5436 13.9645C14.4812 14.9022 15.0081 16.1739 15.0081 17.5H13.3414C13.3414 16.6159 12.9902 15.7681 12.3651 15.143C11.7399 14.5178 10.8921 14.1667 10.0081 14.1667Z" fill="#C7CED5"/>
<path d="M4.99992 0.833344H11.6666C12.1086 0.833344 12.5326 1.00894 12.8451 1.32149C13.1577 1.63406 13.3333 2.05799 13.3333 2.50001V9.16668H3.33325V2.50001C3.33325 2.05799 3.50887 1.63406 3.82144 1.32149C4.13399 1.00894 4.55789 0.833344 4.99992 0.833344Z" fill="#737A83"/>
<path d="M3.33325 8.33334H15.8333C16.2753 8.33334 16.6993 8.50893 17.0118 8.82151C17.3243 9.13409 17.4999 9.55801 17.4999 10C17.4999 10.442 17.3243 10.8659 17.0118 11.1785C16.6993 11.4911 16.2753 11.6667 15.8333 11.6667H4.99992C4.55789 11.6667 4.13399 11.4911 3.82144 11.1785C3.50887 10.8659 3.33325 10.442 3.33325 10V8.33334Z" fill="#737A83"/>
<path d="M10 18.75C10.6903 18.75 11.25 18.1903 11.25 17.5C11.25 16.8097 10.6903 16.25 10 16.25C9.30967 16.25 8.75 16.8097 8.75 17.5C8.75 18.1903 9.30967 18.75 10 18.75Z" fill="#737A83"/>
<path d="M5.84155 18.75C6.5319 18.75 7.09155 18.1903 7.09155 17.5C7.09155 16.8097 6.5319 16.25 5.84155 16.25C5.15119 16.25 4.59155 16.8097 4.59155 17.5C4.59155 18.1903 5.15119 18.75 5.84155 18.75Z" fill="#737A83"/>
<path d="M14.1667 18.75C14.8571 18.75 15.4167 18.1903 15.4167 17.5C15.4167 16.8097 14.8571 16.25 14.1667 16.25C13.4764 16.25 12.9167 16.8097 12.9167 17.5C12.9167 18.1903 13.4764 18.75 14.1667 18.75Z" fill="#737A83"/>
</svg>
