<svg width="20" height="20" viewBox="0 0 20 20" fill="none" xmlns="http://www.w3.org/2000/svg">
<path d="M14.1747 5H5.84139C4.00044 5 2.50806 6.49238 2.50806 8.33333V14.1667C2.50806 16.0076 4.00044 17.5 5.84139 17.5H14.1747C16.0157 17.5 17.5081 16.0076 17.5081 14.1667V8.33333C17.5081 6.49238 16.0157 5 14.1747 5Z" fill="#737A83"/>
<path d="M10.0082 1.66666C10.2845 1.66666 10.5495 1.77641 10.7448 1.97176C10.9401 2.16711 11.0499 2.43206 11.0499 2.70832V4.99999H8.96655V2.70832C8.96655 2.43206 9.0763 2.16711 9.27164 1.97176C9.46697 1.77641 9.73189 1.66666 10.0082 1.66666Z" fill="#C7CED5"/>
<path d="M8.34158 10C8.34158 9.30967 7.7819 8.75 7.09155 8.75C6.40119 8.75 5.84155 9.30967 5.84155 10V11.6667C5.84155 12.357 6.40119 12.9167 7.09155 12.9167C7.7819 12.9167 8.34158 12.357 8.34158 11.6667V10Z" fill="#B3EAED"/>
<path d="M14.1748 10C14.1748 9.30967 13.6151 8.75 12.9248 8.75C12.2344 8.75 11.6748 9.30967 11.6748 10V11.6667C11.6748 12.357 12.2344 12.9167 12.9248 12.9167C13.6151 12.9167 14.1748 12.357 14.1748 11.6667V10Z" fill="#B3EAED"/>
<path d="M2.50822 8.33334V13.3333C2.06619 13.3333 1.64229 13.1578 1.32973 12.8452C1.01717 12.5326 0.841553 12.1087 0.841553 11.6667V10C0.841553 9.55801 1.01717 9.13409 1.32973 8.82151C1.64229 8.50893 2.06619 8.33334 2.50822 8.33334Z" fill="#C7CED5"/>
<path d="M17.5081 8.33334C17.9501 8.33334 18.374 8.50893 18.6866 8.82151C18.9991 9.13409 19.1747 9.55801 19.1747 10V11.6667C19.1747 12.1087 18.9991 12.5326 18.6866 12.8452C18.374 13.1578 17.9501 13.3333 17.5081 13.3333V8.33334Z" fill="#C7CED5"/>
</svg>
