<svg width="20" height="20" viewBox="0 0 20 20" fill="none" xmlns="http://www.w3.org/2000/svg">
<path d="M3.33341 3.33333H16.6667C17.5872 3.33333 18.3334 4.07952 18.3334 4.99999V13.3333C18.3334 14.2538 17.5872 15 16.6667 15H10.0001L5.83341 19.1667V15H3.33341C2.41294 15 1.66675 14.2538 1.66675 13.3333V4.99999C1.66675 4.07952 2.41294 3.33333 3.33341 3.33333Z" fill="#7AD7B5"/>
<path d="M7.08341 8.125H5.83341C5.6033 8.125 5.41675 8.31155 5.41675 8.54167V9.79167C5.41675 10.0217 5.6033 10.2083 5.83341 10.2083H7.08341C7.31353 10.2083 7.50008 10.0217 7.50008 9.79167V8.54167C7.50008 8.31155 7.31353 8.125 7.08341 8.125Z" fill="white"/>
<path d="M10.6249 8.125H9.37492C9.14484 8.125 8.95825 8.31155 8.95825 8.54167V9.79167C8.95825 10.0217 9.14484 10.2083 9.37492 10.2083H10.6249C10.855 10.2083 11.0416 10.0217 11.0416 9.79167V8.54167C11.0416 8.31155 10.855 8.125 10.6249 8.125Z" fill="white"/>
<path d="M14.1667 8.125H12.9167C12.6866 8.125 12.5 8.31155 12.5 8.54167V9.79167C12.5 10.0217 12.6866 10.2083 12.9167 10.2083H14.1667C14.3967 10.2083 14.5833 10.0217 14.5833 9.79167V8.54167C14.5833 8.31155 14.3967 8.125 14.1667 8.125Z" fill="white"/>
</svg>
