<svg width="20" height="20" viewBox="0 0 20 20" fill="none" xmlns="http://www.w3.org/2000/svg">
<path d="M3.28432 6.66666H15.049C15.4804 6.66666 15.8333 7.04166 15.8333 7.49999V14.1667C15.8333 16.0083 14.4294 17.5 12.6961 17.5H5.63726C3.90392 17.5 2.5 16.0083 2.5 14.1667V7.49999C2.5 7.04166 2.85294 6.66666 3.28432 6.66666Z" fill="#C7C7C7"/>
<path d="M15 8.33332C16.375 8.33332 17.5 9.45832 17.5 10.8333C17.5 12.2083 16.375 13.3333 15 13.3333H13.425V8.33332H15ZM15 6.66666H11.7583V15H15C17.3 15 19.1666 13.1333 19.1666 10.8333C19.1666 8.53332 17.3 6.66666 15 6.66666Z" fill="#C7C7C7"/>
<path d="M13.3334 2.49999C13.3334 2.03975 12.9603 1.66666 12.5001 1.66666C12.0398 1.66666 11.6667 2.03975 11.6667 2.49999V4.16666C11.6667 4.62689 12.0398 4.99999 12.5001 4.99999C12.9603 4.99999 13.3334 4.62689 13.3334 4.16666V2.49999Z" fill="#9C9188"/>
<path d="M9.99992 2.49999C9.99992 2.03975 9.62682 1.66666 9.16659 1.66666C8.70635 1.66666 8.33325 2.03975 8.33325 2.49999V4.16666C8.33325 4.62689 8.70635 4.99999 9.16659 4.99999C9.62682 4.99999 9.99992 4.62689 9.99992 4.16666V2.49999Z" fill="#9C9188"/>
<path d="M6.66667 2.49999C6.66667 2.03975 6.29357 1.66666 5.83333 1.66666C5.3731 1.66666 5 2.03975 5 2.49999V4.16666C5 4.62689 5.3731 4.99999 5.83333 4.99999C6.29357 4.99999 6.66667 4.62689 6.66667 4.16666V2.49999Z" fill="#9C9188"/>
</svg>
