<svg width="20" height="20" viewBox="0 0 20 20" fill="none" xmlns="http://www.w3.org/2000/svg">
<path d="M12.9256 17.5H7.09229L7.92562 13.3333H12.0923L12.9256 17.5Z" fill="#A0A6AB"/>
<path d="M1.67554 13.8917C1.69455 14.0938 1.79297 14.2801 1.9492 14.4098C2.10542 14.5394 2.3067 14.6019 2.50887 14.5833H17.5088C17.7106 14.5997 17.9107 14.5364 18.0664 14.4072C18.2221 14.2779 18.3211 14.0929 18.3422 13.8917V12.5H1.67554V13.8917Z" fill="#E7ECEF"/>
<path d="M17.5088 2.5H2.50887C2.28786 2.5 2.0759 2.58778 1.91961 2.74407C1.76334 2.90034 1.67554 3.11232 1.67554 3.33333V12.5H18.3422V3.33333C18.3422 3.11232 18.2544 2.90034 18.0981 2.74407C17.9418 2.58778 17.7299 2.5 17.5088 2.5Z" fill="#737A83"/>
</svg>
