<svg width="20" height="20" viewBox="0 0 20 20" fill="none" xmlns="http://www.w3.org/2000/svg">
<path d="M12.5001 8.33334H15.0001C15.8842 8.33334 16.732 8.68451 17.3571 9.30968C17.9822 9.93476 18.3334 10.7826 18.3334 11.6667V16.6667C18.3334 16.8877 18.2456 17.0997 18.0893 17.2559C17.9331 17.4122 17.7211 17.5 17.5001 17.5H10.0001C9.77908 17.5 9.56708 17.4122 9.41083 17.2559C9.25458 17.0997 9.16675 16.8877 9.16675 16.6667V11.6667C9.16675 10.7826 9.51792 9.93476 10.1431 9.30968C10.7682 8.68451 11.616 8.33334 12.5001 8.33334Z" fill="#C7CED5"/>
<path d="M5.00008 8.33334H7.50008C8.38416 8.33334 9.232 8.68451 9.85708 9.30968C10.4822 9.93476 10.8334 10.7826 10.8334 11.6667V16.6667C10.8334 16.8877 10.7456 17.0997 10.5893 17.2559C10.4331 17.4122 10.2211 17.5 10.0001 17.5H2.50008C2.27906 17.5 2.06711 17.4122 1.91082 17.2559C1.75455 17.0997 1.66675 16.8877 1.66675 16.6667V11.6667C1.66675 10.7826 2.01793 9.93476 2.64306 9.30968C3.26818 8.68451 4.11602 8.33334 5.00008 8.33334Z" fill="#6B758F"/>
<path d="M6.25 7.5C7.63071 7.5 8.75 6.38071 8.75 5C8.75 3.61929 7.63071 2.5 6.25 2.5C4.86929 2.5 3.75 3.61929 3.75 5C3.75 6.38071 4.86929 7.5 6.25 7.5Z" fill="#6B758F"/>
<path d="M13.75 7.5C15.1307 7.5 16.25 6.38071 16.25 5C16.25 3.61929 15.1307 2.5 13.75 2.5C12.3692 2.5 11.25 3.61929 11.25 5C11.25 6.38071 12.3692 7.5 13.75 7.5Z" fill="#C7CED5"/>
</svg>
