<svg width="20" height="20" viewBox="0 0 20 20" fill="none" xmlns="http://www.w3.org/2000/svg">
<path d="M12.5 1.66667H4.16667C3.24619 1.66667 2.5 2.41286 2.5 3.33334V14.1667C2.5 15.0872 3.24619 15.8333 4.16667 15.8333H12.5C13.4205 15.8333 14.1667 15.0872 14.1667 14.1667V3.33334C14.1667 2.41286 13.4205 1.66667 12.5 1.66667Z" fill="#DBECFF"/>
<path d="M15.8333 4.16667H7.49992C6.57944 4.16667 5.83325 4.91286 5.83325 5.83334V16.6667C5.83325 17.5872 6.57944 18.3333 7.49992 18.3333H15.8333C16.7538 18.3333 17.4999 17.5872 17.4999 16.6667V5.83334C17.4999 4.91286 16.7538 4.16667 15.8333 4.16667Z" fill="#5096FF"/>
</svg>
