<svg width="20" height="20" viewBox="0 0 20 20" fill="none" xmlns="http://www.w3.org/2000/svg">
<path d="M1.66659 3.33334H11.6666C11.8876 3.33334 12.0996 3.42115 12.2558 3.57744C12.4121 3.73371 12.4999 3.94566 12.4999 4.16668V15.8333H1.66659C1.44557 15.8333 1.23362 15.7455 1.07734 15.5893C0.92106 15.433 0.833252 15.221 0.833252 15V4.16668C0.833252 3.94566 0.92106 3.73371 1.07734 3.57744C1.23362 3.42115 1.44557 3.33334 1.66659 3.33334Z" fill="#48AFBA"/>
<path d="M18.3333 15.8415H12.5V5.84146H15C15.2497 5.84161 15.4961 5.89786 15.7211 6.00604C15.9462 6.11421 16.144 6.27156 16.3 6.46646L18.8 9.54982C19.0371 9.84524 19.1663 10.2127 19.1667 10.5915V15.0082C19.1667 15.2292 19.0788 15.4411 18.9226 15.5974C18.7663 15.7537 18.5543 15.8415 18.3333 15.8415Z" fill="#E8E8E8"/>
<path d="M4.58333 18.3333C5.73392 18.3333 6.66667 17.4006 6.66667 16.25C6.66667 15.0994 5.73392 14.1667 4.58333 14.1667C3.43274 14.1667 2.5 15.0994 2.5 16.25C2.5 17.4006 3.43274 18.3333 4.58333 18.3333Z" fill="#737A83"/>
<path d="M15.4166 18.3333C16.5672 18.3333 17.4999 17.4006 17.4999 16.25C17.4999 15.0994 16.5672 14.1667 15.4166 14.1667C14.266 14.1667 13.3333 15.0994 13.3333 16.25C13.3333 17.4006 14.266 18.3333 15.4166 18.3333Z" fill="#737A83"/>
</svg>
