<svg width="20" height="20" viewBox="0 0 20 20" fill="none" xmlns="http://www.w3.org/2000/svg">
<path d="M17.5 11.6667H2.5V14.1667H17.5V11.6667Z" fill="#9C9188"/>
<path d="M2.50008 10H17.5001C17.7211 10 17.9331 10.0878 18.0893 10.2441C18.2456 10.4003 18.3334 10.6123 18.3334 10.8333V11.6667H1.66675V10.8333C1.66675 10.6123 1.75453 10.4003 1.91081 10.2441C2.06709 10.0878 2.27906 10 2.50008 10Z" fill="#9C9188"/>
<path d="M3.33341 18.3333V11.6667H1.66675V18.3333H3.33341Z" fill="#9C9188"/>
<path d="M18.3334 18.3333V11.6667H16.6667V18.3333H18.3334Z" fill="#9C9188"/>
<path d="M11.6666 7.5H8.33325V10H11.6666V7.5Z" fill="#C7CED5"/>
<path d="M14.5833 1.66666H5.41659C4.95635 1.66666 4.58325 2.03976 4.58325 2.49999V7.49999C4.58325 7.96022 4.95635 8.33332 5.41659 8.33332H14.5833C15.0435 8.33332 15.4166 7.96022 15.4166 7.49999V2.49999C15.4166 2.03976 15.0435 1.66666 14.5833 1.66666Z" fill="#737A83"/>
</svg>
