<svg width="20" height="20" viewBox="0 0 20 20" fill="none" xmlns="http://www.w3.org/2000/svg">
<path d="M15.0001 0.833344H5.00008C4.53985 0.833344 4.16675 1.20644 4.16675 1.66668V18.3333C4.16675 18.7936 4.53985 19.1667 5.00008 19.1667H15.0001C15.4603 19.1667 15.8334 18.7936 15.8334 18.3333V1.66668C15.8334 1.20644 15.4603 0.833344 15.0001 0.833344Z" fill="#737A83"/>
<path d="M13.7499 3.33334H6.24992C6.0198 3.33334 5.83325 3.51989 5.83325 3.75001V4.58334C5.83325 4.81346 6.0198 5.00001 6.24992 5.00001H13.7499C13.98 5.00001 14.1666 4.81346 14.1666 4.58334V3.75001C14.1666 3.51989 13.98 3.33334 13.7499 3.33334Z" fill="#A0A6AB"/>
<path d="M13.7499 6.25H6.24992C6.0198 6.25 5.83325 6.43655 5.83325 6.66667V7.5C5.83325 7.73012 6.0198 7.91667 6.24992 7.91667H13.7499C13.98 7.91667 14.1666 7.73012 14.1666 7.5V6.66667C14.1666 6.43655 13.98 6.25 13.7499 6.25Z" fill="#A0A6AB"/>
<path d="M13.7499 9.16666H6.24992C6.0198 9.16666 5.83325 9.35324 5.83325 9.58332V10.4167C5.83325 10.6467 6.0198 10.8333 6.24992 10.8333H13.7499C13.98 10.8333 14.1666 10.6467 14.1666 10.4167V9.58332C14.1666 9.35324 13.98 9.16666 13.7499 9.16666Z" fill="#A0A6AB"/>
<path d="M10 16.6667C10.6903 16.6667 11.25 16.107 11.25 15.4167C11.25 14.7263 10.6903 14.1667 10 14.1667C9.30967 14.1667 8.75 14.7263 8.75 15.4167C8.75 16.107 9.30967 16.6667 10 16.6667Z" fill="#E7ECEF"/>
</svg>
