<svg width="20" height="20" viewBox="0 0 20 20" fill="none" xmlns="http://www.w3.org/2000/svg">
<path d="M16.6666 5.83334V16.6667C16.6666 17.1087 16.491 17.5326 16.1784 17.8452C15.8658 18.1578 15.4419 18.3333 14.9999 18.3333H4.99992C4.55789 18.3333 4.13397 18.1578 3.8214 17.8452C3.50884 17.5326 3.33325 17.1087 3.33325 16.6667V3.33334C3.33325 2.89131 3.50884 2.46736 3.8214 2.1548C4.13397 1.84224 4.55789 1.66667 4.99992 1.66667H12.4999L16.6666 5.83334Z" fill="#9889F8"/>
<path d="M13.3333 5.83334H16.6667L12.5 1.66667V5.00001C12.5 5.22102 12.5878 5.43297 12.7441 5.58925C12.9003 5.74553 13.1123 5.83334 13.3333 5.83334Z" fill="#E3DFFE"/>
<path d="M13.7499 9.16667H6.24992C6.0198 9.16667 5.83325 9.35326 5.83325 9.58334V10.4167C5.83325 10.6468 6.0198 10.8333 6.24992 10.8333H13.7499C13.98 10.8333 14.1666 10.6468 14.1666 10.4167V9.58334C14.1666 9.35326 13.98 9.16667 13.7499 9.16667Z" fill="white"/>
<path d="M13.7499 12.5H6.24992C6.0198 12.5 5.83325 12.6866 5.83325 12.9167V13.75C5.83325 13.9801 6.0198 14.1667 6.24992 14.1667H13.7499C13.98 14.1667 14.1666 13.9801 14.1666 13.75V12.9167C14.1666 12.6866 13.98 12.5 13.7499 12.5Z" fill="white"/>
</svg>
