<svg width="20" height="20" viewBox="0 0 20 20" fill="none" xmlns="http://www.w3.org/2000/svg">
<path d="M13.2166 3.04199L16.1666 5.99198L6.59158 15.5587L3.33325 15.8337L3.64991 12.617L13.2166 3.04199Z" fill="#C7CED5"/>
<path d="M15.0416 7.11721L12.0916 4.1672L13.8666 2.40054C14.0226 2.24533 14.2339 2.1582 14.4541 2.1582C14.6741 2.1582 14.8854 2.24533 15.0416 2.40054L16.8082 4.1672C16.8863 4.24467 16.9483 4.33683 16.9906 4.43838C17.0329 4.53993 17.0547 4.64885 17.0547 4.75886C17.0547 4.86887 17.0329 4.9778 16.9906 5.07934C16.9483 5.18089 16.8863 5.27305 16.8082 5.35052L15.0416 7.11721Z" fill="#C7CED5"/>
<path fill-rule="evenodd" clip-rule="evenodd" d="M2.5 17.5C2.5 17.0397 2.8731 16.6667 3.33333 16.6667H16.6667C17.1269 16.6667 17.5 17.0397 17.5 17.5C17.5 17.9602 17.1269 18.3333 16.6667 18.3333H3.33333C2.8731 18.3333 2.5 17.9602 2.5 17.5Z" fill="#737A83"/>
</svg>
