<svg width="20" height="20" viewBox="0 0 20 20" fill="none" xmlns="http://www.w3.org/2000/svg">
<path d="M15.0082 3.33334H5.00822C4.08774 3.33334 3.34155 4.07954 3.34155 5.00001V15C3.34155 15.9205 4.08774 16.6667 5.00822 16.6667H15.0082C15.9287 16.6667 16.6749 15.9205 16.6749 15V5.00001C16.6749 4.07954 15.9287 3.33334 15.0082 3.33334Z" fill="#48AFBA"/>
<path d="M10.8415 1.66666H9.1748V3.33332H10.8415V1.66666Z" fill="#737A83"/>
<path d="M14.1747 1.66666H12.5081V3.33332H14.1747V1.66666Z" fill="#737A83"/>
<path d="M7.50822 1.66666H5.84155V3.33332H7.50822V1.66666Z" fill="#737A83"/>
<path d="M18.3415 10.8333V9.16666H16.6748V10.8333H18.3415Z" fill="#737A83"/>
<path d="M18.3415 14.1667V12.5H16.6748V14.1667H18.3415Z" fill="#737A83"/>
<path d="M18.3415 7.50001V5.83334H16.6748V7.50001H18.3415Z" fill="#737A83"/>
<path d="M3.34147 10.8333V9.16666H1.6748V10.8333H3.34147Z" fill="#737A83"/>
<path d="M3.34147 14.1667V12.5H1.6748V14.1667H3.34147Z" fill="#737A83"/>
<path d="M3.34147 7.50001V5.83334H1.6748V7.50001H3.34147Z" fill="#737A83"/>
<path d="M10.8415 16.6667H9.1748V18.3333H10.8415V16.6667Z" fill="#737A83"/>
<path d="M14.1747 16.6667H12.5081V18.3333H14.1747V16.6667Z" fill="#737A83"/>
<path d="M7.50822 16.6667H5.84155V18.3333H7.50822V16.6667Z" fill="#737A83"/>
<path d="M13.3416 5.83334H6.67489C6.21464 5.83334 5.84155 6.20644 5.84155 6.66668V13.3333C5.84155 13.7936 6.21464 14.1667 6.67489 14.1667H13.3416C13.8018 14.1667 14.1749 13.7936 14.1749 13.3333V6.66668C14.1749 6.20644 13.8018 5.83334 13.3416 5.83334Z" fill="#E7ECEF"/>
</svg>
