<svg width="20" height="20" viewBox="0 0 20 20" fill="none" xmlns="http://www.w3.org/2000/svg">
<path d="M2.08325 5.41667V14.5833C2.08272 15.0113 2.24684 15.423 2.5416 15.7333C2.83636 16.0436 3.23918 16.2286 3.66661 16.25H16.3333C16.7607 16.2286 17.1635 16.0436 17.4583 15.7333C17.753 15.423 17.9171 15.0113 17.9166 14.5833V5.41667H2.08325Z" fill="#DBECFF"/>
<path d="M9.99992 11.6667L17.9166 5.83333V5.41667C17.9171 4.98871 17.753 4.57693 17.4583 4.26667C17.1635 3.95639 16.7607 3.7714 16.3333 3.75H3.66661C3.23918 3.7714 2.83636 3.95639 2.5416 4.26667C2.24684 4.57693 2.08272 4.98871 2.08325 5.41667V5.83333L9.99992 11.6667Z" fill="#5096FF"/>
</svg>
