<svg width="20" height="20" viewBox="0 0 20 20" fill="none" xmlns="http://www.w3.org/2000/svg">
<g clip-path="url(#clip0_559_42864)">
<path d="M12.9461 1.16055L18.8387 7.05311C18.9949 7.20939 19.0828 7.42133 19.0828 7.64235C19.0828 7.86336 18.9949 8.07534 18.8387 8.23161L11.7676 15.3027L4.69653 8.23161L11.7676 1.16055C11.9239 1.00427 12.1358 0.916473 12.3568 0.916473C12.5779 0.916473 12.7898 1.00427 12.9461 1.16055Z" fill="#6B758F"/>
<path d="M4.6988 8.2308L11.7699 15.3018L8.23433 18.8374C8.07806 18.9937 7.86607 19.0815 7.64506 19.0815C7.42405 19.0815 7.21211 18.9937 7.05582 18.8374L1.16326 12.9448C1.00698 12.7886 0.919189 12.5766 0.919189 12.3556C0.919189 12.1346 1.00698 11.9226 1.16326 11.7663L4.6988 8.2308Z" fill="#F0F0F0"/>
</g>
<defs>
<clipPath id="clip0_559_42864">
<rect width="20" height="20" fill="white"/>
</clipPath>
</defs>
</svg>
