<svg width="20" height="20" viewBox="0 0 20 20" fill="none" xmlns="http://www.w3.org/2000/svg">
<path d="M1.6748 18.3423H18.3415V10.0089C18.3415 9.78792 18.2537 9.576 18.0974 9.41967C17.9411 9.26342 17.7292 9.17559 17.5082 9.17559H10.0082V5.84229L5.84147 9.17559V5.84229L2.2998 8.67559C2.1049 8.83167 1.94755 9.0295 1.83938 9.2545C1.7312 9.4795 1.67495 9.72592 1.6748 9.97559V18.3423Z" fill="#999999"/>
<path d="M16.6747 4.16666H12.5081V6.66666H16.6747V4.16666Z" fill="#E8E8E8"/>
<path d="M16.6747 6.66666H12.5081V9.16666H16.6747V6.66666Z" fill="#F57C75"/>
<path d="M13.3414 1.66666H15.8414C16.0624 1.66666 16.2743 1.75446 16.4306 1.91073C16.5869 2.06701 16.6747 2.27897 16.6747 2.49999V4.16666H12.5081V2.49999C12.5081 2.27897 12.5958 2.06701 12.7521 1.91073C12.9084 1.75446 13.1203 1.66666 13.3414 1.66666Z" fill="#F57C75"/>
<path d="M6.04972 12.7083H7.29972C7.52984 12.7083 7.71639 12.5217 7.71639 12.2917V11.0417C7.71639 10.8116 7.52984 10.625 7.29972 10.625H6.04972C5.8196 10.625 5.63306 10.8116 5.63306 11.0417V12.2917C5.63306 12.5217 5.8196 12.7083 6.04972 12.7083Z" fill="white"/>
<path d="M9.38322 12.7083H10.6332C10.8633 12.7083 11.0499 12.5217 11.0499 12.2917V11.0417C11.0499 10.8116 10.8633 10.625 10.6332 10.625H9.38322C9.15305 10.625 8.96655 10.8116 8.96655 11.0417V12.2917C8.96655 12.5217 9.15305 12.7083 9.38322 12.7083Z" fill="white"/>
<path d="M12.7165 12.7083H13.9665C14.1966 12.7083 14.3831 12.5217 14.3831 12.2917V11.0417C14.3831 10.8116 14.1966 10.625 13.9665 10.625H12.7165C12.4863 10.625 12.2998 10.8116 12.2998 11.0417V12.2917C12.2998 12.5217 12.4863 12.7083 12.7165 12.7083Z" fill="white"/>
<path d="M6.04972 16.0417H7.29972C7.52984 16.0417 7.71639 15.8551 7.71639 15.625V14.375C7.71639 14.1449 7.52984 13.9583 7.29972 13.9583H6.04972C5.8196 13.9583 5.63306 14.1449 5.63306 14.375V15.625C5.63306 15.8551 5.8196 16.0417 6.04972 16.0417Z" fill="white"/>
<path d="M9.38322 16.0417H10.6332C10.8633 16.0417 11.0499 15.8551 11.0499 15.625V14.375C11.0499 14.1449 10.8633 13.9583 10.6332 13.9583H9.38322C9.15305 13.9583 8.96655 14.1449 8.96655 14.375V15.625C8.96655 15.8551 9.15305 16.0417 9.38322 16.0417Z" fill="white"/>
<path d="M12.7165 16.0417H13.9665C14.1966 16.0417 14.3831 15.8551 14.3831 15.625V14.375C14.3831 14.1449 14.1966 13.9583 13.9665 13.9583H12.7165C12.4863 13.9583 12.2998 14.1449 12.2998 14.375V15.625C12.2998 15.8551 12.4863 16.0417 12.7165 16.0417Z" fill="white"/>
</svg>
