<svg width="20" height="20" viewBox="0 0 20 20" fill="none" xmlns="http://www.w3.org/2000/svg">
<path d="M14.9999 1.66667H4.99992C4.07944 1.66667 3.33325 2.41286 3.33325 3.33334V16.6667C3.33325 17.5872 4.07944 18.3333 4.99992 18.3333H14.9999C15.9204 18.3333 16.6666 17.5872 16.6666 16.6667V3.33334C16.6666 2.41286 15.9204 1.66667 14.9999 1.66667Z" fill="#E7ECEF"/>
<path d="M13.7499 5.83333H6.24992C6.0198 5.83333 5.83325 6.01988 5.83325 6.24999V7.08333C5.83325 7.31344 6.0198 7.49999 6.24992 7.49999H13.7499C13.98 7.49999 14.1666 7.31344 14.1666 7.08333V6.24999C14.1666 6.01988 13.98 5.83333 13.7499 5.83333Z" fill="#737A83"/>
<path d="M13.7499 9.16667H6.24992C6.0198 9.16667 5.83325 9.35326 5.83325 9.58334V10.4167C5.83325 10.6468 6.0198 10.8333 6.24992 10.8333H13.7499C13.98 10.8333 14.1666 10.6468 14.1666 10.4167V9.58334C14.1666 9.35326 13.98 9.16667 13.7499 9.16667Z" fill="#737A83"/>
<path d="M13.7499 12.5H6.24992C6.0198 12.5 5.83325 12.6866 5.83325 12.9167V13.75C5.83325 13.9801 6.0198 14.1667 6.24992 14.1667H13.7499C13.98 14.1667 14.1666 13.9801 14.1666 13.75V12.9167C14.1666 12.6866 13.98 12.5 13.7499 12.5Z" fill="#737A83"/>
</svg>
