<svg width="20" height="20" viewBox="0 0 20 20" fill="none" xmlns="http://www.w3.org/2000/svg">
<path d="M3.78337 3.25847C3.34134 3.25847 2.91742 3.43409 2.60485 3.74664C2.29229 4.05921 2.1167 4.4831 2.1167 4.92514V7.0668H17.95V6.5918C17.95 6.14977 17.7744 5.72588 17.4619 5.41331C17.1493 5.10075 16.7254 4.92514 16.2833 4.92514H8.78333L7.60003 3.74181C7.28755 3.43188 6.86515 3.25812 6.42503 3.25847H3.78337Z" fill="#5096FF"/>
<path d="M2.08325 7.08333H17.9166V14.1667C17.9166 14.6087 17.741 15.0326 17.4284 15.3452C17.1159 15.6577 16.6919 15.8333 16.2499 15.8333H3.74992C3.30789 15.8333 2.88399 15.6577 2.57144 15.3452C2.25887 15.0326 2.08325 14.6087 2.08325 14.1667V7.08333Z" fill="#DBECFF"/>
</svg>
