<svg width="20" height="20" viewBox="0 0 20 20" fill="none" xmlns="http://www.w3.org/2000/svg">
<path d="M3.33333 14.1667H16.6667C16.8877 14.1667 17.0997 14.2544 17.2559 14.4107C17.4122 14.567 17.5 14.779 17.5 15V18.3333H2.5V15C2.5 14.779 2.58781 14.567 2.74409 14.4107C2.90037 14.2544 3.11232 14.1667 3.33333 14.1667Z" fill="#999999"/>
<path d="M5.83333 2.5H14.1667C14.3877 2.5 14.5997 2.5878 14.7559 2.74408C14.9122 2.90036 15 3.11232 15 3.33333V5.83333H5V3.33333C5 3.11232 5.08781 2.90036 5.24409 2.74408C5.40037 2.5878 5.61232 2.5 5.83333 2.5Z" fill="#707070"/>
<path d="M11.6666 15H8.33325V18.3333H11.6666V15Z" fill="#707070"/>
<path d="M16.6666 5.83334H3.33325V14.1667H16.6666V5.83334Z" fill="#E8E8E8"/>
<path d="M16.6667 4.16666H3.33333C2.8731 4.16666 2.5 4.53976 2.5 4.99999C2.5 5.46022 2.8731 5.83332 3.33333 5.83332H16.6667C17.1269 5.83332 17.5 5.46022 17.5 4.99999C17.5 4.53976 17.1269 4.16666 16.6667 4.16666Z" fill="#999999"/>
<path d="M10.6249 7.29166H9.37492C9.14484 7.29166 8.95825 7.47821 8.95825 7.70832V8.95832C8.95825 9.18841 9.14484 9.37499 9.37492 9.37499H10.6249C10.855 9.37499 11.0416 9.18841 11.0416 8.95832V7.70832C11.0416 7.47821 10.855 7.29166 10.6249 7.29166Z" fill="#707070"/>
<path d="M13.9584 7.29166H12.7084C12.4783 7.29166 12.2917 7.47821 12.2917 7.70832V8.95832C12.2917 9.18841 12.4783 9.37499 12.7084 9.37499H13.9584C14.1885 9.37499 14.3751 9.18841 14.3751 8.95832V7.70832C14.3751 7.47821 14.1885 7.29166 13.9584 7.29166Z" fill="#707070"/>
<path d="M7.29167 7.29166H6.04167C5.81155 7.29166 5.625 7.47821 5.625 7.70832V8.95832C5.625 9.18841 5.81155 9.37499 6.04167 9.37499H7.29167C7.52178 9.37499 7.70833 9.18841 7.70833 8.95832V7.70832C7.70833 7.47821 7.52178 7.29166 7.29167 7.29166Z" fill="#707070"/>
<path d="M10.6249 10.625H9.37492C9.14484 10.625 8.95825 10.8116 8.95825 11.0417V12.2917C8.95825 12.5217 9.14484 12.7083 9.37492 12.7083H10.6249C10.855 12.7083 11.0416 12.5217 11.0416 12.2917V11.0417C11.0416 10.8116 10.855 10.625 10.6249 10.625Z" fill="#707070"/>
<path d="M13.9584 10.625H12.7084C12.4783 10.625 12.2917 10.8116 12.2917 11.0417V12.2917C12.2917 12.5217 12.4783 12.7083 12.7084 12.7083H13.9584C14.1885 12.7083 14.3751 12.5217 14.3751 12.2917V11.0417C14.3751 10.8116 14.1885 10.625 13.9584 10.625Z" fill="#707070"/>
<path d="M7.29167 10.625H6.04167C5.81155 10.625 5.625 10.8116 5.625 11.0417V12.2917C5.625 12.5217 5.81155 12.7083 6.04167 12.7083H7.29167C7.52178 12.7083 7.70833 12.5217 7.70833 12.2917V11.0417C7.70833 10.8116 7.52178 10.625 7.29167 10.625Z" fill="#707070"/>
</svg>
