<svg width="20" height="20" viewBox="0 0 20 20" fill="none" xmlns="http://www.w3.org/2000/svg">
<path d="M17.8004 12.9411C17.993 12.4289 18.0828 11.8838 18.0648 11.337C18.0467 10.7901 17.9212 10.2521 17.6952 9.75374C17.4692 9.2554 17.1473 8.80641 16.7479 8.43249C16.3484 8.05856 15.8792 7.767 15.3671 7.5744C14.3327 7.18541 13.1862 7.22325 12.1797 7.67959C11.1733 8.13592 10.3894 8.97341 10.0004 10.0077C9.61142 11.0421 8.8275 11.8795 7.82102 12.3358C6.81458 12.7922 5.66807 12.83 4.63372 12.4411C4.12157 12.2484 3.65237 11.9569 3.25291 11.5829C2.85344 11.209 2.53155 10.76 2.30559 10.2617C2.07963 9.76332 1.95405 9.22532 1.936 8.67849C1.91795 8.1316 2.00779 7.58652 2.20039 7.07437C1.81391 8.09916 1.63322 9.19007 1.66867 10.2847C1.70413 11.3794 1.95503 12.4564 2.40702 13.4541C2.85902 14.4517 3.50324 15.3505 4.30285 16.0989C5.10246 16.8474 6.04177 17.4309 7.06706 17.8161C8.09137 18.2012 9.1815 18.381 10.2752 18.3449C11.369 18.3087 12.445 18.0576 13.4417 17.6057C14.4383 17.1537 15.3362 16.51 16.0841 15.7111C16.832 14.9122 17.4152 13.9737 17.8004 12.9493V12.9411Z" fill="#6B758F"/>
<path d="M12.9336 2.20816C11.9093 1.82295 10.8191 1.64324 9.72534 1.67934C8.63159 1.71544 7.5557 1.96661 6.55901 2.41852C5.56233 2.87044 4.6644 3.51423 3.91653 4.31316C3.16865 5.11208 2.58547 6.05048 2.20026 7.0748C2.00765 7.58695 1.91781 8.13202 1.93586 8.67891C1.95391 9.22575 2.0795 9.76375 2.30546 10.2621C2.53141 10.7604 2.85331 11.2094 3.25278 11.5833C3.65224 11.9573 4.12144 12.2488 4.63359 12.4415C5.14574 12.6341 5.69082 12.7239 6.2377 12.7059C6.78458 12.6878 7.32255 12.5622 7.82089 12.3362C8.31923 12.1103 8.76817 11.7884 9.14209 11.389C9.51609 10.9895 9.80767 10.5203 10.0003 10.0082C10.1928 9.496 10.4845 9.02675 10.8584 8.62733C11.2323 8.22787 11.6813 7.90596 12.1797 7.68001C12.678 7.45406 13.2159 7.32844 13.7628 7.31039C14.3097 7.29234 14.8548 7.38222 15.3669 7.57482C15.8791 7.76743 16.3483 8.05899 16.7478 8.43292C17.1473 8.80683 17.4691 9.25583 17.6951 9.75416C17.921 10.2525 18.0466 10.7905 18.0647 11.3374C18.0827 11.8842 17.9928 12.4293 17.8003 12.9415C18.1855 11.9172 18.3652 10.827 18.3291 9.73325C18.2929 8.6395 18.0418 7.56356 17.5898 6.56688C17.1379 5.5702 16.4942 4.67229 15.6953 3.92441C14.8963 3.17654 13.9579 2.59336 12.9336 2.20816Z" fill="#F4868F"/>
</svg>
