<svg width="20" height="20" viewBox="0 0 20 20" fill="none" xmlns="http://www.w3.org/2000/svg">
<path d="M14.9999 7.50815C14.5579 7.50815 14.134 7.68374 13.8214 7.9963C13.5088 8.30886 13.3333 8.73276 13.3333 9.17484C13.3333 9.61684 13.5088 10.0408 13.8214 10.3533C14.134 10.6659 14.5579 10.8415 14.9999 10.8415C15.4419 10.8415 15.8658 10.6659 16.1784 10.3533C16.491 10.0408 16.6666 9.61684 16.6666 9.17484C16.6666 8.73276 16.491 8.30886 16.1784 7.9963C15.8658 7.68374 15.4419 7.50815 14.9999 7.50815Z" fill="#6B758F"/>
<path d="M12.0916 15.8333H7.92489C7.70387 15.8333 7.49189 15.7455 7.33561 15.5892C7.17934 15.433 7.09155 15.221 7.09155 15V11.6667C7.09155 11.0037 7.35495 10.3677 7.82379 9.89891C8.29264 9.43007 8.92849 9.16666 9.59158 9.16666H10.4249C11.0879 9.16666 11.7238 9.43007 12.1927 9.89891C12.6615 10.3677 12.9249 11.0037 12.9249 11.6667V15C12.9249 15.221 12.8371 15.433 12.6808 15.5892C12.5245 15.7455 12.3126 15.8333 12.0916 15.8333Z" fill="#C7CED5"/>
<path d="M9.99992 5.00815C9.55792 5.00815 9.134 5.18374 8.82142 5.4963C8.50884 5.80886 8.33325 6.23278 8.33325 6.67482C8.33325 7.11684 8.50884 7.54076 8.82142 7.85332C9.134 8.16588 9.55792 8.34151 9.99992 8.34151C10.4419 8.34151 10.8658 8.16588 11.1784 7.85332C11.491 7.54076 11.6666 7.11684 11.6666 6.67482C11.6666 6.23278 11.491 5.80886 11.1784 5.4963C10.8658 5.18374 10.4419 5.00815 9.99992 5.00815Z" fill="#C7CED5"/>
<path d="M4.99992 7.50815C4.55789 7.50815 4.13397 7.68374 3.8214 7.9963C3.50884 8.30886 3.33325 8.73276 3.33325 9.17484C3.33325 9.61684 3.50884 10.0408 3.8214 10.3533C4.13397 10.6659 4.55789 10.8415 4.99992 10.8415C5.44194 10.8415 5.86587 10.6659 6.17844 10.3533C6.49099 10.0408 6.66659 9.61684 6.66659 9.17484C6.66659 8.73276 6.49099 8.30886 6.17844 7.9963C5.86587 7.68374 5.44194 7.50815 4.99992 7.50815Z" fill="#6B758F"/>
<path d="M14.1667 2.50815C13.7247 2.50815 13.3008 2.68374 12.9882 2.9963C12.6756 3.30886 12.5 3.73278 12.5 4.17481C12.5 4.61684 12.6756 5.04077 12.9882 5.35332C13.3008 5.66588 13.7247 5.84148 14.1667 5.84148C14.6087 5.84148 15.0326 5.66588 15.3452 5.35332C15.6577 5.04077 15.8333 4.61684 15.8333 4.17481C15.8333 3.73278 15.6577 3.30886 15.3452 2.9963C15.0326 2.68374 14.6087 2.50815 14.1667 2.50815Z" fill="#C7CED5"/>
<path d="M5.83341 2.50815C5.39139 2.50815 4.96746 2.68374 4.6549 2.9963C4.34234 3.30886 4.16675 3.73278 4.16675 4.17481C4.16675 4.61684 4.34234 5.04077 4.6549 5.35332C4.96746 5.66588 5.39139 5.84148 5.83341 5.84148C6.27544 5.84148 6.69936 5.66588 7.01193 5.35332C7.32449 5.04077 7.50008 4.61684 7.50008 4.17481C7.50008 3.73278 7.32449 3.30886 7.01193 2.9963C6.69936 2.68374 6.27544 2.50815 5.83341 2.50815Z" fill="#C7CED5"/>
<path d="M17.0916 18.3333H12.9249C12.7038 18.3333 12.4919 18.2455 12.3356 18.0892C12.1793 17.933 12.0916 17.721 12.0916 17.5V14.1667C12.0916 13.5037 12.3549 12.8677 12.8238 12.3989C13.2926 11.9301 13.9285 11.6667 14.5916 11.6667H15.4249C16.0879 11.6667 16.7238 11.9301 17.1926 12.3989C17.6615 12.8677 17.9249 13.5037 17.9249 14.1667V17.5C17.9249 17.721 17.8371 17.933 17.6808 18.0892C17.5245 18.2455 17.3126 18.3333 17.0916 18.3333Z" fill="#6B758F"/>
<path d="M7.09155 18.3333H2.92489C2.70387 18.3333 2.49189 18.2455 2.33561 18.0892C2.17934 17.933 2.09155 17.721 2.09155 17.5V14.1667C2.09155 13.5037 2.35495 12.8677 2.82379 12.3989C3.29264 11.9301 3.92851 11.6667 4.59155 11.6667H5.42489C6.08793 11.6667 6.72379 11.9301 7.19264 12.3989C7.66148 12.8677 7.92489 13.5037 7.92489 14.1667V17.5C7.92489 17.721 7.83707 17.933 7.68079 18.0892C7.52451 18.2455 7.31256 18.3333 7.09155 18.3333Z" fill="#6B758F"/>
</svg>
