<svg width="20" height="20" viewBox="0 0 20 20" fill="none" xmlns="http://www.w3.org/2000/svg">
<path d="M11.6666 12.5H0.833252V5H9.99992L11.6666 12.5Z" fill="#C7CED5"/>
<path d="M7.99167 17.9917L2.5 12.5L10 5L15.4917 10.4917C15.8021 10.8039 15.9763 11.2263 15.9763 11.6667C15.9763 12.107 15.8021 12.5294 15.4917 12.8417L10.3417 17.9917C10.0294 18.3021 9.607 18.4763 9.16667 18.4763C8.72633 18.4763 8.30394 18.3021 7.99167 17.9917Z" fill="#C7CED5"/>
<path d="M12.2836 3.58334C11.8876 3.42564 11.4463 3.42564 11.0503 3.58334L7.60024 5.00001C7.40237 5.07396 7.22212 5.18843 7.07106 5.33608C6.91999 5.48373 6.80143 5.6613 6.72298 5.85744C6.64453 6.05357 6.60791 6.26393 6.61548 6.47503C6.62304 6.68614 6.67462 6.89334 6.76691 7.08334C6.94878 7.47259 7.27394 7.77655 7.67454 7.93182C8.07513 8.08709 8.52025 8.08167 8.91692 7.91668L11.6669 6.66668L15.4919 10.4917C15.8023 10.8039 15.9766 11.2263 15.9766 11.6667C15.9766 12.107 15.8023 12.5294 15.4919 12.8417L14.1669 14.1667H19.1669V3.33334L15.8336 5.00001L12.2836 3.58334Z" fill="#6B758F"/>
</svg>
