<svg width="20" height="20" viewBox="0 0 20 20" fill="none" xmlns="http://www.w3.org/2000/svg">
<path fill-rule="evenodd" clip-rule="evenodd" d="M10.0001 2.71648C8.67301 2.71648 7.40017 3.24319 6.46113 4.18094C5.52224 5.11853 4.9938 6.39038 4.99178 7.71723V10.8415H2.90845L2.90846 7.71504C2.91104 5.83591 3.65934 4.03463 4.98901 2.70679C6.31867 1.37896 8.12098 0.633146 10.0001 0.633148C11.8793 0.633146 13.6816 1.37896 15.0113 2.70679C16.3409 4.03463 17.0892 5.83591 17.0918 7.71504V7.71649V10.8415H15.0084V7.71792C15.0084 7.71773 15.0084 7.7181 15.0084 7.71792C15.0065 6.39102 14.478 5.11857 13.5391 4.18094C12.6001 3.24319 11.3273 2.71648 10.0001 2.71648Z" fill="#E7ECEF"/>
<path fill-rule="evenodd" clip-rule="evenodd" d="M16.4841 12.5199C16.9332 12.8793 17.0061 13.5348 16.6468 13.9841L13.0007 18.5417H9.16667C8.59133 18.5417 8.125 18.0753 8.125 17.5C8.125 16.9247 8.59133 16.4583 9.16667 16.4583H11.9993L15.0199 12.6826C15.3793 12.2333 16.0348 12.1605 16.4841 12.5199Z" fill="#E7ECEF"/>
<path d="M3.33325 7.5H4.16659C4.3876 7.5 4.59955 7.5878 4.75583 7.74407C4.91211 7.90036 4.99992 8.11232 4.99992 8.33333V13.3333C4.99992 13.5543 4.91211 13.7663 4.75583 13.9226C4.59955 14.0788 4.3876 14.1667 4.16659 14.1667H3.33325C2.67021 14.1667 2.03431 13.9032 1.56547 13.4344C1.09663 12.9656 0.833252 12.3297 0.833252 11.6667V10C0.833252 9.337 1.09663 8.70108 1.56547 8.23223C2.03431 7.76339 2.67021 7.5 3.33325 7.5Z" fill="#737A83"/>
<path d="M15.8333 7.5H16.6667C17.3297 7.5 17.9656 7.76339 18.4344 8.23223C18.9032 8.70108 19.1667 9.337 19.1667 10V11.6667C19.1667 12.3297 18.9032 12.9656 18.4344 13.4344C17.9656 13.9032 17.3297 14.1667 16.6667 14.1667H15.8333C15.6123 14.1667 15.4003 14.0788 15.2441 13.9226C15.0878 13.7663 15 13.5543 15 13.3333V8.33333C15 8.11232 15.0878 7.90036 15.2441 7.74407C15.4003 7.5878 15.6123 7.5 15.8333 7.5Z" fill="#737A83"/>
</svg>
