<svg width="20" height="20" viewBox="0 0 20 20" fill="none" xmlns="http://www.w3.org/2000/svg">
<path d="M17.5 10L10 3.33334L2.5 10V18.3333H17.5V10Z" fill="#E8E8E8"/>
<path d="M8.87491 1.84972L1.49985 8.51643C1.41838 8.59051 1.3524 8.68001 1.30575 8.77976C1.2591 8.8796 1.23269 8.9876 1.22804 9.0976C1.22339 9.20768 1.24062 9.31751 1.2787 9.42085C1.31676 9.52426 1.37492 9.61901 1.44985 9.69976L1.57487 9.8331C1.7243 9.9951 1.93184 10.0913 2.15205 10.1007C2.37227 10.1101 2.5872 10.0318 2.74985 9.8831L9.4165 3.79972C9.56966 3.66152 9.76858 3.58502 9.97491 3.58502C10.1812 3.58502 10.3801 3.66152 10.5332 3.79972L17.1998 9.8831C17.3625 10.0318 17.5775 10.1101 17.7977 10.1007C18.0179 10.0913 18.2254 9.9951 18.3748 9.8331L18.4998 9.69976C18.5742 9.61843 18.6318 9.52326 18.6692 9.4196C18.7066 9.31593 18.723 9.20593 18.7176 9.09585C18.7122 8.98585 18.685 8.87793 18.6376 8.77851C18.5902 8.67901 18.5236 8.58993 18.4415 8.51643L11.0666 1.84972C10.7629 1.58479 10.3737 1.43881 9.97075 1.43881C9.56775 1.43881 9.1785 1.58479 8.87491 1.84972Z" fill="#F57C75"/>
<path d="M9.16667 10.8333H5V18.3333H9.16667V10.8333Z" fill="#737A83"/>
<path d="M15.0001 10.8333H11.6667V14.1667H15.0001V10.8333Z" fill="#737A83"/>
</svg>
