<svg width="20" height="20" viewBox="0 0 20 20" fill="none" xmlns="http://www.w3.org/2000/svg">
<path d="M2.52523 10H17.5253C17.7463 10 17.9582 10.0878 18.1145 10.2441C18.2708 10.4003 18.3586 10.6123 18.3586 10.8333V18.3333H1.69189V10.8333C1.69189 10.6123 1.7797 10.4003 1.93599 10.2441C2.09227 10.0878 2.30422 10 2.52523 10Z" fill="#C7CED5"/>
<path d="M5.02523 2.5H15.0253C15.2463 2.5 15.4582 2.5878 15.6145 2.74408C15.7708 2.90036 15.8586 3.11232 15.8586 3.33333V18.3333H4.19189V3.33333C4.19189 3.11232 4.2797 2.90036 4.43599 2.74408C4.59227 2.5878 4.80422 2.5 5.02523 2.5Z" fill="#E7ECEF"/>
<path d="M8.96717 10.625H7.7172C7.48709 10.625 7.30054 10.8116 7.30054 11.0417V12.2917C7.30054 12.5217 7.48709 12.7083 7.7172 12.7083H8.96717C9.19734 12.7083 9.38384 12.5217 9.38384 12.2917V11.0417C9.38384 10.8116 9.19734 10.625 8.96717 10.625Z" fill="#737A83"/>
<path d="M12.3007 10.625H11.0507C10.8206 10.625 10.634 10.8116 10.634 11.0417V12.2917C10.634 12.5217 10.8206 12.7083 11.0507 12.7083H12.3007C12.5309 12.7083 12.7174 12.5217 12.7174 12.2917V11.0417C12.7174 10.8116 12.5309 10.625 12.3007 10.625Z" fill="#737A83"/>
<path d="M8.96717 13.9583H7.7172C7.48709 13.9583 7.30054 14.1449 7.30054 14.375V15.625C7.30054 15.8551 7.48709 16.0417 7.7172 16.0417H8.96717C9.19734 16.0417 9.38384 15.8551 9.38384 15.625V14.375C9.38384 14.1449 9.19734 13.9583 8.96717 13.9583Z" fill="#737A83"/>
<path d="M12.3007 13.9583H11.0507C10.8206 13.9583 10.634 14.1449 10.634 14.375V15.625C10.634 15.8551 10.8206 16.0417 11.0507 16.0417H12.3007C12.5309 16.0417 12.7174 15.8551 12.7174 15.625V14.375C12.7174 14.1449 12.5309 13.9583 12.3007 13.9583Z" fill="#737A83"/>
<path d="M9.17567 5.83332V4.16666H10.8423V5.83332H12.509V7.49999H10.8423V9.16666H9.17567V7.49999H7.50903V5.83332H9.17567Z" fill="#F57C75"/>
</svg>
