<svg width="20" height="20" viewBox="0 0 20 20" fill="none" xmlns="http://www.w3.org/2000/svg">
<g clip-path="url(#clip0_559_42879)">
<mask id="mask0_559_42879" style="mask-type:luminance" maskUnits="userSpaceOnUse" x="0" y="0" width="20" height="20">
<path d="M20 0H0V20H20V0Z" fill="white"/>
</mask>
<g mask="url(#mask0_559_42879)">
<path d="M14.9999 2.5H4.99992C4.07944 2.5 3.33325 3.24619 3.33325 4.16667V17.5C3.33325 18.4205 4.07944 19.1667 4.99992 19.1667H14.9999C15.9204 19.1667 16.6666 18.4205 16.6666 17.5V4.16667C16.6666 3.24619 15.9204 2.5 14.9999 2.5Z" fill="#E7ECEF"/>
<path d="M9.99992 6.66669C9.67025 6.66669 9.34809 6.76444 9.074 6.94757C8.79992 7.1307 8.58625 7.391 8.46009 7.69554C8.334 8.0001 8.30097 8.33519 8.36525 8.65852C8.42959 8.98177 8.58834 9.27877 8.82142 9.51185C9.0545 9.74494 9.35151 9.90369 9.67475 9.96802C9.99809 10.0323 10.3332 9.99927 10.6378 9.87319C10.9423 9.74702 11.2026 9.53335 11.3857 9.25927C11.5688 8.98519 11.6666 8.66302 11.6666 8.33335C11.6666 7.89133 11.491 7.4674 11.1784 7.15485C10.8658 6.84228 10.4419 6.66669 9.99992 6.66669Z" fill="#6B758F"/>
<path d="M13.3332 13.3333C13.3332 12.6703 13.0698 12.0344 12.6009 11.5656C12.1321 11.0968 11.4962 10.8333 10.8332 10.8333H9.1665C8.5035 10.8333 7.86758 11.0968 7.39874 11.5656C6.9299 12.0344 6.6665 12.6703 6.6665 13.3333C6.6665 13.5543 6.7543 13.7663 6.91058 13.9226C7.06686 14.0788 7.27882 14.1667 7.49984 14.1667H12.4998C12.7208 14.1667 12.9328 14.0788 13.0891 13.9226C13.2453 13.7663 13.3332 13.5543 13.3332 13.3333Z" fill="#6B758F"/>
<path d="M8.33333 0.833344H11.6667C11.8877 0.833344 12.0997 0.921143 12.2559 1.07742C12.4122 1.2337 12.5 1.44566 12.5 1.66668V2.50001H7.5V1.66668C7.5 1.44566 7.5878 1.2337 7.74407 1.07742C7.90036 0.921143 8.11232 0.833344 8.33333 0.833344Z" fill="#A0A6AB"/>
</g>
</g>
<defs>
<clipPath id="clip0_559_42879">
<rect width="20" height="20" fill="white"/>
</clipPath>
</defs>
</svg>
