<svg width="20" height="20" viewBox="0 0 20 20" fill="none" xmlns="http://www.w3.org/2000/svg">
<path d="M9.99992 14.1667C13.6818 14.1667 16.6666 11.1819 16.6666 7.49999C16.6666 3.81809 13.6818 0.833328 9.99992 0.833328C6.31802 0.833328 3.33325 3.81809 3.33325 7.49999C3.33325 11.1819 6.31802 14.1667 9.99992 14.1667Z" fill="#FFE457"/>
<path d="M12.5 13.3333H7.5V15.8333H12.5V13.3333Z" fill="#FFE457"/>
<path d="M7.48291 15.8333V18.3333C7.48291 18.5543 7.57072 18.7663 7.727 18.9226C7.88328 19.0788 8.09524 19.1667 8.31624 19.1667H11.6496C11.8706 19.1667 12.0825 19.0788 12.2388 18.9226C12.3951 18.7663 12.4829 18.5543 12.4829 18.3333V15.8333H7.48291Z" fill="#A0A6AB"/>
</svg>
