<svg width="20" height="20" viewBox="0 0 20 20" fill="none" xmlns="http://www.w3.org/2000/svg">
<path d="M18.3334 9.99999C18.3334 5.39761 14.6024 1.66666 10.0001 1.66666C5.39771 1.66666 1.66675 5.39761 1.66675 9.99999C1.66675 14.6023 5.39771 18.3333 10.0001 18.3333C14.6024 18.3333 18.3334 14.6023 18.3334 9.99999Z" fill="#737A83"/>
<path fill-rule="evenodd" clip-rule="evenodd" d="M9.60092 6.94765C8.91109 7.13794 8.54159 7.59561 8.54159 8.11089H6.45825C6.45825 6.38164 7.75157 5.29667 9.04692 4.93933C10.3263 4.58639 11.9738 4.83236 12.9453 6.13197C13.3453 6.65321 13.5564 7.29452 13.5408 7.95227C13.5251 8.61326 13.2814 9.24684 12.8535 9.74992L12.8313 9.77601L12.8074 9.80059C12.4067 10.2134 11.868 10.4751 11.5422 10.6333C11.4863 10.6605 11.4366 10.6847 11.3949 10.706C11.0539 10.8807 10.9515 10.9786 10.9005 11.0736L10.9003 11.0767V11.6667H8.81692V11.0683C8.81817 10.7853 8.87634 10.5059 8.9875 10.2463L8.99375 10.2316L9.0005 10.2171C9.36184 9.44001 10.0142 9.07251 10.4451 8.85176C10.5528 8.79651 10.6466 8.74959 10.7289 8.70843C11.0191 8.56309 11.167 8.48901 11.288 8.37384C11.3955 8.23638 11.454 8.07133 11.458 7.90273C11.4623 7.72327 11.4047 7.54536 11.2908 7.39805L11.2848 7.39024L11.2789 7.38232C10.9602 6.95335 10.3042 6.75367 9.60092 6.94765Z" fill="white"/>
<path d="M10 15.3004C10.6903 15.3004 11.25 14.7407 11.25 14.0504C11.25 13.3599 10.6903 12.8004 10 12.8004C9.30967 12.8004 8.75 13.3599 8.75 14.0504C8.75 14.7407 9.30967 15.3004 10 15.3004Z" fill="white"/>
</svg>
