<svg width="20" height="20" viewBox="0 0 20 20" fill="none" xmlns="http://www.w3.org/2000/svg">
<path d="M10.0089 17.9167C14.3812 17.9167 17.9256 14.3723 17.9256 10C17.9256 5.62775 14.3812 2.08334 10.0089 2.08334C5.6367 2.08334 2.09229 5.62775 2.09229 10C2.09229 14.3723 5.6367 17.9167 10.0089 17.9167Z" fill="#6BA6FF"/>
<path d="M5.71731 9.67499C5.60393 9.56266 5.51392 9.42899 5.45251 9.28166C5.39108 9.13432 5.35946 8.97632 5.35946 8.81674C5.35946 8.65707 5.39108 8.49907 5.45251 8.35174C5.51392 8.20441 5.60393 8.07071 5.71731 7.95836C5.86571 7.81186 5.98354 7.63736 6.06396 7.44496C6.14439 7.25255 6.18581 7.04609 6.18581 6.83756C6.18581 6.62901 6.14439 6.42256 6.06396 6.23016C5.98354 6.03775 5.86571 5.8632 5.71731 5.7167L4.40897 4.40836C3.67249 5.14281 3.08862 6.01576 2.69102 6.97686C2.29341 7.93798 2.08994 8.96824 2.09231 10.0084C2.09234 11.5247 2.52921 13.0089 3.35065 14.2834L5.71731 11.9167C5.86571 11.7702 5.98354 11.5957 6.06396 11.4033C6.14439 11.2109 6.18581 11.0044 6.18581 10.7959C6.18581 10.5873 6.14439 10.3809 6.06396 10.1885C5.98354 9.99607 5.86571 9.82157 5.71731 9.67499Z" fill="#91E2C5"/>
<path d="M14.7498 3.6499L10.0081 8.39159C9.71246 8.68967 9.54663 9.0925 9.54663 9.51242C9.54663 9.93225 9.71246 10.3352 10.0081 10.6333L12.1165 12.7333C12.2623 12.8814 12.4361 12.9991 12.6278 13.0794C12.8195 13.1597 13.0253 13.201 13.2331 13.201C13.441 13.201 13.6468 13.1597 13.8385 13.0794C14.0302 12.9991 14.204 12.8814 14.3498 12.7333L15.6165 11.4749C15.9026 11.1908 16.2868 11.0273 16.6899 11.018C17.093 11.0088 17.4842 11.1543 17.7831 11.4249C17.8768 10.9501 17.9242 10.4673 17.9248 9.98325C17.9245 8.75334 17.6374 7.54057 17.0862 6.44114C16.535 5.34172 15.735 4.38599 14.7498 3.6499Z" fill="#91E2C5"/>
<path d="M7.65062 15.8999L6.46729 17.0749C7.56062 17.6254 8.76817 17.9109 9.99234 17.9082C10.6013 17.9039 11.2078 17.8312 11.8007 17.6915L9.99234 15.8832C9.67817 15.5775 9.25634 15.4079 8.818 15.411C8.37975 15.4142 7.96034 15.5897 7.65062 15.8999Z" fill="#91E2C5"/>
</svg>
