<svg width="20" height="20" viewBox="0 0 20 20" fill="none" xmlns="http://www.w3.org/2000/svg">
<path d="M17.4999 4.16666H2.49992C1.57944 4.16666 0.833252 4.91285 0.833252 5.83332V14.1667C0.833252 15.0872 1.57944 15.8333 2.49992 15.8333H17.4999C18.4204 15.8333 19.1666 15.0872 19.1666 14.1667V5.83332C19.1666 4.91285 18.4204 4.16666 17.4999 4.16666Z" fill="#A0A6AB"/>
<path d="M4.58325 12.0833H3.74992C3.5198 12.0833 3.33325 12.2699 3.33325 12.5V13.3333C3.33325 13.5634 3.5198 13.75 3.74992 13.75H4.58325C4.81337 13.75 4.99992 13.5634 4.99992 13.3333V12.5C4.99992 12.2699 4.81337 12.0833 4.58325 12.0833Z" fill="#E7ECEF"/>
<path d="M13.3333 12.0833H6.66667C6.43655 12.0833 6.25 12.2699 6.25 12.5V13.3333C6.25 13.5634 6.43655 13.75 6.66667 13.75H13.3333C13.5634 13.75 13.75 13.5634 13.75 13.3333V12.5C13.75 12.2699 13.5634 12.0833 13.3333 12.0833Z" fill="#E7ECEF"/>
<path d="M16.25 12.0833H15.4167C15.1866 12.0833 15 12.2699 15 12.5V13.3333C15 13.5634 15.1866 13.75 15.4167 13.75H16.25C16.4801 13.75 16.6667 13.5634 16.6667 13.3333V12.5C16.6667 12.2699 16.4801 12.0833 16.25 12.0833Z" fill="#E7ECEF"/>
<path d="M7.5 6.25H6.66667C6.43655 6.25 6.25 6.43655 6.25 6.66667V7.5C6.25 7.73012 6.43655 7.91667 6.66667 7.91667H7.5C7.73012 7.91667 7.91667 7.73012 7.91667 7.5V6.66667C7.91667 6.43655 7.73012 6.25 7.5 6.25Z" fill="#E7ECEF"/>
<path d="M10.4167 6.25H9.58341C9.35333 6.25 9.16675 6.43655 9.16675 6.66667V7.5C9.16675 7.73012 9.35333 7.91667 9.58341 7.91667H10.4167C10.6468 7.91667 10.8334 7.73012 10.8334 7.5V6.66667C10.8334 6.43655 10.6468 6.25 10.4167 6.25Z" fill="#E7ECEF"/>
<path d="M13.3333 6.25H12.4999C12.2698 6.25 12.0833 6.43655 12.0833 6.66667V7.5C12.0833 7.73012 12.2698 7.91667 12.4999 7.91667H13.3333C13.5633 7.91667 13.7499 7.73012 13.7499 7.5V6.66667C13.7499 6.43655 13.5633 6.25 13.3333 6.25Z" fill="#E7ECEF"/>
<path d="M16.25 6.25H15.4167C15.1866 6.25 15 6.43655 15 6.66667V7.5C15 7.73012 15.1866 7.91667 15.4167 7.91667H16.25C16.4801 7.91667 16.6667 7.73012 16.6667 7.5V6.66667C16.6667 6.43655 16.4801 6.25 16.25 6.25Z" fill="#E7ECEF"/>
<path d="M4.58325 6.25H3.74992C3.5198 6.25 3.33325 6.43655 3.33325 6.66667V7.5C3.33325 7.73012 3.5198 7.91667 3.74992 7.91667H4.58325C4.81337 7.91667 4.99992 7.73012 4.99992 7.5V6.66667C4.99992 6.43655 4.81337 6.25 4.58325 6.25Z" fill="#E7ECEF"/>
<path d="M7.5 9.16666H6.66667C6.43655 9.16666 6.25 9.35324 6.25 9.58332V10.4167C6.25 10.6467 6.43655 10.8333 6.66667 10.8333H7.5C7.73012 10.8333 7.91667 10.6467 7.91667 10.4167V9.58332C7.91667 9.35324 7.73012 9.16666 7.5 9.16666Z" fill="#E7ECEF"/>
<path d="M10.4167 9.16666H9.58341C9.35333 9.16666 9.16675 9.35324 9.16675 9.58332V10.4167C9.16675 10.6467 9.35333 10.8333 9.58341 10.8333H10.4167C10.6468 10.8333 10.8334 10.6467 10.8334 10.4167V9.58332C10.8334 9.35324 10.6468 9.16666 10.4167 9.16666Z" fill="#E7ECEF"/>
<path d="M13.3333 9.16666H12.4999C12.2698 9.16666 12.0833 9.35324 12.0833 9.58332V10.4167C12.0833 10.6467 12.2698 10.8333 12.4999 10.8333H13.3333C13.5633 10.8333 13.7499 10.6467 13.7499 10.4167V9.58332C13.7499 9.35324 13.5633 9.16666 13.3333 9.16666Z" fill="#E7ECEF"/>
<path d="M16.25 9.16666H15.4167C15.1866 9.16666 15 9.35324 15 9.58332V10.4167C15 10.6467 15.1866 10.8333 15.4167 10.8333H16.25C16.4801 10.8333 16.6667 10.6467 16.6667 10.4167V9.58332C16.6667 9.35324 16.4801 9.16666 16.25 9.16666Z" fill="#E7ECEF"/>
<path d="M4.58325 9.16666H3.74992C3.5198 9.16666 3.33325 9.35324 3.33325 9.58332V10.4167C3.33325 10.6467 3.5198 10.8333 3.74992 10.8333H4.58325C4.81337 10.8333 4.99992 10.6467 4.99992 10.4167V9.58332C4.99992 9.35324 4.81337 9.16666 4.58325 9.16666Z" fill="#E7ECEF"/>
</svg>
