<svg width="20" height="20" viewBox="0 0 20 20" fill="none" xmlns="http://www.w3.org/2000/svg">
<path d="M3.33341 3.33334H16.6667C17.1087 3.33334 17.5327 3.50894 17.8452 3.82149C18.1578 4.13406 18.3334 4.55799 18.3334 5.00001V13.3333C18.3334 13.5543 18.2456 13.7663 18.0893 13.9226C17.9331 14.0788 17.7211 14.1667 17.5001 14.1667H2.50008C2.27906 14.1667 2.06711 14.0788 1.91084 13.9226C1.75456 13.7663 1.66675 13.5543 1.66675 13.3333V5.00001C1.66675 4.55799 1.84231 4.13406 2.15487 3.82149C2.46744 3.50894 2.89139 3.33334 3.33341 3.33334Z" fill="#737A83"/>
<path d="M0.833252 14.1667H19.1666V15C19.1666 15.221 19.0788 15.433 18.9225 15.5892C18.7663 15.7455 18.5543 15.8333 18.3333 15.8333H1.66659C1.44557 15.8333 1.23362 15.7455 1.07734 15.5892C0.92106 15.433 0.833252 15.221 0.833252 15V14.1667Z" fill="#737A83"/>
<path d="M16.6666 5H3.33325V12.5H16.6666V5Z" fill="url(#paint0_linear_559_42866)"/>
<defs>
<linearGradient id="paint0_linear_559_42866" x1="3.33325" y1="5" x2="16.6666" y2="12.5" gradientUnits="userSpaceOnUse">
<stop offset="0.255208" stop-color="#BCEEF9"/>
<stop offset="1" stop-color="#FFDB80"/>
</linearGradient>
</defs>
</svg>
