<svg width="20" height="20" viewBox="0 0 20 20" fill="none" xmlns="http://www.w3.org/2000/svg">
<path d="M11.3279 4.25317L8.96969 6.61138L7.49658 5.13824L9.85494 2.77992C10.8316 1.80351 12.1563 1.25488 13.5374 1.25488C14.9184 1.25488 16.2429 1.8034 17.2196 2.77981C17.7043 3.26344 18.0888 3.83789 18.3512 4.4703C18.6138 5.10306 18.7489 5.78142 18.7489 6.4665C18.7489 7.15158 18.6138 7.82992 18.3512 8.46267C18.0886 9.09542 17.7038 9.67017 17.2188 10.154L14.8601 12.5043L13.3895 11.0286L15.7475 8.679C16.0384 8.38875 16.2695 8.04368 16.4269 7.66419C16.5845 7.28452 16.6656 6.87753 16.6656 6.4665C16.6656 6.05546 16.5845 5.64843 16.4269 5.26877C16.2694 4.88912 16.0385 4.54428 15.7475 4.25399L15.7467 4.25317C15.1607 3.66732 14.3659 3.33822 13.5374 3.33822C12.7088 3.33822 11.9139 3.66739 11.3279 4.25317Z" fill="#88BFFF"/>
<path fill-rule="evenodd" clip-rule="evenodd" d="M6.61139 8.96981L4.25317 11.328C4.25313 11.3281 4.25321 11.328 4.25317 11.328C3.6674 11.914 3.33822 12.7088 3.33822 13.5374C3.33822 14.3659 3.66724 15.1606 4.25295 15.7466C4.83895 16.3322 5.63379 16.6615 6.46232 16.6615C7.29092 16.6615 8.08557 16.3324 8.67158 15.7466L11.0299 13.3883L12.5031 14.8614L10.1447 17.2198C9.168 18.1962 7.84338 18.7448 6.46232 18.7448C5.08127 18.7448 3.75674 18.1963 2.78003 17.2199C1.80362 16.2431 1.25488 14.9185 1.25488 13.5374C1.25488 12.1563 1.80339 10.8318 2.77981 9.85506L5.13826 7.49664L6.61139 8.96981Z" fill="#88BFFF"/>
<path fill-rule="evenodd" clip-rule="evenodd" d="M12.8033 7.1964C13.2102 7.60319 13.2102 8.26274 12.8033 8.66952L8.67842 12.7945C8.27158 13.2014 7.61204 13.2014 7.20524 12.7945C6.79845 12.3878 6.79844 11.7282 7.20524 11.3214L11.3303 7.1964C11.737 6.7896 12.3966 6.7896 12.8033 7.1964Z" fill="#88BFFF"/>
</svg>
