<svg width="20" height="20" viewBox="0 0 20 20" fill="none" xmlns="http://www.w3.org/2000/svg">
<path d="M10.2166 1.66666H9.79989C9.33964 1.66666 8.96655 2.03976 8.96655 2.49999V4.99999C8.96655 5.46022 9.33964 5.83332 9.79989 5.83332H10.2166C10.6768 5.83332 11.0499 5.46022 11.0499 4.99999V2.49999C11.0499 2.03976 10.6768 1.66666 10.2166 1.66666Z" fill="#5096FF"/>
<path d="M4.26111 3.95742L3.96649 4.25205C3.64105 4.57749 3.64105 5.10512 3.96649 5.43056L5.73425 7.19833C6.0597 7.52376 6.58733 7.52376 6.91276 7.19833L7.2074 6.9037C7.53283 6.57827 7.53283 6.05062 7.2074 5.72519L5.43963 3.95742C5.11419 3.63199 4.58655 3.63199 4.26111 3.95742Z" fill="#DBECFF"/>
<path d="M1.66675 9.79168V10.2083C1.66675 10.6686 2.03985 11.0417 2.50008 11.0417H5.00008C5.46031 11.0417 5.83341 10.6686 5.83341 10.2083V9.79168C5.83341 9.33143 5.46031 8.95834 5.00008 8.95834H2.50008C2.03985 8.95834 1.66675 9.33143 1.66675 9.79168Z" fill="#DBECFF"/>
<path d="M3.96552 15.7429L4.26014 16.0375C4.58558 16.363 5.11322 16.363 5.43865 16.0375L7.20642 14.2698C7.53186 13.9443 7.53186 13.4167 7.20642 13.0913L6.91179 12.7967C6.58636 12.4712 6.05872 12.4712 5.73328 12.7967L3.96552 14.5644C3.64008 14.8898 3.64008 15.4175 3.96552 15.7429Z" fill="#88BFFF"/>
<path d="M9.7828 18.3333H10.1995C10.6596 18.3333 11.0328 17.9602 11.0328 17.5V15C11.0328 14.5397 10.6596 14.1667 10.1995 14.1667H9.7828C9.32255 14.1667 8.94946 14.5397 8.94946 15V17.5C8.94946 17.9602 9.32255 18.3333 9.7828 18.3333Z" fill="#88BFFF"/>
<path d="M15.7487 16.045L16.0433 15.7504C16.3687 15.4249 16.3687 14.8973 16.0433 14.5719L14.2756 12.8041C13.9501 12.4787 13.4225 12.4787 13.097 12.8041L12.8024 13.0988C12.477 13.4242 12.477 13.9518 12.8024 14.2773L14.5702 16.045C14.8956 16.3704 15.4232 16.3704 15.7487 16.045Z" fill="#88BFFF"/>
<path d="M18.3334 10.2165V9.79983C18.3334 9.33958 17.9603 8.96649 17.5001 8.96649H15.0001C14.5398 8.96649 14.1667 9.33958 14.1667 9.79983V10.2165C14.1667 10.6767 14.5398 11.0498 15.0001 11.0498H17.5001C17.9603 11.0498 18.3334 10.6767 18.3334 10.2165Z" fill="#5096FF"/>
<path d="M16.0467 4.26117L15.7521 3.96655C15.4267 3.64111 14.899 3.64111 14.5736 3.96655L12.8058 5.73431C12.4804 6.05976 12.4804 6.58739 12.8058 6.91282L13.1004 7.20746C13.4259 7.53289 13.9535 7.53289 14.279 7.20746L16.0467 5.43969C16.3722 5.11425 16.3722 4.58661 16.0467 4.26117Z" fill="#5096FF"/>
</svg>
