<svg width="20" height="20" viewBox="0 0 20 20" fill="none" xmlns="http://www.w3.org/2000/svg">
<path d="M10.0083 14.7829C13.865 14.7829 16.9916 11.6563 16.9916 7.79959C16.9916 3.9428 13.865 0.816254 10.0083 0.816254C6.15145 0.816254 3.0249 3.9428 3.0249 7.79959C3.0249 11.6563 6.15145 14.7829 10.0083 14.7829Z" fill="#F57C75"/>
<path d="M16.9583 8.33334C16.7308 10.5587 15.9823 12.6991 14.7733 14.5813C13.5644 16.4634 11.9292 18.0343 10 19.1667V8.33334H16.9583Z" fill="#F57C75"/>
<path d="M3.05005 8.33334C3.27669 10.5579 4.02397 12.6978 5.23139 14.5799C6.43882 16.462 8.07246 18.0333 10.0001 19.1667V8.33334H3.05005Z" fill="#F57C75"/>
<path d="M10.0081 10C11.3887 10 12.5081 8.88075 12.5081 7.5C12.5081 6.11929 11.3887 5 10.0081 5C8.62733 5 7.50806 6.11929 7.50806 7.5C7.50806 8.88075 8.62733 10 10.0081 10Z" fill="white"/>
</svg>
