<svg width="20" height="20" viewBox="0 0 20 20" fill="none" xmlns="http://www.w3.org/2000/svg">
<g clip-path="url(#clip0_559_42827)">
<path d="M6.66659 0.833344H13.3333C13.5543 0.833344 13.7663 0.921152 13.9226 1.07744C14.0788 1.23371 14.1666 1.44566 14.1666 1.66668V9.16668H5.83325V1.66668C5.83325 1.44566 5.92106 1.23371 6.07734 1.07744C6.23362 0.921152 6.44557 0.833344 6.66659 0.833344Z" fill="#EFE8E1"/>
<path d="M1.66659 10.8333H8.33325C8.55425 10.8333 8.76625 10.9212 8.92259 11.0774C9.07884 11.2337 9.16658 11.4457 9.16658 11.6667V19.1667H0.833252V11.6667C0.833252 11.4457 0.92106 11.2337 1.07734 11.0774C1.23362 10.9212 1.44557 10.8333 1.66659 10.8333Z" fill="#EFE8E1"/>
<path d="M11.6666 10.8333H18.3333C18.5543 10.8333 18.7663 10.9212 18.9226 11.0774C19.0788 11.2337 19.1666 11.4457 19.1666 11.6667V19.1667H10.8333V11.6667C10.8333 11.4457 10.9211 11.2337 11.0773 11.0774C11.2336 10.9212 11.4456 10.8333 11.6666 10.8333Z" fill="#EFE8E1"/>
<path d="M11.25 0.833344H8.75V3.33334H11.25V0.833344Z" fill="#9C9188"/>
<path d="M6.25 10.8333H3.75V13.3333H6.25V10.8333Z" fill="#9C9188"/>
<path d="M16.25 10.8333H13.75V13.3333H16.25V10.8333Z" fill="#9C9188"/>
</g>
<defs>
<clipPath id="clip0_559_42827">
<rect width="20" height="20" fill="white"/>
</clipPath>
</defs>
</svg>
