<svg width="20" height="20" viewBox="0 0 20 20" fill="none" xmlns="http://www.w3.org/2000/svg">
<path d="M6.25034 19.2082C6.03696 19.2076 5.82593 19.1631 5.63043 19.0776C5.43493 18.9921 5.25908 18.8673 5.11377 18.7111C4.96845 18.5548 4.85677 18.3704 4.78565 18.1692C4.71453 17.968 4.68547 17.7544 4.7003 17.5415L5.35867 8.30817C5.37547 8.09892 5.47059 7.9037 5.62509 7.76156C5.77958 7.61942 5.98207 7.54083 6.192 7.54151H6.30863C6.51857 7.54083 6.72105 7.61942 6.87555 7.76156C7.03004 7.9037 7.12518 8.09892 7.14197 8.30817L7.80868 17.5415C7.82356 17.7551 7.79423 17.9694 7.72262 18.1712C7.65099 18.3729 7.53858 18.5577 7.39236 18.7142C7.24615 18.8705 7.06929 18.9951 6.8728 19.0801C6.67631 19.1651 6.46443 19.2087 6.25034 19.2082Z" fill="#737A83"/>
<path d="M6.25 10.0333C8.32107 10.0333 10 7.98134 10 5.45003C10 2.91872 8.32107 0.866699 6.25 0.866699C4.17893 0.866699 2.5 2.91872 2.5 5.45003C2.5 7.98134 4.17893 10.0333 6.25 10.0333Z" fill="#C7CED5"/>
<path d="M12.5 19.1667V1.66668C12.5 1.44566 12.5877 1.2337 12.744 1.07742C12.9003 0.921143 13.1123 0.833344 13.3333 0.833344C13.5543 0.833344 13.7663 0.921143 13.9226 1.07742C14.0788 1.2337 14.1667 1.44566 14.1667 1.66668V19.1667H12.5Z" fill="#C7CED5"/>
<path d="M15.4167 19.1667V1.66668C15.4167 1.44566 15.5045 1.2337 15.6607 1.07742C15.8171 0.921143 16.0291 0.833344 16.2501 0.833344C16.4711 0.833344 16.6831 0.921143 16.8393 1.07742C16.9956 1.2337 17.0834 1.44566 17.0834 1.66668V19.1667H15.4167Z" fill="#C7CED5"/>
</svg>
