<svg width="20" height="20" viewBox="0 0 20 20" fill="none" xmlns="http://www.w3.org/2000/svg">
<path d="M13.3334 8.33333C13.3334 6.49238 11.841 5 10.0001 5C8.15913 5 6.66675 6.49238 6.66675 8.33333V11.6667C6.66675 13.5076 8.15913 15 10.0001 15C11.841 15 13.3334 13.5076 13.3334 11.6667V8.33333Z" fill="#E7ECEF"/>
<path d="M9.99992 4.16668C10.9204 4.16668 11.6666 3.42049 11.6666 2.50001C11.6666 1.57954 10.9204 0.833344 9.99992 0.833344C9.07942 0.833344 8.33325 1.57954 8.33325 2.50001C8.33325 3.42049 9.07942 4.16668 9.99992 4.16668Z" fill="#6B758F"/>
<path d="M9.99992 19.1666C10.9204 19.1666 11.6666 18.4205 11.6666 17.5C11.6666 16.5795 10.9204 15.8333 9.99992 15.8333C9.07942 15.8333 8.33325 16.5795 8.33325 17.5C8.33325 18.4205 9.07942 19.1666 9.99992 19.1666Z" fill="#6B758F"/>
<path d="M15.8334 8.33333C16.7539 8.33333 17.5001 7.58714 17.5001 6.66667C17.5001 5.74619 16.7539 5 15.8334 5C14.9129 5 14.1667 5.74619 14.1667 6.66667C14.1667 7.58714 14.9129 8.33333 15.8334 8.33333Z" fill="#6B758F"/>
<path d="M15.8334 15C16.7539 15 17.5001 14.2538 17.5001 13.3333C17.5001 12.4128 16.7539 11.6667 15.8334 11.6667C14.9129 11.6667 14.1667 12.4128 14.1667 13.3333C14.1667 14.2538 14.9129 15 15.8334 15Z" fill="#6B758F"/>
<path d="M4.16667 8.33333C5.08714 8.33333 5.83333 7.58714 5.83333 6.66667C5.83333 5.74619 5.08714 5 4.16667 5C3.24619 5 2.5 5.74619 2.5 6.66667C2.5 7.58714 3.24619 8.33333 4.16667 8.33333Z" fill="#6B758F"/>
<path d="M4.16667 15C5.08714 15 5.83333 14.2538 5.83333 13.3333C5.83333 12.4128 5.08714 11.6667 4.16667 11.6667C3.24619 11.6667 2.5 12.4128 2.5 13.3333C2.5 14.2538 3.24619 15 4.16667 15Z" fill="#6B758F"/>
</svg>
