<svg width="20" height="20" viewBox="0 0 20 20" fill="none" xmlns="http://www.w3.org/2000/svg">
<path d="M6.66667 1.66666H15C15.442 1.66666 15.866 1.84225 16.1785 2.15481C16.4911 2.46737 16.6667 2.8913 16.6667 3.33332V16.6667C16.6667 17.1087 16.4911 17.5326 16.1785 17.8452C15.866 18.1577 15.442 18.3333 15 18.3333H5V3.33332C5 2.8913 5.17562 2.46737 5.48818 2.15481C5.80074 1.84225 6.22464 1.66666 6.66667 1.66666Z" fill="#707070"/>
<path d="M4.99992 18.3333C4.55789 18.3333 4.13397 18.1577 3.8214 17.8452C3.50884 17.5326 3.33325 17.1087 3.33325 16.6667V12.175C3.33417 11.8454 3.43276 11.5235 3.61659 11.25L4.99992 9.16666V18.3333Z" fill="#707070"/>
<path d="M14.9999 3.33334H13.3333V7.50001H14.9999V3.33334Z" fill="#FFF8B8"/>
<path d="M11.6667 3.33334H10V7.50001H11.6667V3.33334Z" fill="#FFF8B8"/>
<path d="M8.33341 3.33334H6.66675V7.50001H8.33341V3.33334Z" fill="#FFF8B8"/>
</svg>
