<svg width="20" height="20" viewBox="0 0 20 20" fill="none" xmlns="http://www.w3.org/2000/svg">
<path d="M3.31616 5.00815V16.7665C3.33963 17.1924 3.52552 17.5932 3.83557 17.8862C4.14563 18.1792 4.55624 18.3421 4.98283 18.3415H14.9828C15.4094 18.3421 15.82 18.1792 16.1301 17.8862C16.4402 17.5932 16.626 17.1924 16.6495 16.7665V5.00815H3.31616Z" fill="#E7ECEF"/>
<path d="M16.6495 3.34147C16.6495 2.89944 16.4739 2.47551 16.1613 2.16295C15.8488 1.8504 15.4248 1.6748 14.9828 1.6748H4.98283C4.5408 1.6748 4.11688 1.8504 3.80432 2.16295C3.49175 2.47551 3.31616 2.89944 3.31616 3.34147V5.00814H16.6495V3.34147Z" fill="#FFC738"/>
<path d="M13.8193 7.5H6.18048C5.98871 7.5 5.83325 7.68655 5.83325 7.91667V8.75C5.83325 8.98008 5.98871 9.16667 6.18048 9.16667H13.8193C14.0112 9.16667 14.1666 8.98008 14.1666 8.75V7.91667C14.1666 7.68655 14.0112 7.5 13.8193 7.5Z" fill="#C7CED5"/>
<path d="M13.8193 10.4167H6.18048C5.98871 10.4167 5.83325 10.6033 5.83325 10.8333V11.6667C5.83325 11.8968 5.98871 12.0833 6.18048 12.0833H13.8193C14.0112 12.0833 14.1666 11.8968 14.1666 11.6667V10.8333C14.1666 10.6033 14.0112 10.4167 13.8193 10.4167Z" fill="#C7CED5"/>
<path d="M13.8193 13.3333H6.18048C5.98871 13.3333 5.83325 13.5199 5.83325 13.75V14.5833C5.83325 14.8134 5.98871 15 6.18048 15H13.8193C14.0112 15 14.1666 14.8134 14.1666 14.5833V13.75C14.1666 13.5199 14.0112 13.3333 13.8193 13.3333Z" fill="#C7CED5"/>
</svg>
