<svg width="20" height="20" viewBox="0 0 20 20" fill="none" xmlns="http://www.w3.org/2000/svg">
<path d="M10.2999 1.46648H9.69992C7.51546 1.47088 5.42171 2.34058 3.87705 3.88524C2.33239 5.4299 1.46266 7.52368 1.45825 9.70817V10.3082C1.46266 12.4926 2.33239 14.5863 3.87705 16.131C5.42171 17.6757 7.51546 18.5454 9.69992 18.5498H10.2999C11.3394 18.5468 12.3688 18.346 13.3333 17.9581V15.6581C13.1868 15.7501 13.0336 15.8308 12.8749 15.8998C12.0684 16.2749 11.1894 16.4683 10.2999 16.4665H9.69992C8.0702 16.4621 6.50848 15.8128 5.35609 14.6603C4.20369 13.5079 3.55433 11.9462 3.54993 10.3165V9.7165C3.54993 8.0832 4.19876 6.5168 5.35367 5.36189C6.50858 4.20698 8.07498 3.55815 9.70825 3.55815H10.3083C11.1029 3.56664 11.888 3.73355 12.6173 4.04918C13.3467 4.36479 14.0058 4.82279 14.556 5.39627C15.1062 5.96975 15.5365 6.6472 15.8216 7.38902C16.1068 8.13084 16.241 8.92217 16.2166 9.7165V10.5498C16.2123 10.8049 16.1585 11.0568 16.0583 11.2914C15.6583 12.1248 15.3333 12.1248 15.0083 12.1248C14.6215 12.1248 14.2506 11.9712 13.9771 11.6977C13.7036 11.4242 13.5499 11.0533 13.5499 10.6664V5.84148H11.4666V6.29979C10.7808 5.8662 9.98633 5.63512 9.17492 5.63314C8.29529 5.63999 7.44661 5.95861 6.7798 6.53234C6.113 7.10607 5.6713 7.89772 5.53326 8.7665C5.34956 9.49783 5.32898 10.2607 5.47299 11.0009C5.617 11.7412 5.92209 12.4407 6.36659 13.0498C6.7012 13.4724 7.12849 13.8124 7.61543 14.0437C8.10237 14.2748 8.63592 14.391 9.17492 14.3832C9.77258 14.3818 10.3636 14.2576 10.9113 14.0182C11.4589 13.7788 11.9514 13.4293 12.3583 12.9915C12.6883 13.3708 13.0953 13.6754 13.5523 13.8852C14.0092 14.095 14.5055 14.205 15.0083 14.2081C15.6399 14.2003 16.2548 14.0042 16.7743 13.6449C17.2939 13.2857 17.6945 12.7796 17.9249 12.1915C18.1457 11.7032 18.2702 11.1769 18.2916 10.6415V9.70817C18.3193 8.63933 18.1334 7.57567 17.7448 6.57959C17.3561 5.58352 16.7725 4.67503 16.0282 3.90742C15.2838 3.13982 14.3938 2.52853 13.4102 2.10938C12.4266 1.69023 11.3692 1.47166 10.2999 1.46648ZM9.16658 12.2998C8.94109 12.3083 8.71684 12.2628 8.51242 12.1672C8.30806 12.0715 8.12948 11.9284 7.99159 11.7498C7.7457 11.3878 7.57922 10.978 7.50309 10.5471C7.42698 10.1162 7.44293 9.67408 7.54992 9.24975C7.59319 8.8445 7.77991 8.46817 8.07637 8.18848C8.37284 7.90883 8.7595 7.74438 9.16658 7.72482C9.77433 7.72482 10.3573 7.96623 10.787 8.396C11.2168 8.82575 11.4583 9.40867 11.4583 10.0165C11.4561 10.6228 11.2137 11.2036 10.7841 11.6315C10.3546 12.0595 9.77292 12.2998 9.16658 12.2998Z" fill="#6B758F"/>
</svg>
