<svg width="20" height="20" viewBox="0 0 20 20" fill="none" xmlns="http://www.w3.org/2000/svg">
<path d="M18.3334 9.16666C18.3334 4.56429 14.6024 0.833328 10.0001 0.833328C5.39771 0.833328 1.66675 4.56429 1.66675 9.16666C1.66675 13.769 5.39771 17.5 10.0001 17.5C14.6024 17.5 18.3334 13.769 18.3334 9.16666Z" fill="#88BFFF"/>
<path d="M4.16675 15.1172L1.66675 17.5005H10.0001V15.8338L4.16675 15.1172Z" fill="#88BFFF"/>
<path d="M12.0833 10H6.24992C6.0198 10 5.83325 10.1866 5.83325 10.4167V11.25C5.83325 11.4801 6.0198 11.6667 6.24992 11.6667H12.0833C12.3133 11.6667 12.4999 11.4801 12.4999 11.25V10.4167C12.4999 10.1866 12.3133 10 12.0833 10Z" fill="white"/>
<path d="M13.7499 6.66667H6.24992C6.0198 6.66667 5.83325 6.85322 5.83325 7.08334V7.91667C5.83325 8.14679 6.0198 8.33334 6.24992 8.33334H13.7499C13.98 8.33334 14.1666 8.14679 14.1666 7.91667V7.08334C14.1666 6.85322 13.98 6.66667 13.7499 6.66667Z" fill="white"/>
</svg>
