<svg width="20" height="20" viewBox="0 0 20 20" fill="none" xmlns="http://www.w3.org/2000/svg">
<path d="M13.3334 1.66666H6.66675C5.28604 1.66666 4.16675 2.78595 4.16675 4.16666V12.5C4.16675 13.8807 5.28604 15 6.66675 15H13.3334C14.7142 15 15.8334 13.8807 15.8334 12.5V4.16666C15.8334 2.78595 14.7142 1.66666 13.3334 1.66666Z" fill="#6B758F"/>
<path d="M12.6333 4.16666H7.36654C6.9063 4.16666 6.5332 4.53976 6.5332 4.99999V7.49999C6.5332 7.96022 6.9063 8.33332 7.36654 8.33332H12.6333C13.0934 8.33332 13.4666 7.96022 13.4666 7.49999V4.99999C13.4666 4.53976 13.0934 4.16666 12.6333 4.16666Z" fill="white"/>
<path d="M12.9167 13.3333C13.6071 13.3333 14.1667 12.7737 14.1667 12.0833C14.1667 11.393 13.6071 10.8333 12.9167 10.8333C12.2264 10.8333 11.6667 11.393 11.6667 12.0833C11.6667 12.7737 12.2264 13.3333 12.9167 13.3333Z" fill="white"/>
<path d="M7.08325 13.3333C7.77361 13.3333 8.33325 12.7737 8.33325 12.0833C8.33325 11.393 7.77361 10.8333 7.08325 10.8333C6.39289 10.8333 5.83325 11.393 5.83325 12.0833C5.83325 12.7737 6.39289 13.3333 7.08325 13.3333Z" fill="white"/>
<path d="M6.66667 15L2.5 19.1667H5.83333L10 15H6.66667Z" fill="#E7ECEF"/>
<path d="M13.3585 15L17.5251 19.1667H14.1918L10.0251 15H13.3585Z" fill="#E7ECEF"/>
<path d="M13.3334 15H6.66675V17.0833H13.3334V15Z" fill="#E7ECEF"/>
</svg>
