<svg width="20" height="20" viewBox="0 0 20 20" fill="none" xmlns="http://www.w3.org/2000/svg">
<path d="M17.7083 15V4.16666H15.625V15H17.7083Z" fill="#FFC738"/>
<path d="M7.50037 15.0082C7.50147 14.5019 7.4027 14.0004 7.20971 13.5323C7.01672 13.0642 6.7333 12.6389 6.37569 12.2805C6.01807 11.9221 5.59327 11.6377 5.12562 11.4437C4.65797 11.2497 4.15666 11.1499 3.65037 11.1499C2.81618 11.1529 2.00576 11.4279 1.34204 11.9332L3.65037 15.0082H7.50037Z" fill="#FFC738"/>
<path d="M15.8333 13.9583H2.5V16.0417H15.8333V13.9583Z" fill="#FFC738"/>
<path d="M3.33318 17.3583C4.63565 17.3583 5.69153 16.3024 5.69153 14.9999C5.69153 13.6975 4.63565 12.6416 3.33318 12.6416C2.0307 12.6416 0.974854 13.6975 0.974854 14.9999C0.974854 16.3024 2.0307 17.3583 3.33318 17.3583Z" fill="#737A83"/>
<path d="M16.6667 17.5C18.0475 17.5 19.1667 16.3807 19.1667 15C19.1667 13.6192 18.0475 12.5 16.6667 12.5C15.286 12.5 14.1667 13.6192 14.1667 15C14.1667 16.3807 15.286 17.5 16.6667 17.5Z" fill="#737A83"/>
<path d="M12.5001 2.29166H16.8751C17.0961 2.29166 17.3081 2.37946 17.4643 2.53575C17.6206 2.69202 17.7084 2.90397 17.7084 3.12499V4.37499H12.5001C12.2791 4.37499 12.0671 4.28718 11.9108 4.1309C11.7546 3.97462 11.6667 3.76267 11.6667 3.54166V3.12499C11.6667 2.90397 11.7546 2.69202 11.9108 2.53575C12.0671 2.37946 12.2791 2.29166 12.5001 2.29166Z" fill="#737A83"/>
</svg>
