<svg width="20" height="20" viewBox="0 0 20 20" fill="none" xmlns="http://www.w3.org/2000/svg">
<path d="M10.0001 18.3333C14.6024 18.3333 18.3334 14.6023 18.3334 9.99999C18.3334 5.39761 14.6024 1.66666 10.0001 1.66666C5.39771 1.66666 1.66675 5.39761 1.66675 9.99999C1.66675 14.6023 5.39771 18.3333 10.0001 18.3333Z" fill="#FFA36F"/>
<path d="M12.9002 14.1667H10.8169L8.9502 6.66666H11.0335L12.9002 14.1667Z" fill="white"/>
<path d="M12.9165 6.66666L11.0498 14.1667H13.1331L14.9998 6.66666" fill="white"/>
<path d="M7.08325 14.1667H9.16659L11.0249 6.66666H8.94158L7.08325 14.1667Z" fill="white"/>
<path d="M7.05819 6.66666L8.92483 14.1667H6.84151L4.97485 6.66666" fill="white"/>
<path d="M15.8333 8.75H13.3333V10.4167H15.8333V8.75Z" fill="white"/>
<path d="M6.66675 8.75H4.16675V10.4167H6.66675V8.75Z" fill="white"/>
</svg>
