<svg width="20" height="20" viewBox="0 0 20 20" fill="none" xmlns="http://www.w3.org/2000/svg">
<path d="M11.6666 12.5H8.33325V15.8333H11.6666V12.5Z" fill="#737A83"/>
<path d="M13.3333 15.8333H6.66659C6.20635 15.8333 5.83325 16.2064 5.83325 16.6667C5.83325 17.1269 6.20635 17.5 6.66659 17.5H13.3333C13.7935 17.5 14.1666 17.1269 14.1666 16.6667C14.1666 16.2064 13.7935 15.8333 13.3333 15.8333Z" fill="#737A83"/>
<path d="M17.5001 2.5H2.50008C2.03985 2.5 1.66675 2.8731 1.66675 3.33333V12.5C1.66675 12.9602 2.03985 13.3333 2.50008 13.3333H17.5001C17.9603 13.3333 18.3334 12.9602 18.3334 12.5V3.33333C18.3334 2.8731 17.9603 2.5 17.5001 2.5Z" fill="#737A83"/>
<path d="M16.6666 4.16666H3.33325V11.6667H16.6666V4.16666Z" fill="url(#paint0_linear_559_42867)"/>
<defs>
<linearGradient id="paint0_linear_559_42867" x1="3.74992" y1="4.16666" x2="16.6666" y2="11.6667" gradientUnits="userSpaceOnUse">
<stop stop-color="#B8E7FB"/>
<stop offset="1" stop-color="#C1B8FB"/>
</linearGradient>
</defs>
</svg>
