<svg width="20" height="20" viewBox="0 0 20 20" fill="none" xmlns="http://www.w3.org/2000/svg">
<path d="M3.75 8.33334H16.25V12.9167C16.25 14.5743 15.5915 16.164 14.4194 17.3361C13.2473 18.5082 11.6576 19.1667 10 19.1667C8.34242 19.1667 6.75268 18.5082 5.58058 17.3361C4.40848 16.164 3.75 14.5743 3.75 12.9167V8.33334Z" fill="#A0A6AB"/>
<path d="M10 0.833344C11.6576 0.833344 13.2473 1.49181 14.4194 2.66392C15.5915 3.83602 16.25 5.42574 16.25 7.08334V8.33334H3.75V7.08334C3.75 5.42574 4.40848 3.83602 5.58058 2.66392C6.75268 1.49181 8.34242 0.833344 10 0.833344Z" fill="#E7ECEF"/>
<path d="M10.2083 2.91666H9.79159C9.33134 2.91666 8.95825 3.28976 8.95825 3.74999V6.24999C8.95825 6.71022 9.33134 7.08332 9.79159 7.08332H10.2083C10.6685 7.08332 11.0416 6.71022 11.0416 6.24999V3.74999C11.0416 3.28976 10.6685 2.91666 10.2083 2.91666Z" fill="#737A83"/>
</svg>
