<svg width="20" height="20" viewBox="0 0 20 20" fill="none" xmlns="http://www.w3.org/2000/svg">
<path fill-rule="evenodd" clip-rule="evenodd" d="M11.0506 3.64175V11.8751H8.96729V3.64175H11.0506Z" fill="#CBDFFF"/>
<path fill-rule="evenodd" clip-rule="evenodd" d="M11.4535 11.1222L4.72008 15.6112L3.56445 13.8777L10.2979 9.38882L11.4535 11.1222Z" fill="#CBDFFF"/>
<path fill-rule="evenodd" clip-rule="evenodd" d="M9.72012 9.38882L16.4535 13.8777L15.298 15.6112L8.56445 11.1222L9.72012 9.38882Z" fill="#CBDFFF"/>
<path d="M12.509 6.66667V3.33333C12.509 2.8731 12.1359 2.5 11.6757 2.5H8.34233C7.88213 2.5 7.50903 2.8731 7.50903 3.33333V6.66667C7.50903 7.1269 7.88213 7.5 8.34233 7.5H11.6757C12.1359 7.5 12.509 7.1269 12.509 6.66667Z" fill="#5096FF"/>
<path d="M7.50903 16.6667V13.3333C7.50903 12.8731 7.13594 12.5 6.6757 12.5H3.34237C2.88213 12.5 2.50903 12.8731 2.50903 13.3333V16.6667C2.50903 17.1269 2.88213 17.5 3.34237 17.5H6.6757C7.13594 17.5 7.50903 17.1269 7.50903 16.6667Z" fill="#5096FF"/>
<path d="M17.509 16.6667V13.3333C17.509 12.8731 17.1359 12.5 16.6757 12.5H13.3424C12.8822 12.5 12.509 12.8731 12.509 13.3333V16.6667C12.509 17.1269 12.8822 17.5 13.3424 17.5H16.6757C17.1359 17.5 17.509 17.1269 17.509 16.6667Z" fill="#5096FF"/>
</svg>
