<svg width="20" height="20" viewBox="0 0 20 20" fill="none" xmlns="http://www.w3.org/2000/svg">
<path d="M3.33341 5H6.66675V11.6667H3.33341C2.89139 11.6667 2.46749 11.4911 2.15493 11.1785C1.84236 10.8659 1.66675 10.442 1.66675 10V6.66667C1.66675 6.22464 1.84236 5.80072 2.15493 5.48815C2.46749 5.17559 2.89139 5 3.33341 5Z" fill="#5096FF"/>
<path d="M5.20833 11.6667H3.125V17.5H5.20833V11.6667Z" fill="#5096FF"/>
<path d="M15.8333 5.83333C16.4963 5.83333 17.1322 6.09672 17.601 6.56556C18.0698 7.0344 18.3333 7.67029 18.3333 8.33333C18.3333 8.99633 18.0698 9.63224 17.601 10.1011C17.1322 10.5699 16.4963 10.8333 15.8333 10.8333V5.83333Z" fill="#5096FF"/>
<path d="M15.2417 15.5744L6.66675 11.6744V5.00771L15.2417 1.14937C15.305 1.1201 15.3746 1.10716 15.4441 1.11174C15.5137 1.11631 15.5809 1.13826 15.6398 1.17557C15.6987 1.21288 15.7472 1.26437 15.7811 1.32531C15.8149 1.38625 15.8329 1.45469 15.8334 1.52439V15.2327C15.8277 15.2996 15.8058 15.364 15.7698 15.4206C15.7338 15.4772 15.6847 15.5242 15.6267 15.5578C15.5686 15.5913 15.5032 15.6103 15.4362 15.6132C15.3692 15.6161 15.3025 15.6028 15.2417 15.5744Z" fill="#CBDFFF"/>
</svg>
