<svg width="20" height="20" viewBox="0 0 20 20" fill="none" xmlns="http://www.w3.org/2000/svg">
<path d="M4.19198 1.66666H15.0253C15.4673 1.66666 15.8913 1.84225 16.2038 2.15481C16.5163 2.46737 16.692 2.8913 16.692 3.33332V16.6667C16.692 17.1087 16.5163 17.5326 16.2038 17.8452C15.8913 18.1577 15.4673 18.3333 15.0253 18.3333H4.19198C3.97097 18.3333 3.75902 18.2455 3.60273 18.0892C3.44645 17.933 3.35864 17.721 3.35864 17.5V2.49999C3.35864 2.27897 3.44645 2.067 3.60273 1.91072C3.75902 1.75444 3.97097 1.66666 4.19198 1.66666Z" fill="#E6EAEE"/>
<path d="M4.17562 5.83334H2.50895C2.27884 5.83334 2.09229 6.01989 2.09229 6.25001V7.08334C2.09229 7.31346 2.27884 7.50001 2.50895 7.50001H4.17562C4.40574 7.50001 4.59228 7.31346 4.59228 7.08334V6.25001C4.59228 6.01989 4.40574 5.83334 4.17562 5.83334Z" fill="#A0A6AB"/>
<path d="M4.17562 9.16666H2.50895C2.27884 9.16666 2.09229 9.35324 2.09229 9.58332V10.4167C2.09229 10.6467 2.27884 10.8333 2.50895 10.8333H4.17562C4.40574 10.8333 4.59228 10.6467 4.59228 10.4167V9.58332C4.59228 9.35324 4.40574 9.16666 4.17562 9.16666Z" fill="#A0A6AB"/>
<path d="M4.17562 12.5H2.50895C2.27884 12.5 2.09229 12.6866 2.09229 12.9167V13.75C2.09229 13.9801 2.27884 14.1667 2.50895 14.1667H4.17562C4.40574 14.1667 4.59228 13.9801 4.59228 13.75V12.9167C4.59228 12.6866 4.40574 12.5 4.17562 12.5Z" fill="#A0A6AB"/>
<path d="M10.4253 7.89979L9.35033 8.97482C9.66875 9.43449 10.0286 9.86407 10.4253 10.2582C10.8194 10.6523 11.2491 11.0094 11.7087 11.3248L12.7837 10.2582L14.842 12.3165L14.2337 12.9332L13.2003 13.9665C12.6657 13.7687 12.1473 13.5291 11.6503 13.2498C10.7654 12.7617 9.95442 12.15 9.242 11.4332C8.53067 10.721 7.92204 9.91324 7.43368 9.03315C7.15723 8.53582 6.92038 8.01759 6.72534 7.48313L7.75868 6.44979L8.367 5.84146L10.4253 7.89979Z" fill="#48AFBA"/>
</svg>
