<svg width="20" height="20" viewBox="0 0 20 20" fill="none" xmlns="http://www.w3.org/2000/svg">
<path d="M10.0001 18.3333C14.6024 18.3333 18.3334 14.6023 18.3334 10C18.3334 5.39763 14.6024 1.66667 10.0001 1.66667C5.39771 1.66667 1.66675 5.39763 1.66675 10C1.66675 14.6023 5.39771 18.3333 10.0001 18.3333Z" fill="#F4868F"/>
<path d="M10 15C12.7614 15 15 12.7614 15 10C15 7.23857 12.7614 5 10 5C7.23857 5 5 7.23857 5 10C5 12.7614 7.23857 15 10 15Z" fill="white"/>
<path d="M10.0001 12.0833C11.1507 12.0833 12.0834 11.1506 12.0834 10C12.0834 8.84942 11.1507 7.91667 10.0001 7.91667C8.8495 7.91667 7.91675 8.84942 7.91675 10C7.91675 11.1506 8.8495 12.0833 10.0001 12.0833Z" fill="#707070"/>
</svg>
