<svg width="20" height="20" viewBox="0 0 20 20" fill="none" xmlns="http://www.w3.org/2000/svg">
<path d="M7.49975 15H12.4998L13.9331 18.5999C13.9594 18.6626 13.9698 18.7308 13.9631 18.7984C13.9564 18.866 13.933 18.9309 13.8949 18.9872C13.8568 19.0434 13.8053 19.0893 13.7451 19.1207C13.6848 19.152 13.6177 19.1678 13.5498 19.1667H6.44143C6.3735 19.1678 6.30636 19.152 6.24608 19.1207C6.18581 19.0893 6.13431 19.0434 6.09624 18.9872C6.05818 18.9309 6.03475 18.866 6.02809 18.7984C6.02143 18.7308 6.03174 18.6626 6.0581 18.5999L7.49975 15Z" fill="#A0A6AB"/>
<path d="M10 15.8333C14.1422 15.8333 17.5 12.4755 17.5 8.33333C17.5 4.19119 14.1422 0.833328 10 0.833328C5.85787 0.833328 2.5 4.19119 2.5 8.33333C2.5 12.4755 5.85787 15.8333 10 15.8333Z" fill="#E7ECEF"/>
<path d="M10.0001 10.4167C11.1507 10.4167 12.0834 9.48392 12.0834 8.33333C12.0834 7.18274 11.1507 6.25 10.0001 6.25C8.8495 6.25 7.91675 7.18274 7.91675 8.33333C7.91675 9.48392 8.8495 10.4167 10.0001 10.4167Z" fill="#737A83"/>
</svg>
