<svg width="20" height="20" viewBox="0 0 20 20" fill="none" xmlns="http://www.w3.org/2000/svg">
<path fill-rule="evenodd" clip-rule="evenodd" d="M8.95825 13.3333V5.83333H11.0416V13.3333H8.95825Z" fill="#E7ECEF"/>
<path fill-rule="evenodd" clip-rule="evenodd" d="M5.20833 10.2165V13.3333H3.125V9.59151C3.125 9.20484 3.2785 8.83384 3.55212 8.56026C3.82573 8.28665 4.19673 8.13315 4.58333 8.13315H15.4167C15.8034 8.13315 16.1743 8.28674 16.4478 8.56026C16.7212 8.83367 16.875 9.20459 16.875 9.59151V13.3333H14.7917V10.2165H5.20833Z" fill="#E7ECEF"/>
<path d="M5.55548 13.3333H2.77769C2.39417 13.3333 2.08325 13.6442 2.08325 14.0277V16.8056C2.08325 17.1891 2.39417 17.5 2.77769 17.5H5.55548C5.939 17.5 6.24992 17.1891 6.24992 16.8056V14.0277C6.24992 13.6442 5.939 13.3333 5.55548 13.3333Z" fill="#737A83"/>
<path d="M11.389 13.3333H8.61116C8.22766 13.3333 7.91675 13.6442 7.91675 14.0277V16.8056C7.91675 17.1891 8.22766 17.5 8.61116 17.5H11.389C11.7725 17.5 12.0834 17.1891 12.0834 16.8056V14.0277C12.0834 13.6442 11.7725 13.3333 11.389 13.3333Z" fill="#737A83"/>
<path d="M11.389 1.66667H8.61116C8.22766 1.66667 7.91675 1.97759 7.91675 2.36111V5.1389C7.91675 5.52242 8.22766 5.83334 8.61116 5.83334H11.389C11.7725 5.83334 12.0834 5.52242 12.0834 5.1389V2.36111C12.0834 1.97759 11.7725 1.66667 11.389 1.66667Z" fill="#737A83"/>
<path d="M17.2223 13.3333H14.4444C14.0609 13.3333 13.75 13.6442 13.75 14.0277V16.8056C13.75 17.1891 14.0609 17.5 14.4444 17.5H17.2223C17.6058 17.5 17.9167 17.1891 17.9167 16.8056V14.0277C17.9167 13.6442 17.6058 13.3333 17.2223 13.3333Z" fill="#737A83"/>
</svg>
