<svg width="20" height="20" viewBox="0 0 20 20" fill="none" xmlns="http://www.w3.org/2000/svg">
<path d="M8.33342 8.33334H11.6667C12.7718 8.33334 13.8316 8.77234 14.613 9.55368C15.3944 10.3351 15.8334 11.3949 15.8334 12.5V17.5C15.8334 17.942 15.6578 18.3659 15.3452 18.6785C15.0327 18.9911 14.6087 19.1667 14.1667 19.1667H5.83341C5.39139 19.1667 4.96746 18.9911 4.6549 18.6785C4.34234 18.3659 4.16675 17.942 4.16675 17.5V12.5C4.16675 11.3949 4.60572 10.3351 5.38712 9.55368C6.16852 8.77234 7.22835 8.33334 8.33342 8.33334Z" fill="#6B758F"/>
<path d="M10.0001 7.50001C11.841 7.50001 13.3334 6.00763 13.3334 4.16668C13.3334 2.32573 11.841 0.833344 10.0001 0.833344C8.15913 0.833344 6.66675 2.32573 6.66675 4.16668C6.66675 6.00763 8.15913 7.50001 10.0001 7.50001Z" fill="#6B758F"/>
<path d="M9.37508 10L8.54175 14.1667L10.0001 15.8333L11.4584 14.1667L10.6251 10H9.37508Z" fill="white"/>
</svg>
