<svg width="20" height="20" viewBox="0 0 20 20" fill="none" xmlns="http://www.w3.org/2000/svg">
<path d="M14.9999 3.33333H4.99992C4.07944 3.33333 3.33325 4.07952 3.33325 4.99999V17.5C3.33325 18.4205 4.07944 19.1667 4.99992 19.1667H14.9999C15.9204 19.1667 16.6666 18.4205 16.6666 17.5V4.99999C16.6666 4.07952 15.9204 3.33333 14.9999 3.33333Z" fill="#9C9188"/>
<path d="M12.5 3.33333C12.5 1.95262 11.3807 0.833328 10 0.833328C8.61925 0.833328 7.5 1.95262 7.5 3.33333C7.5 4.71404 8.61925 5.83333 10 5.83333C11.3807 5.83333 12.5 4.71404 12.5 3.33333Z" fill="#E8E8E8"/>
<path d="M5.83325 3.33333H14.1666V4.99999C14.1666 5.22101 14.0788 5.43297 13.9225 5.58925C13.7663 5.74553 13.5543 5.83333 13.3333 5.83333H6.66659C6.44557 5.83333 6.23359 5.74553 6.07732 5.58925C5.92104 5.43297 5.83325 5.22101 5.83325 4.99999V3.33333Z" fill="#E8E8E8"/>
<path d="M10.0001 4.16667C10.4603 4.16667 10.8334 3.79357 10.8334 3.33333C10.8334 2.8731 10.4603 2.5 10.0001 2.5C9.53983 2.5 9.16675 2.8731 9.16675 3.33333C9.16675 3.79357 9.53983 4.16667 10.0001 4.16667Z" fill="#9C9188"/>
</svg>
