<svg width="20" height="20" viewBox="0 0 20 20" fill="none" xmlns="http://www.w3.org/2000/svg">
<path d="M15.2172 8.31669L11.6838 4.78336L13.4505 0.658356L19.3422 6.55003L15.2172 8.31669Z" fill="#F4868F"/>
<path d="M13.4501 6.55021L11.6834 4.78354L5.79175 5.95855L2.05009 17.0585L1.66675 18.3335L2.93341 17.9418L14.0417 14.2085L15.2167 8.31686L13.4501 6.55021Z" fill="#E7ECEF"/>
<path d="M11.0917 8.90842C10.937 8.75342 10.7532 8.6305 10.5508 8.54667C10.3485 8.46275 10.1316 8.41959 9.91258 8.41959C9.69358 8.41959 9.47667 8.46275 9.27433 8.54667C9.072 8.6305 8.88816 8.75342 8.73341 8.90842C8.5005 9.1435 8.34283 9.44259 8.28046 9.76759C8.21813 10.0926 8.25397 10.4288 8.38342 10.7334L2.05007 17.0668L1.66675 18.3334L2.93341 17.9501L9.26675 11.6168C9.57133 11.7462 9.9075 11.782 10.2326 11.7197C10.5576 11.6573 10.8567 11.4997 11.0917 11.2668C11.2467 11.1119 11.3697 10.9282 11.4535 10.7258C11.5374 10.5235 11.5806 10.3066 11.5806 10.0876C11.5806 9.8685 11.5374 9.65167 11.4535 9.44934C11.3697 9.247 11.2467 9.06317 11.0917 8.90842Z" fill="#A0A6AB"/>
</svg>
