<svg width="20" height="20" viewBox="0 0 20 20" fill="none" xmlns="http://www.w3.org/2000/svg">
<path d="M12.8667 4.22525L4.6167 12.4752L7.5667 15.4169L15.8167 7.16692L12.8667 4.22525Z" fill="#FFC738"/>
<path d="M3.9582 13.1339L3.4082 14.7923L5.2332 16.6173L6.9082 16.0756L7.56654 15.4173L4.61654 12.4756L3.9582 13.1339Z" fill="#F0F0F0"/>
<path d="M2.5 17.5L5.23333 16.6167L3.40833 14.7917L2.5 17.5Z" fill="#707070"/>
<path d="M16.9919 3.63391L16.4003 3.05059C16.088 2.74017 15.6656 2.56592 15.2253 2.56592C14.785 2.56592 14.3625 2.74017 14.0503 3.05059L12.8669 4.22557L15.817 7.17558L16.9919 5.99225C17.1469 5.83747 17.2699 5.65363 17.3538 5.4513C17.4376 5.24898 17.4808 5.03211 17.4808 4.81308C17.4808 4.59405 17.4376 4.37716 17.3538 4.17483C17.2699 3.9725 17.1469 3.78869 16.9919 3.63391Z" fill="#F4868F"/>
</svg>
