<svg width="20" height="20" viewBox="0 0 20 20" fill="none" xmlns="http://www.w3.org/2000/svg">
<path d="M8.72438 6.55818L7.17439 8.11651C7.80815 9.03591 8.52504 9.89508 9.31604 10.6832C10.107 11.4743 10.969 12.1912 11.891 12.8248L13.441 11.2748C13.5972 11.1197 13.8084 11.0325 14.0285 11.0325C14.2487 11.0325 14.46 11.1197 14.616 11.2748L17.566 14.2248C17.7213 14.381 17.8084 14.5922 17.8084 14.8123C17.8084 15.0325 17.7213 15.2437 17.566 15.3998L16.9327 16.0332L15.641 17.3248C15.4107 17.554 15.1183 17.7107 14.8 17.7759C14.4817 17.841 14.1513 17.8117 13.8494 17.6915C13.1382 17.3881 12.4429 17.0487 11.766 16.6748C10.0033 15.6915 8.38513 14.4687 6.95773 13.0415C5.52918 11.6152 4.30632 9.99691 3.32439 8.23318C2.94889 7.5572 2.60953 6.86178 2.30773 6.14984C2.18859 5.84718 2.16061 5.51628 2.22724 5.19793C2.29388 4.87956 2.45221 4.58765 2.68273 4.35818L3.96606 3.07484L4.5994 2.43318C4.67687 2.35507 4.76903 2.29308 4.87058 2.25077C4.97213 2.20846 5.08105 2.18668 5.19106 2.18668C5.30108 2.18668 5.40999 2.20846 5.51154 2.25077C5.61309 2.29308 5.70526 2.35507 5.78273 2.43318L8.72438 5.38318C8.87963 5.53932 8.96671 5.75053 8.96671 5.97068C8.96671 6.19083 8.87963 6.40204 8.72438 6.55818Z" fill="#48AFBA"/>
</svg>
