<svg width="20" height="20" viewBox="0 0 20 20" fill="none" xmlns="http://www.w3.org/2000/svg">
<path d="M12.075 10.0082H18.3333C18.3333 7.798 17.4553 5.6784 15.8926 4.1156C14.3298 2.5528 12.2102 1.6748 10 1.6748V7.92481C10.2732 7.9248 10.5437 7.97875 10.796 8.08355C11.0483 8.18835 11.2774 8.34191 11.4703 8.5355C11.663 8.72908 11.8157 8.95883 11.9194 9.2115C12.0232 9.46425 12.0761 9.73491 12.075 10.0082Z" fill="#5096FF"/>
<path d="M9.99176 12.0915C9.43926 12.0915 8.90934 11.872 8.51867 11.4812C8.12795 11.0906 7.90845 10.5607 7.90845 10.0082C7.90845 9.45558 8.12795 8.92566 8.51867 8.535C8.90934 8.1443 9.43926 7.92481 9.99176 7.92481V1.6748C7.78165 1.6748 5.66202 2.5528 4.09922 4.1156C2.53642 5.6784 1.65845 7.798 1.65845 10.0082C1.65845 12.2182 2.53642 14.3378 4.09922 15.9007C5.66202 17.4635 7.78165 18.3415 9.99176 18.3415C12.2018 18.341 14.321 17.4627 15.8834 15.8998L11.4584 11.4748C11.2677 11.6705 11.0396 11.8259 10.7877 11.9318C10.5358 12.0378 10.2651 12.0921 9.99176 12.0915Z" fill="#CBDFFF"/>
<path d="M12.0757 10.0082C12.076 10.2807 12.0224 10.5505 11.918 10.8022C11.8135 11.0539 11.6604 11.2825 11.4673 11.4748L15.8923 15.8998C17.4552 14.3373 18.3335 12.2181 18.334 10.0082H12.0757Z" fill="#5585CD"/>
</svg>
