<svg width="20" height="20" viewBox="0 0 20 20" fill="none" xmlns="http://www.w3.org/2000/svg">
<path d="M16.6667 5H3.33341C2.41294 5 1.66675 5.74619 1.66675 6.66667V12.5C1.66675 13.4205 2.41294 14.1667 3.33341 14.1667H16.6667C17.5872 14.1667 18.3334 13.4205 18.3334 12.5V6.66667C18.3334 5.74619 17.5872 5 16.6667 5Z" fill="#737A83"/>
<path d="M5.83333 1.66666H14.1667C14.3877 1.66666 14.5997 1.75446 14.7559 1.91073C14.9122 2.06701 15 2.27897 15 2.49999V4.99999H5V2.49999C5 2.27897 5.0878 2.06701 5.24408 1.91073C5.40036 1.75446 5.61232 1.66666 5.83333 1.66666Z" fill="#E7ECEF"/>
<path d="M14.1667 10H5.83333C5.3731 10 5 10.3731 5 10.8333V17.5C5 17.9602 5.3731 18.3333 5.83333 18.3333H14.1667C14.6269 18.3333 15 17.9602 15 17.5V10.8333C15 10.3731 14.6269 10 14.1667 10Z" fill="#E7ECEF"/>
<path d="M12.0833 11.6667H7.91667C7.68655 11.6667 7.5 11.8532 7.5 12.0833V12.9167C7.5 13.1467 7.68655 13.3333 7.91667 13.3333H12.0833C12.3134 13.3333 12.5 13.1467 12.5 12.9167V12.0833C12.5 11.8532 12.3134 11.6667 12.0833 11.6667Z" fill="#C7CED5"/>
<path d="M12.0833 14.1667H7.91667C7.68655 14.1667 7.5 14.3532 7.5 14.5833V15.4167C7.5 15.6467 7.68655 15.8333 7.91667 15.8333H12.0833C12.3134 15.8333 12.5 15.6467 12.5 15.4167V14.5833C12.5 14.3532 12.3134 14.1667 12.0833 14.1667Z" fill="#C7CED5"/>
<path d="M16.8751 7.50001C16.8751 6.92471 16.4087 6.45834 15.8334 6.45834C15.2581 6.45834 14.7917 6.92471 14.7917 7.50001C14.7917 8.07531 15.2581 8.54168 15.8334 8.54168C16.4087 8.54168 16.8751 8.07531 16.8751 7.50001Z" fill="#7AD7B5"/>
</svg>
