<svg width="20" height="20" viewBox="0 0 20 20" fill="none" xmlns="http://www.w3.org/2000/svg">
<path d="M14.9999 1.66667H4.99992C4.07944 1.66667 3.33325 2.41286 3.33325 3.33334V16.6667C3.33325 17.5872 4.07944 18.3333 4.99992 18.3333H14.9999C15.9204 18.3333 16.6666 17.5872 16.6666 16.6667V3.33334C16.6666 2.41286 15.9204 1.66667 14.9999 1.66667Z" fill="#E7ECEF"/>
<path d="M10.0001 9.16667C11.1507 9.16667 12.0834 8.23392 12.0834 7.08333C12.0834 5.93274 11.1507 5 10.0001 5C8.8495 5 7.91675 5.93274 7.91675 7.08333C7.91675 8.23392 8.8495 9.16667 10.0001 9.16667Z" fill="#48AFBA"/>
<path d="M8.33341 10H11.6667C12.1087 10 12.5327 10.1756 12.8452 10.4882C13.1578 10.8008 13.3334 11.2247 13.3334 11.6667V14.1667C13.3334 14.3877 13.2456 14.5997 13.0893 14.7559C12.9331 14.9122 12.7211 15 12.5001 15H7.50008C7.27906 15 7.06709 14.9122 6.91081 14.7559C6.75453 14.5997 6.66675 14.3877 6.66675 14.1667V11.6667C6.66675 11.2247 6.84234 10.8008 7.1549 10.4882C7.46746 10.1756 7.89139 10 8.33341 10Z" fill="#48AFBA"/>
</svg>
