<svg width="20" height="20" viewBox="0 0 20 20" fill="none" xmlns="http://www.w3.org/2000/svg">
<path d="M4.7168 15.2834L15.3502 4.65009" stroke="#F57C75" stroke-width="2.5" stroke-miterlimit="10"/>
<path d="M10.0001 3.75002C11.657 3.75223 13.2454 4.41142 14.4171 5.58305C15.5887 6.75467 16.2479 8.3431 16.2501 10C16.2501 11.6576 15.5916 13.2474 14.4195 14.4194C13.2474 15.5915 11.6577 16.25 10.0001 16.25C8.3425 16.25 6.75276 15.5915 5.58066 14.4194C4.40856 13.2474 3.75008 11.6576 3.75008 10C3.75229 8.3431 4.41147 6.75467 5.5831 5.58305C6.75472 4.41142 8.34316 3.75223 10.0001 3.75002ZM10.0001 1.66669C8.90575 1.66669 7.8221 1.88225 6.81106 2.30104C5.80001 2.71982 4.88135 3.33365 4.10752 4.10747C2.54472 5.67027 1.66675 7.78989 1.66675 10C1.66675 12.2102 2.54472 14.3298 4.10752 15.8926C4.88135 16.6664 5.80001 17.2803 6.81106 17.699C7.8221 18.1178 8.90575 18.3334 10.0001 18.3334C12.2102 18.3334 14.3298 17.4554 15.8927 15.8926C17.4554 14.3298 18.3334 12.2102 18.3334 10C18.3334 7.78989 17.4554 5.67027 15.8927 4.10747C14.3298 2.54467 12.2102 1.66669 10.0001 1.66669Z" fill="#F57C75"/>
</svg>
