<svg width="20" height="20" viewBox="0 0 20 20" fill="none" xmlns="http://www.w3.org/2000/svg">
<g clip-path="url(#clip0_559_42877)">
<mask id="mask0_559_42877" style="mask-type:luminance" maskUnits="userSpaceOnUse" x="0" y="0" width="20" height="20">
<path d="M20 0H0V20H20V0Z" fill="white"/>
</mask>
<g mask="url(#mask0_559_42877)">
<path d="M12.2851 2.18976C11.8865 1.95964 11.3768 2.0962 11.1467 2.49478C10.9166 2.89336 11.0531 3.40301 11.4517 3.63313L16.5036 6.5498C16.9021 6.77991 17.4118 6.64336 17.6419 6.24478C17.872 5.8462 17.7355 5.33654 17.3369 5.10642L12.2851 2.18976Z" fill="#707070"/>
<path d="M16.6667 5H3.33341C2.41294 5 1.66675 5.74619 1.66675 6.66667V15C1.66675 15.9205 2.41294 16.6667 3.33341 16.6667H16.6667C17.5872 16.6667 18.3334 15.9205 18.3334 15V6.66667C18.3334 5.74619 17.5872 5 16.6667 5Z" fill="#C7CED5"/>
<path d="M10.0001 9.58331V8.74998C10.0001 8.5199 9.8135 8.33331 9.58342 8.33331H4.58341C4.3533 8.33331 4.16675 8.5199 4.16675 8.74998V9.58331C4.16675 9.8134 4.3533 9.99998 4.58341 9.99998H9.58342C9.8135 9.99998 10.0001 9.8134 10.0001 9.58331Z" fill="#E7ECEF"/>
<path d="M10.0001 12.9167V12.0833C10.0001 11.8532 9.8135 11.6667 9.58342 11.6667H4.58341C4.3533 11.6667 4.16675 11.8532 4.16675 12.0833V12.9167C4.16675 13.1467 4.3533 13.3333 4.58341 13.3333H9.58342C9.8135 13.3333 10.0001 13.1467 10.0001 12.9167Z" fill="#E7ECEF"/>
<path d="M14.1667 13.3333C15.5475 13.3333 16.6667 12.2141 16.6667 10.8333C16.6667 9.45256 15.5475 8.33331 14.1667 8.33331C12.786 8.33331 11.6667 9.45256 11.6667 10.8333C11.6667 12.2141 12.786 13.3333 14.1667 13.3333Z" fill="#707070"/>
</g>
</g>
<defs>
<clipPath id="clip0_559_42877">
<rect width="20" height="20" fill="white"/>
</clipPath>
</defs>
</svg>
