<svg width="20" height="20" viewBox="0 0 20 20" fill="none" xmlns="http://www.w3.org/2000/svg">
<path d="M10.4167 0.833328H9.58333C7.74238 0.833328 6.25 2.32571 6.25 4.16666V9.99999C6.25 11.8409 7.74238 13.3333 9.58333 13.3333H10.4167C12.2576 13.3333 13.75 11.8409 13.75 9.99999V4.16666C13.75 2.32571 12.2576 0.833328 10.4167 0.833328Z" fill="#707070"/>
<path fill-rule="evenodd" clip-rule="evenodd" d="M4.79159 7.50815V10.0082C4.79159 11.2789 5.29644 12.4978 6.19507 13.3964C7.09368 14.295 8.31242 14.7998 9.58325 14.7998H10.4166C11.6874 14.7998 12.9063 14.295 13.8048 13.3964C14.7034 12.4978 15.2083 11.279 15.2083 10.0082V7.50815H17.2916V10.0082C17.2916 11.8315 16.5673 13.5802 15.278 14.8695C13.9887 16.1588 12.2399 16.8832 10.4166 16.8832H9.58325C7.75989 16.8832 6.01124 16.1588 4.72193 14.8695C3.43262 13.5803 2.70825 11.8315 2.70825 10.0082V7.50815H4.79159Z" fill="#E2E2E2"/>
<path fill-rule="evenodd" clip-rule="evenodd" d="M11.0416 15.4167V19.1667H8.95825V15.4167H11.0416Z" fill="#E2E2E2"/>
</svg>
