<svg width="20" height="20" viewBox="0 0 20 20" fill="none" xmlns="http://www.w3.org/2000/svg">
<path d="M7.49992 6.66667L3.33325 2.5V6.66667H7.49992Z" fill="#A0A6AB"/>
<path fill-rule="evenodd" clip-rule="evenodd" d="M9.99991 1.67481C11.0936 1.67369 12.1768 1.88808 13.1877 2.30578C14.1987 2.72358 15.1177 3.33659 15.8917 4.10977C16.6657 4.88294 17.2798 5.80112 17.6988 6.81177C18.1177 7.82243 18.3334 8.90575 18.3334 9.99983C18.3334 12.2099 17.4554 14.3296 15.8927 15.8923C14.3298 17.4552 12.2102 18.3332 10.0001 18.3332C7.78995 18.3332 5.67033 17.4552 4.10752 15.8923C2.54472 14.3296 1.66675 12.2099 1.66675 9.99983H3.75008C3.75008 11.6574 4.40856 13.2472 5.58066 14.4193C6.75276 15.5913 8.3425 16.2498 10.0001 16.2498C11.6577 16.2498 13.2474 15.5913 14.4195 14.4193C15.5916 13.2472 16.2501 11.6574 16.2501 9.99983C16.2501 9.1795 16.0884 8.36733 15.7742 7.60958C15.4602 6.85183 14.9997 6.16343 14.4194 5.58375C13.8391 5.00407 13.1502 4.54446 12.3921 4.23121C11.6339 3.91795 10.8216 3.7572 10.0012 3.75814H9.99933C9.17783 3.75753 8.36441 3.91993 7.60618 4.23596C6.84795 4.55199 6.15997 5.01537 5.58211 5.59923L4.10139 4.13371C4.87315 3.35393 5.792 2.73506 6.80468 2.31298C7.81707 1.89101 8.90308 1.67412 9.99991 1.67481Z" fill="#A0A6AB"/>
<path fill-rule="evenodd" clip-rule="evenodd" d="M8.95825 6.66669H11.0416V9.89527L13.4074 11.6661L12.159 13.3339L8.95825 10.9381V6.66669Z" fill="#A0A6AB"/>
</svg>
