<svg width="20" height="20" viewBox="0 0 20 20" fill="none" xmlns="http://www.w3.org/2000/svg">
<g clip-path="url(#clip0_559_42903)">
<mask id="mask0_559_42903" style="mask-type:luminance" maskUnits="userSpaceOnUse" x="0" y="0" width="20" height="20">
<path d="M20 0H0V20H20V0Z" fill="white"/>
</mask>
<g mask="url(#mask0_559_42903)">
<path d="M12.5 7.5L17.5 2.5V7.5H12.5Z" fill="#6B758F"/>
<path fill-rule="evenodd" clip-rule="evenodd" d="M10.0072 3.75002C9.18629 3.74908 8.37337 3.91007 7.61476 4.22377C6.85619 4.53747 6.16695 4.99772 5.58651 5.57816C5.00607 6.15861 4.54582 6.84784 4.23212 7.6064C3.91842 8.36493 3.75745 9.17793 3.75838 9.99885L3.75839 10C3.75839 10.8203 3.92007 11.6325 4.23419 12.3903C4.54832 13.148 5.0087 13.8364 5.58905 14.4161C6.16939 14.9958 6.85832 15.4553 7.61642 15.7686C8.37454 16.0818 9.18695 16.2426 10.0072 16.2417H10.0084C11.6638 16.2417 13.2514 15.5841 14.4219 14.4135C15.5925 13.243 16.25 11.6554 16.25 10H18.3334C18.3334 12.2079 17.4563 14.3254 15.895 15.8867C14.3341 17.4476 12.217 18.3247 10.0095 18.325M10.0085 1.66669C8.91404 1.66557 7.83004 1.88029 6.81861 2.29857C5.80685 2.71697 4.88756 3.33084 4.11338 4.10502C3.3392 4.8792 2.72532 5.79848 2.30691 6.81025C1.88858 7.82182 1.67388 8.90593 1.67505 10.0006C1.67513 11.0945 1.89079 12.1776 2.30967 13.1881C2.72864 14.1987 3.34269 15.1168 4.11675 15.89C4.89081 16.6633 5.80969 17.2763 6.82082 17.694C7.83159 18.1117 8.9147 18.3261 10.0084 18.325M10.0085 1.66669C11.1019 1.66582 12.1846 1.88076 13.1947 2.29919C14.2052 2.71776 15.123 3.33172 15.8956 4.10583L14.4211 5.57754C13.8422 4.99753 13.1545 4.53753 12.3975 4.22392C11.6404 3.91031 10.8288 3.74927 10.0094 3.75002L10.0072 3.75002" fill="#6B758F"/>
</g>
</g>
<defs>
<clipPath id="clip0_559_42903">
<rect width="20" height="20" fill="white"/>
</clipPath>
</defs>
</svg>
