<svg width="20" height="20" viewBox="0 0 20 20" fill="none" xmlns="http://www.w3.org/2000/svg">
<path d="M15.8333 6.66666H4.16667C3.24619 6.66666 2.5 7.41285 2.5 8.33332V16.6667C2.5 17.5872 3.24619 18.3333 4.16667 18.3333H15.8333C16.7538 18.3333 17.5 17.5872 17.5 16.6667V8.33332C17.5 7.41285 16.7538 6.66666 15.8333 6.66666Z" fill="#FFC738"/>
<path fill-rule="evenodd" clip-rule="evenodd" d="M10.0001 2.70833C9.17125 2.70833 8.37641 3.03758 7.79036 3.62363C7.20431 4.20968 6.87508 5.00452 6.87508 5.83333V6.66667H4.79175V5.83333C4.79175 4.45201 5.34046 3.12725 6.31721 2.15049C7.29396 1.17374 8.61875 0.625 10.0001 0.625C11.3814 0.625 12.7062 1.17375 13.6829 2.15049C14.6597 3.12724 15.2084 4.45199 15.2084 5.83333V6.66667H13.1251V5.83333C13.1251 5.00454 12.7958 4.20969 12.2097 3.62363C11.6237 3.03758 10.8289 2.70833 10.0001 2.70833Z" fill="#737A83"/>
<path d="M10.2083 10.8333H9.79159C9.33134 10.8333 8.95825 11.2064 8.95825 11.6667V13.3333C8.95825 13.7936 9.33134 14.1667 9.79159 14.1667H10.2083C10.6685 14.1667 11.0416 13.7936 11.0416 13.3333V11.6667C11.0416 11.2064 10.6685 10.8333 10.2083 10.8333Z" fill="#737A83"/>
</svg>
