<svg width="20" height="20" viewBox="0 0 20 20" fill="none" xmlns="http://www.w3.org/2000/svg">
<g clip-path="url(#clip0_559_42849)">
<mask id="mask0_559_42849" style="mask-type:luminance" maskUnits="userSpaceOnUse" x="0" y="0" width="20" height="20">
<path d="M20 0H0V20H20V0Z" fill="white"/>
</mask>
<g mask="url(#mask0_559_42849)">
<path d="M10.0002 14.1667C9.42516 14.1667 8.9585 13.7 8.9585 13.125V9.16667C8.9585 8.59167 9.42516 8.125 10.0002 8.125C10.5752 8.125 11.0418 8.59167 11.0418 9.16667V13.125C11.0418 13.7 10.5752 14.1667 10.0002 14.1667Z" fill="#6B758F"/>
<path d="M10.0002 17.9417C9.42516 17.9417 8.9585 17.475 8.9585 16.9V16.0417C8.9585 15.4667 9.42516 15 10.0002 15C10.5752 15 11.0418 15.4667 11.0418 16.0417V16.9C11.0418 17.475 10.5752 17.9417 10.0002 17.9417Z" fill="#6B758F"/>
<path d="M16.6669 13.5417C16.0919 13.5417 15.6252 13.075 15.6252 12.5V9.16668C15.6252 6.06668 13.1002 3.54168 10.0002 3.54168C8.00021 3.54168 6.13355 4.61668 5.12521 6.35834C4.83355 6.85834 4.20021 7.02501 3.70021 6.74168C3.20021 6.45001 3.03355 5.81668 3.31688 5.31668C4.70021 2.93334 7.25855 1.45834 10.0002 1.45834C14.2502 1.45834 17.7085 4.91668 17.7085 9.16668V12.5C17.7085 13.075 17.2419 13.5417 16.6669 13.5417Z" fill="#6B758F"/>
<path d="M6.66667 16.875C6.09167 16.875 5.625 16.4084 5.625 15.8334V9.16669C5.625 6.75835 7.58333 4.79169 10 4.79169C12.4167 4.79169 14.375 6.75835 14.375 9.16669V11.6667C14.375 12.2417 13.9083 12.7084 13.3333 12.7084C12.7583 12.7084 12.2917 12.2417 12.2917 11.6667V9.16669C12.2917 7.90002 11.2667 6.87502 10 6.87502C8.73333 6.87502 7.70833 7.90002 7.70833 9.16669V15.8334C7.70833 16.4084 7.24167 16.875 6.66667 16.875Z" fill="#6B758F"/>
<path d="M3.33341 13.5417C2.75841 13.5417 2.29175 13.075 2.29175 12.5V9.16667C2.29175 8.59167 2.75841 8.125 3.33341 8.125C3.90841 8.125 4.37508 8.59167 4.37508 9.16667V12.5C4.37508 13.075 3.90841 13.5417 3.33341 13.5417Z" fill="#6B758F"/>
<path d="M13.3334 16.875C12.7584 16.875 12.2917 16.4083 12.2917 15.8333V14.6167C12.2917 14.0417 12.7584 13.575 13.3334 13.575C13.9084 13.575 14.3751 14.0417 14.3751 14.6167V15.8333C14.3751 16.4083 13.9084 16.875 13.3334 16.875Z" fill="#6B758F"/>
</g>
</g>
<defs>
<clipPath id="clip0_559_42849">
<rect width="20" height="20" fill="white"/>
</clipPath>
</defs>
</svg>
