<svg width="20" height="20" viewBox="0 0 20 20" fill="none" xmlns="http://www.w3.org/2000/svg">
<path d="M8.75008 14.3417C11.8383 14.3417 14.3418 11.8383 14.3418 8.75C14.3418 5.66185 11.8383 3.15837 8.75008 3.15837C5.66191 3.15837 3.15845 5.66185 3.15845 8.75C3.15845 11.8383 5.66191 14.3417 8.75008 14.3417Z" fill="#EFF7FF"/>
<path d="M8.75008 3.75001C10.0762 3.75001 11.3479 4.27679 12.2856 5.21446C13.2232 6.15215 13.7501 7.42392 13.7501 8.75001C13.7501 10.0761 13.2232 11.3478 12.2856 12.2855C11.3479 13.2233 10.0762 13.75 8.75008 13.75C7.424 13.75 6.15222 13.2233 5.21454 12.2855C4.27686 11.3478 3.75008 10.0761 3.75008 8.75001C3.75008 7.42392 4.27686 6.15215 5.21454 5.21446C6.15222 4.27679 7.424 3.75001 8.75008 3.75001ZM8.75008 1.66667C6.87214 1.66888 5.07174 2.41587 3.74384 3.74377C2.41593 5.07168 1.66896 6.87206 1.66675 8.75001C1.66675 9.68017 1.84996 10.6013 2.20593 11.4607C2.5619 12.3201 3.08366 13.1009 3.74141 13.7587C4.39916 14.4164 5.18001 14.9382 6.03941 15.2942C6.8988 15.6501 7.81988 15.8333 8.75008 15.8333C9.68058 15.8344 10.6022 15.652 11.4621 15.2964C12.3219 14.9408 13.1032 14.4191 13.7612 13.7611C14.4192 13.1032 14.9409 12.3218 15.2965 11.462C15.6521 10.6021 15.8345 9.68051 15.8334 8.75001C15.8334 6.87139 15.0872 5.06971 13.7587 3.74133C12.4303 2.41295 10.6287 1.66667 8.75008 1.66667Z" fill="#737A83"/>
<path fill-rule="evenodd" clip-rule="evenodd" d="M13.7377 12.2557L18.2377 16.764L16.7632 18.2357L12.2632 13.7274L13.7377 12.2557Z" fill="#737A83"/>
</svg>
