<svg width="20" height="20" viewBox="0 0 20 20" fill="none" xmlns="http://www.w3.org/2000/svg">
<path d="M16.2501 2.5H3.75008C3.28985 2.5 2.91675 2.8731 2.91675 3.33333V5.83333C2.91675 6.29357 3.28985 6.66667 3.75008 6.66667H16.2501C16.7103 6.66667 17.0834 6.29357 17.0834 5.83333V3.33333C17.0834 2.8731 16.7103 2.5 16.2501 2.5Z" fill="#707070"/>
<path d="M9.58342 3.75H4.58341C4.3533 3.75 4.16675 3.93655 4.16675 4.16667V5C4.16675 5.23012 4.3533 5.41667 4.58341 5.41667H9.58342C9.8135 5.41667 10.0001 5.23012 10.0001 5V4.16667C10.0001 3.93655 9.8135 3.75 9.58342 3.75Z" fill="#E8E8E8"/>
<path d="M14.5834 5.62499C15.1587 5.62499 15.6251 5.15862 15.6251 4.58332C15.6251 4.00802 15.1587 3.54166 14.5834 3.54166C14.0081 3.54166 13.5417 4.00802 13.5417 4.58332C13.5417 5.15862 14.0081 5.62499 14.5834 5.62499Z" fill="#84CA00"/>
<path d="M16.2501 7.91666H3.75008C3.28985 7.91666 2.91675 8.28976 2.91675 8.74999V11.25C2.91675 11.7102 3.28985 12.0833 3.75008 12.0833H16.2501C16.7103 12.0833 17.0834 11.7102 17.0834 11.25V8.74999C17.0834 8.28976 16.7103 7.91666 16.2501 7.91666Z" fill="#707070"/>
<path d="M14.5834 11.0417C15.1587 11.0417 15.6251 10.5753 15.6251 10C15.6251 9.42468 15.1587 8.95834 14.5834 8.95834C14.0081 8.95834 13.5417 9.42468 13.5417 10C13.5417 10.5753 14.0081 11.0417 14.5834 11.0417Z" fill="#FFA36F"/>
<path d="M16.2501 13.3333H3.75008C3.28985 13.3333 2.91675 13.7064 2.91675 14.1667V16.6667C2.91675 17.1269 3.28985 17.5 3.75008 17.5H16.2501C16.7103 17.5 17.0834 17.1269 17.0834 16.6667V14.1667C17.0834 13.7064 16.7103 13.3333 16.2501 13.3333Z" fill="#707070"/>
<path d="M14.5834 16.4583C15.1587 16.4583 15.6251 15.992 15.6251 15.4167C15.6251 14.8413 15.1587 14.375 14.5834 14.375C14.0081 14.375 13.5417 14.8413 13.5417 15.4167C13.5417 15.992 14.0081 16.4583 14.5834 16.4583Z" fill="#84CA00"/>
<path d="M9.58342 9.16666H4.58341C4.3533 9.16666 4.16675 9.35324 4.16675 9.58332V10.4167C4.16675 10.6467 4.3533 10.8333 4.58341 10.8333H9.58342C9.8135 10.8333 10.0001 10.6467 10.0001 10.4167V9.58332C10.0001 9.35324 9.8135 9.16666 9.58342 9.16666Z" fill="#E8E8E8"/>
<path d="M9.58342 14.5833H4.58341C4.3533 14.5833 4.16675 14.7699 4.16675 15V15.8333C4.16675 16.0634 4.3533 16.25 4.58341 16.25H9.58342C9.8135 16.25 10.0001 16.0634 10.0001 15.8333V15C10.0001 14.7699 9.8135 14.5833 9.58342 14.5833Z" fill="#E8E8E8"/>
</svg>
