<svg width="20" height="20" viewBox="0 0 20 20" fill="none" xmlns="http://www.w3.org/2000/svg">
<path d="M10.0001 16.4583C13.5669 16.4583 16.4584 13.5668 16.4584 10C16.4584 6.43316 13.5669 3.54167 10.0001 3.54167C6.43324 3.54167 3.54175 6.43316 3.54175 10C3.54175 13.5668 6.43324 16.4583 10.0001 16.4583Z" fill="#C7CED5"/>
<path d="M8.33333 1.66667H11.6667C11.8877 1.66667 12.0997 1.75447 12.2559 1.91075C12.4122 2.06703 12.5 2.27899 12.5 2.50001V4.16667H7.5V2.50001C7.5 2.27899 7.5878 2.06703 7.74407 1.91075C7.90036 1.75447 8.11232 1.66667 8.33333 1.66667Z" fill="#C7CED5"/>
<path d="M1.95075 7.28287L3.61741 4.39612C3.72792 4.20472 3.90995 4.06504 4.12344 4.00784C4.33692 3.95064 4.56436 3.98059 4.75577 4.0911L6.19915 4.92443L3.69915 9.25458L2.25577 8.42125C2.06436 8.31072 1.92471 8.1287 1.86751 7.91522C1.81031 7.70173 1.84024 7.47427 1.95075 7.28287Z" fill="#C7CED5"/>
<path d="M3.61816 15.6162L1.95149 12.7294C1.84098 12.5381 1.81104 12.3106 1.86824 12.0971C1.92544 11.8836 2.06511 11.7016 2.25651 11.5911L3.69988 10.7578L6.19988 15.0879L4.75651 15.9213C4.56511 16.0318 4.33765 16.0617 4.12417 16.0044C3.91068 15.9473 3.72867 15.8076 3.61816 15.6162Z" fill="#C7CED5"/>
<path d="M11.6586 18.3333H8.32528C8.10427 18.3333 7.89232 18.2455 7.73604 18.0892C7.57976 17.933 7.49194 17.721 7.49194 17.5V15.8333H12.4919V17.5C12.4919 17.721 12.4042 17.933 12.2479 18.0892C12.0916 18.2455 11.8797 18.3333 11.6586 18.3333Z" fill="#C7CED5"/>
<path d="M18.0443 12.7302L16.3776 15.6169C16.2671 15.8083 16.0851 15.948 15.8716 16.0052C15.6581 16.0624 15.4307 16.0324 15.2393 15.9219L13.7959 15.0886L16.2959 10.7585L17.7393 11.5918C17.9307 11.7023 18.0704 11.8843 18.1276 12.0978C18.1847 12.3112 18.1548 12.5387 18.0443 12.7302Z" fill="#C7CED5"/>
<path d="M16.3786 4.39682L18.0453 7.28357C18.1558 7.47498 18.1857 7.70245 18.1285 7.91593C18.0713 8.12942 17.9317 8.31142 17.7403 8.42192L16.2969 9.25525L13.7969 4.92513L15.2403 4.0918C15.4317 3.98129 15.6591 3.95136 15.8726 4.00857C16.0861 4.06577 16.2681 4.20542 16.3786 4.39682Z" fill="#C7CED5"/>
<path d="M10.0001 12.0833C11.1507 12.0833 12.0834 11.1506 12.0834 10C12.0834 8.84942 11.1507 7.91667 10.0001 7.91667C8.8495 7.91667 7.91675 8.84942 7.91675 10C7.91675 11.1506 8.8495 12.0833 10.0001 12.0833Z" fill="white"/>
</svg>
