<svg width="20" height="20" viewBox="0 0 20 20" fill="none" xmlns="http://www.w3.org/2000/svg">
<path fill-rule="evenodd" clip-rule="evenodd" d="M13.6418 3.26691L14.6915 5.06645L6.23402 10L14.6915 14.9336L13.6418 16.7331L2.09937 10L13.6418 3.26691Z" fill="#E1E6EA"/>
<path d="M4.16675 12.5C5.54746 12.5 6.66675 11.3807 6.66675 10C6.66675 8.61925 5.54746 7.5 4.16675 7.5C2.78604 7.5 1.66675 8.61925 1.66675 10C1.66675 11.3807 2.78604 12.5 4.16675 12.5Z" fill="#737A83"/>
<path d="M14.1667 6.66667C15.5475 6.66667 16.6667 5.54738 16.6667 4.16667C16.6667 2.78596 15.5475 1.66667 14.1667 1.66667C12.786 1.66667 11.6667 2.78596 11.6667 4.16667C11.6667 5.54738 12.786 6.66667 14.1667 6.66667Z" fill="#737A83"/>
<path d="M14.1667 18.3333C15.5475 18.3333 16.6667 17.2141 16.6667 15.8333C16.6667 14.4526 15.5475 13.3333 14.1667 13.3333C12.786 13.3333 11.6667 14.4526 11.6667 15.8333C11.6667 17.2141 12.786 18.3333 14.1667 18.3333Z" fill="#737A83"/>
</svg>
