<svg width="20" height="20" viewBox="0 0 20 20" fill="none" xmlns="http://www.w3.org/2000/svg">
<path d="M12.5089 9.17484L10.0089 11.6748H1.67562C1.45461 11.6748 1.24264 11.7626 1.08636 11.9189C0.930085 12.0752 0.842285 12.2871 0.842285 12.5082V15.8415C0.842285 16.2835 1.01788 16.7074 1.33044 17.02C1.643 17.3325 2.06693 17.5082 2.50895 17.5082H11.6756C13.6648 17.5082 15.5724 16.718 16.9789 15.3114C18.3854 13.9049 19.1756 11.9973 19.1756 10.0082V9.17484H12.5089Z" fill="#E2E2E2"/>
<path d="M3.35848 5H8.35851C8.5795 5 8.79142 5.08781 8.94775 5.24409C9.104 5.40037 9.19184 5.61232 9.19184 5.83333V11.6667H2.52515V5.83333C2.52515 5.61232 2.61295 5.40037 2.76924 5.24409C2.92552 5.08781 3.13747 5 3.35848 5Z" fill="#737A83"/>
<path d="M6.6757 2.5H5.00903V5H6.6757V2.5Z" fill="#F57C75"/>
</svg>
