<svg width="20" height="20" viewBox="0 0 20 20" fill="none" xmlns="http://www.w3.org/2000/svg">
<path d="M14.1666 8.3335H0.833252V12.5002H14.1666V8.3335Z" fill="#6B758F"/>
<path d="M15.8334 8.34158H14.1667L11.6667 12.5082H19.1667V10.8416C19.1667 8.99992 17.6751 8.34158 15.8334 8.34158Z" fill="#6B758F"/>
<path d="M0.833252 14.1749C0.833252 14.617 1.00884 15.0409 1.3214 15.3535C1.63397 15.666 2.05789 15.8416 2.49992 15.8416H17.4999C17.9419 15.8416 18.3658 15.666 18.6784 15.3535C18.991 15.0409 19.1666 14.617 19.1666 14.1749V12.5082H0.833252V14.1749Z" fill="#E7ECEF"/>
<path d="M14.1666 8.34159L8.33325 5.0083H2.49992C2.05789 5.0083 1.63397 5.18389 1.3214 5.49645C1.00884 5.80902 0.833252 6.23294 0.833252 6.67497V8.34159H14.1666Z" fill="#6B758F"/>
<path d="M13.6969 8.07049L12.2535 7.23715L11.4202 8.68051L12.8636 9.51384L13.6969 8.07049Z" fill="white"/>
<path d="M10.8305 6.41683L9.38704 5.5835L8.55371 7.02687L9.99713 7.8602L10.8305 6.41683Z" fill="white"/>
</svg>
