<svg width="20" height="20" viewBox="0 0 20 20" fill="none" xmlns="http://www.w3.org/2000/svg">
<path fill-rule="evenodd" clip-rule="evenodd" d="M7.5722 4.32208C6.85356 5.06152 6.12989 6.2567 5.63215 7.74135L5.62945 7.7494C4.78351 10.2061 4.79194 11.9823 5.0981 13.2348C5.1582 13.1539 5.21804 13.0718 5.27761 12.9887C6.52823 11.2439 7.56269 9.15899 8.1912 7.28877C8.8525 5.266 8.84291 4.19572 8.75216 3.70088C8.74225 3.64683 8.73141 3.59993 8.72041 3.55951C8.47366 3.6084 8.08665 3.79275 7.5722 4.32208ZM9.33575 2.58102L9.90758 1.71036L9.802 1.64102L9.68291 1.59892C8.32128 1.11751 6.9985 1.92318 6.0782 2.87011C5.09796 3.87872 4.23251 5.36384 3.65823 7.07507C2.5236 10.3724 2.6761 12.8407 3.35401 14.6343C3.40715 14.7749 3.46323 14.9107 3.52177 15.0415C2.77994 15.7472 2.03011 16.2587 1.30981 16.5213L2.02356 18.4786C2.9553 18.1388 3.84131 17.5547 4.66301 16.8224C5.0899 17.3062 5.50751 17.6404 5.8114 17.8505L5.81406 17.8523C6.12089 18.063 6.49613 18.1536 6.86816 18.1024C7.23973 18.0513 7.57508 17.8636 7.81342 17.5813L9.66516 15.3484L10.2043 17.004C10.2812 17.2434 10.4204 17.4603 10.6103 17.6306C10.802 17.8023 11.0378 17.9197 11.2936 17.9677C11.5497 18.0157 11.8134 17.9917 12.056 17.899C12.2983 17.8065 12.5087 17.6497 12.6665 17.4482L12.6742 17.4384L14.1248 15.4913L14.5977 17.036L14.6007 17.0454C14.6772 17.287 14.817 17.506 15.0083 17.6775C15.2 17.8492 15.4358 17.9667 15.6916 18.0146C15.9477 18.0626 16.2114 18.0385 16.454 17.9459C16.6963 17.8533 16.9067 17.6967 17.0645 17.4951L17.0727 17.4847L19.1697 14.6609L17.4971 13.4188L16.2027 15.1618L15.7306 13.6198C15.6578 13.3732 15.519 13.1486 15.3258 12.9727C15.1292 12.7935 14.8846 12.6724 14.6192 12.6265C14.3536 12.5806 14.0811 12.6124 13.834 12.7172C13.5938 12.8189 13.3892 12.9844 13.2397 13.1924L11.7884 15.1402L11.2733 13.559C11.2001 13.321 11.0648 13.1041 10.8786 12.9327C10.6866 12.7561 10.4484 12.6353 10.1897 12.5862C9.93075 12.5369 9.66341 12.5618 9.41808 12.6577C9.183 12.7497 8.97941 12.9023 8.82583 13.0968L6.58021 15.8048C6.43356 15.6717 6.27379 15.5085 6.11315 15.3122C6.41204 14.9547 6.69838 14.5827 6.97091 14.2024C8.34908 12.2797 9.47641 10.0059 10.1674 7.94811L10.17 7.94039C10.891 5.73659 10.9784 4.29017 10.8012 3.32485C10.7113 2.83501 10.5529 2.46843 10.3754 2.1994C10.2874 2.06608 10.1978 1.9614 10.1156 1.88065C10.0747 1.84044 10.0359 1.8066 10.0007 1.77839C9.98316 1.7643 9.9665 1.75165 9.95091 1.74033C9.94316 1.73468 9.93566 1.72937 9.92841 1.72438L9.91775 1.71713L9.91266 1.71368L9.91008 1.71201C9.91008 1.71201 9.90758 1.71036 9.33575 2.58102Z" fill="#6B758F"/>
</svg>
