<svg width="20" height="20" viewBox="0 0 20 20" fill="none" xmlns="http://www.w3.org/2000/svg">
<path d="M13.3334 0.833344H6.66675C5.28604 0.833344 4.16675 1.95264 4.16675 3.33334V16.6667C4.16675 18.0474 5.28604 19.1667 6.66675 19.1667H13.3334C14.7142 19.1667 15.8334 18.0474 15.8334 16.6667V3.33334C15.8334 1.95264 14.7142 0.833344 13.3334 0.833344Z" fill="#737A83"/>
<path d="M13.3333 2.5H6.66659C6.20635 2.5 5.83325 2.8731 5.83325 3.33333V16.6667C5.83325 17.1269 6.20635 17.5 6.66659 17.5H13.3333C13.7935 17.5 14.1666 17.1269 14.1666 16.6667V3.33333C14.1666 2.8731 13.7935 2.5 13.3333 2.5Z" fill="url(#paint0_linear_559_42860)"/>
<path d="M10.8333 1.66666H9.16659C8.70634 1.66666 8.33325 2.03976 8.33325 2.49999C8.33325 2.96022 8.70634 3.33332 9.16659 3.33332H10.8333C11.2935 3.33332 11.6666 2.96022 11.6666 2.49999C11.6666 2.03976 11.2935 1.66666 10.8333 1.66666Z" fill="#737A83"/>
<defs>
<linearGradient id="paint0_linear_559_42860" x1="5.83325" y1="2.5" x2="14.1666" y2="17.5" gradientUnits="userSpaceOnUse">
<stop stop-color="#C6BFF7"/>
<stop offset="1" stop-color="#FEDFEE"/>
</linearGradient>
</defs>
</svg>
