<svg width="20" height="20" viewBox="0 0 20 20" fill="none" xmlns="http://www.w3.org/2000/svg">
<path d="M14.1667 0.833344H5.83341C4.91294 0.833344 4.16675 1.57954 4.16675 2.50001V17.5C4.16675 18.4205 4.91294 19.1667 5.83341 19.1667H14.1667C15.0872 19.1667 15.8334 18.4205 15.8334 17.5V2.50001C15.8334 1.57954 15.0872 0.833344 14.1667 0.833344Z" fill="#707070"/>
<path d="M14.1666 4.16666H5.83325V15H14.1666V4.16666Z" fill="white"/>
<path d="M11.6666 2.08334H8.33325V2.91668H11.6666V2.08334Z" fill="#C7CED5"/>
<path d="M10 18.3333C10.6903 18.3333 11.25 17.7737 11.25 17.0833C11.25 16.393 10.6903 15.8333 10 15.8333C9.30967 15.8333 8.75 16.393 8.75 17.0833C8.75 17.7737 9.30967 18.3333 10 18.3333Z" fill="#C7CED5"/>
</svg>
