<svg width="20" height="20" viewBox="0 0 20 20" fill="none" xmlns="http://www.w3.org/2000/svg">
<path d="M4.99992 3.33334H14.9999C15.4419 3.33334 15.8659 3.50894 16.1784 3.82149C16.491 4.13406 16.6666 4.55799 16.6666 5.00001V11.6667H3.33325V5.00001C3.33325 4.55799 3.50887 4.13406 3.82144 3.82149C4.13399 3.50894 4.55789 3.33334 4.99992 3.33334Z" fill="#D2C5B8"/>
<path fill-rule="evenodd" clip-rule="evenodd" d="M3.33341 13.9583C3.90871 13.9583 4.37508 14.4247 4.37508 15V16.6667C4.37508 17.242 3.90871 17.7083 3.33341 17.7083C2.75811 17.7083 2.29175 17.242 2.29175 16.6667V15C2.29175 14.4247 2.75811 13.9583 3.33341 13.9583Z" fill="#707070"/>
<path fill-rule="evenodd" clip-rule="evenodd" d="M16.6667 13.9583C17.242 13.9583 17.7083 14.4247 17.7083 15V16.6667C17.7083 17.242 17.242 17.7083 16.6667 17.7083C16.0913 17.7083 15.625 17.242 15.625 16.6667V15C15.625 14.4247 16.0913 13.9583 16.6667 13.9583Z" fill="#707070"/>
<path d="M0.833252 11.6667H19.1666V15C19.1666 15.221 19.0788 15.433 18.9226 15.5892C18.7663 15.7455 18.5543 15.8333 18.3333 15.8333H1.66659C1.44557 15.8333 1.23362 15.7455 1.07734 15.5892C0.92106 15.433 0.833252 15.221 0.833252 15V11.6667Z" fill="#9C9188"/>
<path d="M17.5001 7.5H18.3334C18.5544 7.5 18.7664 7.5878 18.9227 7.74407C19.079 7.90036 19.1667 8.11232 19.1667 8.33333V14.1667H16.6667V8.33333C16.6667 8.11232 16.7546 7.90036 16.9108 7.74407C17.0671 7.5878 17.2791 7.5 17.5001 7.5Z" fill="#9C9188"/>
<path d="M1.66659 7.5H2.49992C2.72094 7.5 2.93294 7.5878 3.08921 7.74407C3.24549 7.90036 3.33325 8.11232 3.33325 8.33333V14.1667H0.833252V8.33333C0.833252 8.11232 0.92106 7.90036 1.07734 7.74407C1.23362 7.5878 1.44557 7.5 1.66659 7.5Z" fill="#9C9188"/>
</svg>
