<svg width="20" height="20" viewBox="0 0 20 20" fill="none" xmlns="http://www.w3.org/2000/svg">
<path d="M3.33333 5.83334H6.66667V14.1667H3.33333C3.11232 14.1667 2.90037 14.0788 2.74409 13.9226C2.58781 13.7663 2.5 13.5543 2.5 13.3333V6.66668C2.5 6.44566 2.58781 6.23369 2.74409 6.07741C2.90037 5.92113 3.11232 5.83334 3.33333 5.83334Z" fill="#737A83"/>
<path d="M6.66675 5.83332L11.6667 1.66666V18.3333L6.66675 14.1667V5.83332Z" fill="#737A83"/>
<path d="M19.1668 10.0088C19.1626 8.81751 18.9031 7.64096 18.4057 6.5585C17.9083 5.47604 17.1846 4.51281 16.2834 3.73373L15.1001 4.90873C15.8483 5.53194 16.451 6.31151 16.8656 7.19261C17.2803 8.07371 17.4968 9.03493 17.5001 10.0088C17.4956 10.9811 17.2784 11.9408 16.8638 12.8203C16.4493 13.6998 15.8473 14.4781 15.1001 15.1004L16.2834 16.2754C17.1836 15.4973 17.9066 14.5353 18.404 13.4544C18.9013 12.3735 19.1614 11.1986 19.1668 10.0088Z" fill="#88BFFF"/>
<path d="M15.8337 10.0086C15.8285 9.25407 15.6526 8.51058 15.3193 7.83373C14.9858 7.15688 14.5037 6.56425 13.9087 6.10025L12.7253 7.29192C13.1662 7.59569 13.5273 8.00117 13.7783 8.47407C14.0292 8.94691 14.1625 9.47324 14.167 10.0086C14.1585 10.5397 14.0233 11.061 13.7725 11.5292C13.5218 11.9974 13.1627 12.3989 12.7253 12.7002L13.9087 13.8836C14.4993 13.4231 14.9788 12.8358 15.312 12.1651C15.6453 11.4944 15.8235 10.7574 15.8337 10.0086Z" fill="#88BFFF"/>
</svg>
