<svg width="20" height="20" viewBox="0 0 20 20" fill="none" xmlns="http://www.w3.org/2000/svg">
<path d="M10.7669 1.66666H17.5003C17.7213 1.66666 17.9333 1.75444 18.0895 1.91072C18.2458 2.067 18.3336 2.27897 18.3336 2.49999V9.22499C18.3338 9.44491 18.2904 9.66266 18.206 9.86582C18.1217 10.0689 17.9979 10.2532 17.8419 10.4083L9.50858 18.7417C9.35384 18.8966 9.17 19.0196 8.96767 19.1034C8.76534 19.1873 8.5485 19.2305 8.32944 19.2305C8.11041 19.2305 7.89352 19.1873 7.69118 19.1034C7.48886 19.0196 7.30505 18.8966 7.15026 18.7417L1.25859 12.85C1.10363 12.6952 0.980702 12.5114 0.896827 12.3091C0.812956 12.1067 0.769775 11.8898 0.769775 11.6708C0.769775 11.4518 0.812956 11.2349 0.896827 11.0326C0.980702 10.8302 1.10363 10.6464 1.25859 10.4917L9.59192 2.15832C9.90308 1.84533 10.3256 1.66851 10.7669 1.66666Z" fill="#7AD7B5"/>
<path d="M13.6166 8.05013C14.5371 8.05013 15.2833 7.30394 15.2833 6.38346C15.2833 5.46299 14.5371 4.7168 13.6166 4.7168C12.6962 4.7168 11.95 5.46299 11.95 6.38346C11.95 7.30394 12.6962 8.05013 13.6166 8.05013Z" fill="white"/>
</svg>
