<svg width="20" height="20" viewBox="0 0 20 20" fill="none" xmlns="http://www.w3.org/2000/svg">
<path d="M3.33341 9.16666H16.6667C17.1087 9.16666 17.5327 9.34224 17.8452 9.65482C18.1578 9.96741 18.3334 10.3913 18.3334 10.8333V15C18.3334 15.221 18.2456 15.433 18.0893 15.5892C17.9331 15.7455 17.7211 15.8333 17.5001 15.8333H2.50008C2.27906 15.8333 2.06711 15.7455 1.91084 15.5892C1.75456 15.433 1.66675 15.221 1.66675 15V10.8333C1.66675 10.3913 1.84236 9.96741 2.15493 9.65482C2.46749 9.34224 2.89139 9.16666 3.33341 9.16666Z" fill="#FFA36F"/>
<path d="M6.66659 4.16666H13.3333C14.2173 4.16666 15.0652 4.51784 15.6903 5.14296C16.3154 5.76809 16.6666 6.61593 16.6666 7.49999V9.16666H3.33325V7.49999C3.33325 6.61593 3.68444 5.76809 4.30956 5.14296C4.93469 4.51784 5.78253 4.16666 6.66659 4.16666Z" fill="#FFA36F"/>
<path d="M6.66667 5.83334H13.3333C13.7753 5.83334 14.1993 6.00896 14.5118 6.32153C14.8244 6.63409 15 7.05799 15 7.50001V9.16668H5V7.50001C5 7.05799 5.17562 6.63409 5.48818 6.32153C5.80074 6.00896 6.22464 5.83334 6.66667 5.83334Z" fill="white"/>
<path d="M2.5 15.8333H5.83333V16.6667C5.83333 16.8877 5.74552 17.0997 5.58924 17.2559C5.43297 17.4122 5.22102 17.5 5 17.5H3.33333C3.11232 17.5 2.90037 17.4122 2.74409 17.2559C2.58781 17.0997 2.5 16.8877 2.5 16.6667V15.8333Z" fill="#737A83"/>
<path d="M14.1667 15.8333H17.5001V16.6667C17.5001 16.8877 17.4122 17.0997 17.256 17.2559C17.0997 17.4122 16.8877 17.5 16.6667 17.5H15.0001C14.7791 17.5 14.5671 17.4122 14.4108 17.2559C14.2546 17.0997 14.1667 16.8877 14.1667 16.6667V15.8333Z" fill="#737A83"/>
<path d="M5.83325 12.0833C5.83325 11.393 5.27361 10.8333 4.58325 10.8333C3.89289 10.8333 3.33325 11.393 3.33325 12.0833C3.33325 12.7737 3.89289 13.3333 4.58325 13.3333C5.27361 13.3333 5.83325 12.7737 5.83325 12.0833Z" fill="white"/>
<path d="M16.6667 12.0833C16.6667 11.393 16.1071 10.8333 15.4167 10.8333C14.7264 10.8333 14.1667 11.393 14.1667 12.0833C14.1667 12.7737 14.7264 13.3333 15.4167 13.3333C16.1071 13.3333 16.6667 12.7737 16.6667 12.0833Z" fill="white"/>
<path d="M13.3334 4.17481H6.66675V3.34148C6.66675 2.87481 7.15841 2.50815 7.77508 2.50815H12.2167C12.8334 2.50815 13.3334 2.87481 13.3334 3.34148V4.17481Z" fill="#A0A6AB"/>
<path d="M11.6667 12.5H8.33333C7.8731 12.5 7.5 12.8731 7.5 13.3333C7.5 13.7936 7.8731 14.1667 8.33333 14.1667H11.6667C12.1269 14.1667 12.5 13.7936 12.5 13.3333C12.5 12.8731 12.1269 12.5 11.6667 12.5Z" fill="#737A83"/>
</svg>
