<svg width="20" height="20" viewBox="0 0 20 20" fill="none" xmlns="http://www.w3.org/2000/svg">
<path d="M5.00008 7.5C5.88414 7.5 6.73197 7.85118 7.35709 8.47633C7.98221 9.10142 8.33341 9.94925 8.33341 10.8333V15C8.33341 15.221 8.24562 15.433 8.08934 15.5892C7.93306 15.7455 7.7211 15.8333 7.50008 15.8333H2.50008C2.27906 15.8333 2.06711 15.7455 1.91082 15.5892C1.75455 15.433 1.66675 15.221 1.66675 15V10.8333C1.66675 9.94925 2.01793 9.10142 2.64306 8.47633C3.26818 7.85118 4.11602 7.5 5.00008 7.5Z" fill="#C7CED5"/>
<path d="M5.00008 6.66667C6.15067 6.66667 7.08341 5.73392 7.08341 4.58333C7.08341 3.43274 6.15067 2.5 5.00008 2.5C3.84949 2.5 2.91675 3.43274 2.91675 4.58333C2.91675 5.73392 3.84949 6.66667 5.00008 6.66667Z" fill="#C7CED5"/>
<path d="M17.5001 15.8333H12.5001C12.2791 15.8333 12.0671 15.7455 11.9108 15.5892C11.7545 15.433 11.6667 15.221 11.6667 15V10.8333C11.6667 9.94925 12.0179 9.10142 12.6431 8.47633C13.2682 7.85118 14.116 7.5 15.0001 7.5C15.8842 7.5 16.732 7.85118 17.3571 8.47633C17.9822 9.10142 18.3334 9.94925 18.3334 10.8333V15C18.3334 15.221 18.2456 15.433 18.0893 15.5892C17.9331 15.7455 17.7211 15.8333 17.5001 15.8333Z" fill="#C7CED5"/>
<path d="M15.0001 6.66667C16.1507 6.66667 17.0834 5.73392 17.0834 4.58333C17.0834 3.43274 16.1507 2.5 15.0001 2.5C13.8495 2.5 12.9167 3.43274 12.9167 4.58333C12.9167 5.73392 13.8495 6.66667 15.0001 6.66667Z" fill="#C7CED5"/>
<path d="M9.26667 10H10.725C11.6091 10 12.4569 10.3512 13.082 10.9763C13.7072 11.6014 14.0583 12.4492 14.0583 13.3333V17.5C14.0583 17.721 13.9706 17.933 13.8142 18.0892C13.658 18.2455 13.446 18.3333 13.225 18.3333H6.76668C6.54567 18.3333 6.33371 18.2455 6.17742 18.0892C6.02114 17.933 5.93335 17.721 5.93335 17.5V13.3333C5.93335 12.4492 6.28453 11.6014 6.90966 10.9763C7.53477 10.3512 8.38267 10 9.26667 10Z" fill="#6B758F"/>
<path d="M10.0001 9.16667C11.1507 9.16667 12.0834 8.23392 12.0834 7.08333C12.0834 5.93274 11.1507 5 10.0001 5C8.8495 5 7.91675 5.93274 7.91675 7.08333C7.91675 8.23392 8.8495 9.16667 10.0001 9.16667Z" fill="#6B758F"/>
</svg>
