<svg width="20" height="20" viewBox="0 0 20 20" fill="none" xmlns="http://www.w3.org/2000/svg">
<path d="M9.99975 6.61708C12.3475 6.60982 14.6332 7.37073 16.5081 8.78375C16.6493 8.88958 16.8251 8.93892 17.0008 8.92192C17.1766 8.905 17.3397 8.823 17.4581 8.69208L18.7248 7.19208C18.7853 7.12238 18.831 7.04114 18.8592 6.95328C18.8874 6.86541 18.8976 6.77273 18.889 6.68084C18.8804 6.58895 18.8533 6.49974 18.8093 6.41861C18.7653 6.33747 18.7054 6.26608 18.6331 6.20876C16.1592 4.30365 13.1222 3.27473 9.99975 3.28375C6.86326 3.27638 3.81374 4.31439 1.33308 6.23376C1.26076 6.29108 1.20079 6.36247 1.15681 6.4436C1.11283 6.52474 1.08573 6.61395 1.07717 6.70584C1.0686 6.79773 1.07874 6.89041 1.10698 6.97828C1.1352 7.06614 1.18093 7.14738 1.24142 7.21708L2.50809 8.70875C2.62434 8.84317 2.78787 8.92767 2.96474 8.94467C3.14162 8.96175 3.31828 8.91008 3.45809 8.80042C5.34259 7.37948 7.63958 6.61284 9.99975 6.61708Z" fill="#DBECFF"/>
<path d="M4.29967 10.8083L5.56635 12.3083C5.67496 12.4358 5.82664 12.5189 5.99256 12.542C6.15848 12.5651 6.32709 12.5263 6.46635 12.4333C7.50229 11.7096 8.736 11.3226 9.99966 11.3249C11.2572 11.3208 12.4853 11.705 13.5163 12.4249C13.6552 12.5165 13.8232 12.5535 13.9877 12.5289C14.1522 12.5043 14.3019 12.4198 14.408 12.2916L15.6747 10.7916C15.7372 10.718 15.7837 10.6321 15.811 10.5394C15.8384 10.4468 15.846 10.3494 15.8335 10.2537C15.8209 10.1579 15.7884 10.0658 15.7381 9.98334C15.6878 9.90093 15.6207 9.82993 15.5413 9.77493C13.9283 8.61109 11.9887 7.98693 9.99966 7.99158C8.00016 7.98591 6.05066 8.61626 4.43301 9.79159C4.35359 9.84659 4.28656 9.91759 4.23625 10C4.18594 10.0825 4.15344 10.1746 4.14088 10.2703C4.12832 10.3661 4.13596 10.4635 4.16331 10.5561C4.19066 10.6488 4.23711 10.7347 4.29967 10.8083Z" fill="#B8D3FB"/>
<path d="M7.43301 14.4913L9.47467 16.8913C9.53958 16.9657 9.61967 17.0252 9.7095 17.066C9.79933 17.1067 9.89683 17.1279 9.9955 17.1279C10.0942 17.1279 10.1917 17.1067 10.2815 17.066C10.3713 17.0252 10.4514 16.9657 10.5163 16.8913L12.5497 14.483C12.6153 14.4081 12.6637 14.3197 12.6915 14.2241C12.7193 14.1285 12.726 14.0279 12.7109 13.9295C12.6958 13.8311 12.6594 13.7371 12.6042 13.6542C12.549 13.5713 12.4763 13.5015 12.3913 13.4497C11.6683 13.0181 10.8418 12.7906 9.99967 12.7913C9.15142 12.7922 8.31925 13.0225 7.59134 13.458C7.50633 13.5099 7.43369 13.5797 7.37849 13.6626C7.3233 13.7455 7.28688 13.8394 7.2718 13.9378C7.25672 14.0362 7.26333 14.1368 7.29118 14.2324C7.31903 14.328 7.36743 14.4164 7.43301 14.4913Z" fill="#5096FF"/>
</svg>
