<svg width="20" height="20" viewBox="0 0 20 20" fill="none" xmlns="http://www.w3.org/2000/svg">
<g clip-path="url(#clip0_559_42801)">
<mask id="mask0_559_42801" style="mask-type:luminance" maskUnits="userSpaceOnUse" x="0" y="0" width="20" height="20">
<path d="M20 0H0V20H20V0Z" fill="white"/>
</mask>
<g mask="url(#mask0_559_42801)">
<path d="M4.16667 6.66666H6.66667V17.5H4.16667C3.72464 17.5 3.30072 17.3244 2.98816 17.0118C2.67559 16.6992 2.5 16.2753 2.5 15.8333V8.33332C2.5 7.8913 2.67559 7.46737 2.98816 7.15481C3.30072 6.84225 3.72464 6.66666 4.16667 6.66666Z" fill="#5096FF"/>
<path d="M13.8417 17.5H6.66675V6.66666H15.1917C15.5672 6.66718 15.9377 6.75227 16.2757 6.91561C16.6138 7.07894 16.9107 7.31631 17.1446 7.61012C17.3783 7.90393 17.5429 8.24662 17.6261 8.61274C17.7092 8.97882 17.7089 9.35899 17.6251 9.72499L16.2834 15.5583C16.1568 16.1108 15.8462 16.6039 15.4026 16.9567C14.9589 17.3095 14.4086 17.5011 13.8417 17.5Z" fill="#DBECFF"/>
<path d="M11.7584 0.833328H11.6667C11.4009 0.833227 11.1389 0.896712 10.9027 1.01849C10.6663 1.14025 10.4626 1.31678 10.3084 1.53333L6.66675 6.66666H10.8334L13.1167 3.46666C13.2942 3.21734 13.3997 2.92394 13.4215 2.61865C13.4432 2.31335 13.3806 2.00796 13.2402 1.73594C13.1 1.46394 12.8875 1.23581 12.6261 1.0766C12.3647 0.917378 12.0645 0.833211 11.7584 0.833328Z" fill="#DBECFF"/>
<path d="M11.6667 3.33333H10V6.66666H11.6667V3.33333Z" fill="#DBECFF"/>
</g>
</g>
<defs>
<clipPath id="clip0_559_42801">
<rect width="20" height="20" fill="white"/>
</clipPath>
</defs>
</svg>
