<svg width="20" height="20" viewBox="0 0 20 20" fill="none" xmlns="http://www.w3.org/2000/svg">
<path d="M14.9999 1.66667H4.99992C4.07944 1.66667 3.33325 2.41286 3.33325 3.33334V16.6667C3.33325 17.5872 4.07944 18.3333 4.99992 18.3333H14.9999C15.9204 18.3333 16.6666 17.5872 16.6666 16.6667V3.33334C16.6666 2.41286 15.9204 1.66667 14.9999 1.66667Z" fill="#E7ECEF"/>
<path d="M8.74167 6.66667H5.41667C5.18655 6.66667 5 6.85322 5 7.08334V7.91667C5 8.14679 5.18655 8.33334 5.41667 8.33334H8.74167C8.97175 8.33334 9.15833 8.14679 9.15833 7.91667V7.08334C9.15833 6.85322 8.97175 6.66667 8.74167 6.66667Z" fill="#C7CED5"/>
<path fill-rule="evenodd" clip-rule="evenodd" d="M12.5001 7.15483L14.4108 5.24408L15.5893 6.4226L12.5001 9.51184L10.2441 7.25593L11.4226 6.07741L12.5001 7.15483Z" fill="#48AFBA"/>
<path fill-rule="evenodd" clip-rule="evenodd" d="M12.5001 12.1548L14.4108 10.2441L15.5893 11.4226L12.5001 14.5118L10.2441 12.2559L11.4226 11.0774L12.5001 12.1548Z" fill="#48AFBA"/>
<path d="M8.74975 11.6667H5.42472C5.1946 11.6667 5.00806 11.8533 5.00806 12.0833V12.9417C5.00806 13.1718 5.1946 13.3583 5.42472 13.3583H8.74975C8.97983 13.3583 9.16641 13.1718 9.16641 12.9417V12.0833C9.16641 11.8533 8.97983 11.6667 8.74975 11.6667Z" fill="#C7CED5"/>
</svg>
