<svg width="20" height="20" viewBox="0 0 20 20" fill="none" xmlns="http://www.w3.org/2000/svg">
<path d="M3.75 4.16667H16.25V16.6667C16.25 17.5833 15.5 18.3333 14.5833 18.3333H5.41667C4.5 18.3333 3.75 17.5833 3.75 16.6667V4.16667Z" fill="#737A83"/>
<path d="M7.08325 7.08334V14.5833C7.08325 14.8134 7.2698 15 7.49992 15H8.33325C8.56334 15 8.74992 14.8134 8.74992 14.5833V7.08334C8.74992 6.85322 8.56334 6.66667 8.33325 6.66667H7.49992C7.2698 6.66667 7.08325 6.85322 7.08325 7.08334Z" fill="white"/>
<path d="M11.25 7.08334V14.5833C11.25 14.8134 11.4366 15 11.6667 15H12.5C12.7301 15 12.9167 14.8134 12.9167 14.5833V7.08334C12.9167 6.85322 12.7301 6.66667 12.5 6.66667H11.6667C11.4366 6.66667 11.25 6.85322 11.25 7.08334Z" fill="white"/>
<path d="M17.0834 2.5H2.91675V4.16667H17.0834V2.5Z" fill="#C7CED5"/>
<path d="M6.66675 2.49999L7.04175 1.75833C7.32508 1.19166 7.90008 0.833328 8.53341 0.833328H11.4751C12.1084 0.833328 12.6834 1.19166 12.9667 1.75833L13.3417 2.49999H6.67508H6.66675Z" fill="#C7CED5"/>
</svg>
