<svg width="20" height="20" viewBox="0 0 20 20" fill="none" xmlns="http://www.w3.org/2000/svg">
<path d="M9.16675 17.0833V1.66668C9.16675 1.44566 9.25458 1.23369 9.41083 1.07741C9.56708 0.921127 9.77908 0.833344 10.0001 0.833344C10.2211 0.833344 10.4331 0.921127 10.5893 1.07741C10.7456 1.23369 10.8334 1.44566 10.8334 1.66668V17.0833C10.8334 17.1938 10.7895 17.2998 10.7114 17.3779C10.6332 17.4561 10.5272 17.5 10.4167 17.5H9.58341C9.47291 17.5 9.36692 17.4561 9.28875 17.3779C9.21067 17.2998 9.16675 17.1938 9.16675 17.0833Z" fill="#737A83"/>
<path d="M17.5001 16.6667H2.50008C2.03985 16.6667 1.66675 17.0397 1.66675 17.5C1.66675 17.9602 2.03985 18.3333 2.50008 18.3333H17.5001C17.9603 18.3333 18.3334 17.9602 18.3334 17.5C18.3334 17.0397 17.9603 16.6667 17.5001 16.6667Z" fill="#88BFFF"/>
<path d="M1.66675 10.8415V10.0082C1.66675 8.01902 2.45693 6.11136 3.86346 4.70485C5.26997 3.29832 7.17762 2.50815 9.16675 2.50815H10.8334C12.8225 2.50815 14.7302 3.29832 16.1367 4.70485C17.5432 6.11136 18.3334 8.01902 18.3334 10.0082V10.8415" fill="#F4868F"/>
<path d="M6.66675 10.8415C6.66675 6.25815 8.15841 2.50815 10.0001 2.50815C11.8417 2.50815 13.3334 6.21648 13.3334 10.8415" fill="white"/>
</svg>
