<svg width="20" height="20" viewBox="0 0 20 20" fill="none" xmlns="http://www.w3.org/2000/svg">
<path d="M3.33341 9.16666H16.6667C17.1087 9.16666 17.5327 9.34224 17.8452 9.65482C18.1578 9.96741 18.3334 10.3913 18.3334 10.8333V15C18.3334 15.221 18.2456 15.433 18.0893 15.5892C17.9331 15.7455 17.7211 15.8333 17.5001 15.8333H2.50008C2.27906 15.8333 2.06711 15.7455 1.91082 15.5892C1.75455 15.433 1.66675 15.221 1.66675 15V10.8333C1.66675 10.3913 1.84234 9.96741 2.15491 9.65482C2.46746 9.34224 2.89139 9.16666 3.33341 9.16666Z" fill="#5096FF"/>
<path d="M6.66659 3.33334H13.3333C14.2173 3.33334 15.0652 3.68453 15.6903 4.30965C16.3154 4.93478 16.6666 5.78262 16.6666 6.66668V9.16668H3.33325V6.66668C3.33325 5.78262 3.68444 4.93478 4.30956 4.30965C4.93469 3.68453 5.78253 3.33334 6.66659 3.33334Z" fill="#5096FF"/>
<path d="M6.66667 5H13.3333C13.7753 5 14.1992 5.17562 14.5118 5.48818C14.8244 5.80074 15 6.22464 15 6.66667V9.16667H5V6.66667C5 6.22464 5.17559 5.80074 5.48816 5.48818C5.80072 5.17562 6.22464 5 6.66667 5Z" fill="white"/>
<path d="M2.5 15.8333H5.83333V16.6667C5.83333 16.8877 5.74553 17.0997 5.58926 17.2559C5.43297 17.4122 5.22102 17.5 5 17.5H3.33333C3.11232 17.5 2.90036 17.4122 2.74408 17.2559C2.5878 17.0997 2.5 16.8877 2.5 16.6667V15.8333Z" fill="#737A83"/>
<path d="M14.1667 15.8333H17.5001V16.6667C17.5001 16.8877 17.4122 17.0997 17.256 17.2559C17.0997 17.4122 16.8877 17.5 16.6667 17.5H15.0001C14.7791 17.5 14.5671 17.4122 14.4108 17.2559C14.2546 17.0997 14.1667 16.8877 14.1667 16.6667V15.8333Z" fill="#737A83"/>
<path d="M5.83325 11.6667H4.16659C3.70635 11.6667 3.33325 12.0397 3.33325 12.5C3.33325 12.9602 3.70635 13.3333 4.16659 13.3333H5.83325C6.29349 13.3333 6.66659 12.9602 6.66659 12.5C6.66659 12.0397 6.29349 11.6667 5.83325 11.6667Z" fill="white"/>
<path d="M15.8333 11.6667H14.1666C13.7063 11.6667 13.3333 12.0397 13.3333 12.5C13.3333 12.9602 13.7063 13.3333 14.1666 13.3333H15.8333C16.2935 13.3333 16.6666 12.9602 16.6666 12.5C16.6666 12.0397 16.2935 11.6667 15.8333 11.6667Z" fill="white"/>
</svg>
