<svg width="20" height="20" viewBox="0 0 20 20" fill="none" xmlns="http://www.w3.org/2000/svg">
<path d="M13.3333 4.16666H2.49992C1.57944 4.16666 0.833252 4.91285 0.833252 5.83332V14.1667C0.833252 15.0872 1.57944 15.8333 2.49992 15.8333H13.3333C14.2538 15.8333 14.9999 15.0872 14.9999 14.1667V5.83332C14.9999 4.91285 14.2538 4.16666 13.3333 4.16666Z" fill="#C7CED5"/>
<path d="M17.85 14.4663L15 12.4162V7.58292L17.85 5.53289C17.9749 5.44393 18.122 5.39119 18.2751 5.38046C18.4281 5.36973 18.5811 5.40143 18.7172 5.47209C18.8533 5.54275 18.9673 5.6496 19.0467 5.7809C19.1259 5.9122 19.1675 6.06285 19.1667 6.21623V13.7912C19.166 13.9439 19.1233 14.0935 19.0434 14.2236C18.9635 14.3537 18.8493 14.4593 18.7135 14.529C18.5776 14.5986 18.4253 14.6296 18.273 14.6185C18.1207 14.6075 17.9743 14.5548 17.85 14.4663Z" fill="#737A83"/>
</svg>
