<svg width="20" height="20" viewBox="0 0 20 20" fill="none" xmlns="http://www.w3.org/2000/svg">
<path d="M18.3334 9.99999C18.3334 5.39761 14.6024 1.66666 10.0001 1.66666C5.39771 1.66666 1.66675 5.39761 1.66675 9.99999C1.66675 14.6023 5.39771 18.3333 10.0001 18.3333C14.6024 18.3333 18.3334 14.6023 18.3334 9.99999Z" fill="#FFC738"/>
<path d="M10.5851 5.41666H9.41476C9.30142 5.41647 9.18926 5.43686 9.08517 5.47654C8.98109 5.51622 8.88726 5.57436 8.80951 5.64738C8.73176 5.7204 8.67176 5.80676 8.63309 5.90112C8.59442 5.99549 8.57792 6.09587 8.58476 6.19608L8.94992 11.6667H11.0416L11.4151 6.19608C11.4219 6.09587 11.4054 5.99549 11.3668 5.90112C11.3282 5.80676 11.2681 5.7204 11.1903 5.64738C11.1126 5.57436 11.0188 5.51622 10.9147 5.47654C10.8106 5.43686 10.6984 5.41647 10.5851 5.41666Z" fill="white"/>
<path d="M10 15.3004C10.6903 15.3004 11.25 14.7407 11.25 14.0504C11.25 13.3599 10.6903 12.8004 10 12.8004C9.30967 12.8004 8.75 13.3599 8.75 14.0504C8.75 14.7407 9.30967 15.3004 10 15.3004Z" fill="white"/>
</svg>
