<svg width="20" height="20" viewBox="0 0 20 20" fill="none" xmlns="http://www.w3.org/2000/svg">
<path d="M17.5001 4.16666H2.50008C2.03985 4.16666 1.66675 4.53976 1.66675 4.99999V15.8333C1.66675 16.2936 2.03985 16.6667 2.50008 16.6667H17.5001C17.9603 16.6667 18.3334 16.2936 18.3334 15.8333V4.99999C18.3334 4.53976 17.9603 4.16666 17.5001 4.16666Z" fill="#707070"/>
<path d="M8.33333 2.5H11.6667C11.8877 2.5 12.0997 2.58781 12.2559 2.74409C12.4122 2.90037 12.5 3.11232 12.5 3.33333V4.16667H7.5V3.33333C7.5 3.11232 7.58778 2.90037 7.74407 2.74409C7.90034 2.58781 8.11232 2.5 8.33333 2.5Z" fill="#707070"/>
<path d="M17.5001 4.1748H2.50008C2.27906 4.1748 2.06711 4.2626 1.91082 4.41888C1.75455 4.57515 1.66675 4.78712 1.66675 5.00814V10.0082C1.66675 10.4502 1.84234 10.8741 2.1549 11.1867C2.46746 11.4992 2.89139 11.6748 3.33341 11.6748H16.6667C17.1087 11.6748 17.5327 11.4992 17.8452 11.1867C18.1578 10.8741 18.3334 10.4502 18.3334 10.0082V5.00814C18.3334 4.78712 18.2456 4.57515 18.0893 4.41888C17.9331 4.2626 17.7211 4.1748 17.5001 4.1748Z" fill="#9C9188"/>
<path d="M5.83341 7.5H4.16675V10H5.83341V7.5Z" fill="white"/>
<path d="M15.8334 7.5H14.1667V10H15.8334V7.5Z" fill="white"/>
</svg>
