<svg width="20" height="20" viewBox="0 0 20 20" fill="none" xmlns="http://www.w3.org/2000/svg">
<path fill-rule="evenodd" clip-rule="evenodd" d="M7.89299 17C6.60467 17 5.38016 16.5093 4.44504 15.6184C2.58726 13.8478 2.51102 11.0404 4.27467 9.35968L10.0207 3.88495C10.619 3.31463 11.4265 3 12.2939 3C13.2221 3 14.1043 3.35295 14.7772 3.994C16.1161 5.26947 16.1674 7.29653 14.8908 8.51232L9.13773 13.9863C8.76509 14.3422 8.2633 14.5375 7.72495 14.5375C7.15625 14.5375 6.61712 14.3223 6.20791 13.9325C5.38871 13.1507 5.36304 11.9047 6.15112 11.1532L11.4607 6.10211C11.7641 5.81326 12.2558 5.81179 12.5608 6.09916C12.865 6.38653 12.8665 6.85295 12.5631 7.14105L7.25428 12.1928C7.06756 12.3712 7.09324 12.6858 7.31185 12.8936C7.42543 13.0019 7.57635 13.0638 7.72495 13.0638C7.81052 13.0638 7.93344 13.0439 8.03458 12.9474L13.7876 7.47337C14.4621 6.83011 14.4116 5.73589 13.674 5.03295C12.9684 4.36095 11.7711 4.30789 11.1239 4.92389L5.37782 10.3986C4.21554 11.5061 4.29178 13.3821 5.54898 14.5795C6.18924 15.1903 7.02166 15.5263 7.89299 15.5263C8.67173 15.5263 9.39368 15.2478 9.92425 14.7423L15.6711 9.26758C15.9737 8.97947 16.4662 8.97726 16.7711 9.26463C17.0753 9.552 17.0769 10.0177 16.7742 10.3065L11.0274 15.7813C10.2028 16.5667 9.0895 17 7.89299 17Z" fill="#5C5C5C"/>
</svg>
