<svg width="20" height="20" viewBox="0 0 20 20" fill="none" xmlns="http://www.w3.org/2000/svg">
<path d="M7.4082 9.23047L6.58105 10.582H8.64746L10.5381 12.6445L10.3633 14.4053L11.0801 13.2354L12.041 14.2832L9.96094 17.6768C9.83494 17.8833 9.62522 18 9.40723 18C9.33123 18 9.25435 17.9859 9.17969 17.9561C8.89133 17.8418 8.71102 17.5274 8.74414 17.1953L9.25684 12.0361H5.33301C5.08714 12.036 4.86106 11.8886 4.74512 11.6523C4.62917 11.4153 4.64265 11.1278 4.7793 10.9053L6.44824 8.18164L7.4082 9.23047ZM4.19531 3.66797C4.45592 3.38367 4.87702 3.38379 5.1377 3.66797L15.8047 15.3047C16.0651 15.5891 16.0653 16.0487 15.8047 16.333C15.6747 16.4748 15.5036 16.5459 15.333 16.5459C15.1626 16.5458 14.9922 16.4745 14.8623 16.333L4.19531 4.69629C3.93477 4.41196 3.93479 3.95232 4.19531 3.66797ZM10.0391 2.32324C10.2091 2.04416 10.5324 1.92907 10.8203 2.04395C11.1089 2.15815 11.2892 2.47333 11.2559 2.80566L10.7432 7.96387H14.667C14.9129 7.96399 15.1389 8.11237 15.2549 8.34863C15.3706 8.58554 15.3571 8.87236 15.2207 9.09473L13.5518 11.8184L12.5918 10.7695L13.4189 9.41895H11.3525L9.46191 7.35645L9.63672 5.5957L8.91992 6.76465L7.95898 5.7168L10.0391 2.32324Z" fill="#5C5C5C"/>
</svg>
