<svg width="20" height="20" viewBox="0 0 20 20" fill="none" xmlns="http://www.w3.org/2000/svg">
<path fill-rule="evenodd" clip-rule="evenodd" d="M9.99993 11.3097C10.1493 11.3097 10.2994 11.3534 10.4293 11.4392L14.2247 13.9584L9.99993 5.48845L5.77515 13.9584L9.57061 11.4392C9.70049 11.3534 9.8506 11.3097 9.99993 11.3097ZM16.2218 17C16.0725 17 15.9232 16.9571 15.7925 16.8706L9.99976 13.0243L4.20701 16.8706C3.91302 17.0647 3.5257 17.0382 3.26204 16.8043C2.99838 16.5696 2.92449 16.1875 3.0816 15.8718L9.30366 3.39648C9.56732 2.86784 10.4322 2.86784 10.6958 3.39648L16.9179 15.8718C17.075 16.1875 17.0011 16.5696 16.7375 16.8043C16.5913 16.9337 16.4069 17 16.2218 17Z" fill="#5C5C5C"/>
</svg>
