<svg width="20" height="20" viewBox="0 0 20 20" fill="none" xmlns="http://www.w3.org/2000/svg">
<path fill-rule="evenodd" clip-rule="evenodd" d="M11.8933 7.47611L9.24442 10.9545L8.10129 9.49426C7.86329 9.18905 7.42228 9.13585 7.11847 9.37456C6.81396 9.61256 6.76006 10.0529 6.99877 10.3567L8.70051 12.5316C8.83351 12.701 9.03652 12.7997 9.25212 12.7997H9.25702C9.47333 12.799 9.67773 12.6968 9.80863 12.5239L13.007 8.32383C13.2415 8.01583 13.182 7.57762 12.874 7.34311C12.5653 7.1086 12.1271 7.16881 11.8933 7.47611ZM9.99994 15.6002C6.91217 15.6002 4.39981 13.0878 4.39981 10C4.39981 6.91227 6.91217 4.39991 9.99994 4.39991C13.0877 4.39991 15.6001 6.91227 15.6001 10C15.6001 13.0878 13.0877 15.6002 9.99994 15.6002ZM9.99992 2.99988C6.13373 2.99988 2.99976 6.13455 2.99976 10C2.99976 13.8655 6.13373 17.0002 9.99992 17.0002C13.8661 17.0002 17.0001 13.8655 17.0001 10C17.0001 6.13455 13.8661 2.99988 9.99992 2.99988Z" fill="#5C5C5C"/>
</svg>
