<svg width="20" height="20" viewBox="0 0 20 20" fill="none" xmlns="http://www.w3.org/2000/svg">
<path d="M9.97949 3C10.536 3.0084 11.1033 3.06414 11.6465 3.19434C12.0215 3.28532 12.2529 3.66329 12.1621 4.03906C12.0718 4.41421 11.6921 4.64516 11.3184 4.55566C10.8838 4.4507 10.4224 4.40742 9.98438 4.40039C8.48848 4.40459 7.08349 4.99126 6.0293 6.05176C4.97454 7.11214 4.39631 8.51992 4.40039 10.0156C4.40459 11.5115 4.99126 12.9158 6.05176 13.9707C7.10875 15.0214 8.50972 15.5996 10 15.5996H10.0156C11.5115 15.5954 12.9165 15.0087 13.9707 13.9482C15.0255 12.8872 15.6037 11.4801 15.5996 9.98438C15.5989 9.59798 15.9115 9.28294 16.2979 9.28223H16.2998C16.6854 9.28223 16.9992 9.59389 17 9.97949C17.0056 11.8491 16.2826 13.6098 14.9639 14.9355C13.6458 16.2613 11.8901 16.9943 10.0205 17H10C8.13738 17 6.38533 16.2777 5.06445 14.9639C3.73871 13.6458 3.00565 11.8901 3 10.0205C2.9944 8.15019 3.71745 6.39023 5.03613 5.06445C6.35418 3.7387 8.10988 3.00565 9.97949 3ZM14.374 6.03906C14.6288 5.75 15.0701 5.71895 15.3613 5.97363C15.6518 6.22768 15.6814 6.66974 15.4268 6.96094L10.5264 12.5615C10.399 12.7069 10.2172 12.7928 10.0234 12.7998H10C9.8147 12.7997 9.63736 12.7261 9.50586 12.5947L7.40527 10.4951C7.13158 10.2214 7.1316 9.77858 7.40527 9.50488C7.67897 9.23118 8.12181 9.23118 8.39551 9.50488L9.96582 11.0762L14.374 6.03906Z" fill="#5C5C5C"/>
</svg>
