<svg width="20" height="20" viewBox="0 0 20 20" fill="none" xmlns="http://www.w3.org/2000/svg">
<path d="M12.4629 3C12.8921 3 13.241 3.34743 13.2412 3.77734C13.2412 4.20668 12.8922 4.55566 12.4629 4.55566H5.02246C4.76502 4.55566 4.55566 4.76502 4.55566 5.02246V14.9766C4.55566 15.234 4.76502 15.4443 5.02246 15.4443H14.9775C15.235 15.4443 15.4443 15.234 15.4443 14.9766V10.6475C15.4446 10.2183 15.7935 9.87012 16.2227 9.87012C16.6516 9.87035 16.9998 10.2185 17 10.6475V14.9766C17 16.0919 16.0921 17 14.9775 17H5.02246C3.90791 17 3 16.0919 3 14.9766V5.02246C3 3.90713 3.90791 3 5.02246 3H12.4629ZM14.8857 5.56934C15.1836 5.26157 15.6758 5.2526 15.9854 5.55176C16.294 5.85032 16.3022 6.34257 16.0039 6.65137L10.7324 12.0957C10.5862 12.2474 10.3846 12.333 10.1738 12.333H10.1709C9.95938 12.3322 9.75752 12.245 9.61133 12.0918L7.88184 10.2803C7.58487 9.96931 7.59733 9.47704 7.90723 9.18066C8.21834 8.88355 8.7107 8.89572 9.00781 9.20605L10.1777 10.4336L14.8857 5.56934Z" fill="#5C5C5C"/>
</svg>
