<svg width="20" height="20" viewBox="0 0 20 20" fill="none" xmlns="http://www.w3.org/2000/svg">
<path d="M3.875 6.29395C4.35609 6.29395 4.74973 6.66446 4.75 7.11719V16.1768C4.74983 16.6296 4.35615 17 3.875 17C3.39385 17 3.00017 16.6296 3 16.1768V7.11719C3.00027 6.66446 3.39391 6.29395 3.875 6.29395ZM10 3C10.4811 3 10.8748 3.37043 10.875 3.82324V16.1768C10.8748 16.6296 10.4811 17 10 17C9.51897 16.9999 9.12517 16.6295 9.125 16.1768V3.82324C9.12517 3.37051 9.51897 3.00013 10 3ZM16.125 9.58789C16.6062 9.58789 17 9.95917 17 10.4121V16.1768C16.9998 16.6296 16.6061 17 16.125 17C15.6439 17 15.2502 16.6296 15.25 16.1768V10.4121C15.25 9.95917 15.6438 9.5879 16.125 9.58789Z" fill="#5C5C5C"/>
</svg>
