<svg width="20" height="20" viewBox="0 0 20 20" fill="none" xmlns="http://www.w3.org/2000/svg">
<path d="M3.875 9.58789C4.35625 9.58789 4.75 9.95917 4.75 10.4121V16.1768C4.74984 16.6296 4.35615 17 3.875 17C3.39385 17 3.00016 16.6296 3 16.1768V10.4121C3 9.95917 3.39375 9.58789 3.875 9.58789ZM10 6.29395C10.4811 6.29395 10.8747 6.66445 10.875 7.11719V16.1768C10.8748 16.6296 10.4811 17 10 17C9.51904 16.9998 9.12517 16.6294 9.125 16.1768V7.11719C9.12526 6.66458 9.5191 6.29415 10 6.29395ZM16.125 3C16.6061 3.0001 16.9998 3.37049 17 3.82324V16.1768C16.9998 16.6295 16.6061 16.9999 16.125 17C15.6439 17 15.2502 16.6296 15.25 16.1768V3.82324C15.2502 3.37043 15.6439 3 16.125 3Z" fill="#5C5C5C"/>
</svg>
