<svg width="20" height="20" viewBox="0 0 20 20" fill="none" xmlns="http://www.w3.org/2000/svg">
<path fill-rule="evenodd" clip-rule="evenodd" d="M16.2225 13.8519L10.8892 15.0314V6.14802L16.2225 4.96947V13.8519ZM3.77783 4.96947L9.11117 6.14802V15.0314L3.77783 13.8519V4.96947ZM17.6667 3.19158C17.4551 3.02621 17.1796 2.96322 16.9156 3.02184L10 4.55125L3.08444 3.02184C2.81956 2.96234 2.54489 3.02621 2.33333 3.19158C2.12267 3.35869 2 3.6098 2 3.87579V14.5519C2 14.9614 2.288 15.3157 2.69333 15.405L9.80444 16.9781C9.87022 16.993 9.93511 17 10 17C10.0649 17 10.1298 16.993 10.1956 16.9781L17.3067 15.405C17.712 15.3157 18 14.9614 18 14.5519V3.87579C18 3.6098 17.8773 3.35869 17.6667 3.19158Z" fill="#5C5C5C"/>
</svg>
