<svg width="20" height="20" viewBox="0 0 20 20" fill="none" xmlns="http://www.w3.org/2000/svg">
<path d="M3.77734 8.22217C4.75854 8.22217 5.55541 9.01837 5.55566 9.99951C5.55566 10.9809 4.7587 11.7778 3.77734 11.7778C2.79621 11.7776 2 10.9807 2 9.99951C2.00026 9.01853 2.79636 8.22242 3.77734 8.22217ZM10 8.22217C10.9812 8.22217 11.7781 9.01837 11.7783 9.99951C11.7783 10.9809 10.9814 11.7778 10 11.7778C9.01877 11.7777 8.22266 10.9808 8.22266 9.99951C8.22291 9.01846 9.01892 8.22231 10 8.22217ZM16.2227 8.22217C17.2037 8.22234 17.9997 9.01848 18 9.99951C18 10.9808 17.2039 11.7777 16.2227 11.7778C15.2413 11.7778 14.4443 10.9809 14.4443 9.99951C14.4446 9.01837 15.2415 8.22217 16.2227 8.22217Z" fill="#5C5C5C"/>
</svg>
