<svg width="20" height="20" viewBox="0 0 20 20" fill="none" xmlns="http://www.w3.org/2000/svg">
<path d="M10.0002 14.1084C11.0741 14.1086 11.9454 14.9798 11.9456 16.0537C11.9456 17.1278 11.0742 17.9998 10.0002 18C8.92608 18 8.05396 17.1279 8.05396 16.0537C8.05413 14.9797 8.92619 14.1084 10.0002 14.1084ZM10.0002 8.05371C11.0742 8.0539 11.9456 8.92595 11.9456 10C11.9455 11.074 11.0742 11.9461 10.0002 11.9463C8.9261 11.9463 8.05398 11.0741 8.05396 10C8.05396 8.92584 8.92608 8.05371 10.0002 8.05371ZM10.0002 2C11.0742 2.00019 11.9456 2.87224 11.9456 3.94629C11.9454 5.02018 11.0741 5.89142 10.0002 5.8916C8.9262 5.8916 8.05414 5.02029 8.05396 3.94629C8.05396 2.87213 8.92608 2 10.0002 2Z" fill="#5C5C5C"/>
</svg>
