<svg width="20" height="20" viewBox="0 0 20 20" fill="none" xmlns="http://www.w3.org/2000/svg">
<g clip-path="url(#clip0_559_42559)">
<path fill-rule="evenodd" clip-rule="evenodd" d="M17.7399 15.8337L16.5843 14.7937L14.8128 13.1993L6.34344 5.57613L5.04033 4.40413L3.51766 3.03373C3.17011 2.72093 2.60833 2.72093 2.26078 3.03373C1.91322 3.34653 1.91322 3.85213 2.26078 4.16493L4.25011 5.95613L5.80744 7.35693L12.299 13.1993L12.3603 13.2545L13.5559 14.3305L14.0768 14.7993L16.483 16.9649C16.6563 17.1209 16.8839 17.1993 17.1114 17.1993C17.339 17.1993 17.5666 17.1209 17.7399 16.9649C18.0874 16.6521 18.0874 16.1465 17.7399 15.8337ZM11.7781 15.0721V14.7993H8.22255V15.0721C8.22255 15.7913 9.03678 16.3993 10.0003 16.3993C10.9639 16.3993 11.7781 15.7913 11.7781 15.0721ZM12.8199 14.7993L13.5123 15.4233C13.2999 16.8705 11.8154 17.9993 10.0003 17.9993C8.03944 17.9993 6.44477 16.6865 6.44477 15.0721V14.7993H3.45544C2.86522 14.7993 2.33811 14.4825 2.11144 13.9913C1.88566 13.5009 2.00922 12.9417 2.42522 12.5657L4.02611 11.1225L4.027 7.38093C4.027 7.22333 4.04033 7.06733 4.05455 6.91133L5.80477 8.48573V11.1225C5.80477 11.5497 5.61989 11.9513 5.28389 12.2537L4.23589 13.1993H11.0421L11.8039 13.8849L12.8199 14.7993ZM6.86077 4.91133L5.587 3.76493C5.73989 3.61373 5.90166 3.46893 6.07411 3.33293C7.36833 2.31213 9.09011 1.84253 10.7994 2.04733C13.7497 2.39853 15.9737 4.76413 15.9737 7.54893V11.1225L17.5737 12.5657C17.9906 12.9409 18.1141 13.5009 17.8874 13.9921C17.7977 14.1857 17.6528 14.3417 17.4848 14.4721L14.2803 11.5889C14.2306 11.4393 14.1959 11.2841 14.1959 11.1225V7.54893C14.1959 5.56333 12.6359 3.88013 10.5674 3.63293C9.34433 3.48813 8.16744 3.80813 7.24478 4.53613C7.10078 4.64973 6.98433 4.78333 6.86077 4.91133Z" fill="#5C5C5C"/>
</g>
<defs>
<clipPath id="clip0_559_42559">
<rect width="16" height="16" fill="white" transform="translate(2 2)"/>
</clipPath>
</defs>
</svg>
