<svg width="20" height="20" viewBox="0 0 20 20" fill="none" xmlns="http://www.w3.org/2000/svg">
<path fill-rule="evenodd" clip-rule="evenodd" d="M4.68481 3.19238C5.0231 2.90021 5.52712 2.94578 5.81274 3.29297C6.09674 3.6405 6.05269 4.1601 5.71509 4.4541C4.35035 5.635 3.59992 7.16625 3.59985 8.76465C3.59985 10.363 4.35042 11.8943 5.71509 13.0752C6.05269 13.3692 6.09674 13.8888 5.81274 14.2363C5.65355 14.4298 5.42741 14.5293 5.19946 14.5293C5.01786 14.5293 4.83521 14.4662 4.68481 14.3369C2.95368 12.8364 2.00024 10.8572 2.00024 8.76465C2.0003 6.67213 2.95367 4.69281 4.68481 3.19238ZM14.1877 3.29297C14.4733 2.94658 14.9766 2.90108 15.3157 3.19238C17.0468 4.69281 18.0002 6.67213 18.0002 8.76465C18.0002 10.8572 17.0468 12.8364 15.3157 14.3369C15.1653 14.4662 14.9826 14.5293 14.801 14.5293C14.5731 14.5293 14.3469 14.4298 14.1877 14.2363C13.9037 13.8888 13.9478 13.3692 14.2854 13.0752C15.6501 11.8943 16.4006 10.3631 16.4006 8.76465C16.4006 7.16624 15.6501 5.635 14.2854 4.4541C13.9478 4.16009 13.9038 3.64048 14.1877 3.29297ZM6.68481 4.84082C7.02398 4.54603 7.52775 4.593 7.81177 4.94043C8.09657 5.28796 8.05269 5.80741 7.71509 6.10059C6.86716 6.83512 6.39972 7.78226 6.39966 8.76465C6.39966 9.74703 6.86723 10.6941 7.71509 11.4287C8.05264 11.7218 8.09644 12.2413 7.81177 12.5889C7.65342 12.7823 7.42739 12.8828 7.19946 12.8828C7.01795 12.8828 6.83517 12.8194 6.68481 12.6895C5.46961 11.6362 4.80005 10.2421 4.80005 8.76465C4.80011 7.28734 5.46971 5.89406 6.68481 4.84082ZM12.1877 4.94043C12.4717 4.59372 12.9773 4.54682 13.3157 4.84082C14.5307 5.89405 15.2004 7.28739 15.2004 8.76465C15.2004 10.2421 14.5309 11.6362 13.3157 12.6895C13.1653 12.8195 12.9826 12.8828 12.801 12.8828C12.573 12.8828 12.3461 12.7824 12.1877 12.5889C11.9034 12.2413 11.948 11.7217 12.2854 11.4287C13.1332 10.6942 13.5999 9.74699 13.5999 8.76465C13.5998 7.7823 13.1332 6.83511 12.2854 6.10059C11.9479 5.80748 11.9032 5.28796 12.1877 4.94043ZM10.0004 9.5882C9.55884 9.5882 9.20044 9.21925 9.20044 8.76466C9.20044 8.31007 9.55884 7.94113 10.0004 7.94113C10.442 7.94113 10.8004 8.31007 10.8004 8.76466C10.8004 9.21925 10.442 9.5882 10.0004 9.5882ZM7.60034 8.7647C7.60034 7.40258 8.67714 6.29411 10.0003 6.29411C11.3235 6.29411 12.4003 7.40258 12.4003 8.7647C12.4003 9.84683 11.7163 10.7593 10.7723 11.092C10.7755 11.1093 10.7799 11.126 10.7844 11.1426C10.7924 11.1726 10.8003 11.2024 10.8003 11.2353V16.1765C10.8003 16.6319 10.4427 17 10.0003 17C9.55794 17 9.20034 16.6319 9.20034 16.1765V11.2353C9.20034 11.2024 9.2083 11.1726 9.21632 11.1426C9.22075 11.126 9.22521 11.1093 9.22834 11.092C8.28434 10.7593 7.60034 9.84683 7.60034 8.7647Z" fill="#5C5C5C"/>
</svg>
