<svg width="20" height="20" viewBox="0 0 20 20" fill="none" xmlns="http://www.w3.org/2000/svg">
<path fill-rule="evenodd" clip-rule="evenodd" d="M10.0002 12.1001C8.84239 12.1001 7.90017 11.1578 7.90017 10C7.90017 8.84218 8.84239 7.89995 10.0002 7.89995C11.158 7.89995 12.1003 8.84218 12.1003 10C12.1003 11.1578 11.158 12.1001 10.0002 12.1001ZM9.99994 6.49996C8.07 6.49996 6.49986 8.07009 6.49986 10C6.49986 11.93 8.07 13.5001 9.99994 13.5001C11.9299 13.5001 13.5 11.93 13.5 10C13.5 8.07009 11.9299 6.49996 9.99994 6.49996ZM9.99994 15.6002C6.91217 15.6002 4.39981 13.0878 4.39981 10C4.39981 6.91227 6.91217 4.39991 9.99994 4.39991C13.0877 4.39991 15.6001 6.91227 15.6001 10C15.6001 13.0878 13.0877 15.6002 9.99994 15.6002ZM9.99992 2.99988C6.14003 2.99988 2.99976 6.14015 2.99976 10C2.99976 13.8599 6.14003 17.0002 9.99992 17.0002C13.8598 17.0002 17.0001 13.8599 17.0001 10C17.0001 6.14015 13.8598 2.99988 9.99992 2.99988Z" fill="#5C5C5C"/>
</svg>
