<svg width="20" height="20" viewBox="0 0 20 20" fill="none" xmlns="http://www.w3.org/2000/svg">
<path d="M9.2998 2C9.6868 2 9.99985 2.37628 10 2.8418C10 3.30747 9.6869 3.68457 9.2998 3.68457H7.57031C6.98097 3.68464 6.5 4.28497 6.5 5.02344V15.125L7.40527 14.0361C7.67892 13.7078 8.12082 13.7079 8.39453 14.0361C8.53103 14.2003 8.60059 14.4163 8.60059 14.6318C8.6005 14.8473 8.53094 15.0625 8.39453 15.2266L6.29492 17.7529C6.02126 18.0821 5.57937 18.0821 5.30566 17.7529L3.20508 15.2266C2.93161 14.8982 2.93155 14.3653 3.20508 14.0361C3.47877 13.7077 3.92162 13.7077 4.19531 14.0361L5.10059 15.125V5.02344C5.10059 3.35698 6.20818 2.00007 7.57031 2H9.2998ZM13.7051 2.24707C13.9788 1.91781 14.4216 1.91781 14.6953 2.24707L16.7949 4.77344C16.9312 4.93752 16.9999 5.1528 17 5.36816C17 5.58371 16.9314 5.79967 16.7949 5.96387C16.5212 6.29313 16.0784 6.29313 15.8047 5.96387L14.9004 4.875V14.9766C14.9004 16.6439 13.7919 18 12.4297 18H10.7002C10.3132 18 10.0002 17.6237 10 17.1582C10 16.6925 10.3131 16.3154 10.7002 16.3154H12.4297C13.0198 16.3154 13.5 15.7151 13.5 14.9766V4.875L12.5947 5.96387C12.3211 6.29303 11.8792 6.29298 11.6055 5.96387C11.3318 5.63461 11.3318 5.1027 11.6055 4.77344L13.7051 2.24707Z" fill="#5C5C5C"/>
</svg>
