<svg width="20" height="20" viewBox="0 0 20 20" fill="none" xmlns="http://www.w3.org/2000/svg">
<path d="M18 9.2998C18 9.6868 17.6237 9.99985 17.1582 10C16.6925 10 16.3154 9.6869 16.3154 9.2998L16.3154 7.57031C16.3154 6.98097 15.715 6.5 14.9766 6.5L4.875 6.5L5.96387 7.40527C6.29222 7.67891 6.29208 8.12082 5.96387 8.39453C5.79966 8.53103 5.58374 8.60059 5.36816 8.60059C5.15272 8.6005 4.93754 8.53094 4.77344 8.39453L2.24707 6.29492C1.91785 6.02126 1.91794 5.57937 2.24707 5.30566L4.77344 3.20508C5.10183 2.93161 5.63468 2.93155 5.96387 3.20508C6.29228 3.47877 6.29228 3.92162 5.96387 4.19531L4.875 5.10059L14.9766 5.10059C16.643 5.10059 17.9999 6.20818 18 7.57031L18 9.2998ZM17.7529 13.7051C18.0822 13.9788 18.0822 14.4216 17.7529 14.6953L15.2266 16.7949C15.0625 16.9313 14.8472 16.9999 14.6318 17C14.4163 17 14.2003 16.9314 14.0361 16.7949C13.7069 16.5212 13.7069 16.0784 14.0361 15.8047L15.125 14.9004L5.02344 14.9004C3.35609 14.9004 2 13.7919 2 12.4297L2 10.7002C2 10.3132 2.37627 10.0001 2.8418 10C3.30747 10 3.68457 10.3131 3.68457 10.7002L3.68457 12.4297C3.68457 13.0198 4.28492 13.5 5.02344 13.5L15.125 13.5L14.0361 12.5947C13.707 12.3211 13.707 11.8791 14.0361 11.6055C14.3654 11.3318 14.8973 11.3318 15.2266 11.6055L17.7529 13.7051Z" fill="#5C5C5C"/>
</svg>
