<svg width="20" height="20" viewBox="0 0 20 20" fill="none" xmlns="http://www.w3.org/2000/svg">
<path d="M17.0585 4C17.5761 4 17.9999 4.36562 17.9999 4.8125V16.1875C17.9999 16.6344 17.5761 17 17.0585 17H15.1766C14.659 17 14.2352 16.6344 14.2352 16.1875C14.2352 15.7406 14.659 15.375 15.1766 15.375H16.1171V5.625H15.1766C14.659 5.625 14.2352 5.25937 14.2352 4.8125C14.2352 4.36562 14.659 4 15.1766 4H17.0585ZM8.96472 6.60059C9.38257 6.33169 9.97057 6.40446 10.2821 6.7627L13.1053 10.0127C13.35 10.2938 13.3582 10.6793 13.1229 10.9678L10.4745 14.2178C10.291 14.4428 9.99947 14.5625 9.703 14.5625C9.51675 14.5624 9.32758 14.5149 9.16296 14.415C8.7376 14.1567 8.63517 13.6495 8.93445 13.2822L10.5516 11.2979C10.5235 11.3003 10.4987 11.3124 10.4706 11.3125H2.94128C2.42176 11.3125 1.99988 10.9485 1.99988 10.5C2.00007 10.0508 2.42188 9.6875 2.94128 9.6875H10.4716L8.77625 7.7373C8.46472 7.37899 8.54873 6.86952 8.96472 6.60059Z" fill="#5C5C5C"/>
</svg>
