<svg width="20" height="20" viewBox="0 0 20 20" fill="none" xmlns="http://www.w3.org/2000/svg">
<path d="M4.82312 4C5.34076 4 5.76453 4.36562 5.76453 4.8125C5.76453 5.25937 5.34076 5.625 4.82312 5.625H3.88171V15.375H4.82312C5.34076 15.375 5.76453 15.7406 5.76453 16.1875C5.76453 16.6344 5.34076 17 4.82312 17H2.94128C2.42365 17 1.99988 16.6344 1.99988 16.1875V4.8125C1.99988 4.36562 2.42365 4 2.94128 4H4.82312ZM13.869 6.58496C14.2933 6.32614 14.8803 6.41534 15.1796 6.78223L17.828 10.0322C18.0633 10.3198 18.056 10.7062 17.8114 10.9873L14.9872 14.2373C14.8028 14.4499 14.5201 14.5624 14.2343 14.5625C14.0385 14.5625 13.8392 14.5091 13.6698 14.3994C13.2541 14.1304 13.1699 13.6209 13.4813 13.2627L15.1766 11.3125H7.64636C7.12702 11.3124 6.70604 10.9492 6.70593 10.5C6.70593 10.0508 7.12695 9.68761 7.64636 9.6875H15.1757C15.2039 9.6875 15.2285 9.69969 15.2567 9.70215L13.6395 7.7168C13.3406 7.35038 13.4437 6.84326 13.869 6.58496Z" fill="#5C5C5C"/>
</svg>
