<svg width="20" height="20" viewBox="0 0 20 20" fill="none" xmlns="http://www.w3.org/2000/svg">
<path d="M5.94214 8.14233C4.83081 9.84641 5.0105 12.1708 6.4812 13.6687C7.28843 14.4914 8.36053 14.944 9.49976 14.9441H9.50171C10.3906 14.9433 11.2348 14.6607 11.948 14.1482L13.0603 15.2605C12.0447 16.0614 10.8081 16.4989 9.50171 16.4998H9.49976C7.93892 16.4997 6.47287 15.8815 5.37085 14.7585C3.30435 12.6539 3.12771 9.34737 4.82788 7.02808L5.94214 8.14233ZM2.72827 2.72827C3.03238 2.4242 3.52379 2.42418 3.82788 2.72827L16.2712 15.1726C16.5753 15.4767 16.5753 15.9681 16.2712 16.2722C16.1196 16.4236 15.9204 16.4998 15.7214 16.4998C15.5225 16.4997 15.3232 16.4238 15.1716 16.2722L2.72827 3.82788C2.42417 3.52377 2.42417 3.03238 2.72827 2.72827ZM9.49683 2.49976C9.70527 2.49976 9.9053 2.5846 10.0515 2.73315L13.6287 6.37964C15.3099 8.09305 15.7427 10.6038 14.9285 12.7292L13.6775 11.4773C13.9675 10.075 13.5844 8.55499 12.5173 7.46851L9.49683 4.3894L8.05737 5.85913L6.95776 4.75854L8.94116 2.73413C9.08731 2.58489 9.28676 2.49984 9.49585 2.49976H9.49683Z" fill="#5C5C5C"/>
</svg>
