<svg width="20" height="20" viewBox="0 0 20 20" fill="none" xmlns="http://www.w3.org/2000/svg">
<path fill-rule="evenodd" clip-rule="evenodd" d="M10.0595 4.15906L6.4078 7.64878C4.37553 9.5892 4.34845 12.7678 6.3443 14.7349C7.30533 15.6833 8.58857 16.2113 9.95587 16.222H9.95774C11.326 16.2318 12.6186 15.7242 13.5955 14.7909C15.6259 12.854 15.6529 9.67631 13.6562 7.70745L10.0595 4.15906ZM9.94088 17.9998C8.06645 17.9847 6.31249 17.2638 5.0003 15.9696C2.30212 13.3101 2.33855 9.01592 5.08155 6.3964L9.40853 2.26224C9.58598 2.09336 9.82694 1.99825 10.0782 2.00002C10.3294 2.00269 10.5685 2.10136 10.7422 2.27202L15.001 6.47374C17.6982 9.13414 17.6618 13.4292 14.9188 16.046C13.5842 17.3207 11.8172 18.014 9.94275 17.9998H9.94088Z" fill="#5C5C5C"/>
</svg>
