<svg width="20" height="20" viewBox="0 0 20 20" fill="none" xmlns="http://www.w3.org/2000/svg">
<path d="M5.33386 8.40039C5.76375 8.40065 6.11121 8.75875 6.11121 9.2002C6.11131 11.4057 7.85569 13.2002 9.99988 13.2002C10.2813 13.2002 10.5551 13.1656 10.8202 13.1064L12.0594 14.3809C11.6542 14.5521 11.2229 14.669 10.7772 14.7354V16.4004H12.3329C12.7607 16.4004 13.1112 16.7602 13.1112 17.2002C13.1111 17.6401 12.7606 18 12.3329 18H7.66687C7.23917 18 6.88865 17.6401 6.88855 17.2002C6.88855 16.7602 7.2391 16.4004 7.66687 16.4004H9.22253V14.7363C6.58833 14.3459 4.55563 12.0161 4.55554 9.2002C4.55554 8.7586 4.90376 8.40039 5.33386 8.40039ZM3.22839 3.03418C3.53251 2.72167 4.02399 2.72149 4.328 3.03418L16.7723 15.834C17.0764 16.1467 17.0763 16.653 16.7723 16.9658C16.6207 17.1218 16.4207 17.2002 16.2216 17.2002C16.0226 17.2001 15.8233 17.1217 15.6718 16.9658L3.22839 4.16602C2.92429 3.85322 2.92429 3.34698 3.22839 3.03418ZM10.1219 12.3877C10.0815 12.3893 10.0419 12.4004 9.99988 12.4004C8.28434 12.4002 6.88962 10.9648 6.88953 9.2002V9.0625L10.1219 12.3877ZM14.6669 8.40039C15.097 8.40041 15.4442 8.75861 15.4442 9.2002C15.4442 10.3712 15.0924 11.4583 14.4921 12.3574L13.3544 11.1875C13.6857 10.6004 13.8895 9.92732 13.8895 9.2002C13.8895 8.7586 14.2368 8.40039 14.6669 8.40039ZM9.99988 2C11.7155 2.00013 13.1102 3.43547 13.1102 5.2002V9.2002C13.1102 9.70488 12.986 10.1759 12.7831 10.6006L11.5428 9.3252C11.546 9.28366 11.5555 9.24332 11.5555 9.2002V5.2002C11.5555 4.31787 10.8576 3.59974 9.99988 3.59961C9.14201 3.59961 8.44421 4.3178 8.44421 5.2002V6.1377L6.94812 4.59863C7.22345 3.12103 8.48481 2 9.99988 2Z" fill="#5C5C5C"/>
</svg>
