<svg width="20" height="20" viewBox="0 0 20 20" fill="none" xmlns="http://www.w3.org/2000/svg">
<g clip-path="url(#clip0_559_42548)">
<path fill-rule="evenodd" clip-rule="evenodd" d="M11 14.7359V16.3999H13.105C13.598 16.3999 14 16.7215 14 17.1159V17.2847C14 17.6783 13.598 17.9999 13.105 17.9999H6.895C6.402 17.9999 6 17.6783 6 17.2847V17.1159C6 16.7215 6.402 16.3999 6.895 16.3999H9V14.7359C5.613 14.3455 3 12.0159 3 9.19991C3 8.75831 3.447 8.39991 4 8.39991C4.553 8.39991 5 8.75831 5 9.19991C5 11.4055 7.243 13.1999 10 13.1999C12.757 13.1999 15 11.4055 15 9.19991C15 8.75831 15.447 8.39991 16 8.39991C16.553 8.39991 17 8.75831 17 9.19991C17 12.0159 14.387 14.3455 11 14.7359ZM8 5.19991C8 4.31751 8.897 3.59991 10 3.59991C11.103 3.59991 12 4.31751 12 5.19991V9.19991C12 10.0823 11.103 10.7999 10 10.7999C8.897 10.7999 8 10.0823 8 9.19991V5.19991ZM10 12.3999C12.206 12.3999 14 10.9647 14 9.19991V5.19991C14 3.43591 12.206 1.99991 10 1.99991C7.794 1.99991 6 3.43591 6 5.19991V9.19991C6 10.9647 7.794 12.3999 10 12.3999Z" fill="#5C5C5C"/>
</g>
<defs>
<clipPath id="clip0_559_42548">
<rect width="14" height="16" fill="white" transform="translate(3 2)"/>
</clipPath>
</defs>
</svg>
