<svg width="20" height="20" viewBox="0 0 20 20" fill="none" xmlns="http://www.w3.org/2000/svg">
<path fill-rule="evenodd" clip-rule="evenodd" d="M8.38476 16.4H10.5386V11.44C10.5386 10.9976 11.02 10.64 11.6155 10.64H14.0278L14.507 9.36004H11.6155C11.02 9.36004 10.5386 9.00244 10.5386 8.56004V6.40004C10.5386 5.56164 11.5046 4.88004 12.6924 4.88004H14.8463V3.60004H12.6924C10.3168 3.60004 8.38476 4.85604 8.38476 6.40004V8.56004C8.38476 9.00244 7.90338 9.36004 7.30785 9.36004H5.15401V10.64H7.30785C7.90338 10.64 8.38476 10.9976 8.38476 11.44V16.4ZM11.6155 18H7.30779C6.71226 18 6.23087 17.6424 6.23087 17.2V12.24H4.07704C3.4815 12.24 3.00012 11.8824 3.00012 11.44V8.56C3.00012 8.1176 3.4815 7.76 4.07704 7.76H6.23087V6.4C6.23087 3.9744 9.12886 2 12.6924 2H15.9231C16.5187 2 17 2.3576 17 2.8V5.68C17 6.1216 16.5187 6.48 15.9231 6.48H12.6924V7.76H15.9231C16.2591 7.76 16.5768 7.8776 16.7804 8.076C16.9839 8.2752 17.0507 8.5336 16.9613 8.7744L15.8844 11.6536C15.7551 12 15.3298 12.24 14.8462 12.24H12.6924V17.2C12.6924 17.6424 12.211 18 11.6155 18Z" fill="#5C5C5C"/>
</svg>
