<svg width="20" height="20" viewBox="0 0 20 20" fill="none" xmlns="http://www.w3.org/2000/svg">
<path fill-rule="evenodd" clip-rule="evenodd" d="M10.0022 4.40009C8.47477 4.40009 7.04815 5.00282 5.98413 6.09837C4.92011 7.19253 4.3587 8.6367 4.4028 10.1649C4.48471 13.0378 6.88715 15.4732 9.75719 15.595C12.8246 15.7162 15.4406 13.3465 15.5967 10.2937C15.6016 10.2041 15.6009 9.80856 15.5995 9.44034H10.698V10.5478H14.4144L14.1309 11.4564C13.6262 13.0763 12.3465 14.188 10.7078 14.4302C9.48559 14.6073 8.21227 14.258 7.21615 13.462C6.23824 12.6829 5.62503 11.5502 5.53262 10.3539C5.43602 9.08892 5.85393 7.88346 6.71214 6.95731C7.87836 5.69725 9.76349 5.21213 11.3791 5.73645L11.9202 4.7361C11.3077 4.51279 10.6644 4.40009 10.0022 4.40009ZM9.99741 17C9.89871 17 9.79861 16.9979 9.6985 16.9937C6.10884 16.8418 3.10579 13.7966 3.00289 10.2048C2.94899 8.29506 3.6504 6.49037 4.97972 5.12251C6.31045 3.75394 8.09338 3 10.0023 3C11.0061 3 11.9763 3.20861 12.8857 3.61953C13.1384 3.73364 13.3351 3.95065 13.424 4.21526C13.5143 4.48337 13.4891 4.78019 13.3547 5.0287L12.4502 6.69758C12.2045 7.15401 11.6501 7.35002 11.1657 7.14771C10.0086 6.67658 8.59458 6.9846 7.73917 7.90865C7.14976 8.54498 6.86206 9.37522 6.92856 10.2461C6.99156 11.0567 7.41437 11.8295 8.08918 12.3679C8.78499 12.923 9.6684 13.1701 10.5028 13.0455C11.2728 12.9314 11.9112 12.545 12.3452 11.9478H10.3131C9.7538 11.9478 9.2981 11.4928 9.2981 10.9328V9.0553C9.2981 8.49597 9.7538 8.04025 10.3131 8.04025H15.9832C16.5383 8.04025 16.994 8.49177 16.9982 9.0469C17.0003 9.48862 17.0017 10.2356 16.9954 10.3644C16.8043 14.083 13.6942 17 9.99741 17Z" fill="#5C5C5C"/>
</svg>
