<svg width="20" height="20" viewBox="0 0 20 20" fill="none" xmlns="http://www.w3.org/2000/svg">
<path fill-rule="evenodd" clip-rule="evenodd" d="M4.39996 8.85701H4.39856L4.39996 16.4759H5.79997V8.85701H4.39996ZM5.80014 17.9997H4.40013C3.62803 17.9997 3.00012 17.3163 3.00012 16.4759V8.85699C3.00012 8.01663 3.62803 7.33321 4.40013 7.33321H5.80014C6.57224 7.33321 7.20014 8.01663 7.20014 8.85699V16.4759C7.20014 17.3163 6.57224 17.9997 5.80014 17.9997ZM12.4534 10.1464C12.5605 10.1464 12.669 10.1563 12.7761 10.1746C13.7211 10.343 14.4331 11.2923 14.4331 12.3841V16.4762H15.6V12.3147C15.6 10.4085 14.1874 8.85729 12.4499 8.85729C10.7132 8.85729 9.29993 10.4085 9.29993 12.3147V16.4762H10.4668V12.3147C10.4668 11.6755 10.7223 11.0721 11.1689 10.6592C11.5301 10.3255 11.9844 10.1464 12.4534 10.1464ZM15.6001 18H14.4332C13.6618 18 13.0332 17.3158 13.0332 16.4762V12.3841C13.0332 12.0359 12.821 11.7266 12.5515 11.6794C12.3163 11.6352 12.1525 11.7495 12.0762 11.8196C11.9432 11.943 11.8669 12.1236 11.8669 12.3148V16.4762C11.8669 17.3158 11.239 18 10.4669 18H9.30003C8.52863 18 7.90002 17.3158 7.90002 16.4762V12.3148C7.90002 9.56741 9.94123 7.33355 12.45 7.33355C14.9589 7.33355 17.0001 9.56741 17.0001 12.3148V16.4762C17.0001 17.3158 16.3722 18 15.6001 18ZM5.10003 3.5238C4.71363 3.5238 4.40002 3.86513 4.40002 4.28569C4.40002 4.70625 4.71363 5.04758 5.10003 5.04758C5.48643 5.04758 5.80003 4.70625 5.80003 4.28569C5.80003 3.86513 5.48643 3.5238 5.10003 3.5238ZM5.10013 6.57134C3.94233 6.57134 3.00012 5.54584 3.00012 4.28567C3.00012 3.0255 3.94233 2 5.10013 2C6.25794 2 7.20014 3.0255 7.20014 4.28567C7.20014 5.54584 6.25794 6.57134 5.10013 6.57134Z" fill="#5C5C5C"/>
</svg>
