<svg width="20" height="20" viewBox="0 0 20 20" fill="none" xmlns="http://www.w3.org/2000/svg">
<path fill-rule="evenodd" clip-rule="evenodd" d="M16.2358 5.32231V5.32406V5.32231ZM6.90022 15.2474C6.92155 15.2474 6.94466 15.2483 6.96599 15.25C12.0283 15.2176 15.0496 11.4105 15.0496 7.7303C15.0496 7.39605 15.2238 7.17992 15.3785 6.9883C15.519 6.8133 15.7367 6.5438 15.9305 6.1553C15.2256 6.1483 14.5963 5.8403 14.2301 5.41856C13.8469 5.01518 13.2967 4.76843 12.7029 4.75093C12.1305 4.72818 11.5465 4.94518 11.1127 5.35031C10.5349 5.89018 10.2878 6.7048 10.4674 7.4748L10.6994 8.47142L9.66291 8.54317C6.98199 8.74092 5.1242 7.6113 3.84863 6.4423C3.85397 8.2098 4.45042 10.5679 7.16155 12.0887L8.01311 12.5664L7.44689 13.3548C6.85755 14.1764 5.97043 14.7005 5.06731 15.0356C5.66376 15.1756 6.2771 15.2474 6.88866 15.2474H6.89933H6.90022ZM6.90016 17C6.87705 17 6.85216 16.9991 6.82905 16.9974C5.40414 16.9878 3.9748 16.6614 2.69123 16.0498C2.20856 15.8188 1.93567 15.313 2.013 14.788C2.09123 14.2569 2.50545 13.8404 3.04235 13.7546C3.97124 13.6041 4.74192 13.3364 5.30014 12.9785C1.85389 10.4419 1.94456 6.64442 2.16767 5.03617C2.23345 4.56542 2.5739 4.17255 3.03435 4.03518C3.50191 3.89518 3.98635 4.03518 4.30636 4.39305C5.6717 5.91642 7.03616 6.68204 8.63617 6.79842C8.6824 5.77904 9.12329 4.79642 9.88863 4.08068C10.6682 3.3518 11.6878 2.97031 12.758 3.00181C13.8291 3.03418 14.8229 3.47868 15.5553 4.25305C15.63 4.33705 15.9091 4.4893 16.246 4.34055C16.6878 4.14543 17.19 4.21018 17.5563 4.51117C17.9216 4.80955 18.0771 5.27942 17.9634 5.73704C17.6763 6.90166 17.1091 7.65241 16.8229 8.01204C16.6736 12.4789 12.9864 17 6.90016 17Z" fill="#5C5C5C"/>
</svg>
