<svg width="20" height="20" viewBox="0 0 20 20" fill="none" xmlns="http://www.w3.org/2000/svg">
<path fill-rule="evenodd" clip-rule="evenodd" d="M11.6164 10.2899L10.6994 11.1649V7.19993C10.6994 6.81351 10.3865 6.49989 9.99937 6.49989C9.61296 6.49989 9.29934 6.81351 9.29934 7.19993V11.1103L8.3942 10.2052C8.12119 9.93145 7.67807 9.93145 7.40435 10.2052C7.13134 10.4789 7.13134 10.9213 7.40435 11.195L9.50445 13.2944C9.56885 13.3595 9.64656 13.4106 9.73196 13.4463C9.81737 13.482 9.90837 13.5002 9.99937 13.5002C10.0897 13.5002 10.1793 13.4813 10.2633 13.447C10.306 13.4295 10.3396 13.3994 10.3767 13.3742C10.4124 13.3511 10.4516 13.3371 10.4831 13.307L12.5832 11.3028C12.8625 11.0361 12.873 10.593 12.6063 10.313C12.3389 10.033 11.8965 10.0232 11.6164 10.2899ZM9.99961 15.6002C6.91177 15.6002 4.39935 13.0878 4.39935 9.99998C4.39935 6.91214 6.91177 4.39972 9.99961 4.39972C13.0875 4.39972 15.5999 6.91214 15.5999 9.99998C15.5999 13.0878 13.0875 15.6002 9.99961 15.6002ZM9.99971 2.99966C6.13974 2.99966 2.99939 6.14001 2.99939 9.99999C2.99939 13.86 6.13974 17.0003 9.99971 17.0003C13.8597 17.0003 17 13.86 17 9.99999C17 6.14001 13.8597 2.99966 9.99971 2.99966Z" fill="#5C5C5C"/>
</svg>
