<svg width="20" height="20" viewBox="0 0 20 20" fill="none" xmlns="http://www.w3.org/2000/svg">
<path fill-rule="evenodd" clip-rule="evenodd" d="M12.8001 9.3H8.83532L9.71032 8.383C9.97702 8.1037 9.96652 7.6606 9.68722 7.3932C9.40722 7.1272 8.96482 7.137 8.69742 7.417L6.69332 9.517C6.66672 9.545 6.65482 9.58 6.63312 9.6115C6.60442 9.6528 6.57222 9.6906 6.55332 9.7382C6.52742 9.8019 6.51902 9.8684 6.51342 9.9363C6.51132 9.958 6.50012 9.9776 6.50012 10C6.50012 10.0014 6.50082 10.0021 6.50082 10.0035C6.50152 10.0945 6.51902 10.1848 6.55472 10.2702C6.58972 10.3549 6.64152 10.4312 6.70522 10.4956L8.80522 12.5949C8.94172 12.7314 9.12092 12.8 9.30012 12.8C9.47932 12.8 9.65852 12.7314 9.79502 12.5949C10.0687 12.3212 10.0687 11.8788 9.79502 11.6051L8.88992 10.7H12.8001C13.1865 10.7 13.5001 10.3864 13.5001 10C13.5001 9.6136 13.1865 9.3 12.8001 9.3ZM9.99978 15.6C6.91208 15.6 4.39978 13.0877 4.39978 10C4.39978 6.9123 6.91208 4.4 9.99978 4.4C13.0875 4.4 15.5998 6.9123 15.5998 10C15.5998 13.0877 13.0875 15.6 9.99978 15.6ZM10.0001 3C6.14032 3 3.00012 6.1402 3.00012 10C3.00012 13.8598 6.14032 17 10.0001 17C13.8599 17 17.0001 13.8598 17.0001 10C17.0001 6.1402 13.8599 3 10.0001 3Z" fill="#5C5C5C"/>
</svg>
