<svg width="20" height="20" viewBox="0 0 20 20" fill="none" xmlns="http://www.w3.org/2000/svg">
<path fill-rule="evenodd" clip-rule="evenodd" d="M13.4994 10.0038C13.4994 10.0024 13.5001 10.0017 13.5001 10.0003C13.5001 9.97718 13.4889 9.95828 13.4868 9.93588C13.4812 9.86868 13.4728 9.80148 13.4469 9.73848C13.428 9.69088 13.3958 9.65308 13.3671 9.61108C13.3454 9.58028 13.3335 9.54458 13.3069 9.51658L11.3028 7.41658C11.0354 7.13658 10.593 7.12678 10.313 7.39348C10.0337 7.66018 10.0232 8.10328 10.2899 8.38328L11.1649 9.30028H7.20012C6.81372 9.30028 6.50012 9.61318 6.50012 10.0003C6.50012 10.3867 6.81372 10.7003 7.20012 10.7003H11.1103L10.2052 11.6054C9.93152 11.8784 9.93152 12.3215 10.2052 12.5952C10.3417 12.7317 10.5209 12.8003 10.7001 12.8003C10.8793 12.8003 11.0585 12.7317 11.195 12.5952L13.295 10.4952C13.3587 10.4315 13.4105 10.3545 13.4455 10.2698C13.4812 10.1851 13.4987 10.0948 13.4994 10.0038ZM9.99978 15.6C6.91208 15.6 4.39978 13.0877 4.39978 10C4.39978 6.9123 6.91208 4.4 9.99978 4.4C13.0875 4.4 15.5998 6.9123 15.5998 10C15.5998 13.0877 13.0875 15.6 9.99978 15.6ZM10.0001 3C6.14032 3 3.00012 6.1402 3.00012 10C3.00012 13.8598 6.14032 17 10.0001 17C13.8599 17 17.0001 13.8598 17.0001 10C17.0001 6.1402 13.8599 3 10.0001 3Z" fill="#5C5C5C"/>
</svg>
