<svg width="20" height="20" viewBox="0 0 20 20" fill="none" xmlns="http://www.w3.org/2000/svg">
<path fill-rule="evenodd" clip-rule="evenodd" d="M10.495 6.70545C10.4313 6.64105 10.3543 6.58995 10.2696 6.55495C10.1849 6.51925 10.0946 6.50105 10.0036 6.50105C10.0022 6.50105 10.0008 6.50035 9.99944 6.50035C9.97425 6.50035 9.95325 6.51155 9.92805 6.51435C9.86365 6.52135 9.79925 6.52835 9.73835 6.55285C9.69005 6.57245 9.65085 6.60535 9.60815 6.63475C9.57805 6.65575 9.54375 6.66765 9.51645 6.69355L7.41644 8.69695C7.13715 8.96435 7.12665 9.40675 7.39334 9.68675C7.66075 9.96675 8.10315 9.97655 8.38314 9.70985L9.29945 8.83555V12.8004C9.29945 13.1868 9.61305 13.5004 9.99944 13.5004C10.3865 13.5004 10.6994 13.1868 10.6994 12.8004V8.89015L11.6045 9.79525C11.7417 9.93175 11.9209 10.0004 12.0994 10.0004C12.2786 10.0004 12.4578 9.93175 12.595 9.79525C12.868 9.52155 12.868 9.07845 12.595 8.80545L10.495 6.70545ZM9.99978 15.6C6.91208 15.6 4.39978 13.0877 4.39978 10C4.39978 6.9123 6.91208 4.4 9.99978 4.4C13.0875 4.4 15.5998 6.9123 15.5998 10C15.5998 13.0877 13.0875 15.6 9.99978 15.6ZM10.0001 3C6.14032 3 3.00012 6.1402 3.00012 10C3.00012 13.8598 6.14032 17 10.0001 17C13.8599 17 17.0001 13.8598 17.0001 10C17.0001 6.1402 13.8599 3 10.0001 3Z" fill="#5C5C5C"/>
</svg>
