<svg width="20" height="20" viewBox="0 0 20 20" fill="none" xmlns="http://www.w3.org/2000/svg">
<path d="M16.1267 3.01855C16.608 3.02118 16.9978 3.41231 16.9978 3.89355L16.9998 7.64355C16.9998 8.12655 16.6087 8.51866 16.1257 8.51953H16.1248C15.642 8.51932 15.2498 8.12737 15.2498 7.64453V5.98828L4.4939 16.7432C4.32327 16.9138 4.09875 17 3.87476 17C3.65091 16.9999 3.4271 16.9137 3.25659 16.7432C2.91466 16.401 2.91453 15.847 3.25659 15.5059L8.75757 10.0049L3.65503 4.90332C3.31291 4.5612 3.31291 4.00726 3.65503 3.66602C3.99716 3.32398 4.55024 3.32392 4.89233 3.66602L9.99487 8.76758L14.0046 4.75781L12.3513 4.75C11.8685 4.74738 11.4779 4.35387 11.4802 3.87109C11.4828 3.3881 11.8981 3.00875 12.3601 3L16.1267 3.01855ZM11.5691 11.5693C11.9112 11.2272 12.4651 11.2272 12.8064 11.5693L15.241 14.0039L15.2498 12.3398C15.2524 11.8578 15.6436 11.4689 16.1248 11.4688H16.1296C16.6134 11.4715 17.0024 11.8657 16.9998 12.3486L16.9812 16.0303C17.0092 16.2847 16.9396 16.5481 16.7439 16.7432C16.5733 16.9138 16.3488 17 16.1248 17C16.1014 16.9999 16.0788 16.989 16.0554 16.9863L12.3562 16.9883C11.8733 16.9882 11.4812 16.5962 11.4812 16.1133C11.4814 15.6305 11.8725 15.2384 12.3552 15.2383L13.9998 15.2373L11.5691 12.8057C11.2271 12.4636 11.2271 11.9106 11.5691 11.5693Z" fill="#5C5C5C"/>
</svg>
