<svg width="20" height="20" viewBox="0 0 20 20" fill="none" xmlns="http://www.w3.org/2000/svg">
<path d="M9.37244 3.37695C9.60905 2.87472 10.3907 2.87472 10.6273 3.37695L12.4105 7.16309L16.4008 7.77441C16.6647 7.81504 16.885 8.01022 16.9662 8.27832C17.0479 8.54627 16.9788 8.83955 16.7865 9.03516L13.9027 11.9785L14.5834 16.1357C14.6281 16.4126 14.5206 16.693 14.3051 16.8584C14.1841 16.9527 14.0393 16.9999 13.8939 17C13.7826 17 13.6712 16.9721 13.5697 16.916L10.0004 14.9482L6.43103 16.916C6.19447 17.046 5.9082 17.0237 5.6947 16.8584C5.47911 16.693 5.37259 16.4127 5.41736 16.1357L6.09705 11.9785L3.21326 9.03516C3.02106 8.83957 2.95196 8.54617 3.03357 8.27832C3.11477 8.01022 3.33509 7.81504 3.599 7.77441L7.59021 7.16309L9.37244 3.37695Z" fill="#5C5C5C"/>
</svg>
