<svg width="20" height="20" viewBox="0 0 20 20" fill="none" xmlns="http://www.w3.org/2000/svg">
<path d="M9.37256 3.37732C9.60917 2.87509 10.3908 2.87509 10.6274 3.37732L12.4106 7.16345L16.4009 7.77478C16.6647 7.81548 16.8851 8.01066 16.9663 8.27869C17.0478 8.54654 16.9789 8.84 16.7866 9.03552L13.9028 11.9789L14.5835 16.1361C14.6281 16.4129 14.5206 16.6934 14.3052 16.8588C14.1843 16.953 14.0393 17.0003 13.894 17.0004C13.7829 17.0004 13.6712 16.9724 13.5698 16.9164L10.0005 14.9486L6.43115 16.9164C6.1947 17.0463 5.90829 17.0239 5.69482 16.8588C5.47931 16.6934 5.37283 16.413 5.41748 16.1361L6.09717 11.9789L3.21338 9.03552C3.02124 8.83999 2.9522 8.54647 3.03369 8.27869C3.1149 8.01058 3.33521 7.8154 3.59912 7.77478L7.59033 7.16345L9.37256 3.37732ZM8.6792 8.16638C8.57698 8.38346 8.3803 8.53304 8.15283 8.56775L5.21045 9.0199L7.33643 11.1888C7.50285 11.3594 7.57936 11.6045 7.53955 11.8451L7.0376 14.9154L9.67529 13.4603C9.7767 13.405 9.88831 13.3774 9.99951 13.3773C10.1107 13.3773 10.2223 13.405 10.3237 13.4603L12.9624 14.9154L12.4604 11.8451C12.4206 11.6044 12.497 11.3594 12.6636 11.1888L14.7886 9.0199L11.8462 8.56775C11.6188 8.53293 11.422 8.3834 11.3198 8.16638L9.99951 5.36462L8.6792 8.16638Z" fill="#5C5C5C"/>
</svg>
