<svg width="20" height="20" viewBox="0 0 20 20" fill="none" xmlns="http://www.w3.org/2000/svg">
<path fill-rule="evenodd" clip-rule="evenodd" d="M11.8944 8.1051C11.6207 7.8314 11.1783 7.8314 10.9046 8.1051L9.99949 9.0102L9.0944 8.1051C8.8207 7.8314 8.3783 7.8314 8.1046 8.1051C7.8309 8.3788 7.8309 8.8212 8.1046 9.09489L9.0097 9.99999L8.1046 10.9051C7.8309 11.1788 7.8309 11.6212 8.1046 11.8949C8.2411 12.0314 8.4203 12.1 8.5995 12.1C8.7787 12.1 8.9579 12.0314 9.0944 11.8949L9.99949 10.9898L10.9046 11.8949C11.0411 12.0314 11.2203 12.1 11.3995 12.1C11.5787 12.1 11.7579 12.0314 11.8944 11.8949C12.1681 11.6212 12.1681 11.1788 11.8944 10.9051L10.9893 9.99999L11.8944 9.09489C12.1681 8.8212 12.1681 8.3788 11.8944 8.1051ZM9.99946 15.6C6.91176 15.6 4.39946 13.0877 4.39946 9.99998C4.39946 6.91229 6.91176 4.39999 9.99946 4.39999C13.0872 4.39999 15.5994 6.91229 15.5994 9.99998C15.5994 13.0877 13.0872 15.6 9.99946 15.6ZM9.99975 3C6.13995 3 2.99976 6.1402 2.99976 9.99999C2.99976 13.8598 6.13995 17 9.99975 17C13.8595 17 16.9997 13.8598 16.9997 9.99999C16.9997 6.1402 13.8595 3 9.99975 3Z" fill="#5C5C5C"/>
</svg>
